<svg width="148" height="69" viewBox="0 0 148 69" fill="none" xmlns="http://www.w3.org/2000/svg">
<path d="M19.8637 52.6154L13.085 59.3941L19.8637 66.1728L26.6424 59.3941L19.8637 52.6154Z" fill="#2075BC"/>
<path d="M56.3877 0.392868L49.9424 6.83818L56.3877 13.2835L62.833 6.83819L56.3877 0.392868Z" fill="#2075BC"/>
<path d="M69.5142 0.390399L63.0688 6.83573L69.5142 13.2811L75.9595 6.83572L69.5142 0.390399Z" fill="#2075BC"/>
<path d="M43.5156 48.2214H46.4184V44.0058C46.4092 46.1876 43.5156 48.2214 43.5156 48.2214Z" fill="#0895CD"/>
<path d="M58.0106 16.7805H51.8167C48.8307 16.7805 46.4087 19.2026 46.4087 22.1886V48.2213H54.7658C56.5592 48.2213 58.0106 46.7699 58.0106 44.9764V20.9868C58.0106 18.8143 60.9134 16.7712 60.9134 16.7712H58.0106V16.7805Z" fill="#0895CD"/>
<path d="M74.7712 16.7805H67.958H65.0552C65.0552 16.7805 67.958 18.8143 67.958 20.996V44.015C67.958 46.1875 65.0552 48.2305 65.0552 48.2305H67.958H76.3151C78.1085 48.2305 79.5599 46.7791 79.5599 44.9857V21.5784C79.5599 18.916 77.4152 16.7805 74.7712 16.7805Z" fill="#09ABB1"/>
<path d="M36.471 16.7805H30.2772C27.2912 16.7805 24.8691 19.2026 24.8691 22.1886V44.015C24.8691 46.1875 21.9663 48.2213 21.9663 48.2213H24.8691H33.2262C35.0196 48.2213 36.471 46.7699 36.471 44.9764V20.9868C36.471 18.8143 39.3738 16.7712 39.3738 16.7712H36.471V16.7805Z" fill="#BA863D"/>
<path d="M14.9217 44.0058V5.80723C14.9217 3.51457 13.0636 1.66565 10.7801 1.66565H3.31977H0.416992C0.416992 1.66565 3.31977 3.69945 3.31977 5.88117V42.8225C3.31977 45.8085 5.74186 48.2305 8.72785 48.2305H14.9217H17.8245C17.8245 48.2213 14.9217 46.1783 14.9217 44.0058Z" fill="#CB203D"/>
<path d="M33.152 64.9262L31.6729 63.4471V61.4133H34.0949V62.8924H37.6726V60.0821H33.1889L31.7283 58.6214V54.6925L33.1889 53.2226H38.5323L40.0114 54.6925V56.8557H37.5894V55.2564H34.1504V58.0482H38.634L40.0946 59.5274V63.4471L38.634 64.9262H33.152Z" fill="white"/>
<path d="M45.0132 53.2226H42.5264V64.917H45.0132V53.2226Z" fill="white"/>
<path d="M47.8418 64.9262V53.2319H54.9324L56.4115 54.6925V57.8819L55.2837 59.0097L56.4947 60.2208V63.4471L55.0156 64.9262H47.8418ZM53.934 55.2564H50.3193V58.15H53.3423L53.934 57.5583V55.2564ZM53.4348 59.9434H50.3286V62.8832H54.0079V60.5351L53.4348 59.9434Z" fill="white"/>
<path d="M57.9551 64.9262V62.6613L61.1629 53.2319H64.5557L67.7636 62.6428V64.9262H65.2768V62.9294L65.0087 62.1251H60.71L60.4419 62.9294V64.9262H57.9551ZM61.2092 60.0821H64.5002L62.8547 55.2749L61.2092 60.0821Z" fill="white"/>
<path d="M70.8234 64.9263L69.3442 63.4471V54.6925L70.8234 53.2319H76.9525L78.4316 54.6925V63.4471L76.9525 64.9263H75.1591L77.1744 67.561V68.282H74.9557L72.5059 64.917H70.8234V64.9263ZM71.831 62.6706H75.9634V55.4598H71.831V62.6706Z" fill="white"/>
<path d="M89.9326 41.7408V35.3713H93.6767L94.749 36.4345V40.6685L93.6767 41.7408H89.9326ZM91.2823 40.5205H93.0758L93.3901 40.2062V36.9152L93.0758 36.5916H91.2823V40.5205Z" fill="white"/>
<path d="M95.5991 41.7408V40.5021L97.3463 35.3713H99.1952L100.942 40.4928V41.7408H99.5835V40.65L99.4356 40.2062H97.0967L96.9488 40.65V41.7408H95.5991ZM97.3741 39.1061H99.1675L98.2708 36.4899L97.3741 39.1061Z" fill="white"/>
<path d="M101.969 41.7408V35.3713H105.796L106.6 36.1664V38.4313L105.981 39.0599L106.637 39.7163V41.7316H105.288V39.9474L104.955 39.6238H103.328V41.7316H101.969V41.7408ZM105.251 36.4807H103.318V38.533H104.927L105.251 38.2094V36.4807Z" fill="white"/>
<path d="M112.887 35.3713V40.9366L112.073 41.7408H108.745L107.941 40.9366V35.3713H109.3V40.5113H111.528V35.3713H112.887Z" fill="white"/>
<path d="M114.366 41.7408V35.3713H115.725V40.5113H118.174V41.7408H114.366Z" fill="white"/>
<path d="M120.957 35.3713H122.315V37.9413H124.775V35.3713H126.124V41.7408H124.775V39.1154H122.315V41.7408H120.957V35.3713Z" fill="white"/>
<path d="M132.568 35.3713V40.9366L131.754 41.7408H128.426L127.622 40.9366V35.3713H128.981V40.5113H131.209V35.3713H132.568Z" fill="white"/>
<path d="M134.048 41.7408V35.3713H137.792L138.864 36.4345V40.6685L137.792 41.7408H134.048ZM135.407 40.5205H137.2L137.515 40.2062V36.9152L137.2 36.5916H135.407V40.5205Z" fill="white"/>
<path d="M139.724 41.7408V40.5021L141.471 35.3713H143.32L145.067 40.4928V41.7408H143.708V40.65L143.56 40.2062H141.221L141.073 40.65V41.7408H139.724ZM141.499 39.1061H143.292L142.395 36.4899L141.499 39.1061Z" fill="white"/>
<path d="M89.9326 52.7233V46.3538H91.2454V47.1489L93.954 50.1903C93.9263 49.839 93.8893 49.3398 93.8893 49.0163V46.3446H95.2113V52.7141H93.8893V51.9098L91.1806 48.8591C91.2176 49.2197 91.2454 49.7096 91.2454 50.0424V52.7141H89.9326V52.7233Z" fill="white"/>
<path d="M96.2368 52.7234V51.4846L97.984 46.3539H99.8329L101.58 51.4754V52.7234H100.23V51.6325L100.083 51.198H97.7437L97.5958 51.6325V52.7234H96.2368ZM98.0118 50.0887H99.8052L98.9085 47.4725L98.0118 50.0887Z" fill="white"/>
<path d="M101.673 46.3539H106.379V47.5741H104.706V52.7234H103.347V47.5741H101.673V46.3539Z" fill="white"/>
<path d="M108.68 46.3539H107.331V52.7234H108.68V46.3539Z" fill="white"/>
<path d="M110.871 52.7234L110.067 51.9191V47.1489L110.871 46.3539H114.208L115.013 47.1489V51.9191L114.208 52.7234H110.871ZM111.417 51.5031H113.663V47.5741H111.417V51.5031Z" fill="white"/>
<path d="M116.399 52.7233V46.3538H117.712V47.1489L120.42 50.1903C120.393 49.839 120.356 49.3398 120.356 49.0163V46.3446H121.668V52.7141H120.356V51.9098L117.647 48.8591C117.684 49.2197 117.712 49.7096 117.712 50.0424V52.7141H116.399V52.7233Z" fill="white"/>
<path d="M122.704 52.7234V51.4846L124.451 46.3539H126.3L128.047 51.4754V52.7234H126.689V51.6325L126.541 51.198H124.202L124.054 51.6325V52.7234H122.704ZM124.479 50.0887H126.272L125.376 47.4725L124.479 50.0887Z" fill="white"/>
<path d="M129.074 52.7234V46.3539H130.424V51.5031H132.874V52.7234H129.074Z" fill="white"/>
<path d="M89.4053 63.7151V62.4764L91.1525 57.3456H93.0014L94.7486 62.4671V63.7151H93.3897V62.6243L93.2418 62.1898H90.9029L90.755 62.6243V63.7151H89.4053ZM91.1802 61.0712H92.9737L92.077 58.455L91.1802 61.0712Z" fill="white"/>
<path d="M95.7656 63.7151V57.3456H99.5929L100.397 58.1407V60.4056L99.7778 61.0342L100.434 61.6906V63.7059H99.0844V61.9217L98.7516 61.5981H97.1246V63.7059H95.7656V63.7151ZM99.0567 58.4457H97.1246V60.498H98.7331L99.0567 60.1745V58.4457Z" fill="white"/>
<path d="M101.211 57.3456H105.907V58.5567H104.234V63.7059H102.884V58.5567H101.211V57.3456Z" fill="white"/>
<path d="M107.45 63.7059L106.646 62.9016V61.8015H107.959V62.6058H109.909V61.0712H107.469L106.674 60.2762V58.1407L107.469 57.3456H110.372L111.176 58.1407V59.3147H109.863V58.4457H107.986V59.9711H110.427L111.222 60.7754V62.9016L110.427 63.7059H107.45Z" fill="white"/>
<path d="M114.385 63.7059V57.3456H118.434V58.5567H115.744V60.2022H117.861V61.3116H115.744V63.7059H114.385Z" fill="white"/>
<path d="M119.515 63.7059V57.3456H123.638V58.5567H120.865V60.0081H123.056V61.0435H120.865V62.4856H123.684V63.7059H119.515Z" fill="white"/>
<path d="M125.404 63.7059L124.6 62.9016V61.8015H125.922V62.6058H127.872V61.0712H125.422L124.627 60.2762V58.1407L125.422 57.3456H128.334L129.139 58.1407V59.3147H127.826V58.4457H125.949V59.9711H128.39L129.185 60.7754V62.9016L128.39 63.7059H125.404Z" fill="white"/>
<path d="M129.934 57.3456H134.63V58.5567H132.957V63.7059H131.607V58.5567H129.934V57.3456Z" fill="white"/>
<path d="M135.573 56.8558V57.8357L136.654 59.3241H137.366L136.941 57.771V56.8558H135.573Z" fill="white"/>
<path d="M138.032 63.7059V61.0342L138.836 60.2299H141.129V58.4735H139.373V59.3702H138.051V58.1407L138.855 57.3456H141.647L142.451 58.1407V60.535L141.638 61.3485H139.345V62.5781H142.488V63.7059H138.032Z" fill="white"/>
<path d="M143.616 57.3456H147.924V58.4735H144.928V59.703H147.203L148.007 60.5073V62.9016L147.203 63.7059H144.42L143.616 62.9016V61.6628H144.928V62.5781H146.685V60.8124H144.42L143.616 60.0081V57.3456Z" fill="white"/>
<path d="M89.6924 22.0591V17.3536H92.6784V18.2503H90.6908V19.4706H92.2624V20.2841H90.6908V22.0591H89.6924Z" fill="#EA3650"/>
<path d="M93.4824 22.0591V17.3536H96.5331V18.2503H94.4809V19.3135H96.0987V20.09H94.4809V21.1531H96.5701V22.0591H93.4824Z" fill="#EA3650"/>
<path d="M97.8363 22.0591L97.2446 21.4582V20.6447H98.2153V21.2363H99.6574V20.1085H97.8548L97.2631 19.5168V17.936L97.8548 17.3536H99.9995L100.6 17.936V18.8143H99.6205V18.1671H98.2338V19.295H100.046L100.628 19.8866V21.4582L100.046 22.0591H97.8363Z" fill="#EA3650"/>
<path d="M101.183 17.3536H104.659V18.2503H103.42V22.0591H102.422V18.2503H101.183V17.3536Z" fill="#EA3650"/>
<path d="M106.36 17.3536H105.362V22.0591H106.36V17.3536Z" fill="#EA3650"/>
<path d="M107.118 17.3536H108.116V18.2133L109.059 21.0607L109.993 18.2133V17.3536H111V18.2596L109.697 22.0591H108.421L107.118 18.2596V17.3536Z" fill="#EA3650"/>
<path d="M111.204 22.0591V21.1439L112.498 17.3536H113.867L115.161 21.1439V22.0591H114.162V21.2548L114.051 20.9313H112.323L112.212 21.2548V22.0591H111.204ZM112.517 20.1085H113.839L113.173 18.1764L112.517 20.1085Z" fill="#EA3650"/>
<path d="M115.9 22.0591V17.3536H116.908V21.1531H118.72V22.0591H115.9Z" fill="#EA3650"/>
<path d="M121.253 22.0591L120.661 21.4675V17.9453L121.253 17.3536H123.721L124.313 17.9453V21.4675L123.721 22.0591H121.253ZM121.66 21.1531H123.324V18.2503H121.66V21.1531Z" fill="#EA3650"/>
<path d="M125.339 22.0591V17.3536H128.334V18.2503H126.347V19.4706H127.909V20.2841H126.347V22.0591H125.339Z" fill="#EA3650"/>
<path d="M90.1727 30.1758L89.5811 29.5842V26.062L90.1727 25.4704H92.5208L93.1125 26.062V27.1529H92.1048V26.3671H90.5795V29.2699H92.1048V28.4934H93.1125V29.5842L92.5208 30.1758H90.1727Z" fill="#EA3650"/>
<path d="M97.6423 25.4704V29.5842L97.0507 30.1758H94.5824L93.9907 29.5842V25.4704H94.9891V29.2699H96.6439V25.4704H97.6423Z" fill="#EA3650"/>
<path d="M98.7427 30.1758V25.4704H99.7411V29.2699H101.553V30.1758H98.7427Z" fill="#EA3650"/>
<path d="M101.284 25.4704H104.76V26.3671H103.521V30.1758H102.523V26.3671H101.284V25.4704Z" fill="#EA3650"/>
<path d="M109.078 25.4704V29.5842L108.486 30.1758H106.027L105.426 29.5842V25.4704H106.434V29.2699H108.079V25.4704H109.078Z" fill="#EA3650"/>
<path d="M110.178 30.1758V25.4704H113.007L113.598 26.062V27.7353L113.136 28.2067L113.626 28.6967V30.1851H112.628V28.8631L112.387 28.6228H111.185V30.1758H110.178ZM112.609 26.2839H111.185V27.8H112.378L112.618 27.5596V26.2839H112.609Z" fill="#EA3650"/>
<path d="M114.634 30.1758V25.4704H117.685V26.3671H115.633V27.4395H117.25V28.2067H115.633V29.2699H117.713V30.1758H114.634Z" fill="#EA3650"/>
<path d="M118.988 30.1758L118.396 29.5842V28.7614H119.367V29.3623H120.809V28.2253H118.997L118.414 27.6428V26.062L118.997 25.4704H121.151L121.743 26.062V26.931H120.772V26.2839H119.385V27.4117H121.188L121.78 28.0034V29.5842L121.188 30.1758H118.988Z" fill="#EA3650"/>
</svg>
