<svg width="24" height="24" viewBox="0 0 24 24" fill="none" xmlns="http://www.w3.org/2000/svg">
<g clip-path="url(#clip0_94_277)">
<path d="M18.4197 2.12326H17.9259V1.62943C17.9259 0.810665 17.2622 0.147949 16.4444 0.147949C15.6267 0.147949 14.9629 0.810665 14.9629 1.62943V2.12326H9.03702V1.62943C9.03702 0.810665 8.37332 0.147949 7.55554 0.147949C6.73776 0.147949 6.07406 0.810665 6.07406 1.62943V2.12326H5.58023C2.58566 2.12326 0.148132 4.5598 0.148132 7.55536V18.4196C0.148132 21.4151 2.58566 23.8517 5.58023 23.8517H18.4197C21.4143 23.8517 23.8518 21.4151 23.8518 18.4196V7.55536C23.8518 4.5598 21.4143 2.12326 18.4197 2.12326ZM18.4197 20.8887H5.58023C4.21826 20.8887 3.1111 19.7805 3.1111 18.4196V9.03684H20.8889V18.4196C20.8889 19.7805 19.7817 20.8887 18.4197 20.8887ZM10.0247 12.4936V14.4689C10.0247 15.2867 9.36097 15.9504 8.54319 15.9504H6.56789C5.75011 15.9504 5.0864 15.2867 5.0864 14.4689V12.4936C5.0864 11.6759 5.75011 11.0121 6.56789 11.0121H8.54319C9.36097 11.0121 10.0247 11.6759 10.0247 12.4936Z" fill="#313131"/>
</g>
<defs>
<clipPath id="clip0_94_277">
<rect width="23.7037" height="23.7037" fill="white" transform="translate(0.148132 0.147949)"/>
</clipPath>
</defs>
</svg>
