<svg width="24" height="24" viewBox="0 0 24 24" fill="none" xmlns="http://www.w3.org/2000/svg">
<g clip-path="url(#clip0_133_192)">
<path d="M7.98 16.54C7.98 17.01 7.57 17.4 7.09 17.4H6.26V15.68H7.1C7.58 15.68 7.99 16.07 7.99 16.54H7.98ZM12.09 15.68H11.25V19.18H12.09C12.57 19.18 12.98 18.79 12.98 18.32V16.54C12.98 16.07 12.57 15.68 12.09 15.68ZM22 8.16V18.5C22 21.53 19.53 24 16.5 24H7.5C4.47 24 2 21.53 2 18.5V5.5C2 2.47 4.47 0 7.5 0H13.84C15.31 0 16.69 0.57 17.73 1.61L20.39 4.27C21.43 5.31 22 6.69 22 8.16ZM9.23 16.54C9.23 15.38 8.27 14.43 7.09 14.43H6C5.45 14.43 5 14.88 5 15.43V19.87C5 20.22 5.28 20.49 5.62 20.49C5.96 20.49 6.24 20.21 6.24 19.87V18.65H7.08C8.26 18.65 9.22 17.7 9.22 16.54H9.23ZM14.23 16.54C14.23 15.38 13.27 14.43 12.09 14.43H11C10.45 14.43 10 14.88 10 15.43V19.87C10 20.22 10.28 20.43 10.62 20.43C10.96 20.43 12.08 20.43 12.08 20.43C13.26 20.43 14.22 19.48 14.22 18.32V16.54H14.23ZM18.92 14.97C18.85 14.7 18.61 14.5 18.31 14.5H16C15.65 14.5 15.38 14.78 15.38 15.12V19.93C15.38 20.28 15.66 20.55 16 20.55C16.34 20.55 16.62 20.27 16.62 19.93V18.13H17.86C18.21 18.13 18.48 17.85 18.48 17.51C18.48 17.17 18.2 16.89 17.86 16.89H16.62V15.75H18.31C18.6 15.75 18.85 15.55 18.92 15.28V14.98V14.97ZM19 12V9H15C13.9 9 13 8.1 13 7V3H7.5C6.12 3 5 4.12 5 5.5V12H19Z" fill="#313131"/>
</g>
<defs>
<clipPath id="clip0_133_192">
<rect width="24" height="24" fill="white"/>
</clipPath>
</defs>
</svg>
