<?xml version="1.0" encoding="UTF-8"?>
<svg version="1.1" xmlns="http://www.w3.org/2000/svg" width="292" height="292">
<path d="M0 0 C3.18101579 1.36708706 4.90853148 2.78785046 6.99609375 5.53515625 C7.54885986 6.25429199 8.10162598 6.97342773 8.67114258 7.71435547 C9.5454895 8.87668701 9.5454895 8.87668701 10.4375 10.0625 C11.04424561 10.8580127 11.65099121 11.65352539 12.27612305 12.47314453 C13.54654751 14.13933422 14.81415951 15.80767169 16.07910156 17.47802734 C17.95805202 19.94492595 19.86089581 22.39111617 21.7734375 24.83203125 C22.95319176 26.34630216 24.13288183 27.86062308 25.3125 29.375 C26.14769165 30.43473022 26.14769165 30.43473022 26.99975586 31.51586914 C27.51159424 32.1783667 28.02343262 32.84086426 28.55078125 33.5234375 C29.00106689 34.10013184 29.45135254 34.67682617 29.9152832 35.27099609 C31.10290298 37.16402406 31.57526377 38.81743564 32 41 C24.32970398 46.37802365 16.63831629 51.42697627 8.25 55.625 C7.23196289 56.13836914 7.23196289 56.13836914 6.19335938 56.66210938 C3.27798405 58.08287486 1.28474512 59 -2 59 C-4.22811909 53.75486758 -6.45166107 48.50782647 -8.67114258 43.2590332 C-9.42544764 41.47693707 -10.18096017 39.69535149 -10.93774414 37.91430664 C-12.03075614 35.34136937 -13.11928714 32.76657428 -14.20703125 30.19140625 C-14.54152786 29.40665421 -14.87602448 28.62190216 -15.22065735 27.81336975 C-17.40869279 22.6177536 -19.29283217 17.37257956 -21 12 C-20.07058594 11.55269531 -19.14117187 11.10539063 -18.18359375 10.64453125 C-11.74757882 7.50995039 -5.65578795 4.44383339 0 0 Z " fill="#BF8F3A" transform="translate(203,222)"/>
<path d="M0 0 C0.44730469 0.92941406 0.89460938 1.85882813 1.35546875 2.81640625 C4.49004961 9.25242118 7.55616661 15.34421205 12 21 C10.63291294 24.18101579 9.21214954 25.90853148 6.46484375 27.99609375 C5.74570801 28.54885986 5.02657227 29.10162598 4.28564453 29.67114258 C3.51075684 30.25404053 2.73586914 30.83693848 1.9375 31.4375 C1.1419873 32.04424561 0.34647461 32.65099121 -0.47314453 33.27612305 C-2.13933422 34.54654751 -3.80767169 35.81415951 -5.47802734 37.07910156 C-7.94492595 38.95805202 -10.39111617 40.86089581 -12.83203125 42.7734375 C-14.34630216 43.95319176 -15.86062308 45.13288183 -17.375 46.3125 C-18.43473022 47.14769165 -18.43473022 47.14769165 -19.51586914 47.99975586 C-20.1783667 48.51159424 -20.84086426 49.02343262 -21.5234375 49.55078125 C-22.388479 50.22620972 -22.388479 50.22620972 -23.27099609 50.9152832 C-25.16402406 52.10290298 -26.81743564 52.57526377 -29 53 C-34.37802365 45.32970398 -39.42697627 37.63831629 -43.625 29.25 C-43.96724609 28.57130859 -44.30949219 27.89261719 -44.66210938 27.19335938 C-46.08287486 24.27798405 -47 22.28474512 -47 19 C-45.8855249 18.53102295 -44.7710498 18.0620459 -43.62280273 17.57885742 C-39.46482803 15.82908809 -35.30698039 14.07901698 -31.14916992 12.32885742 C-29.35395688 11.57324195 -27.55870996 10.81770695 -25.76342773 10.06225586 C-23.17422595 8.97270826 -20.58514847 7.88286574 -17.99609375 6.79296875 C-17.20101913 6.45847214 -16.40594452 6.12397552 -15.58677673 5.77934265 C-14.82651688 5.45923721 -14.06625702 5.13913177 -13.28295898 4.80932617 C-12.56026825 4.5057016 -11.83757751 4.20207703 -11.09298706 3.88925171 C-9.70959883 3.30148871 -8.33016732 2.70431476 -6.95510864 2.09732056 C-2.19841538 0 -2.19841538 0 0 0 Z " fill="#915B6C" transform="translate(58,182)"/>
<path d="M0 0 C1.91674805 0.2434082 1.91674805 0.2434082 4 1 C5.78174373 3.37267382 7.30487338 5.64955468 8.8125 8.1875 C9.4629126 9.25713989 9.4629126 9.25713989 10.12646484 10.34838867 C21 28.48499576 21 28.48499576 21 34 C15.75486758 36.22811909 10.50782647 38.45166107 5.2590332 40.67114258 C3.47693707 41.42544764 1.69535149 42.18096017 -0.08569336 42.93774414 C-2.65863063 44.03075614 -5.23342572 45.11928714 -7.80859375 46.20703125 C-8.59334579 46.54152786 -9.37809784 46.87602448 -10.18663025 47.22065735 C-15.3822464 49.40869279 -20.62742044 51.29283217 -26 53 C-26.44730469 52.07058594 -26.89460937 51.14117187 -27.35546875 50.18359375 C-30.49004961 43.74757882 -33.55616661 37.65578795 -38 32 C-36.63291294 28.81898421 -35.21214954 27.09146852 -32.46484375 25.00390625 C-31.74546631 24.45114014 -31.02608887 23.89837402 -30.28491211 23.32885742 C-29.51026611 22.74595947 -28.73562012 22.16306152 -27.9375 21.5625 C-27.1441626 20.95575439 -26.3508252 20.34900879 -25.53344727 19.72387695 C-23.02739996 17.80911914 -20.51372618 15.90466078 -18 14 C-15.56749926 12.14326723 -13.13717067 10.28372461 -10.70727539 8.42358398 C-9.21303501 7.28068376 -7.71746237 6.1395229 -6.22045898 5.00024414 C-5.54829346 4.48840576 -4.87612793 3.97656738 -4.18359375 3.44921875 C-3.59118896 2.99893311 -2.99878418 2.54864746 -2.38842773 2.0847168 C-1.02190496 1.06253427 -1.02190496 1.06253427 0 0 Z " fill="#6D7E80" transform="translate(260,57)"/>
<path d="M0 0 C2.22811909 5.24513242 4.45166107 10.49217353 6.67114258 15.7409668 C7.42544764 17.52306293 8.18096017 19.30464851 8.93774414 21.08569336 C10.03075614 23.65863063 11.11928714 26.23342572 12.20703125 28.80859375 C12.54152786 29.59334579 12.87602448 30.37809784 13.22065735 31.18663025 C15.40869279 36.3822464 17.29283217 41.62742044 19 47 C18.07058594 47.44730469 17.14117187 47.89460938 16.18359375 48.35546875 C9.74757882 51.49004961 3.65578795 54.55616661 -2 59 C-5.18101579 57.63291294 -6.90853148 56.21214954 -8.99609375 53.46484375 C-9.54885986 52.74570801 -10.10162598 52.02657227 -10.67114258 51.28564453 C-11.25404053 50.51075684 -11.83693848 49.73586914 -12.4375 48.9375 C-13.04424561 48.1419873 -13.65099121 47.34647461 -14.27612305 46.52685547 C-15.54654751 44.86066578 -16.81415951 43.19232831 -18.07910156 41.52197266 C-19.95805202 39.05507405 -21.86089581 36.60888383 -23.7734375 34.16796875 C-24.95319176 32.65369784 -26.13288183 31.13937692 -27.3125 29.625 C-27.86929443 28.91851318 -28.42608887 28.21202637 -28.99975586 27.48413086 C-29.51159424 26.8216333 -30.02343262 26.15913574 -30.55078125 25.4765625 C-31.00106689 24.89986816 -31.45135254 24.32317383 -31.9152832 23.72900391 C-33.10290298 21.83597594 -33.57526377 20.18256436 -34 18 C-26.32970398 12.62197635 -18.63831629 7.57302373 -10.25 3.375 C-9.57130859 3.03275391 -8.89261719 2.69050781 -8.19335938 2.33789062 C-5.27798405 0.91712514 -3.28474512 0 0 0 Z " fill="#77598C" transform="translate(91,11)"/>
<path d="M0 0 C5.42729492 1.94410564 10.00073817 5.04719809 14.84375 8.125 C17.53595191 9.72432787 20.06145906 10.94738832 23 12 C17.34423562 27.93427681 10.59356533 43.43813038 4 59 C-0.56316808 58.19059487 -4.38233196 56.576668 -8.5 54.5 C-9.54317383 53.97792969 -9.54317383 53.97792969 -10.60742188 53.4453125 C-17.51333181 49.89478087 -23.76263401 45.61394197 -30 41 C-29.4813102 36.67052798 -26.72266962 33.81486603 -24.0625 30.5625 C-23.05661492 29.30913657 -22.05142171 28.05521761 -21.046875 26.80078125 C-20.53705078 26.16736816 -20.02722656 25.53395508 -19.50195312 24.88134766 C-17.23038917 22.03598487 -15.02115525 19.14427943 -12.8125 16.25 C-8.61762092 10.77175609 -4.33681247 5.36650258 0 0 Z " fill="#4E7882" transform="translate(87,222)"/>
<path d="M0 0 C15.93427681 5.65576438 31.43813038 12.40643467 47 19 C46.19059487 23.56316808 44.576668 27.38233196 42.5 31.5 C41.97792969 32.54317383 41.97792969 32.54317383 41.4453125 33.60742188 C37.89478087 40.51333181 33.61394197 46.76263401 29 53 C24.67052798 52.4813102 21.81486603 49.72266962 18.5625 47.0625 C17.30913657 46.05661492 16.05521761 45.05142171 14.80078125 44.046875 C14.16736816 43.53705078 13.53395508 43.02722656 12.88134766 42.50195312 C10.03598487 40.23038917 7.14427943 38.02115525 4.25 35.8125 C-1.22824391 31.61762092 -6.63349742 27.33681247 -12 23 C-10.05589436 17.57270508 -6.95280191 12.99926183 -3.875 8.15625 C-2.27567213 5.46404809 -1.05261168 2.93854094 0 0 Z " fill="#C88A3D" transform="translate(234,182)"/>
<path d="M0 0 C4.32947202 0.5186898 7.18513397 3.27733038 10.4375 5.9375 C11.69086343 6.94338508 12.94478239 7.94857829 14.19921875 8.953125 C14.83263184 9.46294922 15.46604492 9.97277344 16.11865234 10.49804688 C18.96401513 12.76961083 21.85572057 14.97884475 24.75 17.1875 C30.22824391 21.38237908 35.63349742 25.66318753 41 30 C39.05589436 35.42729492 35.95280191 40.00073817 32.875 44.84375 C31.27567213 47.53595191 30.05261168 50.06145906 29 53 C13.06572319 47.34423562 -2.43813038 40.59356533 -18 34 C-17.19059487 29.43683192 -15.576668 25.61766804 -13.5 21.5 C-13.15195313 20.80455078 -12.80390625 20.10910156 -12.4453125 19.39257812 C-8.89478087 12.48666819 -4.61394197 6.23736599 0 0 Z " fill="#BA4468" transform="translate(29,57)"/>
<path d="M0 0 C4.56316808 0.80940513 8.38233196 2.423332 12.5 4.5 C13.54317383 5.02207031 13.54317383 5.02207031 14.60742188 5.5546875 C21.51333181 9.10521913 27.76263401 13.38605803 34 18 C33.4813102 22.32947202 30.72266962 25.18513397 28.0625 28.4375 C27.05661492 29.69086343 26.05142171 30.94478239 25.046875 32.19921875 C24.53705078 32.83263184 24.02722656 33.46604492 23.50195312 34.11865234 C21.23038917 36.96401513 19.02115525 39.85572057 16.8125 42.75 C12.61762092 48.22824391 8.33681247 53.63349742 4 59 C-1.42729492 57.05589436 -6.00073817 53.95280191 -10.84375 50.875 C-13.53595191 49.27567213 -16.06145906 48.05261168 -19 47 C-13.34423562 31.06572319 -6.59356533 15.56186962 0 0 Z " fill="#4078A2" transform="translate(201,11)"/>
<path d="M0 0 C8.58 0 17.16 0 26 0 C27.49389195 8.21640574 28.79652073 16.3648977 29.85986328 24.63500977 C30.12604986 26.69562723 30.40073182 28.75500221 30.67578125 30.81445312 C31.51705769 37.23898345 32.24978751 43.5138509 32 50 C28.95303929 51.52348035 25.77919939 51.14211557 22.4375 51.1328125 C21.69040771 51.13376923 20.94331543 51.13472595 20.17358398 51.13571167 C18.59326086 51.13639249 17.01293494 51.13454503 15.43261719 51.13037109 C13.0097019 51.12502142 10.586972 51.13031935 8.1640625 51.13671875 C6.63020792 51.13605795 5.09635346 51.13477675 3.5625 51.1328125 C2.83538818 51.13483673 2.10827637 51.13686096 1.35913086 51.13894653 C-3.77007639 51.1149618 -3.77007639 51.1149618 -6 50 C-5.65921059 39.33329144 -4.41958189 28.81922583 -3 18.25 C-2.91036987 17.5778949 -2.82073975 16.90578979 -2.72839355 16.21331787 C-1.1972714 4.78908559 -1.1972714 4.78908559 0 0 Z " fill="#23918E" transform="translate(133,241)"/>
<path d="M0 0 C1.52348035 3.04696071 1.14211557 6.22080061 1.1328125 9.5625 C1.13376923 10.30959229 1.13472595 11.05668457 1.13571167 11.82641602 C1.13639249 13.40673914 1.13454503 14.98706506 1.13037109 16.56738281 C1.12502142 18.9902981 1.13031935 21.413028 1.13671875 23.8359375 C1.13605795 25.36979208 1.13477675 26.90364654 1.1328125 28.4375 C1.13483673 29.16461182 1.13686096 29.89172363 1.13894653 30.64086914 C1.1149618 35.77007639 1.1149618 35.77007639 0 38 C-10.66670856 37.65921059 -21.18077417 36.41958189 -31.75 35 C-32.75815765 34.86555481 -32.75815765 34.86555481 -33.78668213 34.72839355 C-45.21091441 33.1972714 -45.21091441 33.1972714 -50 32 C-50 23.42 -50 14.84 -50 6 C-41.78359426 4.50610805 -33.6351023 3.20347927 -25.36499023 2.14013672 C-23.30437277 1.87395014 -21.24499779 1.59926818 -19.18554688 1.32421875 C-12.76101655 0.48294231 -6.4861491 -0.24978751 0 0 Z " fill="#9B845E" transform="translate(291,127)"/>
<path d="M0 0 C10.66670856 0.34078941 21.18077417 1.58041811 31.75 3 C32.75815765 3.13444519 32.75815765 3.13444519 33.78668213 3.27160645 C45.21091441 4.8027286 45.21091441 4.8027286 50 6 C50 14.58 50 23.16 50 32 C41.78359426 33.49389195 33.6351023 34.79652073 25.36499023 35.85986328 C23.30437277 36.12604986 21.24499779 36.40073182 19.18554688 36.67578125 C12.76101655 37.51705769 6.4861491 38.24978751 0 38 C-1.52348035 34.95303929 -1.14211557 31.77919939 -1.1328125 28.4375 C-1.13376923 27.69040771 -1.13472595 26.94331543 -1.13571167 26.17358398 C-1.13639249 24.59326086 -1.13454503 23.01293494 -1.13037109 21.43261719 C-1.12502142 19.0097019 -1.13031935 16.586972 -1.13671875 14.1640625 C-1.13605795 12.63020792 -1.13477675 11.09635346 -1.1328125 9.5625 C-1.13483673 8.83538818 -1.13686096 8.10827637 -1.13894653 7.35913086 C-1.1149618 2.22992361 -1.1149618 2.22992361 0 0 Z " fill="#D53F57" transform="translate(1,127)"/>
<path d="M0 0 C0.74709229 -0.00095673 1.49418457 -0.00191345 2.26391602 -0.00289917 C3.84423914 -0.00357999 5.42456506 -0.00173253 7.00488281 0.00244141 C9.4277981 0.00779108 11.850528 0.00249315 14.2734375 -0.00390625 C15.80729208 -0.00324545 17.34114654 -0.00196425 18.875 0 C19.60211182 -0.00202423 20.32922363 -0.00404846 21.07836914 -0.00613403 C26.20757639 0.0178507 26.20757639 0.0178507 28.4375 1.1328125 C28.09671059 11.79952106 26.85708189 22.31358667 25.4375 32.8828125 C25.34786987 33.5549176 25.25823975 34.22702271 25.16589355 34.91949463 C23.6347714 46.34372691 23.6347714 46.34372691 22.4375 51.1328125 C13.8575 51.1328125 5.2775 51.1328125 -3.5625 51.1328125 C-5.05639195 42.91640676 -6.35902073 34.7679148 -7.42236328 26.49780273 C-7.68854986 24.43718527 -7.96323182 22.37781029 -8.23828125 20.31835938 C-9.07955769 13.89382905 -9.81228751 7.6189616 -9.5625 1.1328125 C-6.51553929 -0.39066785 -3.34169939 -0.00930307 0 0 Z " fill="#326EB0" transform="translate(136.5625,-0.1328125)"/>
<path d="M0 0 C0.66 0.33 1.32 0.66 2 1 C1.01 2.0209375 1.01 2.0209375 0 3.0625 C-2.43885872 6.64457375 -2.33292585 8.75519536 -2 13 C-2.99 13.33 -3.98 13.66 -5 14 C-4.01 15.65 -3.02 17.3 -2 19 C-2.66 19 -3.32 19 -4 19 C-3.71125 19.68707031 -3.4225 20.37414062 -3.125 21.08203125 C-2.568125 22.43361328 -2.568125 22.43361328 -2 23.8125 C-1.62875 24.70582031 -1.2575 25.59914062 -0.875 26.51953125 C0 29 0 29 0 32 C1.65 31.67 3.3 31.34 5 31 C5.59198743 36.34902924 6.14187241 41.60884846 6 47 C6.99 46.505 6.99 46.505 8 46 C10 45.3125 10 45.3125 12 45 C12.66 45.66 13.32 46.32 14 47 C16.46049235 46.80014339 16.46049235 46.80014339 19.125 46.125 C20.03507812 45.92132813 20.94515625 45.71765625 21.8828125 45.5078125 C22.58148438 45.34023438 23.28015625 45.17265625 24 45 C19.35944002 49.19147353 13.40154244 53 7 53 C4.77188091 47.75486758 2.54833893 42.50782647 0.32885742 37.2590332 C-0.42544764 35.47693707 -1.18096017 33.69535149 -1.93774414 31.91430664 C-3.03075614 29.34136937 -4.11928714 26.76657428 -5.20703125 24.19140625 C-5.54152786 23.40665421 -5.87602448 22.62190216 -6.22065735 21.81336975 C-8.40869279 16.6177536 -10.29283217 11.37257956 -12 6 C-10.04669132 4.96958487 -8.08718472 3.9509107 -6.125 2.9375 C-5.03445312 2.36902344 -3.94390625 1.80054688 -2.8203125 1.21484375 C-1.42425781 0.61349609 -1.42425781 0.61349609 0 0 Z " fill="#9C8F4E" transform="translate(194,228)"/>
<path d="M0 0 C0.66 0.33 1.32 0.66 2 1 C1.67 1.33 1.34 1.66 1 2 C0.92686433 4.53049402 0.90752473 7.03304837 0.9375 9.5625 C0.94201172 10.27341797 0.94652344 10.98433594 0.95117188 11.71679688 C0.96299136 13.47790013 0.98092737 15.23896036 1 17 C2.98 17 4.96 17 7 17 C7 21 7 25 7 29 C6.34 29 5.68 29 5 29 C5 29.99 5 30.98 5 32 C5.66 32.33 6.32 32.66 7 33 C6.62875 34.03125 6.2575 35.0625 5.875 36.125 C4.92094103 40.35011828 5.16335291 42.14304111 7 46 C7.66 46.33 8.32 46.66 9 47 C9 47.66 9 48.32 9 49 C10.98 49 12.96 49 15 49 C14.67 49.66 14.34 50.32 14 51 C10.7 51 7.4 51 4 51 C2.43056501 42.8205573 1.20203205 34.62384656 0.14013672 26.36499023 C-0.12604986 24.30437277 -0.40073182 22.24499779 -0.67578125 20.18554688 C-1.51705769 13.76101655 -2.24978751 7.4861491 -2 1 C-1.34 0.67 -0.68 0.34 0 0 Z " fill="#44679E" transform="translate(129,0)"/>
<path d="M0 0 C4.32947202 0.5186898 7.18513397 3.27733038 10.4375 5.9375 C11.69086343 6.94338508 12.94478239 7.94857829 14.19921875 8.953125 C14.83263184 9.46294922 15.46604492 9.97277344 16.11865234 10.49804688 C18.96401513 12.76961083 21.85572057 14.97884475 24.75 17.1875 C30.22824391 21.38237908 35.63349742 25.66318753 41 30 C39.45657029 34.08105062 37.50065501 37.41572782 35 41 C34.67 40.01 34.34 39.02 34 38 C35.4375 35.8125 35.4375 35.8125 37 34 C36.67 33.34 36.34 32.68 36 32 C36.495 30.515 36.495 30.515 37 29 C36.236875 29.061875 35.47375 29.12375 34.6875 29.1875 C32 29 32 29 30.1875 27.5 C29.795625 27.005 29.40375 26.51 29 26 C29.495 25.505 29.495 25.505 30 25 C26.34666857 22.36620292 23.51478398 20.53115106 19 20 C19.33 18.35 19.66 16.7 20 15 C18.68 15 17.36 15 16 15 C16 14.01 16 13.02 16 12 C14.68 12 13.36 12 12 12 C11.67 12.66 11.34 13.32 11 14 C11 12.02 11 10.04 11 8 C9.329375 7.566875 9.329375 7.566875 7.625 7.125 C4 6 4 6 2 4 C1.01 4.99 0.02 5.98 -1 7 C-1.99 6.67 -2.98 6.34 -4 6 C-2.68 4.02 -1.36 2.04 0 0 Z " fill="#9E4B6B" transform="translate(29,57)"/>
<path d="M0 0 C0.33 0 0.66 0 1 0 C1 1.65 1 3.3 1 5 C0.01 5.33 -0.98 5.66 -2 6 C-4.0003877 10.55643866 -4.49311454 15.1001072 -5 20 C-8.96 20.495 -8.96 20.495 -13 21 C-12.67 23.31 -12.34 25.62 -12 28 C-12.99 28 -13.98 28 -15 28 C-15.66 27.01 -16.32 26.02 -17 25 C-17.45375 26.216875 -17.9075 27.43375 -18.375 28.6875 C-19.54452941 31.8080927 -20.74562438 34.91230616 -22 38 C-23.32 37.34 -24.64 36.68 -26 36 C-25.48131092 31.67053402 -22.72270592 28.81486119 -20.0625 25.5625 C-19.06182186 24.31564812 -18.06183796 23.06823879 -17.0625 21.8203125 C-16.55332031 21.18770508 -16.04414062 20.55509766 -15.51953125 19.90332031 C-13.15893601 16.94650789 -10.85975761 13.94362069 -8.5625 10.9375 C-2.29016667 2.74316667 -2.29016667 2.74316667 0 0 Z " fill="#5D6F79" transform="translate(83,227)"/>
<path d="M0 0 C0.99 0.33 1.98 0.66 3 1 C-1.37879168 4.41106615 -5.75970012 7.81935601 -10.14453125 11.22265625 C-13.08961377 13.50955526 -16.02586935 15.80649155 -18.94921875 18.12109375 C-19.53356689 18.58016113 -20.11791504 19.03922852 -20.7199707 19.51220703 C-22.28256278 20.73987563 -23.8406462 21.97327664 -25.3984375 23.20703125 C-28 25 -28 25 -32 26 C-34.31 22.37 -36.62 18.74 -39 15 C-34 16 -34 16 -32.1875 18.0625 C-31.795625 18.701875 -31.40375 19.34125 -31 20 C-27.06924356 19.42547254 -27.06924356 19.42547254 -24 17 C-22.68252676 16.30251417 -21.35085807 15.63040043 -20 15 C-20 14.01 -20 13.02 -20 12 C-19.67 11.01 -19.34 10.02 -19 9 C-18.3709375 8.92523438 -17.741875 8.85046875 -17.09375 8.7734375 C-9.91884539 7.67126842 -5.13399636 5.13399636 0 0 Z " fill="#7B5F6C" transform="translate(61,209)"/>
<path d="M0 0 C-1.25 1.5625 -1.25 1.5625 -3 3 C-5.0625 2.5625 -5.0625 2.5625 -7 2 C-8.40628858 3.40628858 -9.8011558 4.82404597 -11.1875 6.25 C-14 8 -14 8 -17.625 7.1875 C-18.73875 6.795625 -19.8525 6.40375 -21 6 C-21.99 6.33 -22.98 6.66 -24 7 C-26 7 -28 7 -30 7 C-30.99 7.495 -30.99 7.495 -32 8 C-32 7.34 -32 6.68 -32 6 C-33.65 6 -35.3 6 -37 6 C-37 6.66 -37 7.32 -37 8 C-37.99 8.33 -38.98 8.66 -40 9 C-40.66 9.66 -41.32 10.32 -42 11 C-42 9.02 -42 7.04 -42 5 C-34.46223373 3.56309313 -26.92112627 2.36720941 -19.3125 1.375 C-18.33216797 1.2409375 -17.35183594 1.106875 -16.34179688 0.96875 C-10.83994191 0.24647031 -5.54841715 -0.14479855 0 0 Z " fill="#8D8268" transform="translate(283,128)"/>
<path d="M0 0 C0.66 0 1.32 0 2 0 C2 8.58 2 17.16 2 26 C-6.21640574 27.49389195 -14.3648977 28.79652073 -22.63500977 29.85986328 C-24.69562723 30.12604986 -26.75500221 30.40073182 -28.81445312 30.67578125 C-35.23898345 31.51705769 -41.5138509 32.24978751 -48 32 C-47.505 30.515 -47.505 30.515 -47 29 C-41.36676264 28.07639333 -35.82515973 27.76759455 -30.125 27.5625 C-20.67490248 27.1755366 -11.36962911 26.26483853 -2 25 C-1.0268319 22.0804957 -0.8070454 19.94555049 -0.68359375 16.89453125 C-0.62075195 15.42016602 -0.62075195 15.42016602 -0.55664062 13.91601562 C-0.51732422 12.89185547 -0.47800781 11.86769531 -0.4375 10.8125 C-0.37272461 9.25885742 -0.37272461 9.25885742 -0.30664062 7.67382812 C-0.20055634 5.1160181 -0.09849854 2.55811155 0 0 Z " fill="#B64B60" transform="translate(49,133)"/>
<path d="M0 0 C3.45925163 1.2491742 6.14693203 2.67527795 9 5 C8.40954676 7.99008448 7.56283521 9.89566858 5.671875 12.27734375 C5.20136719 12.87353516 4.73085937 13.46972656 4.24609375 14.08398438 C3.75238281 14.69564453 3.25867188 15.30730469 2.75 15.9375 C2.27175781 16.54529297 1.79351562 17.15308594 1.30078125 17.77929688 C-1.60265555 21.42629676 -4.6401664 24.76891915 -8 28 C-8.19622241 23.78121808 -7.80230168 20.82989106 -6 17 C-4.68 17.33 -3.36 17.66 -2 18 C-1.87882813 17.41992188 -1.75765625 16.83984375 -1.6328125 16.2421875 C-0.8483731 12.58549307 -0.05216898 9.14085626 1.25 5.625 C1.4975 4.75875 1.745 3.8925 2 3 C1.34 2.01 0.68 1.02 0 0 Z " fill="#4B7796" transform="translate(226,24)"/>
<path d="M0 0 C4.55337136 2.01111809 6.80128996 5.02973568 9.8125 8.875 C10.32748047 9.50019531 10.84246094 10.12539062 11.37304688 10.76953125 C11.85451172 11.37925781 12.33597656 11.98898438 12.83203125 12.6171875 C13.27264893 13.17003418 13.7132666 13.72288086 14.16723633 14.29248047 C15 16 15 16 14.63549805 18.21142578 C14.42578369 18.80165527 14.21606934 19.39188477 14 20 C12 17 12 17 12 15 C9.69 15 7.38 15 5 15 C5.33 13.35 5.66 11.7 6 10 C2.98968256 9.06576355 2.13349732 8.95550089 -1 10 C-1 9.34 -1 8.68 -1 8 C-1.66 8 -2.32 8 -3 8 C-3.33 8.66 -3.66 9.32 -4 10 C-4.66 8.68 -5.32 7.36 -6 6 C-5.01 5.67 -4.02 5.34 -3 5 C-3 4.01 -3 3.02 -3 2 C-2.01 1.34 -1.02 0.68 0 0 Z " fill="#D79032" transform="translate(203,222)"/>
<path d="M0 0 C3.3 0 6.6 0 10 0 C11.56943499 8.1794427 12.79796795 16.37615344 13.85986328 24.63500977 C14.12604986 26.69562723 14.40073182 28.75500221 14.67578125 30.81445312 C15.51705769 37.23898345 16.24978751 43.5138509 16 50 C14.515 50.495 14.515 50.495 13 51 C13 48 13 45 13 42 C12.67 41.67 12.34 41.34 12 41 C11.67 41 11.34 41 11 41 C11.01160156 39.865625 11.02320313 38.73125 11.03515625 37.5625 C11.0445441 36.04166833 11.05364322 34.52083486 11.0625 33 C11.07087891 32.25621094 11.07925781 31.51242187 11.08789062 30.74609375 C11.10969063 25.73209214 10.69601267 20.96558293 10 16 C9.78245975 13.6933827 9.5740582 11.38673104 9.37890625 9.078125 C8.95813801 6.77040639 8.10444325 5.05685787 7 3 C7 2.67 7 2.34 7 2 C4.69 1.67 2.38 1.34 0 1 C0 0.67 0 0.34 0 0 Z " fill="#4B8778" transform="translate(149,241)"/>
<path d="M0 0 C0.48736475 6.70126536 -0.92291196 11.06561592 -4 17 C-5.32 16.67 -6.64 16.34 -8 16 C-8 15.34 -8 14.68 -8 14 C-9.32 13.67 -10.64 13.34 -12 13 C-12.33 11.68 -12.66 10.36 -13 9 C-12.21625 8.855625 -11.4325 8.71125 -10.625 8.5625 C-8.03578982 8.12201075 -8.03578982 8.12201075 -6 7 C-6 5.35 -6 3.7 -6 2 C-1.125 0 -1.125 0 0 0 Z " fill="#427D84" transform="translate(95,264)"/>
<path d="M0 0 C10.13770382 3.71276945 20.11899072 7.64618029 30 12 C27.24616595 13.0846469 26.16712569 13.06267213 23.34375 12.00390625 C21.93609375 11.29041016 21.93609375 11.29041016 20.5 10.5625 C15.55713051 8.07069629 12.36038797 7.61667407 7 9 C4 9 4 9 1.4375 8.4375 C-0.99764861 7.74957739 -0.99764861 7.74957739 -3 9 C-2.01 6.03 -1.02 3.06 0 0 Z " fill="#B7884A" transform="translate(234,182)"/>
<path d="M0 0 C0.66 0.33 1.32 0.66 2 1 C1.62875 2.0725 1.2575 3.145 0.875 4.25 C-0.32404158 7.79368349 -0.32404158 7.79368349 0.875 10.25 C1.24625 10.8275 1.6175 11.405 2 12 C2 12.99 2 13.98 2 15 C2.66 15 3.32 15 4 15 C6 17 6 17 7 20 C6.01 20 5.02 20 4 20 C2.15003783 17.9549939 0.5126051 15.95392387 -1.125 13.75 C-1.58003906 13.16347656 -2.03507812 12.57695313 -2.50390625 11.97265625 C-4.74428234 9.01429613 -6.26590376 6.62811053 -7 3 C-4.69631264 1.93347808 -2.35981813 0.93578995 0 0 Z " fill="#7E557D" transform="translate(64,26)"/>
<path d="M0 0 C1.65 0.33 3.3 0.66 5 1 C5.33 1.99 5.66 2.98 6 4 C7.65 4 9.3 4 11 4 C11 4.66 11 5.32 11 6 C11.66 6 12.32 6 13 6 C13.33 6.99 13.66 7.98 14 9 C12.56163249 8.88541307 11.12429034 8.75790884 9.6875 8.625 C8.48673828 8.52058594 8.48673828 8.52058594 7.26171875 8.4140625 C5 8 5 8 2 6 C2 5.34 2 4.68 2 4 C0.68 3.67 -0.64 3.34 -2 3 C-1.34 2.01 -0.68 1.02 0 0 Z " fill="#C54262" transform="translate(37,96)"/>
<path d="M0 0 C4.02512852 3.33114085 5.66129814 7.06100148 7 12 C7 12.99 7 13.98 7 15 C7.66 15 8.32 15 9 15 C11.19140625 22.734375 11.19140625 22.734375 10 27 C8.32468327 23.06612462 6.66124197 19.12733737 5 15.1875 C4.28457031 13.50817383 4.28457031 13.50817383 3.5546875 11.79492188 C3.10351562 10.72177734 2.65234375 9.64863281 2.1875 8.54296875 C1.76855469 7.55321045 1.34960938 6.56345215 0.91796875 5.54370117 C0 3 0 3 0 0 Z " fill="#958E59" transform="translate(187,245)"/>
<path d="M0 0 C5.35634203 0.76519172 7.56429182 2.21120675 10.9375 6.5 C14 10.64615385 14 10.64615385 14 13 C13.34 13 12.68 13 12 13 C12 12.34 12 11.68 12 11 C10.35 11.33 8.7 11.66 7 12 C6.34 9.03 5.68 6.06 5 3 C3.35 3 1.7 3 0 3 C0 2.01 0 1.02 0 0 Z " fill="#DC9032" transform="translate(217,244)"/>
<path d="M0 0 C2 1 2 1 4 3 C4 3.99 4 4.98 4 6 C4.33 6.66 4.66 7.32 5 8 C5.721875 7.855625 6.44375 7.71125 7.1875 7.5625 C9.0625 7.1875 10.9375 6.8125 12.8125 6.4375 C13.534375 6.293125 14.25625 6.14875 15 6 C11.9797308 9.35585467 10.44607497 10.22157001 6 12 C3.36 8.7 0.72 5.4 -2 2 C-1.34 1.34 -0.68 0.68 0 0 Z " fill="#775478" transform="translate(81,58)"/>
<path d="M0 0 C1.65 0 3.3 0 5 0 C5.66 1.32 6.32 2.64 7 4 C5.25 6.0625 5.25 6.0625 3 8 C0.75 7.75 0.75 7.75 -1 7 C-0.67 4.69 -0.34 2.38 0 0 Z " fill="#9B5768" transform="translate(52,184)"/>
<path d="M0 0 C1.37562854 1.28965176 2.70766393 2.62689293 4 4 C4 4.66 4 5.32 4 6 C9.05009595 6.93786082 9.05009595 6.93786082 14 6 C13.34 7.32 12.68 8.64 12 10 C7.37410361 10 6.02514149 9.016761 2.25 6.5 C0.77273437 5.52546875 0.77273437 5.52546875 -0.734375 4.53125 C-1.48203125 4.0259375 -2.2296875 3.520625 -3 3 C-2.01 2.01 -1.02 1.02 0 0 Z " fill="#4A7591" transform="translate(194,59)"/>
<path d="M0 0 C1.60887394 2.41331092 2.65308404 4.36778106 3.7265625 7.01171875 C4.0359375 7.76904297 4.3453125 8.52636719 4.6640625 9.30664062 C5.13972656 10.48516602 5.13972656 10.48516602 5.625 11.6875 C5.94984375 12.48478516 6.2746875 13.28207031 6.609375 14.10351562 C7.40920701 16.06780896 8.20499631 18.03374756 9 20 C7 20 7 20 4.875 18 C4.25625 17.34 3.6375 16.68 3 16 C2.67 16.66 2.34 17.32 2 18 C2 14 2 10 2 6 C1.34 5.67 0.68 5.34 0 5 C0 3.35 0 1.7 0 0 Z " fill="#635A86" transform="translate(96,25)"/>
<path d="M0 0 C5.46737191 1.74807129 10.75824848 3.65794081 16 6 C15.67 7.65 15.34 9.3 15 11 C14.67 10.01 14.34 9.02 14 8 C11.03 7.505 11.03 7.505 8 7 C8 6.34 8 5.68 8 5 C7.34 5 6.68 5 6 5 C6 4.34 6 3.68 6 3 C4.35 3 2.7 3 1 3 C0.67 2.01 0.34 1.02 0 0 Z " fill="#B08850" transform="translate(265,195)"/>
<path d="M0 0 C0.86355778 1.95421035 1.71559934 3.91351347 2.5625 5.875 C3.03816406 6.96554688 3.51382813 8.05609375 4.00390625 9.1796875 C4.33261719 10.11039063 4.66132812 11.04109375 5 12 C4.67 12.66 4.34 13.32 4 14 C1.32098068 11.68118495 0.33795597 9.68185532 -0.6875 6.3125 C-0.93886719 5.50425781 -1.19023438 4.69601563 -1.44921875 3.86328125 C-1.63097656 3.24839844 -1.81273438 2.63351563 -2 2 C-2.66 2 -3.32 2 -4 2 C-4.33 2.66 -4.66 3.32 -5 4 C-5.99 3.34 -6.98 2.68 -8 2 C-5.09399739 0.74335022 -3.20395416 0 0 0 Z " fill="#60587E" transform="translate(91,11)"/>
<path d="M0 0 C2.04795423 1.9626228 2.94976638 3.4277307 3.19921875 6.26953125 C3.18858877 8.51954383 3.12958525 10.75385562 3 13 C2.01 13.495 2.01 13.495 1 14 C1 13.34 1 12.68 1 12 C0.34 12 -0.32 12 -1 12 C-0.814375 11.443125 -0.62875 10.88625 -0.4375 10.3125 C0.07628124 7.59679918 -0.44901578 5.6860481 -1 3 C-0.67 2.01 -0.34 1.02 0 0 Z " fill="#3676A9" transform="translate(188,42)"/>
<path d="M0 0 C3.45925163 1.2491742 6.14693203 2.67527795 9 5 C8.52797514 9.24822374 6.03344482 11.19989709 3 14 C2.67 13.34 2.34 12.68 2 12 C2.66 12 3.32 12 4 12 C4.66 10.35 5.32 8.7 6 7 C5.195625 6.21625 4.39125 5.4325 3.5625 4.625 C1 2 1 2 0 0 Z " fill="#4C6E87" transform="translate(226,24)"/>
<path d="M0 0 C3.37503669 1.1858237 5.64722731 2.27573689 8 5 C6.68 5.99 5.36 6.98 4 8 C3.34 7.34 2.68 6.68 2 6 C2.66 6 3.32 6 4 6 C3.01 5.01 2.02 4.02 1 3 C-0.98 3.99 -0.98 3.99 -3 5 C-1.125 1.125 -1.125 1.125 0 0 Z " fill="#5A6E76" transform="translate(87,222)"/>
<path d="M0 0 C1.65 0 3.3 0 5 0 C4.67 1.65 4.34 3.3 4 5 C3.34 5 2.68 5 2 5 C2 6.65 2 8.3 2 10 C0.4375 8.375 0.4375 8.375 -1 6 C-0.6875 2.75 -0.6875 2.75 0 0 Z " fill="#407E86" transform="translate(97,249)"/>
<path d="M0 0 C1.32229189 2.64458379 1.09677194 4.67761301 1.0625 7.625 C1.05347656 8.62789062 1.04445312 9.63078125 1.03515625 10.6640625 C1.02355469 11.43492187 1.01195312 12.20578125 1 13 C-1.22825644 10.77174356 -1.69239369 9.34238372 -2.625 6.375 C-2.88539063 5.55773437 -3.14578125 4.74046875 -3.4140625 3.8984375 C-3.60742188 3.27195313 -3.80078125 2.64546875 -4 2 C-2.68 1.34 -1.36 0.68 0 0 Z " fill="#918C57" transform="translate(186,232)"/>
<path d="M0 0 C1.58294782 -0.05437607 3.16644256 -0.09296271 4.75 -0.125 C5.63171875 -0.14820313 6.5134375 -0.17140625 7.421875 -0.1953125 C10.1135858 0.00860498 11.69904974 0.63448279 14 2 C13.24074219 2.06058594 12.48148438 2.12117187 11.69921875 2.18359375 C10.70535156 2.26738281 9.71148437 2.35117188 8.6875 2.4375 C7.20830078 2.55931641 7.20830078 2.55931641 5.69921875 2.68359375 C2.90624401 2.91812559 2.90624401 2.91812559 0 4 C0 2.68 0 1.36 0 0 Z " fill="#298789" transform="translate(133,241)"/>
<path d="M0 0 C1.32 0.33 2.64 0.66 4 1 C4 1.66 4 2.32 4 3 C4.66 3 5.32 3 6 3 C6.33 4.32 6.66 5.64 7 7 C3.46013806 7 2.50484597 6.41847197 0 4 C0 2.68 0 1.36 0 0 Z " fill="#D28C35" transform="translate(234,209)"/>
<path d="M0 0 C3.3 0 6.6 0 10 0 C10 0.66 10 1.32 10 2 C10.66 2 11.32 2 12 2 C12 2.66 12 3.32 12 4 C4.5 3.375 4.5 3.375 0 0 Z " fill="#E03955" transform="translate(24,131)"/>
<path d="M0 0 C0.66 0.33 1.32 0.66 2 1 C1.34 1.721875 0.68 2.44375 0 3.1875 C-2.1535853 6.21597933 -2.41176754 7.39703406 -2 11 C-3.37562854 9.71034824 -4.70766393 8.37310707 -6 7 C-6 6.34 -6 5.68 -6 5 C-4.04072937 3.2856382 -2.04119788 1.61594832 0 0 Z " fill="#AF8D47" transform="translate(194,228)"/>
<path d="M0 0 C1.32 1.32 2.64 2.64 4 4 C3.34 5.32 2.68 6.64 2 8 C1.01 8 0.02 8 -1 8 C-1.125 2.25 -1.125 2.25 0 0 Z " fill="#785E6B" transform="translate(66,199)"/>
<path d="M0 0 C2.67901932 2.31881505 3.66204403 4.31814468 4.6875 7.6875 C4.93886719 8.49574219 5.19023438 9.30398437 5.44921875 10.13671875 C5.63097656 10.75160156 5.81273438 11.36648437 6 12 C5.34 12 4.68 12 4 12 C4 11.01 4 10.02 4 9 C2.68 8.67 1.36 8.34 0 8 C0 5.36 0 2.72 0 0 Z " fill="#625A84" transform="translate(104,46)"/>
<path d="M0 0 C1.32 0.66 2.64 1.32 4 2 C4 2.66 4 3.32 4 4 C4.66 4.33 5.32 4.66 6 5 C5.34 5.66 4.68 6.32 4 7 C2.02 6.01 0.04 5.02 -2 4 C-1 1 -1 1 0 0 Z " fill="#6B5E94" transform="translate(99,41)"/>
<path d="M0 0 C-0.99 0.495 -0.99 0.495 -2 1 C-2 1.99 -2 2.98 -2 4 C-4.97 3.505 -4.97 3.505 -8 3 C-7.67 2.01 -7.34 1.02 -7 0 C-3.86650268 -1.04449911 -3.01031744 -0.93423645 0 0 Z " fill="#836272" transform="translate(49,218)"/>
<path d="M0 0 C0.66 0.33 1.32 0.66 2 1 C0.68 2.65 -0.64 4.3 -2 6 C-3.65 5.67 -5.3 5.34 -7 5 C-7 4.34 -7 3.68 -7 3 C-4.69631264 1.93347808 -2.35981813 0.93578995 0 0 Z " fill="#985365" transform="translate(49,185)"/>
<path d="M0 0 C1.67542976 0.28604898 3.34385343 0.61781233 5 1 C2.84733158 3.15266842 1.15226256 3.93474462 -1.625 5.125 C-2.44226563 5.47820313 -3.25953125 5.83140625 -4.1015625 6.1953125 C-4.72804688 6.46085937 -5.35453125 6.72640625 -6 7 C-6 6.01 -6 5.02 -6 4 C-3.5625 2.375 -3.5625 2.375 -1 1 C-0.67 0.67 -0.34 0.34 0 0 Z " fill="#67587E" transform="translate(103,57)"/>
<path d="M0 0 C0.99 0.495 0.99 0.495 2 1 C3.28317892 4.84953676 3.06643637 7.94738135 3 12 C2.01 12.33 1.02 12.66 0 13 C0 8.71 0 4.42 0 0 Z " fill="#44907C" transform="translate(160,269)"/>
<path d="M0 0 C2.33944736 0.28730055 4.6739143 0.61936779 7 1 C7.33 2.32 7.66 3.64 8 5 C7.01 5 6.02 5 5 5 C5 4.01 5 3.02 5 2 C4.01 2 3.02 2 2 2 C2 2.66 2 3.32 2 4 C1.34 4 0.68 4 0 4 C-0.33 4.66 -0.66 5.32 -1 6 C-1.042721 4.33388095 -1.04063832 2.66617115 -1 1 C-0.67 0.67 -0.34 0.34 0 0 Z " fill="#BC8842" transform="translate(258,194)"/>
<path d="M0 0 C0.99 0.33 1.98 0.66 3 1 C2.67 2.98 2.34 4.96 2 7 C-1.63 7 -5.26 7 -9 7 C-9 6.67 -9 6.34 -9 6 C-4.545 5.505 -4.545 5.505 0 5 C0 3.35 0 1.7 0 0 Z " fill="#3F9686" transform="translate(160,285)"/>
<path d="M0 0 C2.64 0 5.28 0 8 0 C8 1.32 8 2.64 8 4 C7.34 4 6.68 4 6 4 C5.67 4.66 5.34 5.32 5 6 C4.731875 5.38125 4.46375 4.7625 4.1875 4.125 C3.04443152 1.7004767 3.04443152 1.7004767 0 0 Z " fill="#399183" transform="translate(149,242)"/>
<path d="M0 0 C0.99 0 1.98 0 3 0 C3 0.99 3 1.98 3 3 C3.99 3.33 4.98 3.66 6 4 C3.69 4.66 1.38 5.32 -1 6 C-1.33 5.01 -1.66 4.02 -2 3 C-1.34 2.01 -0.68 1.02 0 0 Z " fill="#767D79" transform="translate(251,97)"/>
<path d="M0 0 C4.38889325 0.66498383 7.9811485 2.18757677 12 4 C8.16714736 5.47417409 5.74123068 4.38262873 2 3 C1.34 3 0.68 3 0 3 C-0.33 3.66 -0.66 4.32 -1 5 C-0.67 3.35 -0.34 1.7 0 0 Z " fill="#456F8E" transform="translate(201,11)"/>
<path d="M0 0 C2.475 0.495 2.475 0.495 5 1 C4.6875 2.9375 4.6875 2.9375 4 5 C3.01 5.33 2.02 5.66 1 6 C0.67 4.02 0.34 2.04 0 0 Z " fill="#DB8D3A" transform="translate(230,259)"/>
<path d="M0 0 C0.33 0 0.66 0 1 0 C1.3125 2.1875 1.3125 2.1875 1 5 C-1.5 7.8125 -1.5 7.8125 -4 10 C-3.4359146 6.05140217 -2.2568294 3.29120954 0 0 Z " fill="#3378AF" transform="translate(199,22)"/>
<path d="M0 0 C0.66 0.33 1.32 0.66 2 1 C1.34 2.65 0.68 4.3 0 6 C-1.32 5.67 -2.64 5.34 -4 5 C-3 2 -3 2 0 0 Z " fill="#D08B30" transform="translate(248,215)"/>
<path d="M0 0 C2.4375 0.625 2.4375 0.625 5 2 C5.8125 5.125 5.8125 5.125 6 8 C1.125 3.375 1.125 3.375 0 0 Z " fill="#7C527A" transform="translate(71,48)"/>
<path d="M0 0 C-3.51187196 2.40814077 -5.72656908 3.36629408 -10 3 C-10 2.34 -10 1.68 -10 1 C-3.375 -1.125 -3.375 -1.125 0 0 Z " fill="#A88F4C" transform="translate(218,274)"/>
<path d="M0 0 C1.32 0 2.64 0 4 0 C4.33 1.32 4.66 2.64 5 4 C3.35 4.33 1.7 4.66 0 5 C0 3.35 0 1.7 0 0 Z " fill="#A1904A" transform="translate(202,273)"/>
<path d="M0 0 C1.32 0.33 2.64 0.66 4 1 C3.67 2.32 3.34 3.64 3 5 C1.35 4.67 -0.3 4.34 -2 4 C-1.34 2.68 -0.68 1.36 0 0 Z " fill="#AA496F" transform="translate(50,73)"/>
<path d="M0 0 C-2.76264289 0.59732819 -5.16032769 1 -8 1 C-8 0.34 -8 -0.32 -8 -1 C-4.59745511 -2.2151946 -3.06748874 -1.86240388 0 0 Z M-11 1 C-8 2 -8 2 -8 2 Z " fill="#CE8E36" transform="translate(230,266)"/>
<path d="M0 0 C1.98 0.495 1.98 0.495 4 1 C3.67 2.65 3.34 4.3 3 6 C1.68 5.01 0.36 4.02 -1 3 C-0.67 2.01 -0.34 1.02 0 0 Z " fill="#198F95" transform="translate(131,273)"/>
<path d="M0 0 C0.66 0 1.32 0 2 0 C1.46930939 3.82097239 0.50298434 6.06171403 -2 9 C-2 7.02 -2 5.04 -2 3 C-1.34 3 -0.68 3 0 3 C0 2.01 0 1.02 0 0 Z " fill="#B78C54" transform="translate(277,206)"/>
<path d="M0 0 C0.33 0 0.66 0 1 0 C1.3125 2.3125 1.3125 2.3125 1 5 C-1.5 6.8125 -1.5 6.8125 -4 8 C-2.87548273 5.0280615 -1.77706209 2.66559313 0 0 Z " fill="#BD8A49" transform="translate(230,191)"/>
<path d="M0 0 C1.65 1.65 3.3 3.3 5 5 C3.35 5.33 1.7 5.66 0 6 C-0.66 4.35 -1.32 2.7 -2 1 C-1.34 0.67 -0.68 0.34 0 0 Z " fill="#757E78" transform="translate(267,90)"/>
<path d="M0 0 C2.31 0.33 4.62 0.66 7 1 C6.67 1.99 6.34 2.98 6 4 C4.35 3.67 2.7 3.34 1 3 C0.67 2.01 0.34 1.02 0 0 Z " fill="#865588" transform="translate(84,63)"/>
<path d="M0 0 C0.33 0 0.66 0 1 0 C1.17942163 3.94727588 1.09350689 6.5980513 -1 10 C-1.66 10 -2.32 10 -3 10 C-2.01 6.7 -1.02 3.4 0 0 Z " fill="#3D7099" transform="translate(192,32)"/>
</svg>
