<svg xmlns="http://www.w3.org/2000/svg" viewBox="0 0 169.9 187.17"><defs><style>.cls-1{fill:#ea3650;}</style></defs><g id="Layer_2" data-name="Layer 2"><g id="Layer_1-2" data-name="Layer 1"><path class="cls-1" d="M147.9,1.67l-54.8,16A29.09,29.09,0,0,1,73,15.87l-4.9-2.3A49.32,49.32,0,0,0,22,18.07,49.43,49.43,0,0,0,0,59v118.8a49.1,49.1,0,0,0,.9,9.4H21.2a33.09,33.09,0,0,1-1.6-9.4V59A29.56,29.56,0,0,1,23,45a29,29,0,0,1,9.7-10.6,29.76,29.76,0,0,1,16.4-4.9A26.89,26.89,0,0,1,60,31.67s7.3,3.1,8.7,3.6v151.8H88.4v-149a55.06,55.06,0,0,0,9.9-1.5l49.1-14.3v139.2a82.15,82.15,0,0,0,19.7-35V20.37l2.8.9V.87A49.65,49.65,0,0,0,147.9,1.67Z"/></g></g></svg>