<svg xmlns="http://www.w3.org/2000/svg" viewBox="0 0 154 200.32"><defs><style>.cls-1{fill:#2075bc;}</style></defs><g id="Layer_2" data-name="Layer 2"><g id="Layer_1-2" data-name="Layer 1"><path class="cls-1" d="M33.12,148.74a27.07,27.07,0,0,0,18.16-7.13C57.46,136,66.88,127.18,78.11,116a39.29,39.29,0,0,0,15.62,3.26c13.21,0,26.26-6.8,39.92-20.8,35.09-36,17.52-62.28,1.26-78.95h0C121.92,6.2,109.92,0,97.15,0,83.94,0,70.88,6.81,57.22,20.81,35,43.63,33.9,62.56,40.25,77.61,29.17,89.27,20.56,99,15.11,105.26a27.44,27.44,0,0,0-4.89,28.16,36,36,0,0,0,.25,50.47,35.58,35.58,0,0,0,25.35,10.52H36a35.57,35.57,0,0,0,25.4-10.68l16-16.23a16.34,16.34,0,0,1,22.73,0,16.79,16.79,0,0,1,0,23.49,9.37,9.37,0,0,0-2.3,9.33,80.66,80.66,0,0,0,22.86-6.67,35.69,35.69,0,0,0-7.14-39.34c-13.18-13.39-36.39-13.38-49.57,0l-16,16.21a16.84,16.84,0,0,1-12,5.08,17.07,17.07,0,0,1-12.42-28.79A24.86,24.86,0,0,0,33.12,148.74ZM70.7,33.94c9.79-10,18.69-15.12,26.46-15.12,7.35,0,15.07,4.4,24.27,13.84,15.87,16.26,20.74,30.1-1.27,52.66-9.79,10-18.68,15.12-26.45,15.12-7.35,0-15.07-4.39-24.27-13.83C53.57,70.34,48.68,56.51,70.7,33.94ZM29.35,117.57c4.78-5.53,12-13.72,21.34-23.6,1.73,2,3.51,4,5.28,5.78,2,2.07,4,4,6,5.72-9.73,9.62-17.9,17.23-23.39,22.23-2.7,2.45-6.52,2.94-8.84,1.2a10.94,10.94,0,0,1-.85-.74,5.85,5.85,0,0,1-.67-.82C26.37,124.75,26.85,120.46,29.35,117.57Z"/></g></g></svg>