<svg xmlns="http://www.w3.org/2000/svg" viewBox="0 0 158 191.99"><defs><style>.cls-1{fill:#ea8f23;}</style></defs><g id="Layer_2" data-name="Layer 2"><g id="Layer_1-2" data-name="Layer 1"><path class="cls-1" d="M92.42,3.12a31.39,31.39,0,0,0-27.3,0L0,36,31.24,51.76V72c0,26.47,21.32,48,47.53,48s47.54-21.53,47.54-48V51.76l15.84-8V96H158V36Zm18,68.87a31.69,31.69,0,1,1-63.38,0V59.76l18,9.1a31.17,31.17,0,0,0,27.31,0l18-9.1ZM85.34,54.55a15.69,15.69,0,0,1-13.13,0L35.44,36,72.2,17.43a15.75,15.75,0,0,1,13.14,0L122.11,36ZM142.1,170.08A35.85,35.85,0,0,0,106.5,136H51.05a35.88,35.88,0,0,0-35.66,36v20H31.24V172a19.94,19.94,0,0,1,19.81-20H106.5a19.94,19.94,0,0,1,19.81,20v8.84Z"/></g></g></svg>