<svg width="134" height="134" viewBox="0 0 134 134" fill="none" xmlns="http://www.w3.org/2000/svg">
<path d="M16.75 130C13.3685 130 10.1255 128.657 7.73439 126.266C5.3433 123.875 4 120.632 4 117.25V83.7524C4.02595 62.6088 12.4367 42.3385 27.3876 27.3876C42.3385 12.4367 62.6088 4.02595 83.7524 4H117.25C120.632 4 123.875 5.3433 126.266 7.73439C128.657 10.1255 130 13.3685 130 16.75C130 20.1315 128.657 23.3745 126.266 25.7656C123.875 28.1567 120.632 29.5 117.25 29.5H83.75C69.362 29.5 55.5633 35.2156 45.3895 45.3895C35.2156 55.5633 29.5 69.362 29.5 83.75V117.25C29.5 120.632 28.1567 123.875 25.7656 126.266C23.3745 128.657 20.1315 130 16.75 130Z" fill="#EA3650" stroke="white" stroke-width="8"/>
</svg>
