<svg width="39" height="39" viewBox="0 0 39 39" fill="none" xmlns="http://www.w3.org/2000/svg">
<mask id="path-1-inside-1_144_27" fill="white">
<path d="M38.5456 19.2729C38.5456 28.8917 31.4885 36.8659 22.2761 38.3129V24.8813H26.7554L27.6083 19.3243H22.2761V15.7187C22.2761 14.1977 23.0213 12.7169 25.4079 12.7169H27.8315V7.98541C27.8315 7.98541 25.6312 7.60959 23.5288 7.60959C19.1378 7.60959 16.2694 10.2709 16.2694 15.0875V19.3227H11.3885V24.8797H16.2694V38.3113C7.05852 36.8627 -0.000183105 28.8901 -0.000183105 19.2729C-0.000183105 8.62945 8.62926 0 19.2727 0C29.9162 0 38.5456 8.62784 38.5456 19.2729Z"/>
</mask>
<path d="M38.5456 19.2729C38.5456 28.8917 31.4885 36.8659 22.2761 38.3129V24.8813H26.7554L27.6083 19.3243H22.2761V15.7187C22.2761 14.1977 23.0213 12.7169 25.4079 12.7169H27.8315V7.98541C27.8315 7.98541 25.6312 7.60959 23.5288 7.60959C19.1378 7.60959 16.2694 10.2709 16.2694 15.0875V19.3227H11.3885V24.8797H16.2694V38.3113C7.05852 36.8627 -0.000183105 28.8901 -0.000183105 19.2729C-0.000183105 8.62945 8.62926 0 19.2727 0C29.9162 0 38.5456 8.62784 38.5456 19.2729Z" fill="#2075BC"/>
<path d="M22.2761 38.3129H0.942759V63.2589L25.5865 59.3879L22.2761 38.3129ZM22.2761 24.8813V3.548H0.942759V24.8813H22.2761ZM26.7554 24.8813V46.2147H45.0645L47.8419 28.1174L26.7554 24.8813ZM27.6083 19.3243L48.6947 22.5604L52.4654 -2.00903H27.6083V19.3243ZM22.2761 19.3243H0.942759V40.6576H22.2761V19.3243ZM27.8315 12.7169V34.0502H49.1648V12.7169H27.8315ZM27.8315 7.98541H49.1648V-10.0131L31.4233 -13.0434L27.8315 7.98541ZM16.2694 19.3227V40.656H37.6027V19.3227H16.2694ZM11.3885 19.3227V-2.01063H-9.94483V19.3227H11.3885ZM11.3885 24.8797H-9.94483V46.2131H11.3885V24.8797ZM16.2694 24.8797H37.6027V3.54639H16.2694V24.8797ZM16.2694 38.3113L12.9548 59.3856L37.6027 63.2622L37.6027 38.3113H16.2694ZM17.2123 19.2729C17.2123 18.2092 17.9786 17.3931 18.9657 17.238L25.5865 59.3879C44.9984 56.3387 59.879 39.5742 59.879 19.2729H17.2123ZM43.6094 38.3129V24.8813H0.942759V38.3129H43.6094ZM22.2761 46.2147H26.7554V3.548H22.2761V46.2147ZM47.8419 28.1174L48.6947 22.5604L6.52181 16.0882L5.66898 21.6452L47.8419 28.1174ZM27.6083 -2.00903H22.2761V40.6576H27.6083V-2.00903ZM43.6094 19.3243V15.7187H0.942759V19.3243H43.6094ZM43.6094 15.7187C43.6094 18.0603 43.0718 22.9906 39.0823 27.6032C34.5936 32.7929 28.8468 34.0502 25.4079 34.0502V-8.61642C19.5825 -8.61642 12.2697 -6.61871 6.81175 -0.308348C1.85295 5.42487 0.942759 11.8561 0.942759 15.7187H43.6094ZM25.4079 34.0502H27.8315V-8.61642H25.4079V34.0502ZM49.1648 12.7169V7.98541H6.49818V12.7169H49.1648ZM27.8315 7.98541C31.4233 -13.0434 31.4217 -13.0437 31.42 -13.0439C31.4194 -13.044 31.4178 -13.0443 31.4167 -13.0445C31.4144 -13.0449 31.4121 -13.0453 31.4098 -13.0457C31.4052 -13.0465 31.4004 -13.0473 31.3954 -13.0481C31.3855 -13.0498 31.375 -13.0516 31.3639 -13.0534C31.3417 -13.0572 31.3171 -13.0613 31.2902 -13.0657C31.2364 -13.0747 31.1731 -13.085 31.1011 -13.0965C30.9572 -13.1195 30.7766 -13.1475 30.5645 -13.1788C30.1439 -13.2408 29.5802 -13.3182 28.918 -13.3947C27.6858 -13.5372 25.717 -13.7237 23.5288 -13.7237V28.9429C23.443 28.9429 23.6256 28.9443 24.0191 28.9897C24.1698 29.0072 24.2876 29.0237 24.3452 29.0322C24.3722 29.0361 24.38 29.0375 24.3646 29.035C24.3568 29.0338 24.3429 29.0315 24.3224 29.0281C24.3121 29.0264 24.3001 29.0244 24.2864 29.0221C24.2795 29.021 24.2722 29.0197 24.2644 29.0184C24.2605 29.0177 24.2565 29.0171 24.2524 29.0164C24.2504 29.016 24.2483 29.0157 24.2462 29.0153C24.2451 29.0151 24.2435 29.0148 24.243 29.0148C24.2414 29.0145 24.2397 29.0142 27.8315 7.98541ZM23.5288 -13.7237C17.0226 -13.7237 9.28991 -11.6718 3.15916 -5.53427C-2.99256 0.624276 -5.06396 8.42341 -5.06396 15.0875H37.6027C37.6027 16.9349 36.9655 20.9951 33.3458 24.6189C29.747 28.2216 25.6441 28.9429 23.5288 28.9429V-13.7237ZM-5.06396 15.0875V19.3227H37.6027V15.0875H-5.06396ZM16.2694 -2.01063H11.3885V40.656H16.2694V-2.01063ZM-9.94483 19.3227V24.8797H32.7218V19.3227H-9.94483ZM11.3885 46.2131H16.2694V3.54639H11.3885V46.2131ZM-5.06396 24.8797V38.3113H37.6027V24.8797H-5.06396ZM19.5839 17.2371C20.5636 17.3912 21.3332 18.2021 21.3332 19.2729H-21.3335C-21.3335 39.5781 -6.44654 56.3342 12.9548 59.3856L19.5839 17.2371ZM21.3332 19.2729C21.3332 20.4115 20.4113 21.3333 19.2727 21.3333V-21.3333C-3.15281 -21.3333 -21.3335 -3.15263 -21.3335 19.2729H21.3332ZM19.2727 21.3333C18.1353 21.3333 17.2123 20.4111 17.2123 19.2729H59.879C59.879 -3.15539 41.6971 -21.3333 19.2727 -21.3333V21.3333Z" fill="#2075BC" mask="url(#path-1-inside-1_144_27)"/>
</svg>
