<svg width="29" height="28" viewBox="0 0 29 28" fill="none" xmlns="http://www.w3.org/2000/svg">
<path d="M14.5 2.52233C18.3715 2.52233 18.8307 2.53633 20.3592 2.604C21.9397 2.674 23.5673 3.02167 24.7189 4.1335C25.8813 5.25583 26.2305 6.81217 26.303 8.34283C26.3731 9.81867 26.3876 10.262 26.3876 14C26.3876 17.738 26.3731 18.1813 26.303 19.6572C26.2317 21.175 25.8632 22.7617 24.7189 23.8665C23.5565 24.9888 21.9458 25.326 20.3592 25.396C18.8307 25.4637 18.3715 25.4777 14.5 25.4777C10.6285 25.4777 10.1693 25.4637 8.64079 25.396C7.08083 25.3272 5.41575 24.9632 4.28113 23.8665C3.12475 22.75 2.7695 21.1785 2.697 19.6572C2.62692 18.1813 2.61242 17.738 2.61242 14C2.61242 10.262 2.62692 9.81867 2.697 8.34283C2.76829 6.83083 3.14046 5.23483 4.28113 4.1335C5.44113 3.0135 7.05908 2.674 8.64079 2.604C10.1693 2.53633 10.6285 2.52233 14.5 2.52233ZM14.5 0C10.562 0 10.0678 0.0163333 8.52117 0.084C6.27971 0.183167 4.05396 0.785167 2.43358 2.34967C0.807167 3.92 0.189708 6.06433 0.087 8.22733C0.0169167 9.72067 0 10.1978 0 14C0 17.8022 0.0169167 18.2793 0.087 19.7727C0.189708 21.9345 0.815625 24.0893 2.43358 25.6503C4.05879 27.2195 6.28333 27.8168 8.52117 27.916C10.0678 27.9837 10.562 28 14.5 28C18.438 28 18.9322 27.9837 20.4788 27.916C22.7191 27.8168 24.9473 27.2137 26.5664 25.6503C28.194 24.0788 28.8103 21.9357 28.913 19.7727C28.9831 18.2793 29 17.8022 29 14C29 10.1978 28.9831 9.72067 28.913 8.22733C28.8103 6.06317 28.1856 3.913 26.5664 2.34967C24.9436 0.782833 22.713 0.182 20.4788 0.084C18.9322 0.0163333 18.438 0 14.5 0Z" fill="#EA3650"/>
<path d="M14.5 6.81104C10.3881 6.81104 7.05426 10.0299 7.05426 14C7.05426 17.9702 10.3881 21.189 14.5 21.189C18.612 21.189 21.9458 17.9702 21.9458 14C21.9458 10.0299 18.612 6.81104 14.5 6.81104ZM14.5 18.6667C11.8308 18.6667 9.66668 16.5772 9.66668 14C9.66668 11.4229 11.8308 9.33337 14.5 9.33337C17.1692 9.33337 19.3333 11.4229 19.3333 14C19.3333 16.5772 17.1692 18.6667 14.5 18.6667Z" fill="#EA3650"/>
<path d="M22.2406 8.20619C23.2016 8.20619 23.9806 7.45403 23.9806 6.52619C23.9806 5.59835 23.2016 4.84619 22.2406 4.84619C21.2796 4.84619 20.5006 5.59835 20.5006 6.52619C20.5006 7.45403 21.2796 8.20619 22.2406 8.20619Z" fill="#EA3650"/>
</svg>
