<svg width="58" height="58" viewBox="0 0 58 58" fill="none" xmlns="http://www.w3.org/2000/svg">
<path d="M42.6396 30.2564C42.3083 29.586 41.9333 28.8924 41.5208 28.1756C41.1555 27.5424 40.9655 26.7792 40.9704 25.9664C40.9802 24.2154 40.8616 22.4412 40.6181 20.6918C39.9166 15.6509 34.9562 11.5482 29.4048 11.5482C24.0109 11.5482 19.0521 15.6493 18.3491 20.6918C18.1055 22.4412 17.987 24.2154 17.9967 25.9664C18.0016 26.7776 17.8116 27.5424 17.4447 28.1772C17.0339 28.8893 16.6588 29.5814 16.3292 30.2486C15.5173 31.8897 15.4524 33.7243 16.1473 35.4118C16.839 37.0978 18.1899 38.4014 19.9484 39.0795C21.0379 39.499 22.1923 39.8489 23.6764 40.0951C23.7024 43.1388 26.2971 45.6081 29.4827 45.6081C32.6684 45.6081 35.2582 43.145 35.2891 40.1059C36.7715 39.8628 37.9211 39.5129 39.0366 39.0795C40.7902 38.3983 42.1346 37.0962 42.8231 35.4134C43.5131 33.7274 43.4482 31.8959 42.6396 30.2564ZM29.4844 42.5118C28.2065 42.5118 27.1446 41.6061 26.9547 40.4279C27.721 40.4666 28.5572 40.4867 29.4827 40.4867C30.4083 40.4867 31.2493 40.4682 32.0141 40.431C31.8225 41.6076 30.7606 42.5118 29.4844 42.5118ZM39.7997 34.2878C39.4376 35.1719 38.733 35.8546 37.8139 36.2122C35.9386 36.9399 33.8911 37.3904 29.4844 37.3904C25.1134 37.3904 23.061 36.9383 21.1678 36.2076C20.2439 35.8515 19.536 35.1688 19.1723 34.2816C18.8069 33.3945 18.8427 32.43 19.2697 31.5661C19.5717 30.9531 19.9159 30.3199 20.291 29.6681C20.9226 28.572 21.2522 27.2854 21.2441 25.9494C21.236 24.3408 21.3448 22.709 21.5672 21.1005C22.0543 17.6016 25.6427 14.6461 29.5607 14.6461C33.3212 14.6461 36.9095 17.6016 37.3983 21.1005C37.6223 22.7106 37.7311 24.3424 37.7214 25.9509C37.7133 27.2901 38.0429 28.5766 38.6745 29.6696C39.0512 30.3261 39.397 30.9624 39.7007 31.577C40.1261 32.4393 40.1618 33.4038 39.7981 34.2894L39.7997 34.2878Z" fill="white"/>
</svg>
