<svg width="134" height="134" viewBox="0 0 134 134" fill="none" xmlns="http://www.w3.org/2000/svg">
<path d="M117.25 130C113.868 130 110.625 128.657 108.234 126.266C105.843 123.875 104.5 120.632 104.5 117.25V83.75C104.5 69.362 98.7844 55.5633 88.6105 45.3895C78.4367 35.2156 64.638 29.5 50.25 29.5H16.75C13.3685 29.5 10.1255 28.1567 7.73438 25.7656C5.34329 23.3745 4 20.1315 4 16.75C4 13.3685 5.34329 10.1255 7.73438 7.73439C10.1255 5.3433 13.3685 4 16.75 4H50.2476C71.3912 4.02595 91.6615 12.4367 106.612 27.3876C121.564 42.339 129.975 62.6103 130 83.7548V117.25C130 120.632 128.657 123.875 126.266 126.266C123.875 128.657 120.632 130 117.25 130Z" fill="#2075BC" stroke="white" stroke-width="8"/>
</svg>
