<svg width="40" height="40" viewBox="0 0 40 40" fill="none" xmlns="http://www.w3.org/2000/svg">
<circle cx="20" cy="20" r="20" fill="white"/>
<g clipPath="url(#clip0_108_3)">
<path d="M26.2716 9.97531H25.7778V9.48148C25.7778 8.66272 25.1141 8 24.2963 8C23.4785 8 22.8148 8.66272 22.8148 9.48148V9.97531H16.8889V9.48148C16.8889 8.66272 16.2252 8 15.4074 8C14.5896 8 13.9259 8.66272 13.9259 9.48148V9.97531H13.4321C10.4375 9.97531 8 12.4119 8 15.4074V26.2716C8 29.2672 10.4375 31.7037 13.4321 31.7037H26.2716C29.2662 31.7037 31.7037 29.2672 31.7037 26.2716V15.4074C31.7037 12.4119 29.2662 9.97531 26.2716 9.97531ZM26.2716 28.7407H13.4321C12.0701 28.7407 10.963 27.6326 10.963 26.2716V16.8889H28.7407V26.2716C28.7407 27.6326 27.6336 28.7407 26.2716 28.7407ZM17.8765 20.3457V22.321C17.8765 23.1388 17.2128 23.8025 16.3951 23.8025H14.4198C13.602 23.8025 12.9383 23.1388 12.9383 22.321V20.3457C12.9383 19.5279 13.602 18.8642 14.4198 18.8642H16.3951C17.2128 18.8642 17.8765 19.5279 17.8765 20.3457Z" fill="black"/>
</g>
<defs>
<clipPath id="clip0_108_3">
<rect width="23.7037" height="23.7037" fill="white" transform="translate(8 8)"/>
</clipPath>
</defs>
</svg>
