<svg width="40" height="40" viewBox="0 0 40 40" fill="none" xmlns="http://www.w3.org/2000/svg">
<circle cx="20" cy="20" r="20" fill="white"/>
<g clip-path="url(#clip0_340_4)">
<path d="M26.4197 10.1233H25.9259V9.62943C25.9259 8.81067 25.2622 8.14795 24.4444 8.14795C23.6267 8.14795 22.9629 8.81067 22.9629 9.62943V10.1233H17.037V9.62943C17.037 8.81067 16.3733 8.14795 15.5555 8.14795C14.7378 8.14795 14.0741 8.81067 14.0741 9.62943V10.1233H13.5802C10.5857 10.1233 8.14813 12.5598 8.14813 15.5554V26.4196C8.14813 29.4151 10.5857 31.8517 13.5802 31.8517H26.4197C29.4143 31.8517 31.8518 29.4151 31.8518 26.4196V15.5554C31.8518 12.5598 29.4143 10.1233 26.4197 10.1233ZM26.4197 28.8887H13.5802C12.2183 28.8887 11.1111 27.7805 11.1111 26.4196V17.0368H28.8889V26.4196C28.8889 27.7805 27.7817 28.8887 26.4197 28.8887ZM18.0247 20.4936V22.4689C18.0247 23.2867 17.361 23.9504 16.5432 23.9504H14.5679C13.7501 23.9504 13.0864 23.2867 13.0864 22.4689V20.4936C13.0864 19.6759 13.7501 19.0121 14.5679 19.0121H16.5432C17.361 19.0121 18.0247 19.6759 18.0247 20.4936Z" fill="#313131"/>
</g>
<defs>
<clipPath id="clip0_340_4">
<rect width="23.7037" height="23.7037" fill="white" transform="translate(8.14813 8.14795)"/>
</clipPath>
</defs>
</svg>
