<svg width="50" height="50" viewBox="0 0 50 50" fill="none" xmlns="http://www.w3.org/2000/svg">
<rect width="50" height="50" rx="19" fill="#2075BC" fill-opacity="0.1"/>
<mask id="path-2-inside-1_324_2" fill="white">
<path d="M40 25.5C40 32.7367 34.6906 38.7361 27.7596 39.8248V29.7195H31.1296L31.7713 25.5387H27.7596V22.826C27.7596 21.6817 28.3202 20.5676 30.1158 20.5676H31.9392V17.0078C31.9392 17.0078 30.2838 16.7251 28.7021 16.7251C25.3985 16.7251 23.2404 18.7273 23.2404 22.3511V25.5375H19.5683V29.7183H23.2404V39.8236C16.3106 38.7337 11 32.7355 11 25.5C11 17.4924 17.4924 11 25.5 11C33.5076 11 40 17.4912 40 25.5Z"/>
</mask>
<path d="M40 25.5C40 32.7367 34.6906 38.7361 27.7596 39.8248V29.7195H31.1296L31.7713 25.5387H27.7596V22.826C27.7596 21.6817 28.3202 20.5676 30.1158 20.5676H31.9392V17.0078C31.9392 17.0078 30.2838 16.7251 28.7021 16.7251C25.3985 16.7251 23.2404 18.7273 23.2404 22.3511V25.5375H19.5683V29.7183H23.2404V39.8236C16.3106 38.7337 11 32.7355 11 25.5C11 17.4924 17.4924 11 25.5 11C33.5076 11 40 17.4912 40 25.5Z" fill="#2075BC"/>
<path d="M27.7596 39.8248H6.42625V64.7707L31.07 60.8997L27.7596 39.8248ZM27.7596 29.7195V8.38617H6.42625V29.7195H27.7596ZM31.1296 29.7195V51.0528H49.4387L52.2161 32.9556L31.1296 29.7195ZM31.7713 25.5387L52.8577 28.7748L56.6283 4.20533H31.7713V25.5387ZM27.7596 25.5387H6.42625V46.872H27.7596V25.5387ZM31.9392 20.5676V41.9009H53.2725V20.5676H31.9392ZM31.9392 17.0078H53.2725V-0.990651L35.531 -4.02096L31.9392 17.0078ZM23.2404 25.5375V46.8708H44.5737V25.5375H23.2404ZM19.5683 25.5375V4.20413H-1.76504V25.5375H19.5683ZM19.5683 29.7183H-1.76504V51.0516H19.5683V29.7183ZM23.2404 29.7183H44.5737V8.38496H23.2404V29.7183ZM23.2404 39.8236L19.9259 60.8979L44.5737 64.7745V39.8236H23.2404ZM18.6667 25.5C18.6667 22.0542 21.1807 19.2633 24.4492 18.7499L31.07 60.8997C48.2005 58.2089 61.3333 43.4192 61.3333 25.5H18.6667ZM49.0929 39.8248V29.7195H6.42625V39.8248H49.0929ZM27.7596 51.0528H31.1296V8.38617H27.7596V51.0528ZM52.2161 32.9556L52.8577 28.7748L10.6848 22.3026L10.0432 26.4834L52.2161 32.9556ZM31.7713 4.20533H27.7596V46.872H31.7713V4.20533ZM49.0929 25.5387V22.826H6.42625V25.5387H49.0929ZM49.0929 22.826C49.0929 25.3559 48.5092 30.4721 44.3996 35.2234C39.7909 40.5519 33.8502 41.9009 30.1158 41.9009V-0.765749C24.5859 -0.765749 17.467 1.14029 12.1291 7.31188C7.29031 12.9063 6.42625 19.1517 6.42625 22.826H49.0929ZM30.1158 41.9009H31.9392V-0.765749H30.1158V41.9009ZM53.2725 20.5676V17.0078H10.6059V20.5676H53.2725ZM31.9392 17.0078C35.531 -4.02096 35.5294 -4.02124 35.5277 -4.02152C35.5272 -4.02162 35.5255 -4.0219 35.5244 -4.02209C35.5222 -4.02247 35.5199 -4.02285 35.5176 -4.02324C35.513 -4.02402 35.5083 -4.02482 35.5035 -4.02564C35.4939 -4.02727 35.4838 -4.02898 35.4732 -4.03076C35.452 -4.03431 35.429 -4.03816 35.4042 -4.04228C35.3545 -4.0505 35.2973 -4.05982 35.2332 -4.07008C35.1053 -4.09053 34.948 -4.11493 34.7655 -4.14182C34.4041 -4.19507 33.9247 -4.26089 33.3633 -4.32578C32.3323 -4.44495 30.63 -4.60825 28.7021 -4.60825V38.0584C28.3559 38.0584 28.2721 38.0365 28.4643 38.0587C28.5144 38.0645 28.5478 38.0694 28.5462 38.0691C28.5436 38.0687 28.528 38.0664 28.4968 38.0614C28.481 38.0589 28.461 38.0557 28.4363 38.0516C28.424 38.0495 28.4104 38.0473 28.3956 38.0448C28.3882 38.0436 28.3805 38.0423 28.3725 38.0409C28.3685 38.0402 28.3644 38.0395 28.3602 38.0388C28.3581 38.0385 28.356 38.0381 28.3539 38.0377C28.3528 38.0375 28.3512 38.0373 28.3507 38.0372C28.3491 38.0369 28.3474 38.0366 31.9392 17.0078ZM28.7021 -4.60825C22.7395 -4.60825 15.4563 -2.72111 9.63909 3.10259C3.8009 8.94727 1.90708 16.2834 1.90708 22.3511H44.5737C44.5737 24.795 43.759 29.3181 39.8257 33.2557C35.9134 37.1724 31.361 38.0584 28.7021 38.0584V-4.60825ZM1.90708 22.3511V25.5375H44.5737V22.3511H1.90708ZM23.2404 4.20413H19.5683V46.8708H23.2404V4.20413ZM-1.76504 25.5375V29.7183H40.9016V25.5375H-1.76504ZM19.5683 51.0516H23.2404V8.38496H19.5683V51.0516ZM1.90708 29.7183V39.8236H44.5737V29.7183H1.90708ZM26.555 18.7493C29.8157 19.2622 32.3333 22.0475 32.3333 25.5H-10.3333C-10.3333 43.4235 2.80556 58.2052 19.9259 60.8979L26.555 18.7493ZM32.3333 25.5C32.3333 29.2744 29.2745 32.3333 25.5 32.3333V-10.3333C5.7103 -10.3333 -10.3333 5.7103 -10.3333 25.5H32.3333ZM25.5 32.3333C21.7267 32.3333 18.6667 29.2744 18.6667 25.5H61.3333C61.3333 5.70794 45.2885 -10.3333 25.5 -10.3333V32.3333Z" fill="#2075BC" mask="url(#path-2-inside-1_324_2)"/>
</svg>
