<svg width="67" height="67" viewBox="0 0 67 67" fill="none" xmlns="http://www.w3.org/2000/svg">
<rect x="6.10352e-05" width="66.4583" height="66.4583" rx="19" fill="#E9F2F9"/>
<mask id="path-2-inside-1_320_2" fill="white">
<path d="M52.5459 33.2729C52.5459 42.8917 45.4888 50.8659 36.2763 52.3129V38.8813H40.7557L41.6085 33.3243H36.2763V29.7187C36.2763 28.1977 37.0216 26.7169 39.4082 26.7169H41.8318V21.9854C41.8318 21.9854 39.6314 21.6096 37.5291 21.6096C33.1381 21.6096 30.2696 24.2709 30.2696 29.0875V33.3227H25.3887V38.8797H30.2696V52.3113C21.0588 50.8627 14.0001 42.8901 14.0001 33.2729C14.0001 22.6294 22.6295 14 33.273 14C43.9164 14 52.5459 22.6278 52.5459 33.2729Z"/>
</mask>
<path d="M52.5459 33.2729C52.5459 42.8917 45.4888 50.8659 36.2763 52.3129V38.8813H40.7557L41.6085 33.3243H36.2763V29.7187C36.2763 28.1977 37.0216 26.7169 39.4082 26.7169H41.8318V21.9854C41.8318 21.9854 39.6314 21.6096 37.5291 21.6096C33.1381 21.6096 30.2696 24.2709 30.2696 29.0875V33.3227H25.3887V38.8797H30.2696V52.3113C21.0588 50.8627 14.0001 42.8901 14.0001 33.2729C14.0001 22.6294 22.6295 14 33.273 14C43.9164 14 52.5459 22.6278 52.5459 33.2729Z" fill="#2075BC"/>
<path d="M36.2763 52.3129H14.943V77.2589L39.5867 73.3879L36.2763 52.3129ZM36.2763 38.8813V17.548H14.943V38.8813H36.2763ZM40.7557 38.8813V60.2147H59.0648L61.8421 42.1174L40.7557 38.8813ZM41.6085 33.3243L62.695 36.5604L66.4656 11.991H41.6085V33.3243ZM36.2763 33.3243H14.943V54.6576H36.2763V33.3243ZM41.8318 26.7169V48.0502H63.1651V26.7169H41.8318ZM41.8318 21.9854H63.1651V3.98693L45.4235 0.956614L41.8318 21.9854ZM30.2696 33.3227V54.656H51.6029V33.3227H30.2696ZM25.3887 33.3227V11.9894H4.05541V33.3227H25.3887ZM25.3887 38.8797H4.05541V60.2131H25.3887V38.8797ZM30.2696 38.8797H51.6029V17.5464H30.2696V38.8797ZM30.2696 52.3113L26.9551 73.3856L51.6029 77.2622V52.3113H30.2696ZM31.2126 33.2729C31.2126 32.2092 31.9789 31.3931 32.9659 31.238L39.5867 73.3879C58.9987 70.3387 73.8792 53.5742 73.8792 33.2729H31.2126ZM57.6097 52.3129V38.8813H14.943V52.3129H57.6097ZM36.2763 60.2147H40.7557V17.548H36.2763V60.2147ZM61.8421 42.1174L62.695 36.5604L20.5221 30.0882L19.6692 35.6452L61.8421 42.1174ZM41.6085 11.991H36.2763V54.6576H41.6085V11.991ZM57.6097 33.3243V29.7187H14.943V33.3243H57.6097ZM57.6097 29.7187C57.6097 32.0603 57.0721 36.9906 53.0826 41.6032C48.5938 46.7929 42.847 48.0502 39.4082 48.0502V5.38358C33.5827 5.38358 26.27 7.38129 20.812 13.6917C15.8532 19.4249 14.943 25.8561 14.943 29.7187H57.6097ZM39.4082 48.0502H41.8318V5.38358H39.4082V48.0502ZM63.1651 26.7169V21.9854H20.4984V26.7169H63.1651ZM41.8318 21.9854C45.4235 0.956614 45.4219 0.956335 45.4202 0.956054C45.4197 0.955958 45.418 0.955675 45.4169 0.955484C45.4147 0.955101 45.4124 0.954712 45.4101 0.954316C45.4054 0.953526 45.4006 0.952711 45.3957 0.951872C45.3858 0.950193 45.3753 0.94842 45.3642 0.946553C45.342 0.94282 45.3174 0.938711 45.2904 0.934256C45.2366 0.925348 45.1734 0.915025 45.1013 0.903502C44.9575 0.880501 44.7769 0.852467 44.5648 0.821214C44.1441 0.759235 43.5804 0.681787 42.9183 0.605257C41.686 0.462826 39.7173 0.276255 37.5291 0.276255V42.9429C37.4432 42.9429 37.6258 42.9443 38.0193 42.9897C38.1701 43.0072 38.2878 43.0237 38.3454 43.0322C38.3724 43.0361 38.3802 43.0375 38.3649 43.035C38.3571 43.0338 38.3432 43.0315 38.3226 43.0281C38.3123 43.0264 38.3003 43.0244 38.2866 43.0221C38.2797 43.021 38.2724 43.0197 38.2646 43.0184C38.2608 43.0177 38.2568 43.0171 38.2527 43.0164C38.2506 43.016 38.2485 43.0157 38.2464 43.0153C38.2453 43.0151 38.2437 43.0148 38.2432 43.0148C38.2416 43.0145 38.24 43.0142 41.8318 21.9854ZM37.5291 0.276255C31.0228 0.276255 23.2902 2.32816 17.1594 8.46573C11.0077 14.6243 8.93628 22.4234 8.93628 29.0875H51.6029C51.6029 30.9349 50.9658 34.9951 47.346 38.6189C43.7472 42.2216 39.6443 42.9429 37.5291 42.9429V0.276255ZM8.93628 29.0875V33.3227H51.6029V29.0875H8.93628ZM30.2696 11.9894H25.3887V54.656H30.2696V11.9894ZM4.05541 33.3227V38.8797H46.7221V33.3227H4.05541ZM25.3887 60.2131H30.2696V17.5464H25.3887V60.2131ZM8.93628 38.8797V52.3113H51.6029V38.8797H8.93628ZM33.5842 31.2371C34.5638 31.3912 35.3334 32.2021 35.3334 33.2729H-7.33327C-7.33327 53.5781 7.5537 70.3342 26.9551 73.3856L33.5842 31.2371ZM35.3334 33.2729C35.3334 34.4115 34.4116 35.3333 33.273 35.3333V-7.33333C10.8474 -7.33333 -7.33327 10.8474 -7.33327 33.2729H35.3334ZM33.273 35.3333C32.1355 35.3333 31.2126 34.4111 31.2126 33.2729H73.8792C73.8792 10.8446 55.6974 -7.33333 33.273 -7.33333V35.3333Z" fill="#2075BC" mask="url(#path-2-inside-1_320_2)"/>
</svg>
