<svg width="21" height="21" viewBox="0 0 21 21" fill="none" xmlns="http://www.w3.org/2000/svg">
<path d="M14.0918 6.90803C14.6047 7.42003 14.6047 8.25235 14.0918 8.76435C13.579 9.27722 12.7484 9.27722 12.2355 8.76435C11.075 7.60382 9.04979 7.60295 7.88928 8.76435L3.5229 13.1308C2.32475 14.3289 2.32475 16.2789 3.5229 17.4771C4.72105 18.6752 6.671 18.6752 7.86915 17.4771C8.38202 16.9642 9.21258 16.9642 9.72545 17.4771C10.2383 17.9891 10.2383 18.8214 9.72545 19.3334C7.50419 21.5555 3.88786 21.5555 1.6666 19.3334C-0.555532 17.1112 -0.555532 13.4966 1.6666 11.2745L6.03298 6.90803C7.14448 5.79651 8.60344 5.24163 10.0624 5.24163C11.5214 5.24163 12.9812 5.79739 14.0918 6.90803ZM15.3031 0C13.8441 0 12.3852 0.555758 11.2737 1.6664C10.7608 2.1784 10.7608 3.01072 11.2737 3.52272C11.7865 4.03559 12.6171 4.03559 13.13 3.52272C14.329 2.32368 16.2789 2.32456 17.4762 3.52272C18.6744 4.72088 18.6744 6.67085 17.4762 7.86901L13.1344 12.2109C11.9353 13.41 9.98538 13.41 8.78811 12.2109C8.27524 11.6981 7.44468 11.6981 6.93181 12.2109C6.41894 12.7229 6.41894 13.5552 6.93181 14.0672C9.15394 16.2894 12.7685 16.2894 14.9907 14.0672L19.3334 9.72533C21.5555 7.50317 21.5555 3.88856 19.3334 1.6664C18.2219 0.554882 16.7621 0 15.3031 0Z" fill="#313131"/>
</svg>
