<svg width="50" height="50" viewBox="0 0 50 50" fill="none" xmlns="http://www.w3.org/2000/svg">
<rect width="50" height="50" rx="19" fill="#C43EF3" fill-opacity="0.1"/>
<path d="M25.5 13.5223C29.3715 13.5223 29.8307 13.5363 31.3592 13.604C32.9397 13.674 34.5673 14.0217 35.7189 15.1335C36.8813 16.2558 37.2305 17.8122 37.303 19.3428C37.3731 20.8187 37.3876 21.262 37.3876 25C37.3876 28.738 37.3731 29.1813 37.303 30.6572C37.2317 32.175 36.8632 33.7617 35.7189 34.8665C34.5565 35.9888 32.9458 36.326 31.3592 36.396C29.8307 36.4637 29.3715 36.4777 25.5 36.4777C21.6285 36.4777 21.1693 36.4637 19.6408 36.396C18.0808 36.3272 16.4158 35.9632 15.2811 34.8665C14.1248 33.75 13.7695 32.1785 13.697 30.6572C13.6269 29.1813 13.6124 28.738 13.6124 25C13.6124 21.262 13.6269 20.8187 13.697 19.3428C13.7683 17.8308 14.1405 16.2348 15.2811 15.1335C16.4411 14.0135 18.0591 13.674 19.6408 13.604C21.1693 13.5363 21.6285 13.5223 25.5 13.5223ZM25.5 11C21.562 11 21.0678 11.0163 19.5212 11.084C17.2797 11.1832 15.054 11.7852 13.4336 13.3497C11.8072 14.92 11.1897 17.0643 11.087 19.2273C11.0169 20.7207 11 21.1978 11 25C11 28.8022 11.0169 29.2793 11.087 30.7727C11.1897 32.9345 11.8156 35.0893 13.4336 36.6503C15.0588 38.2195 17.2833 38.8168 19.5212 38.916C21.0678 38.9837 21.562 39 25.5 39C29.438 39 29.9322 38.9837 31.4788 38.916C33.7191 38.8168 35.9473 38.2137 37.5664 36.6503C39.194 35.0788 39.8103 32.9357 39.913 30.7727C39.9831 29.2793 40 28.8022 40 25C40 21.1978 39.9831 20.7207 39.913 19.2273C39.8103 17.0632 39.1856 14.913 37.5664 13.3497C35.9436 11.7828 33.713 11.182 31.4788 11.084C29.9322 11.0163 29.438 11 25.5 11Z" fill="#C43EF3"/>
<path d="M25.5 17.811C21.3881 17.811 18.0543 21.0299 18.0543 25C18.0543 28.9702 21.3881 32.189 25.5 32.189C29.612 32.189 32.9458 28.9702 32.9458 25C32.9458 21.0299 29.612 17.811 25.5 17.811ZM25.5 29.6667C22.8308 29.6667 20.6667 27.5772 20.6667 25C20.6667 22.4229 22.8308 20.3334 25.5 20.3334C28.1692 20.3334 30.3333 22.4229 30.3333 25C30.3333 27.5772 28.1692 29.6667 25.5 29.6667Z" fill="#C43EF3"/>
</svg>
