<svg width="237" height="236" viewBox="0 0 237 236" fill="none" xmlns="http://www.w3.org/2000/svg">
<mask id="mask0_92_220" style="mask-type:alpha" maskUnits="userSpaceOnUse" x="0" y="0" width="237" height="236">
<path d="M203.767 11.4337L203.56 11.3648L176.863 2.51333C167.641 -0.548738 157.721 -0.819029 148.346 1.73637L93.5156 17.6592C86.8019 19.4388 79.6773 18.8125 73.3769 15.8889L68.4602 13.6072C60.9927 10.5011 52.8744 9.2853 44.8248 10.0677C36.7751 10.85 29.0428 13.6064 22.3129 18.0924C15.5831 22.5784 10.0636 28.6556 6.24359 35.7854C2.42361 42.9152 0.421119 50.8773 0.413574 58.9663L0.413574 177.724C0.43424 188.359 3.89253 198.702 10.2724 207.21C16.6522 215.718 25.6116 221.934 35.8136 224.932L64.0254 233.783C68.7849 235.263 73.742 236.01 78.7262 235.996C83.1691 236.053 87.5959 235.453 91.8636 234.216L148.897 218.48C154.109 217.066 159.609 217.111 164.797 218.608L187.837 225.257C193.621 226.655 199.647 226.723 205.461 225.455C211.275 224.187 216.726 221.615 221.403 217.935C226.079 214.255 229.86 209.561 232.46 204.207C235.06 198.854 236.412 192.98 236.414 187.028V57.7467C236.399 47.6052 233.255 37.7154 227.413 29.4268C221.57 21.1382 213.312 14.8547 203.767 11.4337ZM41.4776 206.088C35.3249 204.309 29.9145 200.583 26.0569 195.469C22.1993 190.356 20.1024 184.13 20.0802 177.724V58.9663C20.0325 54.0948 21.2107 49.2895 23.5064 44.9929C25.8022 40.6962 29.1417 37.0462 33.2176 34.3788C38.0674 31.1612 43.7604 29.4502 49.5802 29.4613C53.3333 29.4623 57.0492 30.2043 60.5149 31.6446C60.5149 31.6446 67.8407 34.782 69.2371 35.2836V214.772L41.4776 206.088ZM88.9136 214.625V38.1062C92.2536 37.929 95.5675 37.4183 98.8059 36.5818L147.914 22.3112V198.623L88.9136 214.625ZM216.747 187.028C216.749 189.974 216.089 192.883 214.817 195.54C213.545 198.197 211.692 200.534 209.395 202.378C207.099 204.223 204.417 205.528 201.549 206.198C198.68 206.867 195.698 206.883 192.822 206.245L167.58 199.135V20.3639L197.257 29.9923C202.961 32.0592 207.89 35.8312 211.377 40.7963C214.864 45.7615 216.738 51.6793 216.747 57.7467V187.028Z" fill="black"/>
</mask>
<g mask="url(#mask0_92_220)">
<path d="M-189.586 -30.8962C-189.586 -76.1836 -152.874 -112.896 -107.586 -112.896H88.4135C133.701 -112.896 170.414 -76.1836 170.414 -30.8962V105.104C170.414 150.391 133.701 187.104 88.4135 187.104H-107.586C-152.874 187.104 -189.586 150.391 -189.586 105.104V-30.8962Z" fill="#EA3650" fill-opacity="0.1"/>
</g>
</svg>
