<svg width="23" height="23" viewBox="0 0 23 23" fill="none" xmlns="http://www.w3.org/2000/svg">
<path d="M21.606 8.12728L14.8731 1.39405C13.0145 -0.464683 9.98644 -0.464683 8.12781 1.39405L1.39398 8.12728C-0.464659 9.98697 -0.464659 13.0133 1.39398 14.873L8.12685 21.6062C9.05665 22.536 10.2778 23 11.5 23C12.7222 23 13.9434 22.536 14.8731 21.6062L21.606 14.873C23.4647 13.0133 23.4647 9.98697 21.606 8.12728ZM16.4155 12.5752L14.0948 14.896C13.9079 15.0829 13.6625 15.1768 13.4171 15.1768C13.1717 15.1768 12.9263 15.0829 12.7394 14.896C12.3646 14.5212 12.3646 13.9153 12.7394 13.5405L14.7792 11.5006H9.58289C9.05377 11.5006 8.62434 11.9301 8.62434 12.4592V15.335C8.62434 15.8651 8.19587 16.2936 7.66579 16.2936C7.13571 16.2936 6.70724 15.8651 6.70724 15.335V12.4592C6.70724 10.8737 7.99745 9.58339 9.58289 9.58339H14.7792L12.7394 7.54349C12.3646 7.16867 12.3646 6.56284 12.7394 6.18802C13.1142 5.81321 13.72 5.81321 14.0948 6.18802L16.4155 8.5088C17.537 9.63036 17.537 11.4536 16.4155 12.5752Z" fill="white"/>
</svg>
