<svg width="134" height="134" viewBox="0 0 134 134" fill="none" xmlns="http://www.w3.org/2000/svg">
<path d="M50.2452 130H16.75C13.3685 130 10.1255 128.657 7.73438 126.266C5.3433 123.875 4 120.632 4 117.25C4 113.868 5.3433 110.625 7.73438 108.234C10.1255 105.843 13.3685 104.5 16.75 104.5H50.25C64.638 104.5 78.4367 98.7844 88.6105 88.6105C98.7844 78.4367 104.5 64.638 104.5 50.25V16.75C104.5 13.3685 105.843 10.1255 108.234 7.73437C110.625 5.3433 113.868 4 117.25 4C120.632 4 123.875 5.3433 126.266 7.73438C128.657 10.1255 130 13.3685 130 16.75V50.2452C129.975 71.3897 121.564 91.661 106.612 106.612C91.661 121.564 71.3897 129.975 50.2452 130Z" fill="#EA8F23" stroke="white" stroke-width="8"/>
</svg>
