<svg width="22" height="22" viewBox="0 0 22 22" fill="none" xmlns="http://www.w3.org/2000/svg">
<g clipPath="url(#clip0_137_2)">
<path d="M21.1928 0.808442C20.8641 0.475808 20.4552 0.233559 20.0056 0.105098C19.556 -0.0233623 19.0809 -0.0336917 18.6261 0.0751082L3.95944 3.16427C3.1148 3.28011 2.31928 3.62946 1.66246 4.17299C1.00564 4.71651 0.513609 5.43262 0.241782 6.24067C-0.0300444 7.04872 -0.0708723 7.91661 0.123896 8.74661C0.318665 9.5766 0.741294 10.3357 1.34419 10.9385L2.91902 12.5124C3.00426 12.5977 3.07185 12.6988 3.11794 12.8102C3.16403 12.9216 3.1877 13.0409 3.18761 13.1614V16.0654C3.18963 16.4738 3.28362 16.8764 3.46261 17.2434L3.45527 17.2498L3.47911 17.2736C3.7477 17.8136 4.18639 18.2504 4.72761 18.5166L4.75144 18.5404L4.75786 18.5331C5.12485 18.7121 5.52746 18.8061 5.93577 18.8081H8.83977C9.08274 18.8079 9.31584 18.9042 9.48786 19.0758L11.0618 20.6497C11.4839 21.0765 11.9864 21.4156 12.5402 21.6473C13.0939 21.8791 13.6881 21.9989 14.2884 21.9999C14.7887 21.9993 15.2856 21.9176 15.7597 21.7579C16.5603 21.495 17.2716 21.0136 17.8132 20.368C18.3549 19.7224 18.7053 18.9383 18.825 18.1041L21.9188 3.40536C22.0332 2.9467 22.0265 2.46616 21.8992 2.01089C21.7719 1.55562 21.5285 1.14126 21.1928 0.808442ZM4.21702 11.2181L2.64127 9.64419C2.27435 9.28611 2.01718 8.83078 1.89995 8.33167C1.78272 7.83255 1.8103 7.31035 1.97944 6.82636C2.14343 6.32982 2.44658 5.89083 2.85284 5.5616C3.25909 5.23237 3.75137 5.02675 4.27111 4.96919L18.792 1.91211L5.01911 15.6869V13.1614C5.02049 12.8006 4.95032 12.443 4.81265 12.1095C4.67497 11.7759 4.47253 11.4729 4.21702 11.2181ZM17.0238 17.7906C16.9534 18.2969 16.7433 18.7736 16.417 19.1671C16.0908 19.5606 15.6613 19.8554 15.1768 20.0184C14.6923 20.1814 14.172 20.2061 13.6742 20.0898C13.1764 19.9735 12.721 19.7208 12.3589 19.3599L10.7822 17.7833C10.5277 17.5274 10.225 17.3245 9.89158 17.1863C9.55816 17.0482 9.20067 16.9775 8.83977 16.9784H6.31436L20.0891 3.20828L17.0238 17.7906Z" fill="#EA8F23"/>
</g>
<defs>
<clipPath id="clip0_137_2">
<rect width="22" height="22" fill="white"/>
</clipPath>
</defs>
</svg>
