<svg width="40" height="40" viewBox="0 0 40 40" fill="none" xmlns="http://www.w3.org/2000/svg">
<circle cx="20" cy="20" r="20" fill="white"/>
<g clipPath="url(#clip0_340_3)">
<path d="M15.98 24.54C15.98 25.01 15.57 25.4 15.09 25.4H14.26V23.68H15.1C15.58 23.68 15.99 24.07 15.99 24.54H15.98ZM20.09 23.68H19.25V27.18H20.09C20.57 27.18 20.98 26.79 20.98 26.32V24.54C20.98 24.07 20.57 23.68 20.09 23.68ZM30 16.16V26.5C30 29.53 27.53 32 24.5 32H15.5C12.47 32 10 29.53 10 26.5V13.5C10 10.47 12.47 8 15.5 8H21.84C23.31 8 24.69 8.57 25.73 9.61L28.39 12.27C29.43 13.31 30 14.69 30 16.16ZM17.23 24.54C17.23 23.38 16.27 22.43 15.09 22.43H14C13.45 22.43 13 22.88 13 23.43V27.87C13 28.22 13.28 28.49 13.62 28.49C13.96 28.49 14.24 28.21 14.24 27.87V26.65H15.08C16.26 26.65 17.22 25.7 17.22 24.54H17.23ZM22.23 24.54C22.23 23.38 21.27 22.43 20.09 22.43H19C18.45 22.43 18 22.88 18 23.43V27.87C18 28.22 18.28 28.43 18.62 28.43C18.96 28.43 20.08 28.43 20.08 28.43C21.26 28.43 22.22 27.48 22.22 26.32V24.54H22.23ZM26.92 22.97C26.85 22.7 26.61 22.5 26.31 22.5H24C23.65 22.5 23.38 22.78 23.38 23.12V27.93C23.38 28.28 23.66 28.55 24 28.55C24.34 28.55 24.62 28.27 24.62 27.93V26.13H25.86C26.21 26.13 26.48 25.85 26.48 25.51C26.48 25.17 26.2 24.89 25.86 24.89H24.62V23.75H26.31C26.6 23.75 26.85 23.55 26.92 23.28V22.98V22.97ZM27 20V17H23C21.9 17 21 16.1 21 15V11H15.5C14.12 11 13 12.12 13 13.5V20H27Z" fill="#313131"/>
</g>
<defs>
<clipPath id="clip0_340_3">
<rect width="24" height="24" fill="white" transform="translate(8 8)"/>
</clipPath>
</defs>
</svg>
