<svg width="134" height="114" viewBox="0 0 134 114" fill="none" xmlns="http://www.w3.org/2000/svg">
<path d="M32.9681 87.6935L21.5857 99.0759L32.9681 110.458L44.3506 99.0759L32.9681 87.6935Z" fill="#2075BC"/>
<path d="M94.2975 0.00441059L83.4749 10.827L94.2975 21.6497L105.12 10.827L94.2975 0.00441059Z" fill="#2075BC"/>
<path d="M116.338 -1.8337e-05L105.516 10.8226L116.338 21.6453L127.161 10.8226L116.338 -1.8337e-05Z" fill="#2075BC"/>
<path d="M72.6825 80.3153H77.5567V73.2368C77.5412 76.9002 72.6825 80.3153 72.6825 80.3153Z" fill="#0895CD"/>
<path d="M97.0225 27.5215H86.622C81.6081 27.5215 77.5411 31.5886 77.5411 36.6025V80.3152H91.5739C94.5853 80.3152 97.0225 77.8781 97.0225 74.8666V34.5845C97.0225 30.9366 101.897 27.506 101.897 27.506H97.0225V27.5215Z" fill="#0895CD"/>
<path d="M125.166 27.5215H113.725H108.851C108.851 27.5215 113.725 30.9365 113.725 34.6V73.2522C113.725 76.9001 108.851 80.3307 108.851 80.3307H113.725H127.758C130.77 80.3307 133.207 77.8936 133.207 74.8821V35.5779C133.207 31.1073 129.605 27.5215 125.166 27.5215Z" fill="#09ABB1"/>
<path d="M60.8541 27.5215H50.4537C45.4398 27.5215 41.3727 31.5886 41.3727 36.6025V73.2522C41.3727 76.9001 36.4985 80.3152 36.4985 80.3152H41.3727H55.4055C58.417 80.3152 60.8541 77.8781 60.8541 74.8666V34.5845C60.8541 30.9366 65.7283 27.506 65.7283 27.506H60.8541V27.5215Z" fill="#EA8F23"/>
<path d="M24.67 73.2368V9.09579C24.67 5.24609 21.5498 2.14148 17.7156 2.14148H5.18858H0.314392C0.314392 2.14148 5.18858 5.55653 5.18858 9.21995V71.2498C5.18858 76.2637 9.25561 80.3307 14.2695 80.3307H24.67H29.5441C29.5441 80.3152 24.67 76.8847 24.67 73.2368Z" fill="#EA3650"/>
<path d="M55.2814 108.365L52.7977 105.882V102.466H56.8647V104.95H62.8721V100.231H55.3435L52.8909 97.7786V91.1813L55.3435 88.7131H64.3158L66.7994 91.1813V94.8137H62.7324V92.1282H56.9579V96.8161H64.4865L66.9391 99.2998V105.882L64.4865 108.365H55.2814Z" fill="#424143"/>
<path d="M75.1974 88.7131H71.0217V108.35H75.1974V88.7131Z" fill="#424143"/>
<path d="M79.9473 108.365V88.7285H91.8534L94.3371 91.1812V96.5366L92.4432 98.4304L94.4768 100.464V105.881L91.9931 108.365H79.9473ZM90.1769 92.1281H84.1074V96.9868H89.1835L90.1769 95.9933V92.1281ZM89.3387 99.9982H84.123V104.935H90.3011V100.992L89.3387 99.9982Z" fill="#424143"/>
<path d="M96.9294 108.365V104.562L102.316 88.7285H108.013L113.399 104.531V108.365H109.224V105.012L108.773 103.662H101.555L101.105 105.012V108.365H96.9294ZM102.393 100.231H107.92L105.157 92.1591L102.393 100.231Z" fill="#424143"/>
<path d="M118.538 108.365L116.054 105.881V91.1812L118.538 88.7285H128.829L131.313 91.1812V105.881L128.829 108.365H125.818L129.202 112.789V114H125.476L121.363 108.35H118.538V108.365ZM120.23 104.577H127.168V92.4696H120.23V104.577Z" fill="#424143"/>
</svg>
