<svg width="279" height="128" viewBox="0 0 279 128" fill="none" xmlns="http://www.w3.org/2000/svg">
<path d="M36.664 98.4628L23.8837 111.243L36.664 124.023L49.4443 111.243L36.664 98.4628Z" fill="#2075BC"/>
<path d="M105.525 0.00449051L93.3736 12.1562L105.525 24.308L117.677 12.1563L105.525 0.00449051Z" fill="#2075BC"/>
<path d="M130.273 5.82177e-05L118.121 12.1519L130.273 24.3036L142.425 12.1518L130.273 5.82177e-05Z" fill="#2075BC"/>
<path d="M81.2557 90.1788H86.7285V82.231C86.7111 86.3443 81.2557 90.1788 81.2557 90.1788Z" fill="#0895CD"/>
<path d="M108.585 30.9012H96.9073C91.2776 30.9012 86.7111 35.4677 86.7111 41.0974V90.1786H102.467C105.849 90.1786 108.585 87.4422 108.585 84.0609V38.8316C108.585 34.7357 114.058 30.8838 114.058 30.8838H108.585V30.9012Z" fill="#0895CD"/>
<path d="M140.185 30.9014H127.339H121.866C121.866 30.9014 127.339 34.7358 127.339 38.8492V82.2483C127.339 86.3442 121.866 90.1961 121.866 90.1961H127.339H143.095C146.477 90.1961 149.213 87.4597 149.213 84.0784V39.9472C149.213 34.9276 145.169 30.9014 140.185 30.9014Z" fill="#09ABB1"/>
<path d="M67.9747 30.9012H56.297C50.6673 30.9012 46.1008 35.4677 46.1008 41.0974V82.2482C46.1008 86.3441 40.628 90.1786 40.628 90.1786H46.1008H61.857C65.2383 90.1786 67.9747 87.4422 67.9747 84.0609V38.8316C67.9747 34.7357 73.4475 30.8838 73.4475 30.8838H67.9747V30.9012Z" fill="#EA8F23"/>
<path d="M27.3467 82.2314V10.2132C27.3467 5.89068 23.8434 2.40479 19.5383 2.40479H5.4728H0C0 2.40479 5.4728 6.23924 5.4728 10.3526V80.0004C5.4728 85.6301 10.0393 90.1966 15.669 90.1966H27.3467H32.8195C32.8195 90.1791 27.3467 86.3273 27.3467 82.2314Z" fill="#EA3650"/>
<path d="M61.7175 121.673L58.9288 118.884V115.05H63.4953V117.839H70.2405V112.54H61.7872L59.0334 109.786V102.379L61.7872 99.6074H71.8614L74.6501 102.379V106.457H70.0836V103.442H63.5999V108.706H72.0531L74.807 111.494V118.884L72.0531 121.673H61.7175Z" fill="#424143"/>
<path d="M84.0795 99.6074H79.391V121.656H84.0795V99.6074Z" fill="#424143"/>
<path d="M89.4128 121.674V99.6255H102.781L105.57 102.379V108.392L103.443 110.519L105.727 112.802V118.885L102.938 121.674H89.4128ZM100.899 103.443H94.0838V108.898H99.7833L100.899 107.782V103.443ZM99.9575 112.279H94.1013V117.822H101.038V113.395L99.9575 112.279Z" fill="#424143"/>
<path d="M108.48 121.674V117.403L114.528 99.6255H120.925L126.973 117.369V121.674H122.285V117.909L121.779 116.393H113.674L113.169 117.909V121.674H108.48ZM114.616 112.541H120.82L117.718 103.477L114.616 112.541Z" fill="#424143"/>
<path d="M132.742 121.674L129.954 118.885V102.379L132.742 99.6255H144.298L147.087 102.379V118.885L144.298 121.674H140.917L144.716 126.641V128.001H140.533L135.914 121.656H132.742V121.674ZM134.642 117.421H142.433V103.826H134.642V117.421Z" fill="#424143"/>
<path d="M168.769 77.9605V65.9517H175.828L177.85 67.9561V75.9387L175.828 77.9605H168.769ZM171.314 75.6598H174.695L175.288 75.0672V68.8624L174.695 68.2524H171.314V75.6598Z" fill="#424143"/>
<path d="M179.453 77.9605V75.625L182.747 65.9517H186.233L189.527 75.6076V77.9605H186.965V75.9039L186.686 75.0672H182.276L181.997 75.9039V77.9605H179.453ZM182.799 72.9931H186.181L184.49 68.0607L182.799 72.9931Z" fill="#424143"/>
<path d="M191.462 77.9605V65.9517H198.677L200.194 67.4506V71.7208L199.026 72.906L200.264 74.1435V77.9431H197.719V74.5792L197.091 73.9692H194.024V77.9431H191.462V77.9605ZM197.649 68.0432H194.006V71.9125H197.039L197.649 71.3025V68.0432Z" fill="#424143"/>
<path d="M212.046 65.9517V76.4442L210.512 77.9605H204.238L202.721 76.4442V65.9517H205.283V75.6424H209.484V65.9517H212.046Z" fill="#424143"/>
<path d="M214.835 77.9605V65.9517H217.397V75.6424H222.015V77.9605H214.835Z" fill="#424143"/>
<path d="M227.262 65.9517H229.824V70.797H234.46V65.9517H237.005V77.9605H234.46V73.0106H229.824V77.9605H227.262V65.9517Z" fill="#424143"/>
<path d="M249.153 65.9517V76.4442L247.619 77.9605H241.345L239.828 76.4442V65.9517H242.39V75.6424H246.591V65.9517H249.153Z" fill="#424143"/>
<path d="M251.942 77.9605V65.9517H259.001L261.023 67.9561V75.9387L259.001 77.9605H251.942ZM254.504 75.6598H257.885L258.478 75.0672V68.8624L257.885 68.2524H254.504V75.6598Z" fill="#424143"/>
<path d="M262.643 77.9605V75.625L265.938 65.9517H269.423L272.718 75.6076V77.9605H270.156V75.9039L269.877 75.0672H265.467L265.188 75.9039V77.9605H262.643ZM265.99 72.9931H269.371L267.681 68.0607L265.99 72.9931Z" fill="#424143"/>
<path d="M168.769 98.6669V86.658H171.244V88.157L176.351 93.8912C176.298 93.2289 176.229 92.2877 176.229 91.6777V86.6406H178.721V98.6494H176.229V97.1331L171.122 91.3814C171.192 92.0612 171.244 92.9849 171.244 93.6124V98.6494H168.769V98.6669Z" fill="#424143"/>
<path d="M180.656 98.6671V96.3315L183.95 86.6582H187.436L190.73 96.3141V98.6671H188.185V96.6104L187.906 95.7912H183.497L183.218 96.6104V98.6671H180.656ZM184.002 93.6997H187.383L185.693 88.7672L184.002 93.6997Z" fill="#424143"/>
<path d="M190.904 86.6582H199.776V88.9589H196.621V98.6671H194.059V88.9589H190.904V86.6582Z" fill="#424143"/>
<path d="M204.116 86.6582H201.571V98.6671H204.116V86.6582Z" fill="#424143"/>
<path d="M208.246 98.6671L206.73 97.1507V88.1572L208.246 86.6582H214.538L216.055 88.1572V97.1507L214.538 98.6671H208.246ZM209.275 96.3664H213.51V88.9589H209.275V96.3664Z" fill="#424143"/>
<path d="M218.669 98.6669V86.658H221.144V88.157L226.251 93.8912C226.198 93.2289 226.129 92.2877 226.129 91.6777V86.6406H228.604V98.6494H226.129V97.1331L221.022 91.3814C221.092 92.0612 221.144 92.9849 221.144 93.6124V98.6494H218.669V98.6669Z" fill="#424143"/>
<path d="M230.556 98.6671V96.3315L233.85 86.6582H237.336L240.63 96.3141V98.6671H238.068V96.6104L237.789 95.7912H233.38L233.101 96.6104V98.6671H230.556ZM233.902 93.6997H237.284L235.593 88.7672L233.902 93.6997Z" fill="#424143"/>
<path d="M242.565 98.6671V86.6582H245.109V96.3664H249.728V98.6671H242.565Z" fill="#424143"/>
<path d="M167.775 119.39V117.055L171.069 107.381H174.555L177.849 117.037V119.39H175.287V117.334L175.008 116.514H170.599L170.32 117.334V119.39H167.775ZM171.122 114.405H174.503L172.812 109.473L171.122 114.405Z" fill="#424143"/>
<path d="M179.767 119.39V107.381H186.983L188.499 108.88V113.15L187.331 114.336L188.569 115.573V119.373H186.024V116.009L185.396 115.399H182.329V119.373H179.767V119.39ZM185.972 109.455H182.329V113.325H185.362L185.972 112.715V109.455Z" fill="#424143"/>
<path d="M190.033 107.381H198.887V109.665H195.732V119.373H193.187V109.665H190.033V107.381Z" fill="#424143"/>
<path d="M201.797 119.373L200.281 117.856V115.782H202.756V117.299H206.434V114.405H201.832L200.333 112.906V108.88L201.832 107.381H207.305L208.821 108.88V111.094H206.346V109.455H202.808V112.331H207.41L208.909 113.848V117.856L207.41 119.373H201.797Z" fill="#424143"/>
<path d="M214.87 119.373V107.381H222.504V109.665H217.432V112.767H221.423V114.859H217.432V119.373H214.87Z" fill="#424143"/>
<path d="M224.543 119.373V107.381H232.316V109.665H227.088V112.401H231.218V114.353H227.088V117.072H232.404V119.373H224.543Z" fill="#424143"/>
<path d="M235.645 119.373L234.129 117.856V115.782H236.621V117.299H240.299V114.405H235.68L234.181 112.906V108.88L235.68 107.381H241.171L242.687 108.88V111.094H240.212V109.455H236.674V112.331H241.275L242.774 113.848V117.856L241.275 119.373H235.645Z" fill="#424143"/>
<path d="M244.186 107.381H253.04V109.665H249.885V119.373H247.34V109.665H244.186V107.381Z" fill="#424143"/>
<path d="M254.818 106.458V108.305L256.857 111.111H258.199L257.397 108.183V106.458H254.818Z" fill="#424143"/>
<path d="M259.454 119.373V114.336L260.97 112.819H265.293V109.508H261.981V111.198H259.489V108.88L261.005 107.381H266.269L267.785 108.88V113.394L266.251 114.928H261.929V117.246H267.855V119.373H259.454Z" fill="#424143"/>
<path d="M269.981 107.381H278.103V109.508H272.456V111.826H276.744L278.26 113.342V117.856L276.744 119.373H271.498L269.981 117.856V115.521H272.456V117.246H275.768V113.917H271.498L269.981 112.401V107.381Z" fill="#424143"/>
<path d="M168.316 40.8535V31.9819H173.945V33.6726H170.198V35.9733H173.161V37.5071H170.198V40.8535H168.316Z" fill="#EA3650"/>
<path d="M175.462 40.8535V31.9819H181.213V33.6726H177.344V35.677H180.394V37.141H177.344V39.1454H181.283V40.8535H175.462Z" fill="#EA3650"/>
<path d="M183.671 40.8535L182.555 39.7206V38.1868H184.385V39.3023H187.104V37.1759H183.706L182.59 36.0604V33.08L183.706 31.9819H187.749L188.882 33.08V34.7358H187.035V33.5157H184.42V35.6421H187.837L188.935 36.7576V39.7206L187.837 40.8535H183.671Z" fill="#EA3650"/>
<path d="M189.98 31.9819H196.534V33.6726H194.198V40.8535H192.316V33.6726H189.98V31.9819Z" fill="#EA3650"/>
<path d="M199.741 31.9819H197.858V40.8535H199.741V31.9819Z" fill="#EA3650"/>
<path d="M201.17 31.9819H203.052V33.6029L204.83 38.9711L206.59 33.6029V31.9819H208.49V33.69L206.033 40.8535H203.627L201.17 33.69V31.9819Z" fill="#EA3650"/>
<path d="M208.874 40.8535V39.128L211.314 31.9819H213.894L216.334 39.128V40.8535H214.451V39.3371L214.242 38.7271H210.983L210.774 39.3371V40.8535H208.874ZM211.349 37.1759H213.841L212.586 33.5332L211.349 37.1759Z" fill="#EA3650"/>
<path d="M217.728 40.8535V31.9819H219.628V39.1454H223.044V40.8535H217.728Z" fill="#EA3650"/>
<path d="M227.82 40.8535L226.704 39.738V33.0974L227.82 31.9819H232.473L233.589 33.0974V39.738L232.473 40.8535H227.82ZM228.587 39.1454H231.724V33.6726H228.587V39.1454Z" fill="#EA3650"/>
<path d="M235.523 40.8535V31.9819H241.17V33.6726H237.423V35.9733H240.369V37.5071H237.423V40.8535H235.523Z" fill="#EA3650"/>
<path d="M169.222 56.1562L168.106 55.0408V48.4002L169.222 47.2847H173.649L174.764 48.4002V50.4568H172.865V48.9753H169.989V54.4482H172.865V52.9841H174.764V55.0408L173.649 56.1562H169.222Z" fill="#EA3650"/>
<path d="M183.305 47.2847V55.0408L182.189 56.1562H177.536L176.42 55.0408V47.2847H178.303V54.4482H181.422V47.2847H183.305Z" fill="#EA3650"/>
<path d="M185.379 56.1562V47.2847H187.261V54.4482H190.677V56.1562H185.379Z" fill="#EA3650"/>
<path d="M190.172 47.2847H196.725V48.9753H194.39V56.1562H192.507V48.9753H190.172V47.2847Z" fill="#EA3650"/>
<path d="M204.865 47.2847V55.0408L203.75 56.1562H199.113L197.981 55.0408V47.2847H199.88V54.4482H202.983V47.2847H204.865Z" fill="#EA3650"/>
<path d="M206.939 56.1562V47.2847H212.272L213.388 48.4002V51.5549L212.516 52.4437L213.44 53.3675V56.1737H211.558V53.6813L211.105 53.2281H208.839V56.1562H206.939ZM211.523 48.8185H208.839V51.6769H211.087L211.54 51.2237V48.8185H211.523Z" fill="#EA3650"/>
<path d="M215.34 56.1562V47.2847H221.092V48.9753H217.222V50.9971H220.273V52.4438H217.222V54.4482H221.144V56.1562H215.34Z" fill="#EA3650"/>
<path d="M223.549 56.1562L222.434 55.0408V53.4895H224.264V54.6224H226.983V52.4786H223.567L222.469 51.3806V48.4002L223.567 47.2847H227.628L228.743 48.4002V50.0385H226.913V48.8185H224.299V50.9448H227.697L228.813 52.0603V55.0408L227.697 56.1562H223.549Z" fill="#EA3650"/>
</svg>
