<svg xmlns="http://www.w3.org/2000/svg" viewBox="0 0 177.41 190.1"><defs><style>.cls-1{fill:#09abb1;}</style></defs><g id="Layer_2" data-name="Layer 2"><g id="Layer_1-2" data-name="Layer 1"><path class="cls-1" d="M58.69,160.07A8.75,8.75,0,0,1,52.5,175H43.75a8.75,8.75,0,1,1,0-17.49H52.5A8.76,8.76,0,0,1,58.69,160.07Z"/><path class="cls-1" d="M58.69,125.08A8.75,8.75,0,0,1,52.5,140H43.75a8.75,8.75,0,1,1,0-17.49H52.5A8.76,8.76,0,0,1,58.69,125.08Z"/><path class="cls-1" d="M92.63,117.39a17.49,17.49,0,1,1,9,4.79A17.43,17.43,0,0,1,92.63,117.39Z"/><path class="cls-1" d="M123.56,147.7a26.26,26.26,0,0,1,7.69,18.56v15.61a80.93,80.93,0,0,1-17.5,6.17V166.26a8.75,8.75,0,1,0-17.5,0v23.83H78.75V166.26a26.25,26.25,0,0,1,44.81-18.56Z"/><path class="cls-1" d="M157.5,157.51h3.35a81.34,81.34,0,0,1-11.37,12.23,8.62,8.62,0,0,1-.73-3.48,8.74,8.74,0,0,1,8.75-8.75Z"/><path class="cls-1" d="M172.44,125.08a8.75,8.75,0,0,1,2.27,4l-3,9a8.74,8.74,0,0,1-5.51,1.95H157.5a8.75,8.75,0,1,1,0-17.49h8.75A8.76,8.76,0,0,1,172.44,125.08Z"/><path class="cls-1" d="M177.41,72.57V54a43.87,43.87,0,0,0-11.16-1.47H125.31a34.64,34.64,0,0,0-11.56-5.35V43.79l30.89-14.46a8.75,8.75,0,0,0,0-14.87l-28-13.12a14.32,14.32,0,0,0-20.39,13V47.18A34.5,34.5,0,0,0,84.7,52.53H43.75A43.8,43.8,0,0,0,0,96.27v87.48a26.42,26.42,0,0,0,.78,6.35H20.24l-.18-.16a8.76,8.76,0,0,1-2.56-6.19V105H38A43.43,43.43,0,0,0,68.93,92.2l23.7-23.68a17.5,17.5,0,0,1,24.74,0l23.7,23.68A43.43,43.43,0,0,0,172,105h5.41V87.52H172a26.39,26.39,0,0,1-18.56-7.68L143.62,70h22.63A26.15,26.15,0,0,1,177.41,72.57ZM56.56,79.84A26.39,26.39,0,0,1,38,87.52H19.11A26.27,26.27,0,0,1,43.75,70H66.38Z"/></g></g></svg>