<svg width="210" height="210" viewBox="0 0 210 210" fill="none" xmlns="http://www.w3.org/2000/svg">
<mask id="mask0_92_206" style="mask-type:alpha" maskUnits="userSpaceOnUse" x="0" y="0" width="210" height="210">
<path d="M166.25 52.5389H125.309C121.821 50.0537 117.901 48.2383 113.75 47.1852V43.791L144.638 29.3396C145.904 28.5551 146.949 27.4603 147.673 26.1591C148.398 24.8579 148.778 23.3932 148.778 21.9039C148.778 20.4146 148.398 18.95 147.673 17.6488C146.949 16.3475 145.904 15.2528 144.638 14.4683L116.637 1.34652C114.451 0.325226 112.043 -0.127347 109.635 0.0308091C107.227 0.188965 104.898 0.952723 102.864 2.25119C100.83 3.54966 99.1578 5.34075 98.0015 7.4582C96.8452 9.57566 96.2427 11.9508 96.25 14.3633V47.1852C92.1007 48.2369 88.1839 50.0524 84.7 52.5389H43.75C32.151 52.5528 21.0311 57.1655 12.8294 65.3651C4.62772 73.5648 0.0138938 84.682 0 96.2781L0 183.756C0 190.717 2.76562 197.392 7.68845 202.313C12.6113 207.235 19.2881 210 26.25 210H183.75C190.712 210 197.389 207.235 202.312 202.313C207.234 197.392 210 190.717 210 183.756V96.2781C209.986 84.682 205.372 73.5648 197.171 65.3651C188.969 57.1655 177.849 52.5528 166.25 52.5389ZM190.89 87.5302H171.999C165.041 87.5125 158.371 84.7491 153.44 79.8409L143.622 70.0346H166.25C171.66 70.057 176.931 71.7499 181.341 74.8816C185.752 78.0134 189.087 82.4311 190.89 87.5302ZM43.75 70.0346H66.3775L56.56 79.8409C51.6291 84.7491 44.9594 87.5125 38.0013 87.5302H19.11C20.9132 82.4311 24.2483 78.0134 28.6589 74.8816C33.0695 71.7499 38.3402 70.057 43.75 70.0346ZM113.75 192.504H96.25V166.261C96.25 163.941 97.1719 161.716 98.8128 160.075C100.454 158.435 102.679 157.513 105 157.513C107.321 157.513 109.546 158.435 111.187 160.075C112.828 161.716 113.75 163.941 113.75 166.261V192.504ZM183.75 192.504H131.25V166.261C131.25 159.301 128.484 152.625 123.562 147.704C118.639 142.782 111.962 140.017 105 140.017C98.0381 140.017 91.3613 142.782 86.4384 147.704C81.5156 152.625 78.75 159.301 78.75 166.261V192.504H26.25C23.9294 192.504 21.7038 191.583 20.0628 189.942C18.4219 188.302 17.5 186.077 17.5 183.756V105.026H38.0013C43.7484 105.04 49.4413 103.915 54.7506 101.715C60.0599 99.5151 64.8801 96.2846 68.9325 92.2103L92.6275 68.5299C95.9092 65.25 100.36 63.4074 105 63.4074C109.64 63.4074 114.091 65.25 117.372 68.5299L141.068 92.2103C145.12 96.2846 149.94 99.5151 155.249 101.715C160.559 103.915 166.252 105.04 171.999 105.026H192.5V183.756C192.5 186.077 191.578 188.302 189.937 189.942C188.296 191.583 186.071 192.504 183.75 192.504ZM61.25 131.269C61.25 133.59 60.3281 135.815 58.6872 137.455C57.0462 139.096 54.8206 140.017 52.5 140.017H43.75C41.4294 140.017 39.2038 139.096 37.5628 137.455C35.9219 135.815 35 133.59 35 131.269C35 128.949 35.9219 126.724 37.5628 125.084C39.2038 123.443 41.4294 122.522 43.75 122.522H52.5C54.8206 122.522 57.0462 123.443 58.6872 125.084C60.3281 126.724 61.25 128.949 61.25 131.269ZM61.25 166.261C61.25 168.581 60.3281 170.806 58.6872 172.446C57.0462 174.087 54.8206 175.009 52.5 175.009H43.75C41.4294 175.009 39.2038 174.087 37.5628 172.446C35.9219 170.806 35 168.581 35 166.261C35 163.941 35.9219 161.716 37.5628 160.075C39.2038 158.435 41.4294 157.513 43.75 157.513H52.5C54.8206 157.513 57.0462 158.435 58.6872 160.075C60.3281 161.716 61.25 163.941 61.25 166.261ZM175 131.269C175 133.59 174.078 135.815 172.437 137.455C170.796 139.096 168.571 140.017 166.25 140.017H157.5C155.179 140.017 152.954 139.096 151.313 137.455C149.672 135.815 148.75 133.59 148.75 131.269C148.75 128.949 149.672 126.724 151.313 125.084C152.954 123.443 155.179 122.522 157.5 122.522H166.25C168.571 122.522 170.796 123.443 172.437 125.084C174.078 126.724 175 128.949 175 131.269ZM175 166.261C175 168.581 174.078 170.806 172.437 172.446C170.796 174.087 168.571 175.009 166.25 175.009H157.5C155.179 175.009 152.954 174.087 151.313 172.446C149.672 170.806 148.75 168.581 148.75 166.261C148.75 163.941 149.672 161.716 151.313 160.075C152.954 158.435 155.179 157.513 157.5 157.513H166.25C168.571 157.513 170.796 158.435 172.437 160.075C174.078 161.716 175 163.941 175 166.261ZM122.5 105.026C122.5 108.486 121.474 111.869 119.551 114.746C117.628 117.623 114.895 119.866 111.697 121.19C108.499 122.514 104.981 122.861 101.586 122.185C98.1913 121.51 95.0731 119.844 92.6256 117.397C90.1782 114.95 88.5115 111.833 87.8363 108.439C87.161 105.045 87.5076 101.528 88.8321 98.3306C90.1566 95.1337 92.3997 92.4012 95.2775 90.4788C98.1554 88.5563 101.539 87.5302 105 87.5302C109.641 87.5302 114.092 89.3735 117.374 92.6546C120.656 95.9357 122.5 100.386 122.5 105.026Z" fill="black"/>
</mask>
<g mask="url(#mask0_92_206)">
<path d="M-182.586 -27.8965C-182.586 -73.1838 -145.874 -109.896 -100.586 -109.896H95.4135C140.701 -109.896 177.414 -73.1838 177.414 -27.8965V108.104C177.414 153.391 140.701 190.104 95.4135 190.104H-100.586C-145.874 190.104 -182.586 153.391 -182.586 108.104V-27.8965Z" fill="#09ABB1" fill-opacity="0.05"/>
</g>
</svg>
