<svg width="50" height="50" viewBox="0 0 50 50" fill="none" xmlns="http://www.w3.org/2000/svg">
<rect width="50" height="50" rx="19" fill="#89D123" fill-opacity="0.1"/>
<g clip-path="url(#clip0_324_6)">
<path d="M25 10C16.7163 10 10 16.7163 10 25C10 33.285 16.7163 40 25 40C33.285 40 40 33.285 40 25C40 16.7163 33.285 10 25 10ZM31.8787 31.635C31.6087 32.0775 31.0338 32.215 30.5938 31.9462C27.0713 29.7937 22.6375 29.3075 17.4163 30.5C16.9125 30.615 16.4113 30.3 16.2963 29.7975C16.1813 29.295 16.495 28.7925 17 28.6787C22.7137 27.3725 27.615 27.935 31.5687 30.3512C32.01 30.6187 32.1488 31.195 31.8787 31.635ZM33.715 27.5513C33.3762 28.1012 32.6562 28.2738 32.1062 27.9363C28.075 25.4587 21.9288 24.74 17.1588 26.1888C16.5413 26.375 15.8875 26.0262 15.7 25.4087C15.5138 24.79 15.8625 24.1388 16.48 23.95C21.9275 22.2962 28.7 23.0975 33.33 25.9425C33.88 26.2812 34.0525 27.0013 33.715 27.5513ZM33.8725 23.2975C29.0375 20.4262 21.0625 20.1625 16.4462 21.5638C15.705 21.7888 14.9212 21.37 14.6962 20.6287C14.4713 19.8875 14.89 19.1038 15.6313 18.8787C20.93 17.27 29.7375 17.5813 35.3037 20.885C35.97 21.2812 36.1888 22.1413 35.7938 22.8075C35.4 23.4738 34.5375 23.6937 33.8725 23.2975Z" fill="#89D123"/>
</g>
<defs>
<clipPath id="clip0_324_6">
<rect width="30" height="30" fill="white" transform="translate(10 10)"/>
</clipPath>
</defs>
</svg>
