<svg width="158" height="192" viewBox="0 0 158 192" fill="none" xmlns="http://www.w3.org/2000/svg">
<mask id="mask0_92_184" style="mask-type:alpha" maskUnits="userSpaceOnUse" x="0" y="0" width="158" height="192">
<path d="M142.155 171.999V192H126.31V171.999C126.31 160.975 117.421 151.999 106.503 151.999H51.0452C40.1279 151.999 31.2387 160.975 31.2387 171.999V192H15.3936V171.999C15.3936 152.151 31.3893 135.998 51.0452 135.998H106.503C126.159 135.998 142.155 152.151 142.155 171.999ZM158 35.9943V95.9965H142.155V43.7626L126.31 51.7629V71.9956C126.31 98.4686 104.99 119.997 78.7742 119.997C52.5584 119.997 31.2387 98.4686 31.2387 71.9956V51.7629L0 35.9943L65.1157 3.12912C73.4106 -1.03904 84.1219 -1.04704 92.4169 3.12912L158 35.9943ZM35.4377 35.9943L72.2064 54.555C76.0092 56.4751 81.5313 56.4751 85.342 54.555L122.111 35.9943L85.342 17.4336C81.5471 15.5216 76.0013 15.5136 72.1985 17.4336L35.4377 35.9943ZM110.465 59.7632L92.4327 68.8675C88.2892 70.9636 83.5277 72.0116 78.7742 72.0116C74.0207 72.0116 69.2671 70.9636 65.1157 68.8675L47.0839 59.7632V71.9956C47.0839 89.6443 61.297 103.997 78.7742 103.997C96.2514 103.997 110.465 89.6443 110.465 71.9956V59.7632Z" fill="#F8D6AE"/>
</mask>
<g mask="url(#mask0_92_184)">
<path d="M-189.586 -27.8965C-189.586 -73.1838 -152.874 -109.896 -107.586 -109.896H88.4135C133.701 -109.896 170.414 -73.1838 170.414 -27.8965V108.104C170.414 153.391 133.701 190.104 88.4135 190.104H-107.586C-152.874 190.104 -189.586 153.391 -189.586 108.104V-27.8965Z" fill="#EA8F23" fill-opacity="0.1"/>
</g>
</svg>
