<svg width="134" height="134" viewBox="0 0 134 134" fill="none" xmlns="http://www.w3.org/2000/svg">
<path d="M117.25 130H83.7548C62.6103 129.975 42.339 121.564 27.3876 106.612C12.4367 91.6615 4.02595 71.3912 4 50.2476V16.75C4 13.3685 5.3433 10.1255 7.73439 7.73438C10.1255 5.34329 13.3685 4 16.75 4C20.1315 4 23.3745 5.34329 25.7656 7.73438C28.1567 10.1255 29.5 13.3685 29.5 16.75V50.25C29.5 64.638 35.2156 78.4367 45.3895 88.6105C55.5633 98.7844 69.362 104.5 83.75 104.5H117.25C120.632 104.5 123.875 105.843 126.266 108.234C128.657 110.625 130 113.868 130 117.25C130 120.632 128.657 123.875 126.266 126.266C123.875 128.657 120.632 130 117.25 130Z" fill="#09ABB1" stroke="white" stroke-width="8"/>
</svg>
