<svg width="50" height="50" viewBox="0 0 50 50" fill="none" xmlns="http://www.w3.org/2000/svg">
<rect width="50" height="50" rx="19" fill="#119398" fill-opacity="0.1"/>
<mask id="path-2-inside-1_324_5" fill="white">
<path fill-rule="evenodd" clip-rule="evenodd" d="M35.6573 15.2147C32.9433 12.4983 29.3353 11.0012 25.4915 11C17.5709 11 11.1245 17.4453 11.1208 25.3695C11.1196 27.9022 11.7818 30.3744 13.0397 32.5543L11 40L18.6173 38.0014C20.7162 39.1469 23.0797 39.7499 25.4843 39.7511H25.4903C33.4098 39.7511 39.8574 33.3046 39.861 25.3804C39.8635 21.5415 38.37 17.9298 35.6573 15.2147ZM25.4915 37.3235H25.4867C23.3431 37.3235 21.2418 36.7472 19.4076 35.6585L18.9714 35.3999L14.451 36.5853L15.6581 32.1772L15.3742 31.7253C14.1779 29.8234 13.5472 27.6255 13.5484 25.3695C13.5508 18.7841 18.9098 13.4263 25.4976 13.4263C28.6876 13.4263 31.6867 14.6709 33.9414 16.9281C36.1962 19.1865 37.4371 22.1868 37.4359 25.378C37.4323 31.9658 32.0745 37.3235 25.4915 37.3235ZM32.0431 28.3783C31.6843 28.1982 29.9189 27.3294 29.589 27.2098C29.2603 27.0902 29.0211 27.0298 28.7806 27.3886C28.5402 27.7475 27.8538 28.5571 27.6436 28.7975C27.4345 29.0368 27.2243 29.067 26.8654 28.887C26.5065 28.7069 25.349 28.3287 23.9775 27.1047C22.9105 26.1525 22.1892 24.9768 21.9801 24.6167C21.7711 24.2566 21.9584 24.0633 22.1372 23.8845C22.2991 23.7238 22.4961 23.4652 22.6761 23.2549C22.8574 23.0471 22.9166 22.8973 23.0374 22.6568C23.157 22.4175 23.0978 22.2073 23.0072 22.0273C22.9166 21.8484 22.1988 20.0806 21.9004 19.3617C21.6092 18.6608 21.3131 18.7563 21.092 18.7454C20.883 18.7345 20.6437 18.7333 20.4033 18.7333C20.164 18.7333 19.7749 18.8228 19.4462 19.1828C19.1176 19.5429 18.1896 20.4117 18.1896 22.1783C18.1896 23.9461 19.4765 25.6535 19.6553 25.8927C19.8341 26.132 22.1867 29.7594 25.7888 31.3145C26.6455 31.6843 27.3149 31.9054 27.8357 32.0709C28.696 32.344 29.479 32.3053 30.0977 32.2135C30.7877 32.1108 32.222 31.3447 32.5216 30.5061C32.8213 29.6675 32.8213 28.9474 32.7307 28.7987C32.6413 28.6477 32.402 28.5583 32.0431 28.3783Z"/>
</mask>
<path fill-rule="evenodd" clip-rule="evenodd" d="M35.6573 15.2147C32.9433 12.4983 29.3353 11.0012 25.4915 11C17.5709 11 11.1245 17.4453 11.1208 25.3695C11.1196 27.9022 11.7818 30.3744 13.0397 32.5543L11 40L18.6173 38.0014C20.7162 39.1469 23.0797 39.7499 25.4843 39.7511H25.4903C33.4098 39.7511 39.8574 33.3046 39.861 25.3804C39.8635 21.5415 38.37 17.9298 35.6573 15.2147ZM25.4915 37.3235H25.4867C23.3431 37.3235 21.2418 36.7472 19.4076 35.6585L18.9714 35.3999L14.451 36.5853L15.6581 32.1772L15.3742 31.7253C14.1779 29.8234 13.5472 27.6255 13.5484 25.3695C13.5508 18.7841 18.9098 13.4263 25.4976 13.4263C28.6876 13.4263 31.6867 14.6709 33.9414 16.9281C36.1962 19.1865 37.4371 22.1868 37.4359 25.378C37.4323 31.9658 32.0745 37.3235 25.4915 37.3235ZM32.0431 28.3783C31.6843 28.1982 29.9189 27.3294 29.589 27.2098C29.2603 27.0902 29.0211 27.0298 28.7806 27.3886C28.5402 27.7475 27.8538 28.5571 27.6436 28.7975C27.4345 29.0368 27.2243 29.067 26.8654 28.887C26.5065 28.7069 25.349 28.3287 23.9775 27.1047C22.9105 26.1525 22.1892 24.9768 21.9801 24.6167C21.7711 24.2566 21.9584 24.0633 22.1372 23.8845C22.2991 23.7238 22.4961 23.4652 22.6761 23.2549C22.8574 23.0471 22.9166 22.8973 23.0374 22.6568C23.157 22.4175 23.0978 22.2073 23.0072 22.0273C22.9166 21.8484 22.1988 20.0806 21.9004 19.3617C21.6092 18.6608 21.3131 18.7563 21.092 18.7454C20.883 18.7345 20.6437 18.7333 20.4033 18.7333C20.164 18.7333 19.7749 18.8228 19.4462 19.1828C19.1176 19.5429 18.1896 20.4117 18.1896 22.1783C18.1896 23.9461 19.4765 25.6535 19.6553 25.8927C19.8341 26.132 22.1867 29.7594 25.7888 31.3145C26.6455 31.6843 27.3149 31.9054 27.8357 32.0709C28.696 32.344 29.479 32.3053 30.0977 32.2135C30.7877 32.1108 32.222 31.3447 32.5216 30.5061C32.8213 29.6675 32.8213 28.9474 32.7307 28.7987C32.6413 28.6477 32.402 28.5583 32.0431 28.3783Z" fill="#119398"/>
<path d="M35.6573 15.2147L50.7489 0.13644L50.7489 0.136436L35.6573 15.2147ZM25.4915 11L25.4982 -10.3333H25.4915V11ZM11.1208 25.3695L32.4542 25.3797L32.4542 25.3793L11.1208 25.3695ZM13.0397 32.5543L33.615 38.1906L35.9673 29.6034L31.5173 21.8917L13.0397 32.5543ZM11 40L-9.5753 34.3637L-19.3419 70.0163L16.414 60.6349L11 40ZM18.6173 38.0014L28.8374 19.2755L21.3995 15.2161L13.2033 17.3665L18.6173 38.0014ZM25.4843 39.7511L25.4736 61.0844H25.4843V39.7511ZM39.861 25.3804L18.5277 25.3669L18.5277 25.3706L39.861 25.3804ZM19.4076 35.6585L30.2963 17.3132L30.2861 17.3072L19.4076 35.6585ZM18.9714 35.3999L29.8499 17.0486L22.1822 12.5033L13.5601 14.7642L18.9714 35.3999ZM14.451 36.5853L-6.12476 30.9506L-15.886 66.5951L19.8623 57.2209L14.451 36.5853ZM15.6581 32.1772L36.2339 37.8119L38.7107 28.7674L33.7216 20.8272L15.6581 32.1772ZM15.3742 31.7253L33.4376 20.3753L33.4325 20.3672L15.3742 31.7253ZM13.5484 25.3695L34.8817 25.3809L34.8817 25.3773L13.5484 25.3695ZM33.9414 16.9281L49.0385 1.85526L49.0344 1.85122L33.9414 16.9281ZM37.4359 25.378L58.7692 25.3897L58.7692 25.386L37.4359 25.378ZM29.589 27.2098L22.2926 47.2566L22.3044 47.2609L22.3162 47.2651L29.589 27.2098ZM27.6436 28.7975L11.5836 14.7552L11.5786 14.7609L27.6436 28.7975ZM23.9775 27.1047L38.1828 11.1886L38.1819 11.1878L23.9775 27.1047ZM22.1372 23.8845L7.10887 8.74312L7.08051 8.77126L7.05226 8.79951L22.1372 23.8845ZM22.6761 23.2549L6.59801 9.23331L6.53472 9.30589L6.47208 9.37904L22.6761 23.2549ZM23.0374 22.6568L42.0993 32.2356L42.109 32.2165L42.1185 32.1973L23.0374 22.6568ZM23.0072 22.0273L42.0627 12.4356L42.0497 12.4098L42.0366 12.384L23.0072 22.0273ZM21.9004 19.3617L41.6034 11.1824L41.6007 11.1758L21.9004 19.3617ZM21.092 18.7454L19.9837 40.0499L20.0139 40.0515L20.0441 40.053L21.092 18.7454ZM25.7888 31.3145L17.3329 50.9004L17.3352 50.9014L25.7888 31.3145ZM27.8357 32.0709L21.3732 52.4019L21.3815 52.4045L27.8357 32.0709ZM30.0977 32.2135L33.2301 53.3156L33.2388 53.3143L30.0977 32.2135ZM32.7307 28.7987L14.373 39.6665L14.4439 39.7862L14.5163 39.905L32.7307 28.7987ZM50.7489 0.136436C44.0358 -6.58263 35.0016 -10.3303 25.4982 -10.3333L25.4848 32.3333C23.6689 32.3328 21.8509 31.5793 20.5656 30.2929L50.7489 0.136436ZM25.4915 -10.3333C5.78579 -10.3333 -10.2035 5.66409 -10.2125 25.3597L32.4542 25.3793C32.4524 29.2264 29.356 32.3333 25.4915 32.3333V-10.3333ZM-10.2125 25.3593C-10.2155 31.6302 -8.57259 37.7846 -5.43794 43.2168L31.5173 21.8917C32.1362 22.9643 32.4547 24.1742 32.4542 25.3797L-10.2125 25.3593ZM-7.53563 26.9179L-9.5753 34.3637L31.5753 45.6363L33.615 38.1906L-7.53563 26.9179ZM16.414 60.6349L24.0314 58.6363L13.2033 17.3665L5.58596 19.3651L16.414 60.6349ZM8.39729 56.7274C13.6402 59.5888 19.5156 61.0814 25.4736 61.0844L25.495 18.4178C26.6438 18.4183 27.7923 18.7051 28.8374 19.2755L8.39729 56.7274ZM25.4843 61.0844H25.4903V18.4178H25.4843V61.0844ZM25.4903 61.0844C45.196 61.0844 61.1854 45.0846 61.1944 25.3901L18.5277 25.3706C18.5295 21.5246 21.6235 18.4178 25.4903 18.4178V61.0844ZM61.1944 25.3938C61.2004 15.8972 57.4627 6.85621 50.7489 0.13644L20.5656 30.2929C19.2772 29.0034 18.5266 27.1858 18.5277 25.3669L61.1944 25.3938ZM25.4915 15.9902H25.4867V58.6569H25.4915V15.9902ZM25.4867 15.9902C27.1637 15.9902 28.8253 16.4401 30.2963 17.3132L8.51888 54.0037C13.6583 57.0542 19.5226 58.6569 25.4867 58.6569V15.9902ZM30.2861 17.3072L29.8499 17.0486L8.09287 53.7512L8.52908 54.0097L30.2861 17.3072ZM13.5601 14.7642L9.03974 15.9496L19.8623 57.2209L24.3826 56.0355L13.5601 14.7642ZM35.0268 42.2199L36.2339 37.8119L-4.91764 26.5426L-6.12476 30.9506L35.0268 42.2199ZM33.7216 20.8272L33.4376 20.3753L-2.68927 43.0754L-2.40531 43.5273L33.7216 20.8272ZM33.4325 20.3672C34.3906 21.8904 34.8826 23.6376 34.8817 25.3809L-7.78496 25.3581C-7.78831 31.6133 -6.03476 37.7564 -2.68416 43.0835L33.4325 20.3672ZM34.8817 25.3773C34.8798 30.572 30.6877 34.7597 25.4976 34.7597V-7.907C7.13178 -7.907 -7.77822 6.99619 -7.78496 25.3617L34.8817 25.3773ZM25.4976 34.7597C23.0189 34.7597 20.5903 33.7487 18.8484 32.0049L49.0344 1.85122C42.783 -4.4069 34.3562 -7.907 25.4976 -7.907V34.7597ZM18.8444 32.0009C17.1047 30.2584 16.1017 27.8348 16.1026 25.3699L58.7692 25.386C58.7726 16.5387 55.2876 8.11448 49.0385 1.85526L18.8444 32.0009ZM16.1026 25.3662C16.1054 20.189 20.2846 15.9902 25.4915 15.9902V58.6569C43.8645 58.6569 58.7591 43.7426 58.7692 25.3897L16.1026 25.3662ZM41.6094 9.30999C41.3154 9.16251 40.6854 8.85198 40.0807 8.56004C39.7762 8.413 39.4069 8.23624 39.0524 8.07147C38.8788 7.9908 38.6449 7.88324 38.39 7.77072C38.2749 7.71991 37.6394 7.43641 36.8618 7.15444L22.3162 47.2651C22.1952 47.2213 22.0894 47.1816 22.0019 47.1482C21.9138 47.1146 21.836 47.0842 21.7702 47.0582C21.641 47.007 21.535 46.9635 21.4596 46.932C21.3825 46.8999 21.3189 46.8727 21.2724 46.8527C21.2251 46.8323 21.1867 46.8155 21.1589 46.8032C21.1052 46.7795 21.0712 46.764 21.0628 46.7602C21.0527 46.7556 21.0545 46.7564 21.07 46.7636C21.1028 46.7788 21.161 46.8061 21.2464 46.8468C21.3296 46.8864 21.4251 46.9322 21.5296 46.9827C21.7401 47.0843 21.9599 47.1916 22.1478 47.2839C22.2406 47.3295 22.3208 47.3691 22.3831 47.3999C22.4511 47.4336 22.4801 47.4481 22.4769 47.4465L41.6094 9.30999ZM36.8854 7.16302C36.7267 7.10526 35.6176 6.69072 34.2011 6.36053C32.7112 6.0132 30.0527 5.54875 26.7556 5.92143C18.5427 6.84976 13.4779 11.9018 11.0578 15.5137L46.5034 39.2635C45.5438 40.6957 43.8666 42.8014 41.1899 44.6737C38.3067 46.6904 34.9834 47.9298 31.5478 48.3181C28.3817 48.676 25.8597 48.2266 24.5146 47.9131C23.8133 47.7496 23.2597 47.5809 22.9246 47.4729C22.5934 47.3661 22.3478 47.2767 22.2926 47.2566L36.8854 7.16302ZM11.0578 15.5137C11.2786 15.1842 11.4538 14.9454 11.5293 14.8435C11.6174 14.7245 11.6807 14.6429 11.7064 14.6099C11.7549 14.5477 11.7634 14.5387 11.7197 14.5918C11.6834 14.636 11.6388 14.6894 11.5967 14.739C11.547 14.7978 11.541 14.8039 11.5836 14.7552L43.7036 42.8399C43.72 42.8212 45.3626 40.9662 46.5034 39.2635L11.0578 15.5137ZM11.5786 14.7609C13.5266 12.5314 17.8454 8.65603 24.7475 7.8207C30.7797 7.09063 35.1888 9.19517 36.4316 9.8187L17.2992 47.9552C18.9009 48.7588 23.5946 50.9382 29.8739 50.1783C37.0231 49.313 41.5515 45.303 43.7086 42.8341L11.5786 14.7609ZM36.4316 9.8187C36.0739 9.63923 35.7782 9.50292 35.6123 9.42756C35.4391 9.34888 35.2939 9.28536 35.2255 9.25551C35.187 9.23874 35.1523 9.22368 35.1315 9.21463C35.1048 9.20305 35.0972 9.19977 35.0843 9.19418C35.0649 9.18575 35.0738 9.18955 35.0942 9.19857C35.2015 9.24611 35.4886 9.37589 35.8509 9.56938C36.6115 9.97558 37.4233 10.5108 38.1828 11.1886L9.77223 43.0207C11.9032 44.9226 13.9795 46.2589 15.7515 47.2052C16.6195 47.6688 17.3489 48.0034 17.8171 48.2107C17.9681 48.2776 18.2571 48.403 18.1636 48.3623C18.159 48.3603 18.1384 48.3513 18.1082 48.3379C18.0782 48.3246 18.0285 48.3025 17.9655 48.2739C17.8567 48.2244 17.6121 48.1122 17.2992 47.9552L36.4316 9.8187ZM38.1819 11.1878C39.0458 11.9588 39.5589 12.6161 39.7886 12.9256C40.0509 13.2791 40.2547 13.6043 40.4298 13.906L3.53043 35.3274C4.11592 36.336 6.18438 39.8189 9.7731 43.0215L38.1819 11.1878ZM40.4298 13.906C41.4747 15.7059 42.6318 18.3417 43.0563 21.7006C43.5014 25.2223 43.023 28.6234 41.9075 31.6217C40.0596 36.5884 36.532 39.6595 37.2222 38.9694L7.05226 8.79951C7.03473 8.81705 6.81681 9.03368 6.56321 9.30211C6.29631 9.58462 5.87795 10.0411 5.40259 10.6305C4.47975 11.7747 3.00287 13.8302 1.91895 16.7435C-0.776099 23.987 0.89661 30.7906 3.53043 35.3274L40.4298 13.906ZM37.1656 39.0258C37.67 38.5251 38.0605 38.0907 38.2898 37.8297C38.5299 37.5564 38.7239 37.3238 38.827 37.1993C38.8825 37.1324 38.9309 37.0734 38.9601 37.0378C39.0006 36.9885 39.0012 36.9876 39.0163 36.9693C39.0399 36.9406 38.9773 37.0174 38.8802 37.1308L6.47208 9.37904C6.28493 9.59759 6.13015 9.78556 6.06117 9.86944C6.02991 9.90746 5.98413 9.96329 5.97825 9.97045C5.96114 9.9913 5.96326 9.98866 5.97275 9.97721C5.98386 9.9638 6.087 9.83902 6.23901 9.66603C6.31956 9.57437 6.43099 9.44954 6.56809 9.30193C6.70382 9.15579 6.8862 8.96413 7.10887 8.74312L37.1656 39.0258ZM38.7542 37.2765C39.8752 35.9912 40.7629 34.6901 41.4755 33.4227C41.7696 32.8995 41.9839 32.4694 42.0633 32.3093C42.0857 32.2643 42.1046 32.226 42.1158 32.2031C42.1215 32.1915 42.1268 32.1807 42.13 32.1743C42.1338 32.1666 42.1354 32.1634 42.1368 32.1605C42.1427 32.1486 42.1253 32.1841 42.0993 32.2356L3.9755 13.0779C3.91937 13.1896 3.87369 13.2824 3.85251 13.3255C3.81896 13.3937 3.83742 13.3561 3.84761 13.3356C3.87631 13.2778 4.04184 12.9432 4.2834 12.5135C4.54657 12.0454 4.88761 11.4843 5.31608 10.8723C5.74278 10.2629 6.17635 9.71681 6.59801 9.23331L38.7542 37.2765ZM42.1185 32.1973C46.5825 23.2694 43.5293 15.3493 42.0627 12.4356L3.95174 31.6189C3.39821 30.5192 2.25432 28.0215 1.88773 24.5785C1.48316 20.7788 2.12504 16.7788 3.9563 13.1162L42.1185 32.1973ZM42.0366 12.384C42.1758 12.6586 42.278 12.8755 42.3234 12.9728C42.3774 13.0883 42.4189 13.18 42.4432 13.234C42.4907 13.3399 42.5227 13.4138 42.5299 13.4306C42.5462 13.4683 42.5439 13.4637 42.5136 13.3912C42.4567 13.2555 42.3708 13.0479 42.2596 12.7779C42.1506 12.5129 42.0371 12.236 41.9219 11.9554C41.8137 11.6919 41.697 11.4077 41.6034 11.1824L2.19731 27.5409C2.33297 27.8677 2.53618 28.3659 2.80381 29.0161C2.92076 29.3003 3.04992 29.6131 3.16243 29.8816C3.21676 30.0112 3.28779 30.1797 3.3618 30.3511C3.39795 30.4348 3.4549 30.5657 3.52307 30.7174C3.55446 30.7873 3.73295 31.1874 3.9778 31.6705L42.0366 12.384ZM41.6007 11.1758C40.5247 8.58631 37.579 2.80488 30.5688 -0.500805C27.2173 -2.08124 24.2159 -2.45463 22.4568 -2.55259C21.684 -2.59563 21.0464 -2.58666 21.0348 -2.58658C20.7992 -2.58499 21.4416 -2.59651 22.1399 -2.56216L20.0441 40.053C20.7977 40.0901 21.4977 40.0779 21.3218 40.0791C21.3203 40.0791 21.2809 40.0794 21.2287 40.0795C21.1741 40.0796 21.0902 40.0794 20.9872 40.0783C20.7833 40.076 20.4691 40.0695 20.0845 40.0481C18.4522 39.9572 15.5845 39.6058 12.371 38.0904C5.63689 34.9149 2.98482 29.4362 2.20004 27.5475L41.6007 11.1758ZM22.2003 -2.55911C21.365 -2.60256 20.6069 -2.6 20.4033 -2.6V40.0667C20.5014 40.0667 20.4966 40.0671 20.4539 40.0664C20.4271 40.0661 20.3736 40.0651 20.2999 40.063C20.2268 40.0608 20.1188 40.057 19.9837 40.0499L22.2003 -2.55911ZM20.4033 -2.6C15.2885 -2.6 8.75833 -0.752308 3.6896 4.80093L35.2029 33.5647C30.7915 38.3978 25.0395 40.0667 20.4033 40.0667V-2.6ZM3.6896 4.80093C4.15252 4.29377 1.8559 6.59014 0.12374 9.65399C-1.80156 13.0595 -3.14375 17.3063 -3.14375 22.1783H39.5229C39.5229 25.2837 38.6447 28.2128 37.2656 30.6523C36.0796 32.75 34.4113 34.432 35.2029 33.5647L3.6896 4.80093ZM-3.14375 22.1783C-3.14375 27.8624 -1.2034 32.2244 -0.166876 34.2661C0.444809 35.4709 1.05286 36.4629 1.53523 37.1952C1.78195 37.5698 2.00688 37.8931 2.19644 38.1578C2.29142 38.2904 2.37551 38.4055 2.44513 38.4999C2.511 38.5891 2.56986 38.6676 2.56793 38.6651L36.7426 13.1203C36.7218 13.0925 36.7984 13.1944 36.8855 13.316C36.9705 13.4347 37.0655 13.5715 37.1664 13.7248C37.3572 14.0144 37.61 14.4242 37.8776 14.9513C38.1361 15.4605 38.5072 16.2719 38.8309 17.3535C39.1496 18.4183 39.5229 20.078 39.5229 22.1783H-3.14375ZM2.56793 38.6651C1.94465 37.8312 3.74025 40.4246 5.87702 42.7032C7.97066 44.9357 11.7957 48.5098 17.3329 50.9004L34.2447 11.7286C35.3066 12.187 36.005 12.675 36.3583 12.9473C36.721 13.2268 36.9257 13.4382 36.9997 13.5171C37.0836 13.6067 37.1375 13.6743 37.1777 13.7272C37.2028 13.7604 37.2256 13.7919 37.2407 13.8133C37.2446 13.8189 37.2477 13.8234 37.2174 13.7799C37.2105 13.77 37.1674 13.708 37.1219 13.6433C37.1045 13.6186 36.9454 13.3916 36.7426 13.1203L2.56793 38.6651ZM17.3352 50.9014C19.122 51.6726 20.547 52.1392 21.3732 52.4019L34.2982 11.74C34.2161 11.7139 34.1804 11.7022 34.1621 11.6961C34.1466 11.6909 34.149 11.6915 34.162 11.6962C34.1753 11.701 34.1919 11.7072 34.2093 11.714C34.2265 11.7208 34.2379 11.7256 34.2424 11.7276L17.3352 50.9014ZM21.3815 52.4045C26.487 54.0251 30.855 53.6682 33.2301 53.3156L26.9654 11.1114C28.1031 10.9425 30.9051 10.6629 34.2899 11.7373L21.3815 52.4045ZM33.2388 53.3143C37.5926 52.6662 41.001 50.8575 42.9697 49.5953C44.4305 48.6589 49.9908 45.0169 52.6108 37.685L12.4324 23.3273C13.7513 19.6365 15.7933 17.2871 16.8715 16.186C18.0676 14.9645 19.1824 14.1634 19.9423 13.6762C20.7372 13.1666 21.5686 12.7293 22.4521 12.3575C23.1593 12.06 24.745 11.4419 26.9566 11.1127L33.2388 53.3143ZM52.6108 37.685C53.3865 35.5142 53.8462 33.3252 54.0272 31.224C54.1157 30.1966 54.1667 28.8566 54.0448 27.3215C54.0183 26.9887 53.8168 22.4022 50.945 17.6925L14.5163 39.905C12.7938 37.0801 12.1711 34.5488 11.9581 33.6124C11.6774 32.3785 11.5642 31.3569 11.512 30.6991C11.4062 29.3671 11.4555 28.2873 11.5178 27.5634C11.6465 26.0691 11.9564 24.6595 12.4324 23.3273L52.6108 37.685ZM51.0883 17.931C49.3961 15.0726 47.3842 13.1714 45.9496 12.0255C44.5669 10.9212 43.3412 10.2216 42.7717 9.90831C42.1846 9.58528 41.6753 9.34083 41.6049 9.30669C41.4016 9.20802 41.5337 9.27202 41.6094 9.30999L22.4769 47.4465C22.732 47.5745 23.0286 47.7172 22.9738 47.6906C22.9734 47.6904 22.969 47.6883 22.9619 47.6848C22.9547 47.6813 22.9435 47.6758 22.9291 47.6688C22.9014 47.6551 22.8547 47.6321 22.7951 47.602C22.6839 47.546 22.472 47.4378 22.2042 47.2904C21.7506 47.0409 20.6238 46.4032 19.3224 45.3638C17.969 44.2828 16.0205 42.4494 14.373 39.6665L51.0883 17.931Z" fill="#119398" mask="url(#path-2-inside-1_324_5)"/>
</svg>
