<svg width="50" height="50" viewBox="0 0 50 50" fill="none" xmlns="http://www.w3.org/2000/svg">
<rect width="50" height="50" rx="19" fill="#EA3650" fill-opacity="0.1"/>
<path d="M39.3934 18.2789C39.0599 16.9885 38.0775 15.9713 36.8293 15.626C34.5685 15 25.5 15 25.5 15C25.5 15 16.4315 15 14.1695 15.626C12.9225 15.9713 11.9401 16.9872 11.6066 18.2789C11 20.6189 11 25.5 11 25.5C11 25.5 11 30.3811 11.6066 32.7211C11.9401 34.0115 12.9225 35.0287 14.1707 35.374C16.4315 36 25.5 36 25.5 36C25.5 36 34.5685 36 36.8305 35.374C38.0775 35.0287 39.0599 34.0128 39.3946 32.7211C40 30.3811 40 25.5 40 25.5C40 25.5 40 20.6189 39.3934 18.2789ZM22.5347 29.9328V21.0672L30.1134 25.5L22.5347 29.9328Z" fill="#EA3650"/>
</svg>
