<svg width="67" height="68" viewBox="0 0 67 68" fill="none" xmlns="http://www.w3.org/2000/svg">
<rect x="0.541748" y="0.591309" width="66.4583" height="66.4583" rx="19" fill="#FDEBEE"/>
<path d="M50.363 25.7465C49.9552 24.1686 48.7541 22.9249 47.2279 22.5027C44.4636 21.7373 33.3753 21.7373 33.3753 21.7373C33.3753 21.7373 22.287 21.7373 19.5212 22.5027C17.9965 22.9249 16.7953 24.1671 16.3876 25.7465C15.6459 28.6076 15.6459 34.5758 15.6459 34.5758C15.6459 34.5758 15.6459 40.5441 16.3876 43.4052C16.7953 44.983 17.9965 46.2268 19.5227 46.649C22.287 47.4144 33.3753 47.4144 33.3753 47.4144C33.3753 47.4144 44.4636 47.4144 47.2293 46.649C48.7541 46.2268 49.9552 44.9846 50.3645 43.4052C51.1047 40.5441 51.1047 34.5758 51.1047 34.5758C51.1047 34.5758 51.1047 28.6076 50.363 25.7465ZM29.7496 39.9959V29.1558L39.0162 34.5758L29.7496 39.9959Z" fill="#EA3650"/>
</svg>
