<svg width="30" height="30" viewBox="0 0 30 30" fill="none" xmlns="http://www.w3.org/2000/svg">
<g clipPath="url(#clip0_150_219)">
<path d="M15 0C6.71625 0 0 6.71625 0 15C0 23.285 6.71625 30 15 30C23.285 30 30 23.285 30 15C30 6.71625 23.285 0 15 0ZM21.8787 21.635C21.6087 22.0775 21.0338 22.215 20.5938 21.9462C17.0713 19.7937 12.6375 19.3075 7.41625 20.5C6.9125 20.615 6.41125 20.3 6.29625 19.7975C6.18125 19.295 6.495 18.7925 7 18.6787C12.7137 17.3725 17.615 17.935 21.5687 20.3512C22.01 20.6187 22.1488 21.195 21.8787 21.635ZM23.715 17.5513C23.3762 18.1012 22.6562 18.2738 22.1062 17.9363C18.075 15.4587 11.9288 14.74 7.15875 16.1888C6.54125 16.375 5.8875 16.0262 5.7 15.4087C5.51375 14.79 5.8625 14.1388 6.48 13.95C11.9275 12.2962 18.7 13.0975 23.33 15.9425C23.88 16.2812 24.0525 17.0013 23.715 17.5513ZM23.8725 13.2975C19.0375 10.4262 11.0625 10.1625 6.44625 11.5638C5.705 11.7888 4.92125 11.37 4.69625 10.6287C4.47125 9.8875 4.89 9.10375 5.63125 8.87875C10.93 7.27 19.7375 7.58125 25.3037 10.885C25.97 11.2812 26.1888 12.1413 25.7938 12.8075C25.4 13.4738 24.5375 13.6937 23.8725 13.2975Z" fill="#89D123"/>
</g>
<defs>
<clipPath id="clip0_150_219">
<rect width="30" height="30" fill="white"/>
</clipPath>
</defs>
</svg>
