<svg width="29" height="29" viewBox="0 0 29 29" fill="none" xmlns="http://www.w3.org/2000/svg">
<mask id="path-1-inside-1_135_43" fill="white">
<path fillRule="evenodd" clip-rule="evenodd" d="M24.6573 4.21467C21.9433 1.49833 18.3353 0.00120833 14.4915 0C6.57092 0 0.124458 6.44525 0.120833 14.3695C0.119625 16.9022 0.781792 19.3744 2.03967 21.5543L0 29L7.61733 27.0014C9.71621 28.1469 12.0797 28.7499 14.4843 28.7511H14.4903C22.4097 28.7511 28.8574 22.3046 28.861 14.3804C28.8635 10.5415 27.37 6.92979 24.6573 4.21467ZM14.4915 26.3235H14.4867C12.3431 26.3235 10.2418 25.7472 8.40758 24.6585L7.97137 24.3999L3.451 25.5853L4.65813 21.1772L4.37417 20.7253C3.17792 18.8234 2.54717 16.6255 2.54838 14.3695C2.55079 7.78408 7.90975 2.42633 14.4976 2.42633C17.6876 2.42633 20.6867 3.67092 22.9414 5.92808C25.1962 8.18646 26.4371 11.1868 26.4359 14.378C26.4323 20.9658 21.0745 26.3235 14.4915 26.3235ZM21.0431 17.3783C20.6843 17.1982 18.9189 16.3294 18.589 16.2098C18.2603 16.0902 18.0211 16.0298 17.7806 16.3886C17.5402 16.7475 16.8538 17.5571 16.6436 17.7975C16.4345 18.0368 16.2243 18.067 15.8654 17.887C15.5065 17.7069 14.349 17.3287 12.9775 16.1047C11.9105 15.1525 11.1892 13.9768 10.9801 13.6167C10.7711 13.2566 10.9584 13.0633 11.1372 12.8845C11.2991 12.7238 11.4961 12.4652 11.6761 12.2549C11.8574 12.0471 11.9166 11.8973 12.0374 11.6568C12.157 11.4175 12.0978 11.2073 12.0072 11.0273C11.9166 10.8484 11.1988 9.08063 10.9004 8.36167C10.6092 7.66083 10.3131 7.75629 10.092 7.74542C9.88296 7.73454 9.64371 7.73333 9.40325 7.73333C9.164 7.73333 8.77492 7.82275 8.44625 8.18283C8.11758 8.54292 7.18958 9.41171 7.18958 11.1783C7.18958 12.9461 8.47646 14.6535 8.65529 14.8927C8.83412 15.132 11.1867 18.7594 14.7888 20.3145C15.6455 20.6843 16.3149 20.9054 16.8357 21.0709C17.696 21.344 18.479 21.3053 19.0977 21.2135C19.7877 21.1108 21.222 20.3447 21.5216 19.5061C21.8213 18.6675 21.8213 17.9474 21.7307 17.7987C21.6413 17.6477 21.402 17.5583 21.0431 17.3783Z"/>
</mask>
<path fillRule="evenodd" clip-rule="evenodd" d="M24.6573 4.21467C21.9433 1.49833 18.3353 0.00120833 14.4915 0C6.57092 0 0.124458 6.44525 0.120833 14.3695C0.119625 16.9022 0.781792 19.3744 2.03967 21.5543L0 29L7.61733 27.0014C9.71621 28.1469 12.0797 28.7499 14.4843 28.7511H14.4903C22.4097 28.7511 28.8574 22.3046 28.861 14.3804C28.8635 10.5415 27.37 6.92979 24.6573 4.21467ZM14.4915 26.3235H14.4867C12.3431 26.3235 10.2418 25.7472 8.40758 24.6585L7.97137 24.3999L3.451 25.5853L4.65813 21.1772L4.37417 20.7253C3.17792 18.8234 2.54717 16.6255 2.54838 14.3695C2.55079 7.78408 7.90975 2.42633 14.4976 2.42633C17.6876 2.42633 20.6867 3.67092 22.9414 5.92808C25.1962 8.18646 26.4371 11.1868 26.4359 14.378C26.4323 20.9658 21.0745 26.3235 14.4915 26.3235ZM21.0431 17.3783C20.6843 17.1982 18.9189 16.3294 18.589 16.2098C18.2603 16.0902 18.0211 16.0298 17.7806 16.3886C17.5402 16.7475 16.8538 17.5571 16.6436 17.7975C16.4345 18.0368 16.2243 18.067 15.8654 17.887C15.5065 17.7069 14.349 17.3287 12.9775 16.1047C11.9105 15.1525 11.1892 13.9768 10.9801 13.6167C10.7711 13.2566 10.9584 13.0633 11.1372 12.8845C11.2991 12.7238 11.4961 12.4652 11.6761 12.2549C11.8574 12.0471 11.9166 11.8973 12.0374 11.6568C12.157 11.4175 12.0978 11.2073 12.0072 11.0273C11.9166 10.8484 11.1988 9.08063 10.9004 8.36167C10.6092 7.66083 10.3131 7.75629 10.092 7.74542C9.88296 7.73454 9.64371 7.73333 9.40325 7.73333C9.164 7.73333 8.77492 7.82275 8.44625 8.18283C8.11758 8.54292 7.18958 9.41171 7.18958 11.1783C7.18958 12.9461 8.47646 14.6535 8.65529 14.8927C8.83412 15.132 11.1867 18.7594 14.7888 20.3145C15.6455 20.6843 16.3149 20.9054 16.8357 21.0709C17.696 21.344 18.479 21.3053 19.0977 21.2135C19.7877 21.1108 21.222 20.3447 21.5216 19.5061C21.8213 18.6675 21.8213 17.9474 21.7307 17.7987C21.6413 17.6477 21.402 17.5583 21.0431 17.3783Z" fill="#119398"/>
<path d="M24.6573 4.21467L39.7489 -10.8636L39.7489 -10.8636L24.6573 4.21467ZM14.4915 0L14.4982 -21.3333H14.4915V0ZM0.120833 14.3695L21.4542 14.3797V14.3793L0.120833 14.3695ZM2.03967 21.5543L22.615 27.1906L24.9673 18.6034L20.5173 10.8917L2.03967 21.5543ZM0 29L-20.5753 23.3637L-30.3419 59.0163L5.41404 49.6349L0 29ZM7.61733 27.0014L17.8374 8.27545L10.3994 4.21606L2.20329 6.36651L7.61733 27.0014ZM14.4843 28.7511L14.4736 50.0844H14.4843V28.7511ZM28.861 14.3804L7.52771 14.3669L7.52771 14.3706L28.861 14.3804ZM8.40758 24.6585L19.2963 6.31323L19.2861 6.3072L8.40758 24.6585ZM7.97137 24.3999L18.8499 6.04861L11.1822 1.50327L2.56011 3.76424L7.97137 24.3999ZM3.451 25.5853L-17.1248 19.9506L-26.886 55.5951L8.86226 46.2209L3.451 25.5853ZM4.65813 21.1772L25.2339 26.8119L27.7107 17.7674L22.7216 9.8272L4.65813 21.1772ZM4.37417 20.7253L22.4376 9.37528L22.4325 9.36717L4.37417 20.7253ZM2.54838 14.3695L23.8817 14.3809L23.8817 14.3773L2.54838 14.3695ZM22.9414 5.92808L38.0385 -9.14474L38.0344 -9.14878L22.9414 5.92808ZM26.4359 14.378L47.7692 14.3897V14.386L26.4359 14.378ZM18.589 16.2098L11.2926 36.2566L11.3044 36.2609L11.3162 36.2651L18.589 16.2098ZM16.6436 17.7975L0.583615 3.75516L0.578566 3.76094L16.6436 17.7975ZM12.9775 16.1047L27.1828 0.188594L27.1819 0.187812L12.9775 16.1047ZM11.1372 12.8845L-3.89113 -2.25688L-3.91949 -2.22874L-3.94774 -2.20049L11.1372 12.8845ZM11.6761 12.2549L-4.40199 -1.76669L-4.46528 -1.69411L-4.52792 -1.62096L11.6761 12.2549ZM12.0374 11.6568L31.0993 21.2356L31.109 21.2165L31.1185 21.1973L12.0374 11.6568ZM12.0072 11.0273L31.0627 1.43557L31.0497 1.40975L31.0366 1.38397L12.0072 11.0273ZM10.9004 8.36167L30.6034 0.18241L30.6007 0.175837L10.9004 8.36167ZM10.092 7.74542L8.98367 29.0499L9.01388 29.0515L9.04409 29.053L10.092 7.74542ZM14.7888 20.3145L6.33287 39.9004L6.33519 39.9014L14.7888 20.3145ZM16.8357 21.0709L10.3732 41.4019L10.3815 41.4045L16.8357 21.0709ZM19.0977 21.2135L22.2301 42.3156L22.2388 42.3143L19.0977 21.2135ZM21.7307 17.7987L3.37301 28.6665L3.4439 28.7862L3.51635 28.905L21.7307 17.7987ZM39.7489 -10.8636C33.0358 -17.5826 24.0016 -21.3303 14.4982 -21.3333L14.4848 21.3333C12.6689 21.3328 10.8509 20.5793 9.56559 19.2929L39.7489 -10.8636ZM14.4915 -21.3333C-5.21421 -21.3333 -21.2035 -5.33591 -21.2125 14.3597L21.4542 14.3793C21.4524 18.2264 18.356 21.3333 14.4915 21.3333V-21.3333ZM-21.2125 14.3593C-21.2155 20.6302 -19.5726 26.7846 -16.4379 32.2168L20.5173 10.8917C21.1362 11.9643 21.4547 13.1741 21.4542 14.3797L-21.2125 14.3593ZM-18.5356 15.9179L-20.5753 23.3637L20.5753 34.6363L22.615 27.1906L-18.5356 15.9179ZM5.41404 49.6349L13.0314 47.6363L2.20329 6.36651L-5.41404 8.3651L5.41404 49.6349ZM-2.60271 45.7274C2.64015 48.5888 8.51558 50.0814 14.4736 50.0844L14.495 7.41775C15.6438 7.41833 16.7923 7.70506 17.8374 8.27545L-2.60271 45.7274ZM14.4843 50.0844H14.4903V7.41775H14.4843V50.0844ZM14.4903 50.0844C34.196 50.0844 50.1854 34.0846 50.1944 14.3901L7.52771 14.3706C7.52947 10.5246 10.6235 7.41775 14.4903 7.41775V50.0844ZM50.1944 14.3938C50.2004 4.8972 46.4627 -4.1438 39.7489 -10.8636L9.56559 19.2929C8.27722 18.0034 7.52657 16.1858 7.52771 14.3669L50.1944 14.3938ZM14.4915 4.99021H14.4867V47.6569H14.4915V4.99021ZM14.4867 4.99021C16.1637 4.99021 17.8253 5.44015 19.2963 6.31323L-2.48112 43.0037C2.65834 46.0542 8.52258 47.6569 14.4867 47.6569V4.99021ZM19.2861 6.3072L18.8499 6.04861L-2.90715 42.7511L-2.47094 43.0097L19.2861 6.3072ZM2.56011 3.76424L-1.96026 4.94962L8.86226 46.2209L13.3826 45.0355L2.56011 3.76424ZM24.0268 31.2199L25.2339 26.8119L-15.9176 15.5426L-17.1248 19.9506L24.0268 31.2199ZM22.7216 9.8272L22.4376 9.37528L-13.6893 32.0754L-13.4053 32.5273L22.7216 9.8272ZM22.4325 9.36717C23.3906 10.8904 23.8826 12.6376 23.8817 14.3809L-18.785 14.3581C-18.7883 20.6133 -17.0348 26.7564 -13.6842 32.0835L22.4325 9.36717ZM23.8817 14.3773C23.8798 19.572 19.6877 23.7597 14.4976 23.7597V-18.907C-3.86822 -18.907 -18.7782 -4.00381 -18.785 14.3617L23.8817 14.3773ZM14.4976 23.7597C12.0189 23.7597 9.59032 22.7487 7.84839 21.0049L38.0344 -9.14878C31.783 -15.4069 23.3562 -18.907 14.4976 -18.907V23.7597ZM7.84436 21.0009C6.10469 19.2584 5.10165 16.8348 5.10259 14.3699L47.7692 14.386C47.7726 5.53871 44.2876 -2.88552 38.0385 -9.14474L7.84436 21.0009ZM5.10259 14.3662C5.10544 9.18903 9.28459 4.99021 14.4915 4.99021V47.6569C32.8645 47.6569 47.7592 32.7426 47.7692 14.3897L5.10259 14.3662ZM30.6094 -1.69001C30.3154 -1.83748 29.6854 -2.14801 29.0808 -2.43996C28.7762 -2.58699 28.4069 -2.76376 28.0524 -2.92853C27.8788 -3.0092 27.6449 -3.11675 27.39 -3.22928C27.2749 -3.28008 26.6394 -3.56359 25.8618 -3.84556L11.3162 36.2651C11.1952 36.2213 11.0894 36.1816 11.0019 36.1482C10.9138 36.1146 10.836 36.0842 10.7702 36.0582C10.641 36.007 10.535 35.9635 10.4596 35.932C10.3824 35.8999 10.3189 35.8727 10.2724 35.8527C10.2251 35.8323 10.1867 35.8155 10.1589 35.8032C10.1052 35.7795 10.0712 35.764 10.0628 35.7602C10.0527 35.7556 10.0544 35.7563 10.07 35.7636C10.1028 35.7788 10.161 35.8061 10.2464 35.8468C10.3296 35.8864 10.4251 35.9322 10.5296 35.9827C10.7401 36.0843 10.9599 36.1916 11.1477 36.2839C11.2406 36.3295 11.3208 36.3691 11.3831 36.3999C11.4511 36.4336 11.4801 36.4481 11.4769 36.4465L30.6094 -1.69001ZM25.8854 -3.83698C25.7267 -3.89474 24.6176 -4.30928 23.2011 -4.63947C21.7112 -4.9868 19.0527 -5.45126 15.7556 -5.07857C7.54272 -4.15024 2.47795 0.90177 0.0578085 4.51374L35.5034 28.2635C34.5438 29.6957 32.8666 31.8014 30.1899 33.6737C27.3067 35.6904 23.9834 36.9298 20.5478 37.3181C17.3817 37.676 14.8597 37.2266 13.5146 36.9131C12.8133 36.7496 12.2597 36.5809 11.9246 36.4729C11.5934 36.3661 11.3478 36.2767 11.2926 36.2566L25.8854 -3.83698ZM0.0578085 4.51374C0.278607 4.18421 0.453812 3.94538 0.52929 3.84349C0.617422 3.72452 0.680668 3.64292 0.706434 3.60987C0.754859 3.54775 0.763375 3.53868 0.719721 3.59179C0.683378 3.63601 0.638783 3.68937 0.596723 3.73904C0.546971 3.79778 0.540991 3.80391 0.583616 3.75516L32.7036 31.8399C32.72 31.8211 34.3626 29.9662 35.5034 28.2635L0.0578085 4.51374ZM0.578566 3.76094C2.52662 1.53137 6.84542 -2.34396 13.7475 -3.1793C19.7797 -3.90937 24.1887 -1.80484 25.4316 -1.1813L6.29919 36.9552C7.90097 37.7588 12.5946 39.9382 18.8739 39.1783C26.0231 38.313 30.5515 34.303 32.7086 31.8341L0.578566 3.76094ZM25.4316 -1.1813C25.0739 -1.36077 24.7782 -1.49708 24.6123 -1.57244C24.4391 -1.65112 24.2939 -1.71464 24.2255 -1.74449C24.187 -1.76126 24.1523 -1.77631 24.1315 -1.78537C24.1048 -1.79694 24.0972 -1.80023 24.0843 -1.80582C24.0649 -1.81425 24.0738 -1.81045 24.0942 -1.80142C24.2015 -1.75388 24.4886 -1.62411 24.8509 -1.43061C25.6115 -1.02442 26.4233 -0.489242 27.1828 0.188594L-1.22777 32.0207C0.903157 33.9226 2.97949 35.2589 4.75146 36.2052C5.61947 36.6688 6.34893 37.0034 6.81712 37.2107C6.96805 37.2776 7.25705 37.403 7.16362 37.3623C7.15902 37.3603 7.13843 37.3513 7.10823 37.3379C7.07817 37.3246 7.02853 37.3025 6.96553 37.2739C6.8567 37.2244 6.61206 37.1122 6.29919 36.9552L25.4316 -1.1813ZM27.1819 0.187812C28.0458 0.958784 28.5589 1.61607 28.7886 1.92561C29.0509 2.27905 29.2547 2.60434 29.4298 2.90598L-7.46957 24.3274C-6.88408 25.336 -4.81562 28.8189 -1.2269 32.0215L27.1819 0.187812ZM29.4298 2.90598C30.4747 4.70588 31.6318 7.34175 32.0563 10.7006C32.5014 14.2223 32.023 17.6234 30.9075 20.6217C29.0596 25.5884 25.532 28.6595 26.2222 27.9694L-3.94774 -2.20049C-3.96527 -2.18295 -4.18319 -1.96632 -4.43679 -1.69789C-4.70369 -1.41538 -5.12204 -0.958875 -5.59741 -0.369503C-6.52025 0.774659 -7.99712 2.83021 -9.08105 5.74349C-11.7761 12.987 -10.1034 19.7906 -7.46957 24.3274L29.4298 2.90598ZM26.1656 28.0258C26.67 27.5251 27.0605 27.0907 27.2898 26.8297C27.5299 26.5564 27.7239 26.3238 27.827 26.1993C27.8825 26.1324 27.9309 26.0734 27.9601 26.0378C28.0006 25.9885 28.0012 25.9876 28.0163 25.9693C28.0399 25.9406 27.9773 26.0174 27.8802 26.1308L-4.52792 -1.62096C-4.71507 -1.40241 -4.86985 -1.21444 -4.93883 -1.13056C-4.97009 -1.09254 -5.01587 -1.03671 -5.02175 -1.02955C-5.03886 -1.0087 -5.03674 -1.01134 -5.02725 -1.02279C-5.01614 -1.0362 -4.913 -1.16098 -4.76099 -1.33397C-4.68044 -1.42563 -4.56901 -1.55046 -4.43191 -1.69807C-4.29618 -1.84421 -4.1138 -2.03587 -3.89113 -2.25688L26.1656 28.0258ZM27.7542 26.2765C28.8752 24.9912 29.7629 23.6901 30.4755 22.4227C30.7696 21.8995 30.9839 21.4694 31.0633 21.3093C31.0857 21.2643 31.1046 21.226 31.1158 21.2031C31.1215 21.1915 31.1268 21.1807 31.13 21.1743C31.1338 21.1666 31.1354 21.1634 31.1368 21.1606C31.1427 21.1486 31.1253 21.1841 31.0993 21.2356L-7.0245 2.07794C-7.08063 2.18964 -7.12631 2.2824 -7.14749 2.32546C-7.18104 2.39365 -7.16258 2.35613 -7.15239 2.3356C-7.12369 2.27779 -6.95816 1.94314 -6.71659 1.51347C-6.45343 1.04536 -6.11239 0.484325 -5.68391 -0.127677C-5.25722 -0.737139 -4.82365 -1.28319 -4.40199 -1.76669L27.7542 26.2765ZM31.1185 21.1973C35.5825 12.2694 32.5293 4.34932 31.0627 1.43557L-7.04826 20.6189C-7.60179 19.5192 -8.74568 17.0215 -9.11227 13.5785C-9.51684 9.77879 -8.87496 5.77877 -7.0437 2.11624L31.1185 21.1973ZM31.0366 1.38397C31.1758 1.65857 31.278 1.87554 31.3234 1.97281C31.3774 2.08825 31.4189 2.18002 31.4432 2.23404C31.4907 2.33989 31.5227 2.4138 31.5299 2.43063C31.5462 2.46825 31.5439 2.4637 31.5136 2.39123C31.4567 2.25549 31.3708 2.04786 31.2596 1.77786C31.1506 1.51292 31.0371 1.23599 30.9219 0.955423C30.8137 0.691877 30.697 0.407667 30.6034 0.182411L-8.80269 16.5409C-8.66703 16.8677 -8.46381 17.3659 -8.19618 18.0162C-8.07923 18.3003 -7.95008 18.6131 -7.83757 18.8816C-7.78324 19.0112 -7.71221 19.1798 -7.63819 19.3511C-7.60204 19.4348 -7.5451 19.5657 -7.47693 19.7174C-7.44554 19.7873 -7.26705 20.1874 -7.0222 20.6705L31.0366 1.38397ZM30.6007 0.175837C29.5247 -2.41369 26.579 -8.19512 19.5688 -11.5008C16.2173 -13.0812 13.2159 -13.4546 11.4568 -13.5526C10.684 -13.5956 10.0464 -13.5867 10.0348 -13.5866C9.79919 -13.585 10.4416 -13.5965 11.1399 -13.5622L9.04409 29.053C9.79771 29.0901 10.4977 29.0779 10.3218 29.0791C10.3203 29.0791 10.2809 29.0794 10.2287 29.0795C10.1741 29.0796 10.0902 29.0794 9.98716 29.0783C9.78326 29.076 9.46912 29.0695 9.08446 29.0481C7.45216 28.9572 4.58447 28.6058 1.37098 27.0904C-5.36311 23.9149 -8.01518 18.4362 -8.79996 16.5475L30.6007 0.175837ZM11.2003 -13.5591C10.365 -13.6026 9.60688 -13.6 9.40325 -13.6V29.0667C9.50143 29.0667 9.49659 29.0671 9.4539 29.0664C9.42713 29.0661 9.37362 29.0651 9.29986 29.063C9.22679 29.0608 9.11879 29.057 8.98367 29.0499L11.2003 -13.5591ZM9.40325 -13.6C4.28848 -13.6 -2.24166 -11.7523 -7.3104 -6.19907L24.2029 22.5647C19.7915 27.3978 14.0395 29.0667 9.40325 29.0667V-13.6ZM-7.3104 -6.19907C-6.84749 -6.70623 -9.1441 -4.40986 -10.8763 -1.34601C-12.8016 2.05948 -14.1438 6.30631 -14.1438 11.1783H28.5229C28.5229 14.2837 27.6447 17.2128 26.2656 19.6523C25.0796 21.75 23.4113 23.432 24.2029 22.5647L-7.3104 -6.19907ZM-14.1438 11.1783C-14.1438 16.8624 -12.2034 21.2244 -11.1669 23.2661C-10.5552 24.4709 -9.94714 25.4629 -9.46477 26.1952C-9.21805 26.5698 -8.99312 26.8931 -8.80356 27.1578C-8.70858 27.2904 -8.62449 27.4055 -8.55487 27.4999C-8.489 27.5891 -8.43014 27.6676 -8.43207 27.6651L25.7426 2.12034C25.7218 2.09248 25.7984 2.19437 25.8855 2.31603C25.9705 2.43467 26.0655 2.57154 26.1664 2.72477C26.3572 3.0144 26.61 3.4242 26.8776 3.95132C27.1361 4.46049 27.5072 5.27185 27.8309 6.35352C28.1496 7.41828 28.5229 9.07801 28.5229 11.1783H-14.1438ZM-8.43207 27.6651C-9.05536 26.8312 -7.25975 29.4246 -5.12299 31.7032C-3.02934 33.9357 0.795708 37.5098 6.33287 39.9004L23.2447 0.728572C24.3066 1.18704 25.005 1.67501 25.3583 1.9473C25.721 2.22681 25.9257 2.43821 25.9997 2.51713C26.0836 2.60665 26.1375 2.67434 26.1777 2.72724C26.2028 2.76038 26.2256 2.79193 26.2407 2.81327C26.2446 2.81886 26.2477 2.82337 26.2174 2.77987C26.2105 2.76997 26.1674 2.708 26.1219 2.64332C26.1045 2.61864 25.9454 2.39158 25.7426 2.12034L-8.43207 27.6651ZM6.33519 39.9014C8.12201 40.6726 9.547 41.1392 10.3732 41.4019L23.2982 0.739975C23.2161 0.713889 23.1804 0.702149 23.1621 0.696049C23.1466 0.690885 23.1489 0.691521 23.162 0.696221C23.1753 0.700994 23.1919 0.7072 23.2093 0.714034C23.2265 0.720803 23.2379 0.725641 23.2424 0.727571L6.33519 39.9014ZM10.3815 41.4045C15.487 43.0251 19.855 42.6682 22.2301 42.3156L15.9654 0.111379C17.103 -0.0574956 19.9051 -0.337061 23.2899 0.737337L10.3815 41.4045ZM22.2388 42.3143C26.5926 41.6662 30.0009 39.8575 31.9697 38.5953C33.4304 37.6589 38.9908 34.0169 41.6108 26.685L1.43244 12.3273C2.75133 8.63653 4.79325 6.28705 5.87147 5.18603C7.06765 3.96453 8.18236 3.16341 8.94233 2.6762C9.73718 2.16663 10.5686 1.72925 11.4521 1.35754C12.1593 1.06001 13.745 0.441898 15.9566 0.11268L22.2388 42.3143ZM41.6108 26.685C42.3865 24.5142 42.8462 22.3252 43.0272 20.224C43.1157 19.1966 43.1667 17.8566 43.0448 16.3215C43.0183 15.9887 42.8168 11.4022 39.945 6.69246L3.51635 28.905C1.79381 26.0801 1.17111 23.5488 0.958097 22.6124C0.677413 21.3785 0.564232 20.3569 0.511995 19.6991C0.406213 18.367 0.455494 17.2873 0.517834 16.5634C0.64651 15.0691 0.956391 13.6595 1.43244 12.3273L41.6108 26.685ZM40.0883 6.93102C38.3961 4.07259 36.3842 2.17138 34.9496 1.02552C33.5669 -0.078816 32.3411 -0.778374 31.7717 -1.0917C31.1846 -1.41472 30.6752 -1.65917 30.6049 -1.69331C30.4016 -1.79199 30.5337 -1.72798 30.6094 -1.69001L11.4769 36.4465C11.732 36.5745 12.0286 36.7172 11.9739 36.6906C11.9734 36.6904 11.969 36.6883 11.9619 36.6848C11.9547 36.6813 11.9435 36.6758 11.9291 36.6688C11.9014 36.6551 11.8547 36.6321 11.7951 36.602C11.684 36.546 11.472 36.4378 11.2042 36.2905C10.7506 36.0409 9.62385 35.4032 8.32241 34.3638C6.96897 33.2828 5.0205 31.4494 3.37301 28.6665L40.0883 6.93102Z" fill="#119398" mask="url(#path-1-inside-1_135_43)"/>
</svg>
