<svg width="37" height="27" viewBox="0 0 37 27" fill="none" xmlns="http://www.w3.org/2000/svg">
<path d="M35.3628 4.7465C34.955 3.16864 33.7538 1.92488 32.2276 1.5027C29.4633 0.737305 18.375 0.737305 18.375 0.737305C18.375 0.737305 7.28677 0.737305 4.52098 1.5027C2.99625 1.92488 1.79509 3.16712 1.38731 4.7465C0.64563 7.60761 0.64563 13.5758 0.64563 13.5758C0.64563 13.5758 0.64563 19.5441 1.38731 22.4052C1.79509 23.983 2.99625 25.2268 4.52246 25.649C7.28677 26.4144 18.375 26.4144 18.375 26.4144C18.375 26.4144 29.4633 26.4144 32.2291 25.649C33.7538 25.2268 34.955 23.9846 35.3643 22.4052C36.1045 19.5441 36.1045 13.5758 36.1045 13.5758C36.1045 13.5758 36.1045 7.60761 35.3628 4.7465ZM14.7494 18.9959V8.15584L24.0159 13.5758L14.7494 18.9959Z" fill="#EA3650"/>
</svg>
