<svg width="637" height="791" viewBox="0 0 637 791" fill="none" xmlns="http://www.w3.org/2000/svg">
<mask id="mask0_906_2180" style="mask-type:alpha" maskUnits="userSpaceOnUse" x="0" y="0" width="637" height="791">
<rect width="637" height="791" fill="#D9D9D9"/>
</mask>
<g mask="url(#mask0_906_2180)">
<path d="M249.71 -6.63005C241.2 19.1899 233.94 56.19 248.78 91.62C259.02 116.07 270.36 117.31 309.62 162.54C339.38 196.83 363.39 224.99 378.09 266.07C388.29 294.58 390.01 318.13 390.82 330.54C399.74 466.19 291.25 537.34 325.38 619.77C345.94 669.43 400.32 696.21 411.57 701.76C465.43 728.29 502.49 713.32 569.23 748.01C588.03 757.78 595.84 764.56 628.09 788.76C664.71 816.24 718.24 855.23 787.33 901.47L21.1003 892.53L15.3203 -138.04L217.93 -121.77C228.52 -83.39 239.11 -45.0101 249.71 -6.63005Z" fill="#F4EB31"/>
<path d="M292.911 245.97C293.071 245.26 293.491 244.65 293.901 244.05C295.751 241.37 297.591 238.69 299.441 236.01C299.671 235.68 299.901 235.35 300.221 235.12C300.661 234.81 301.221 234.73 301.761 234.66C303.731 234.41 305.721 234.28 307.711 234.2C312.621 242.55 316.421 251.61 319.991 260.72C319.291 262.14 318.281 263.35 316.871 264.1C316.651 264.22 316.421 264.32 316.171 264.34C315.401 264.39 314.871 263.62 314.501 262.95C313.541 261.21 312.591 259.48 311.631 257.74C311.381 257.28 311.101 256.79 310.631 256.55C310.211 256.34 309.721 256.36 309.261 256.39L302.621 256.78C301.691 256.84 300.741 256.89 299.831 256.68C298.741 256.43 297.771 255.83 296.821 255.24C296.071 254.77 295.311 254.3 294.561 253.82C294.281 253.65 294.001 253.47 293.811 253.2C293.601 252.89 293.541 252.5 293.501 252.13C293.321 250.73 293.141 249.32 292.961 247.92C292.851 247.28 292.771 246.61 292.911 245.97Z" fill="#EB573D"/>
<path d="M311.85 333.14C312.2 332.41 312.38 332.33 313.44 331.21C315.65 328.88 315.75 324.92 318.39 323.09C321.22 321.13 325.08 322.81 328.5 322.44C332.67 321.99 332.11 319.51 336.4 317.63C342.24 315.07 348.36 316.32 354.78 317.63C358.86 318.46 361.43 319.51 362.15 319.82C365.9 321.39 369.16 322.76 371.37 325.89C373.83 329.39 371.79 330.58 374.51 334.48C376.08 336.73 378.8 339.26 378.83 341.56C378.84 342.62 378.43 343.46 378.43 343.46C377.96 344.42 377.19 344.93 376.99 345.08C374.84 346.64 374.67 352.4 373.26 356.69C372.52 358.94 371.44 360.49 369.28 363.6C363.5 371.92 359.47 371.98 357.54 377.36C357.28 378.08 356.76 379.72 355.27 380.54C353.64 381.44 351.72 380.87 350.81 380.53C352.46 383.1 352.55 384.98 352.31 386.23C351.67 389.64 347.87 392.49 348.62 393.56C348.83 393.86 349.28 393.86 349.62 394.44C349.86 394.86 349.88 395.32 349.82 395.8C349.31 400.19 347.28 401.74 347.28 401.74C345.1 403.4 342.57 403 342.1 402.91C341.95 402.86 341.81 402.81 341.66 402.76C341.56 400.44 341.46 398.12 341.36 395.8C341.34 395.34 341.33 394.84 341.56 394.44C341.92 393.82 342.48 393.82 342.56 393.56C342.88 392.52 334.71 390.55 334.1 387.36C333.83 385.92 335.01 383.78 340.38 380.53C339.48 380.87 337.55 381.44 335.92 380.54C335.42 380.26 334.87 379.81 333.65 377.36C331.78 373.61 331.85 372.2 330.23 369.9C328.94 368.07 328.68 368.7 327.98 367.39C326.21 364.1 328.63 359.7 326.86 356.42C326.3 355.38 325.38 354.59 324.48 353.82C321.05 350.91 317.63 348 314.2 345.08C313.65 344.61 313.08 344.12 312.76 343.46C312.36 342.64 312.36 341.88 312.36 341.56C312.31 337.58 310.66 335.63 311.85 333.14Z" fill="#EB573D"/>
<path d="M138.41 398.6C139.9 393.16 140.39 387.45 139.85 381.84C139.76 380.86 139.63 379.88 139.29 378.95C138.85 377.76 138.08 376.73 137.32 375.71C135.24 372.94 133.15 370.16 131.07 367.39C130.76 366.98 130.42 366.54 129.93 366.38C129.34 366.18 128.71 366.43 128.13 366.65C122.78 368.73 116.83 369.27 111.19 368.17C110.57 368.05 109.92 367.89 109.46 367.46C109.08 367.1 108.87 366.6 108.67 366.12C107.9 364.27 106.97 362.43 105.47 361.11C103.96 359.79 101.75 359.11 99.9103 359.89C98.2803 360.58 97.2803 362.2 96.3203 363.68C94.2103 366.93 91.7603 369.96 89.0303 372.71C92.1303 376.37 90.3603 381.85 90.0003 386.64C89.9703 387.02 89.9603 387.42 90.1103 387.76C90.3003 388.18 90.7203 388.45 91.1103 388.71C98.0803 393.28 102.99 400.3 107.74 407.15C112.79 404.96 113.15 397.55 117.55 394.23C120.01 392.37 123.29 392.14 126.37 391.98C127.82 391.91 129.3 391.84 130.7 392.23C134.27 393.23 136.34 396.84 138.05 400.13" fill="#EB573D"/>
<path d="M294.93 330.81C292.49 333.58 289.78 332.26 285.69 335.61C282.39 338.31 280.85 341.89 280.07 344.37C278.54 341.09 276.25 338.16 273.44 335.89C270.58 335.33 268.61 338.84 268.49 341.75C268.38 344.66 269.04 347.87 267.39 350.28C266.56 351.49 265.24 352.31 264.44 353.54C263.37 355.17 263.36 357.26 263.4 359.21C263.47 363.7 263.55 368.2 263.62 372.69C263.65 374.36 263.64 376.15 262.7 377.53C261.93 378.67 260.65 379.33 259.48 380.06C251.56 385.01 247.34 395.24 249.48 404.33C244.89 399.72 240.29 395.1 235.7 390.49C234.84 389.63 233.95 388.71 233.65 387.53C232.89 384.52 236.3 381.58 235.44 378.6C234.43 375.1 229.09 375.43 226.61 372.77C222.93 368.81 227.97 362.23 226.29 357.09C224.8 352.51 219 351.33 215.16 348.41C210.2 344.64 208.7 337.01 211.86 331.64C212.13 331.18 212.46 330.71 212.94 330.46C215.13 329.31 216.9 333.48 219.37 333.3C220.12 333.25 220.78 332.78 221.38 332.33C224.51 330 227.64 327.68 230.77 325.35C235.72 321.67 241.29 316.14 239.17 310.34C233.26 313.78 227.34 317.21 221.43 320.65C219.17 321.97 216.57 323.33 214.05 322.6C211.61 321.89 210.15 319.48 208.83 317.32C205.84 312.43 200.6 307.26 195.24 309.26C192.03 310.46 190.37 314.69 189.33 317.65C187.77 322.1 188.74 323.86 187.38 327.86C186.16 331.45 183.96 334.21 181.69 336.31C181.85 333.44 181.73 327.36 177.75 322.05C176.38 320.22 172.89 315.46 168.75 316.21C165.77 316.75 163.5 319.37 162.51 322.24C161.52 325.11 161.57 328.21 161.64 331.25C161.71 334.72 161.79 338.18 161.86 341.65C161.89 343.12 161.91 344.66 161.26 345.98C160.75 347.01 159.88 347.81 159.03 348.58C155.83 351.48 152.62 354.38 149.42 357.29C148.25 353.72 148.73 349.86 148.62 346.11C148.51 342.36 147.54 338.23 144.45 336.1C142.38 334.67 139.1 333.37 139.76 330.95C140.2 329.35 142.17 328.83 143.47 327.81C145.56 326.17 145.91 323.02 145.01 320.52C144.11 318.02 142.23 316.02 140.39 314.1C131.07 304.34 121.75 294.57 112.42 284.81C115.88 275.87 126.2 270.17 135.61 272C137.19 270.64 136.58 267.87 134.96 266.56C133.34 265.25 131.14 265 129.06 264.8C123.25 264.24 116.47 264.04 112.65 268.45C111.55 269.72 110.28 271.5 108.67 271.02C107.95 270.8 107.45 270.16 107.01 269.55C104.65 266.22 102.72 262.6 101.28 258.78C104.93 251.42 112.86 246.38 121.08 246.22C125.37 246.14 129.59 247.27 133.87 247.56C138.15 247.85 142.85 247.11 145.81 243.99C146.6 243.16 147.26 242.17 148.25 241.61C149.36 240.98 150.71 240.98 151.99 240.99C173.33 241.28 194.67 241.57 216.01 241.86C217.68 241.88 219.42 241.92 220.91 242.67C222.22 243.33 223.21 244.48 224.36 245.4C231.97 251.49 243.4 246.11 252.85 248.51C259.15 250.11 263.97 255.04 268.44 259.75C273.92 265.53 279.41 271.3 284.89 277.08C280.67 281.6 276.83 286.46 273.4 291.6C272.54 284.41 263.26 279.75 256.98 283.36C252.32 286.04 249.74 293.54 243.36 293.81C241.65 293.88 240.24 293.35 239.89 293.99C239.28 295.14 242.39 299.31 246.55 300.49C248.47 301.03 250.09 300.6 251.07 302.03C251.74 303 251.78 304.42 252.74 305.1C254.22 306.15 256.06 304.53 257.4 303.31C262.29 298.86 269.61 298.73 276.23 298.85C278.23 298.89 280.39 298.98 281.96 300.22C283.83 301.7 283.84 303.3 285.62 305.57C287.71 308.23 289.71 308.42 291.72 309.89C297.51 314.1 299.25 325.9 294.93 330.81Z" fill="#EB573D"/>
<path d="M177.47 338.16C177.59 338.51 177.7 338.88 177.62 339.24C177.53 339.6 177.15 339.91 176.81 339.78C176.8 339.35 176.98 338.91 177.31 338.62" fill="#EB573D"/>
<path d="M143.17 -13.33C241.35 83.88 252.99 147.57 243.02 188.83C227.67 252.37 161.56 261.54 148.42 328.43C134.27 400.45 201.57 441.9 227.25 518.87C249.54 585.67 245.01 692.79 114.78 865.74L-74.4105 890.73V449.49C-74.4105 449.49 -76.5105 319.7 -74.4105 261.63C-72.3105 203.56 -74.1705 -15.84 -75.3405 -29.13C-76.5105 -42.41 -68.1005 -46.1 -68.1005 -58.97C-68.1005 -71.84 43.3195 -138.03 43.3195 -138.03L123.2 -101.27C129.86 -71.96 136.51 -42.64 143.17 -13.33Z" fill="#28BCB5"/>
<path d="M-1.91011 271.77C10.4099 279 22.8199 286.42 34.0899 295.24C36.7599 297.33 39.3799 299.52 41.7599 301.96C45.2199 305.5 48.5599 309.06 52.3799 312.24C55.8499 315.13 59.5099 317.79 63.3499 320.18C65.6199 321.59 67.6299 323.31 69.7499 324.94C74.9699 328.97 80.3299 332.81 85.7399 336.59C95.8499 343.65 106.14 350.47 116.51 357.15C118.72 358.57 120.96 359.95 123.15 361.39C126.15 363.36 129 365.59 131.91 367.68C136.05 370.66 140.19 373.64 144.33 376.62C146.4 378.11 148.47 379.6 150.54 381.09C151.69 381.92 152.79 380.01 151.65 379.19C141.17 371.65 130.88 363.75 120.01 356.78C110.29 350.55 100.64 344.19 91.1199 337.64C85.4899 333.77 79.8999 329.83 74.4299 325.74C72.0399 323.95 69.6699 322.14 67.3499 320.26C64.6099 318.05 61.4399 316.39 58.5899 314.31C53.4099 310.53 48.6799 306.21 44.3399 301.5C42.2799 299.26 40.0199 297.24 37.6699 295.31C27.6899 287.12 16.5799 280.27 5.53989 273.63C3.42989 272.36 1.30989 271.11 -0.810105 269.86C-2.02011 269.15 -3.13011 271.05 -1.91011 271.77Z" fill="#56C3BA"/>
<path d="M117.989 -6.05002C130.699 7.99998 143.259 22.13 157.009 35.18C166.149 43.85 175.989 51.7 186.409 58.79C195.069 64.68 204.069 70.05 213.299 75.01C214.549 75.68 215.659 73.78 214.409 73.11C199.729 65.21 185.549 56.27 172.519 45.84C161.719 37.19 151.819 27.41 142.299 17.39C134.529 9.22998 127.099 0.749979 119.549 -7.60002C118.599 -8.65002 117.039 -7.09002 117.989 -6.05002Z" fill="#56C3BA"/>
<path d="M53.4395 -6.9499C65.3895 5.4101 77.9295 17.2101 91.0495 28.3301C101.14 36.8801 111.54 45.0401 122.13 52.9501C135.18 62.6901 148.39 72.2201 161.49 81.8901C169.84 88.0601 178.13 94.3001 186.54 100.4C191.1 103.71 195.69 107.01 200.44 110.04C210.23 116.3 220.84 121.36 231.37 126.21C233.66 127.26 235.96 128.3 238.26 129.32C239.54 129.89 240.66 128 239.37 127.42C227.04 121.94 214.69 116.21 203.17 109.15C199.53 106.92 196.029 104.47 192.549 102.01C184.699 96.4501 177.01 90.6501 169.28 84.9301C155.42 74.6601 141.45 64.5301 127.58 54.2701C117.01 46.4401 106.57 38.4401 96.4695 30.0201C83.9695 19.6001 71.9495 8.6101 60.4595 -2.9299C58.6195 -4.7799 56.7995 -6.6399 54.9895 -8.5099C54.0095 -9.5199 52.4595 -7.9699 53.4395 -6.9499Z" fill="#56C3BA"/>
<path d="M3.83946 -5.84996C14.7295 4.38004 25.5995 14.63 36.4295 24.93C43.5795 31.72 50.7095 38.53 57.7895 45.39C62.0495 49.52 66.3095 53.66 70.4995 57.86C73.5895 60.96 76.5795 64.17 79.6795 67.27C83.8395 71.44 88.1695 75.43 92.5995 79.32C98.1695 84.21 103.909 88.92 109.729 93.51C116.899 99.16 124.209 104.64 131.609 109.99C140.649 116.52 149.819 122.87 159.069 129.09C170.119 136.52 181.299 143.76 192.549 150.88C205.939 159.35 219.449 167.63 233.029 175.79C236.669 177.98 240.319 180.15 243.979 182.32C245.199 183.04 246.309 181.14 245.089 180.42C230.979 172.04 216.949 163.54 203.019 154.86C191.219 147.5 179.509 140.01 167.909 132.34C158.169 125.9 148.509 119.32 138.979 112.57C131.159 107.03 123.429 101.36 115.839 95.51C109.699 90.78 103.649 85.92 97.7595 80.89C93.0495 76.87 88.4295 72.73 83.9695 68.42C80.5795 65.14 77.3695 61.7 74.0595 58.33C70.4495 54.66 66.7795 51.06 63.0895 47.47C56.7695 41.32 50.4095 35.21 44.0295 29.13C34.2095 19.77 24.3595 10.45 14.4795 1.15004C11.4595 -1.69996 8.42947 -4.53996 5.40947 -7.38996C4.36947 -8.36996 2.80946 -6.81996 3.83946 -5.84996Z" fill="#56C3BA"/>
<path d="M-1.55037 51.1301C13.9396 67.7501 29.9696 83.8601 46.5196 99.4201C63.0096 114.93 80.0196 129.89 97.4996 144.27C110.72 155.15 124.3 165.59 137.94 175.94C150.14 185.2 162.41 194.36 174.72 203.47C186.99 212.57 199.26 221.67 211.59 230.69C213.07 231.77 214.56 232.86 216.04 233.94C217.19 234.77 218.28 232.87 217.15 232.04C204.38 222.73 191.68 213.32 178.98 203.91C167.37 195.31 155.78 186.69 144.26 177.98C130.71 167.74 117.2 157.44 104.01 146.75C86.8796 132.88 70.2396 118.4 54.0696 103.44C37.4496 88.0701 21.3396 72.1401 5.76963 55.7101C3.83963 53.6701 1.90963 51.6201 -0.000366569 49.5701C-0.960367 48.5401 -2.51037 50.0901 -1.55037 51.1301Z" fill="#56C3BA"/>
<path d="M-34.3004 83.9302C-25.9904 88.4402 -19.8004 95.7002 -13.4604 102.53C-6.40042 110.14 1.45959 116.82 9.60958 123.23C27.1996 137.04 44.9296 150.67 62.5996 164.39C78.1396 176.45 93.8996 188.19 109.75 199.84C122.76 209.39 135.89 218.78 149.01 228.17C160.9 236.67 172.66 245.37 184.25 254.27C186.45 255.96 188.64 257.66 190.83 259.36C191.93 260.22 193.5 258.67 192.39 257.8C179.71 247.93 166.86 238.3 153.81 228.92C141.57 220.12 129.28 211.4 117.1 202.52C101.36 191.04 85.6296 179.53 70.2396 167.58C52.3896 153.72 34.5396 139.86 16.6896 126C8.34959 119.52 -0.0404143 113.04 -7.52041 105.57C-14.1204 98.9602 -19.9004 91.4902 -27.3704 85.8002C-29.2104 84.4002 -31.1504 83.1302 -33.1904 82.0302C-34.4304 81.3502 -35.5504 83.2502 -34.3004 83.9302Z" fill="#56C3BA"/>
<path d="M-1.91068 167.18C19.5293 182.98 41.0493 198.67 62.6593 214.24C84.4793 229.96 106.389 245.55 128.389 261.03C140.669 269.67 152.979 278.27 165.319 286.83C166.489 287.64 167.589 285.73 166.429 284.93C144.369 269.62 122.389 254.18 100.499 238.62C78.6593 223.1 56.9093 207.45 35.2493 191.69C23.1993 182.92 11.1893 174.12 -0.800679 165.28C-1.94068 164.44 -3.04068 166.35 -1.91068 167.18Z" fill="#56C3BA"/>
<path d="M-3.49047 215.01C18.7195 230.33 40.3595 246.45 61.3795 263.37C71.5095 271.53 81.6995 279.73 91.3695 288.44C98.7095 295.04 106.04 301.63 113.61 307.96C124.1 316.72 134.91 325.11 145.98 333.14C147.13 333.97 148.23 332.06 147.09 331.24C128.58 317.83 111 303.28 94.0695 287.93C85.0995 279.8 75.6595 272.14 66.2595 264.51C55.4095 255.71 44.3995 247.12 33.2295 238.73C21.5295 229.95 9.65953 221.41 -2.38047 213.11C-3.55047 212.3 -4.65047 214.21 -3.49047 215.01Z" fill="#56C3BA"/>
<path d="M-7.28062 315.46C6.72938 326.72 21.2494 337.33 35.9894 347.61C50.7394 357.89 65.6994 367.88 80.6694 377.84C88.2194 382.86 95.8194 387.81 103.629 392.42C111.029 396.78 118.599 400.9 125.599 405.91C134.749 412.46 142.409 420.72 151.179 427.73C161.829 436.25 173.379 443.62 185.209 450.39C187.159 451.51 189.129 452.61 191.099 453.7C192.339 454.38 193.449 452.49 192.209 451.8C179.489 444.78 167.019 437.17 155.479 428.32C147.229 421.99 140.029 414.51 131.929 408C125.279 402.65 118.029 398.25 110.659 393.97C102.989 389.52 95.4394 384.92 88.0194 380.07C72.9594 370.22 58.0194 360.15 43.1994 349.94C28.3594 339.72 13.6894 329.22 -0.480628 318.08C-2.24063 316.7 -3.99063 315.31 -5.73063 313.91C-6.82063 313.03 -8.38062 314.57 -7.28062 315.46Z" fill="#56C3BA"/>
<path d="M1.1895 636.76C14.1995 644.4 27.4495 652.22 39.1495 661.8C41.7295 663.91 44.1495 666.16 46.4095 668.61C51.7795 674.42 57.8695 679.56 64.4795 683.9C65.7995 684.76 67.2495 685.5 68.4895 686.47C69.7195 687.44 70.9295 688.43 72.1595 689.38C74.9395 691.54 77.7695 693.64 80.6095 695.71C86.7495 700.17 92.9995 704.49 99.2895 708.73C108.009 714.62 116.82 720.39 125.71 726.03C127.75 727.32 129.639 728.84 131.589 730.27C136.129 733.6 140.67 736.92 145.21 740.25C154.42 747 163.64 753.76 172.85 760.51C175.12 762.17 177.39 763.84 179.66 765.5C180.8 766.34 181.9 764.43 180.77 763.6C171.56 756.85 162.34 750.09 153.13 743.34C148.59 740.01 144.049 736.69 139.509 733.36C135.499 730.42 131.57 727.32 127.46 724.53C125.19 722.99 122.829 721.58 120.529 720.1C115.309 716.73 110.109 713.33 104.949 709.88C98.6595 705.68 92.4195 701.43 86.2495 697.05C80.5895 693.04 75.1295 688.81 69.6395 684.57C68.3195 683.55 66.7795 682.77 65.3895 681.85C63.1795 680.39 61.0195 678.84 58.9395 677.19C55.8395 674.74 52.8895 672.1 50.1095 669.28C47.6695 666.8 45.3895 664.24 42.7595 661.95C32.5495 653.08 20.7695 645.91 9.2195 638.95C6.9195 637.56 4.6095 636.19 2.2895 634.83C1.0795 634.14 -0.0305001 636.04 1.1895 636.76Z" fill="#56C3BA"/>
<path d="M-0.82032 362.25C12.6897 375.65 26.5297 388.72 40.6897 401.44C55.8397 415.05 71.3497 428.26 87.1997 441.04C102.74 453.58 118.6 465.71 134.77 477.43C150.01 488.47 165.52 499.14 181.28 509.42C195.85 518.92 210.62 528.1 225.6 536.94C227.37 537.98 229.14 539.02 230.91 540.05C232.14 540.76 233.24 538.86 232.02 538.15C217.14 529.47 202.46 520.47 187.98 511.15C172.43 501.13 157.12 490.73 142.06 479.98C125.84 468.39 109.91 456.37 94.3197 443.95C78.3797 431.25 62.7797 418.13 47.5297 404.61C33.2197 391.91 19.2197 378.85 5.55968 365.46C3.94968 363.88 2.33968 362.29 0.729683 360.7C-0.270317 359.7 -1.83032 361.25 -0.82032 362.25Z" fill="#56C3BA"/>
<path d="M1.56017 416.12C16.4602 432.11 31.8702 447.63 47.7602 462.64C63.5302 477.54 79.7802 491.95 96.4702 505.83C109.13 516.36 122.14 526.46 135.25 536.43C151.35 548.66 167.58 560.73 183.76 572.85C199.16 584.38 214.59 595.87 230.07 607.29C231.4 608.27 232.73 609.25 234.06 610.23C235.2 611.07 236.3 609.16 235.17 608.33C220.73 597.7 206.33 587.01 191.97 576.27C175.22 563.74 158.45 551.24 141.76 538.63C129.02 529.01 116.33 519.32 103.98 509.2C87.1302 495.4 70.7202 481.06 54.7802 466.22C38.9002 451.43 23.4802 436.14 8.57018 420.38C6.75018 418.45 4.93018 416.52 3.12018 414.58C2.14018 413.53 0.590175 415.09 1.56017 416.12Z" fill="#56C3BA"/>
<path d="M-31.2004 448.92C-22.2404 453.78 -15.7703 461.81 -8.88035 469.1C-1.20035 477.23 7.52964 484.2 16.3396 491.05C35.3996 505.87 54.4696 520.67 73.5396 535.47C89.6896 548 106.23 560.06 122.77 572.08C138.52 583.53 154.33 594.91 170.21 606.17C187.57 618.48 205.03 630.67 222.56 642.74C224.38 643.99 226.19 645.24 228.01 646.49C229.18 647.29 230.28 645.39 229.12 644.59C212.11 632.91 195.17 621.12 178.31 609.22C161.77 597.54 145.34 585.71 128.93 573.84C112.57 562 96.2396 550.09 80.1796 537.83C61.3096 523.42 42.6497 508.72 23.8997 494.16C14.9597 487.22 5.86965 480.4 -2.32035 472.58C-9.68035 465.56 -15.8604 457.28 -23.9504 451.05C-25.8904 449.55 -27.9303 448.2 -30.0903 447.03C-31.3303 446.34 -32.4404 448.24 -31.2004 448.92Z" fill="#56C3BA"/>
<path d="M1.19005 532.17C15.1501 542.21 29.1001 552.26 43.0401 562.33C56.9801 572.4 70.9001 582.47 84.8201 592.57C98.8001 602.71 112.77 612.86 126.72 623.03C140.61 633.15 154.48 643.28 168.35 653.42C182.22 663.57 196.07 673.73 209.92 683.9C211.66 685.18 213.4 686.46 215.14 687.73C216.28 688.57 217.38 686.66 216.25 685.83C202.41 675.65 188.55 665.49 174.69 655.34C160.83 645.19 146.95 635.06 133.07 624.94C119.12 614.77 105.15 604.61 91.18 594.47C77.27 584.37 63.3401 574.29 49.4101 564.22C35.4701 554.15 21.53 544.1 7.57005 534.05C5.82005 532.79 4.06005 531.53 2.31005 530.27C1.15005 529.45 0.0500507 531.35 1.19005 532.17Z" fill="#56C3BA"/>
<path d="M-0.389876 580C13.3801 589.5 26.9301 599.3 40.2501 609.41C54.7601 620.42 68.9801 631.8 82.9201 643.53C94.9701 653.67 106.57 664.33 118.62 674.48C132.06 685.8 145.92 696.64 160.12 706.99C170.91 714.86 181.91 722.44 193.12 729.71C194.24 730.44 195.36 731.16 196.49 731.88C197.68 732.65 198.79 730.74 197.6 729.98C186.8 723.05 176.19 715.84 165.76 708.36C151.77 698.32 138.13 687.79 124.86 676.82C112.73 666.8 101.15 656.14 89.1801 645.95C75.2201 634.07 60.9601 622.54 46.4301 611.37C33.0801 601.11 19.4901 591.16 5.68012 581.52C4.04012 580.37 2.39012 579.23 0.740122 578.09C-0.439878 577.29 -1.53988 579.2 -0.389876 580Z" fill="#56C3BA"/>
<path d="M-4.1801 680.45C17.6799 698.02 40.7599 713.98 64.0199 729.61C75.7299 737.48 87.3899 745.47 99.3699 752.94C110.92 760.14 123.22 766.23 133.84 774.83C138.2 778.36 142.26 782.19 146.39 785.98C150.85 790.06 155.61 793.82 160.44 797.45C161.57 798.3 162.67 796.39 161.55 795.55C157.14 792.24 152.8 788.81 148.7 785.12C145.27 782.03 141.98 778.81 138.45 775.83C133.37 771.53 128.05 767.61 122.39 764.1C116.8 760.63 111.04 757.46 105.4 754.08C93.2899 746.8 81.6199 738.8 69.8799 730.93C58.2699 723.15 46.6999 715.32 35.2699 707.27C22.3599 698.18 9.6599 688.79 -2.6501 678.9C-3.7101 678.02 -5.2801 679.57 -4.1801 680.45Z" fill="#56C3BA"/>
<path d="M-28.7205 704.9C-8.8405 722.72 11.7195 739.79 32.8995 756.06C54.1795 772.41 76.0895 787.94 98.5595 802.62C111.17 810.86 123.96 818.82 136.91 826.51C138.13 827.23 139.24 825.33 138.02 824.61C115.01 810.95 92.5095 796.42 70.6095 781.05C48.7795 765.73 27.5395 749.58 6.93951 732.65C-4.64049 723.13 -16.0005 713.36 -27.1605 703.36C-28.2205 702.4 -29.7805 703.95 -28.7205 704.9Z" fill="#56C3BA"/>
<path d="M-61.9905 730.34C-39.2805 748.49 -16.5805 766.64 6.12953 784.79C12.4895 789.87 18.8395 794.95 25.1995 800.04C26.2895 800.92 27.8595 799.37 26.7595 798.48C4.04954 780.33 -18.6505 762.18 -41.3605 744.03C-47.7205 738.95 -54.0705 733.87 -60.4305 728.78C-61.5305 727.91 -63.1005 729.46 -61.9905 730.34Z" fill="#56C3BA"/>
<path d="M26.4503 691.42C28.6703 698.25 31.8003 707.87 34.0203 714.71C33.5603 725.82 33.0903 736.92 32.6303 748.03L26.4803 862.74C26.3703 865.78 26.2703 868.82 26.1603 871.85C69.3703 871.91 112.57 871.97 155.78 872.04C155.22 820.01 154.65 767.98 154.09 715.95C155.47 707.27 156.84 698.6 158.22 689.92C164.04 685.19 169.85 680.45 175.67 675.72C175.65 668.16 175.63 660.61 175.61 653.05C167.95 653.06 160.29 653.07 152.63 653.08L137.63 395.33C137.6 394.79 137.76 394.26 138.1 393.83C144.81 385.21 151.52 376.59 158.23 367.97V344.13C151.45 343.78 144.66 343.43 137.88 343.07C136.73 343.01 135.81 342.08 135.77 340.93L133.69 284.08V270.95C133.69 269.72 134.69 268.72 135.92 268.72H155.35C156.58 268.72 157.58 267.72 157.58 266.49C157.58 265.66 157.12 264.9 156.39 264.52C150.71 261.25 145.03 257.98 139.35 254.71C139.39 249.59 139.12 223.11 119.28 206.36C115.25 202.96 105.89 195.05 92.3003 195.02C78.6803 194.99 69.2603 202.89 65.1203 206.36C65.1203 206.36 44.4803 223.68 45.0503 254.29C45.0503 254.29 45.0503 254.3 45.0503 254.32C45.0503 254.41 45.0503 254.66 44.9603 254.96C44.8703 255.25 44.7203 255.53 44.5203 255.77L36.9103 264.65C35.6903 266.07 36.6603 268.27 38.5303 268.33L49.1003 268.65C50.3003 268.69 51.2503 269.67 51.2603 270.86L51.6403 343.44C51.6503 344.61 50.7403 345.59 49.5703 345.67L26.8003 347.28C25.5303 347.37 24.6003 348.5 24.7503 349.76L27.0303 369.36C27.0803 369.81 27.2703 370.22 27.5603 370.56L45.2603 390.95C45.6303 391.38 45.8203 391.92 45.8003 392.49L36.8203 652.33C36.7803 653.53 35.7903 654.48 34.5903 654.48H15.5103C14.2803 654.48 13.2803 655.48 13.2803 656.71V674.03C13.2803 674.53 13.4503 675.02 13.7603 675.41L26.4503 691.42Z" fill="#22659A"/>
<path d="M68.0799 279.4C68.4399 276.34 70.8699 273.99 73.7099 273.77C76.9399 273.52 80.0199 276.07 80.3499 279.6C80.4199 299.32 80.4799 319.03 80.5499 338.75C76.2599 338.75 71.9699 338.75 67.6699 338.75C67.8099 318.97 67.9499 299.19 68.0799 279.4Z" fill="#F6D55B"/>
<path d="M87.6004 279.4C87.9604 276.34 90.3904 273.99 93.2304 273.77C96.4604 273.52 99.5404 276.07 99.8704 279.6C99.9404 299.32 100 319.03 100.07 338.75C95.7804 338.75 91.4904 338.75 87.1904 338.75C87.3304 318.97 87.4604 299.19 87.6004 279.4Z" fill="#F6D55B"/>
<path d="M107.11 279.4C107.47 276.34 109.9 273.99 112.74 273.77C115.97 273.52 119.05 276.07 119.38 279.6C119.45 299.32 119.51 319.03 119.58 338.75C115.29 338.75 111 338.75 106.7 338.75C106.84 318.97 106.98 299.19 107.11 279.4Z" fill="#F6D55B"/>
<path d="M67.83 395.61C66.72 395.57 62.11 482.21 54 655.53C56.21 655.77 58.42 656.01 60.63 656.26C66.53 482.53 68.93 395.66 67.83 395.61Z" fill="#F6D55B"/>
<path d="M92.7004 398.27C91.5904 398.25 88.5704 484.96 83.6504 658.4C85.8604 658.6 88.0804 658.8 90.2904 659C93.0104 485.19 93.8104 398.29 92.7004 398.27Z" fill="#F6D55B"/>
<path d="M117.46 393.17C116.35 393.19 116.81 479.96 118.83 653.46C121.05 653.57 123.27 653.68 125.49 653.8C121.25 480.02 118.57 393.15 117.46 393.17Z" fill="#F6D55B"/>
<path d="M61.1199 871.85C62.3899 732.64 61.7699 695.92 60.7099 695.9C59.6799 695.88 57.8299 730.15 54.9899 782.54C54.2099 796.9 53.0299 819.73 52.5799 828.62C51.6299 846.96 50.8699 861.97 50.3799 871.85C53.9499 871.85 57.5399 871.85 61.1199 871.85Z" fill="#F6D55B"/>
<path d="M96.02 871.95C95.4 730.8 94.32 699.45 93.4 699.44C92.64 699.44 92.02 720.83 89.27 786.17C87.76 822.01 86.44 851.61 85.5 871.93C89.01 871.94 92.51 871.94 96.02 871.95Z" fill="#F6D55B"/>
<path d="M133.281 872C129.111 724.97 127.551 692.63 126.921 692.64C126.341 692.65 126.631 720.61 126.271 779.46C126.031 818.16 125.631 850.06 125.311 871.84C127.971 871.9 130.621 871.95 133.281 872Z" fill="#F6D55B"/>
<path d="M284.35 523.07C287 513.79 292.18 500.41 302.78 487.1C314.04 472.96 326.4 465.23 333.06 461.09C337.35 458.42 341.79 455.95 346.42 453.91C371.35 442.92 399.94 444.92 427.16 447.13C410.53 451.03 393.51 455.1 379.21 464.32C374.35 467.45 369.88 471.14 365.57 474.97C344.08 494.07 326.22 517.11 313.18 542.54C312.49 540.45 309.89 533.47 302.43 528.65C295.59 524.23 288.74 524.26 286.41 524.37" fill="#6B4C9F"/>
<path d="M312.92 549.29C303.79 535.54 332.32 576.28 339.1 591.28C347.41 609.68 349.72 625.22 350.54 632.34C351.16 637.69 351.51 643.07 351.36 648.45C350.51 677.37 335.14 703.69 320.21 728.61C324.16 710.92 328.13 692.8 325.74 674.84C324.93 668.74 323.39 662.75 321.63 656.85C312.88 627.42 298.55 599.59 279.6 575.24C282.5 575.59 290.47 576.16 298.32 571.5C300.25 570.35 305.32 567.02 308.57 561.03C311.13 556.31 312.92 549.29 312.92 549.29Z" fill="#6B4C9F"/>
<path d="M312.92 549.29C312.94 548.32 313.18 542.54 313.18 542.54C313.18 542.54 328.46 536.92 339.54 534.3C349.38 531.97 357.07 531.85 372.07 531.85C386.33 531.85 400.69 531.96 414.68 534.69C428.67 537.42 442.4 542.97 452.78 552.59C457.29 556.77 461.08 561.64 465.51 565.9C446.5 560.09 426.87 554.48 407.03 556.11C382.62 558.13 360.7 570.82 338.17 580.3C338.09 580.34 337.68 580.59 337.21 580.5C336.64 580.39 336.32 579.85 336.24 579.74C334.81 577.54 312.69 561.93 312.92 549.29Z" fill="#6B4C9F"/>
<path d="M222.62 553.61C220.3 554.69 217.43 556.23 214.14 558.39C214.14 558.39 209.1 561.82 204.34 566.84C185.3 586.89 176.98 610.49 176.98 610.49C170.99 627.46 170.04 642.64 170.34 653.16C173.55 643.92 179.54 635.79 186.57 628.89C193.6 621.99 201.69 616.24 209.84 610.65C214.06 607.75 218.32 604.88 222.87 602.51C233.5 596.98 241.1 594.9 247.52 592.68C255.58 589.9 266.79 584.9 279.6 575.23C276.5 573.92 267.61 569.72 262.93 560.86C260.5 556.27 259.77 551.8 259.77 551.75C259.77 551.75 259.49 549.58 260.13 543.35C259.87 543.4 238.94 546.05 222.62 553.61Z" fill="#6B4C9F"/>
<path d="M286.41 524.37C286.1 524.05 277.8 515.57 269.36 507.39C264.78 502.95 261.03 499.38 259.8 498.32C248.98 489.04 237.97 479.64 224.93 473.74C203.82 464.18 179.61 464.71 156.38 465.42C177.98 474.23 199.9 483.23 218.21 497.54C234.6 510.36 247.46 526.95 260.13 543.35C261.64 538.75 263.85 535.91 265.54 534.19C273.11 526.45 286.51 524.67 286.41 524.37Z" fill="#6B4C9F"/>
<path d="M276.67 578.56C275.37 578.41 273.38 579.94 266.35 598C255.46 625.98 248.4 644.26 244.96 671.38C244.81 672.55 244.74 673.3 244.6 674.6C244.6 674.6 243.32 686.45 242.73 698.42C241.86 716.25 243.53 751.26 243.79 756.77C244.35 768.66 245.15 786.71 245.89 809.32C247.29 824.74 248.69 840.15 250.09 855.57C267.26 859.42 284.43 863.28 301.59 867.13C309.64 865.66 317.69 864.18 325.74 862.71C321.45 843.21 317.82 827.27 315.31 816.37C304.63 769.96 298.95 746.85 296.93 738.4C288.97 705.2 288.21 702.96 286.5 692.53C275.63 626.3 283.64 579.38 276.67 578.56Z" fill="#6B4C9F"/>
<path d="M397.24 712.84C402.46 710.38 407.44 724.57 420.17 724.49C426.4 724.45 441.11 721.31 445.21 718.62C446.32 717.89 447.82 717.12 448.83 717.97C449.25 718.32 449.44 718.88 449.57 719.41C450.36 722.58 449.81 725.91 449.38 729.15C447.83 740.85 447.88 752.76 449.53 764.44C449.65 765.26 449.83 766.17 450.51 766.63C451.9 767.56 453.53 765.8 454.2 764.27C459.22 752.68 457.98 739.04 463.47 727.66C465.78 722.87 469.18 718.71 472.12 714.28C479.43 703.28 483.87 690.67 489.5 678.72C489.91 677.85 490.35 676.95 491.11 676.35C492.26 675.43 493.86 675.41 495.33 675.44C498.44 675.49 501.54 675.54 504.65 675.58C505.28 675.59 505.98 675.58 506.45 675.15C507.59 674.13 506.25 672.35 505.01 671.46C496.73 665.59 488.45 659.72 480.16 653.84C479.57 653.42 478.86 652.98 478.16 653.19C477.65 653.35 477.31 653.81 477.04 654.27C475.39 657.08 475.1 660.46 474.85 663.71C474.47 668.67 474.08 673.63 473.7 678.59C473.55 680.49 473.15 682.77 471.39 683.5C469.54 684.26 467.6 682.78 466.12 681.44C458.09 674.18 449.01 668.07 439.26 663.36C434.53 661.07 428.9 659.12 424.17 661.41C421.12 662.89 419.11 665.84 417.12 668.58C416.35 669.63 408.02 677.82 391.22 694.09C383.77 701.31 379.57 705.29 378.9 711.75C378.53 715.32 379.31 719 379.81 719.02C380.45 719.04 379.4 713.06 382.69 708.58C383.24 707.83 384.55 706.25 384.59 704.05C384.61 702.95 384.31 701.86 384.16 701.88C383.74 701.92 385.04 710.66 385.51 733.88C385.75 745.62 386.17 766.62 388.59 766.8C389.9 766.9 391.57 760.84 391.69 760.39C392.72 756.64 392.65 753.6 392.63 753.06C392.18 733.51 391.75 715.43 397.24 712.84Z" fill="#D61968"/>
<path fill-rule="evenodd" clip-rule="evenodd" d="M292.79 64.8201C291.6 66.0101 288.64 69.2801 287.87 74.3601C286.63 82.5201 292.07 88.3901 292.79 89.1401C293.25 89.4801 293.64 89.5901 293.86 89.6201C296.38 90.0501 298 86.0201 302.96 82.9701C307.21 80.3501 308.89 82.7601 312.79 79.9201C316.76 77.0201 319.39 65.4801 331.22 60.9901C328.99 58.9901 324.81 55.8601 318.88 54.7601C304.48 52.1001 293.6 63.9101 292.79 64.8201Z" fill="#D61968"/>
<path fill-rule="evenodd" clip-rule="evenodd" d="M310.709 27.61C306.809 26.71 304.329 27.08 302.579 27.91C300.839 28.73 300.319 29.99 297.819 31.7C295.869 33.04 294.039 33.8 292.799 34.25C291.049 34.9 289.919 36.53 289.969 38.23C290.029 40.3 291.829 42.13 294.149 42.22C294.569 42.9 295.179 43.8 296.009 44.78C296.009 44.78 298.409 47.64 301.759 49.63C306.179 52.26 311.139 52.25 314.599 52.74C318.919 53.34 324.889 55.28 331.779 61.28C334.669 45.48 319.789 29.7 310.709 27.61Z" fill="#D61968"/>
<path fill-rule="evenodd" clip-rule="evenodd" d="M331.74 60.7202C340.26 64.7302 345.96 83.6902 341.22 91.2602C338.84 95.0702 335.31 94.9102 333.81 95.6202C331.38 96.7802 330.05 102.6 326.71 101.78C323.88 101.08 325.43 95.9302 323.88 93.9902C322.75 92.5902 320.06 93.8902 317.66 91.6002C314.37 88.4702 317.07 65.9802 331.74 60.7202Z" fill="#D61968"/>
<path fill-rule="evenodd" clip-rule="evenodd" d="M331.38 60.73C337.81 54.3 357.75 45.52 366.76 51.02C375.77 56.51 367.58 62.54 368.39 64.73C369.21 66.92 373.93 76.67 370.19 79.59C366.45 82.51 363.94 80.32 361.91 80.85C359.88 81.37 358.17 85.66 354.26 84.91C350.34 84.14 338.2 63.68 331.38 60.73Z" fill="#D61968"/>
<path fill-rule="evenodd" clip-rule="evenodd" d="M331.37 60.8001C341.48 53.1601 353.27 39.3101 348.59 28.2101C347.07 24.6101 344.65 22.9101 343.24 20.6701C340.62 16.5301 337.76 13.1901 334.86 14.1501C333.74 14.5201 333.08 19.1201 330.83 22.1501C329.26 24.2701 325.88 26.2201 325.73 29.0201C325.13 40.3601 334.84 50.2101 331.37 60.8001Z" fill="#D61968"/>
<path fill-rule="evenodd" clip-rule="evenodd" d="M324.319 55.9501C321.279 61.0701 336.569 67.2301 338.689 62.3801C340.709 57.7901 327.419 50.7301 324.319 55.9501Z" fill="#F6D55B"/>
<path fill-rule="evenodd" clip-rule="evenodd" d="M377.47 127.39C361.4 123.57 352.26 137.39 352.35 144.39C352.43 150 355.63 149.25 356.45 151.09C357.28 152.93 358.82 162.12 362.08 161.32C364.82 160.65 363.85 156.88 365.95 153.28C367.95 149.87 370.05 150.95 371.71 147.51C373.4 144.01 370.85 134.91 377.47 127.39Z" fill="#3FADA2"/>
<path fill-rule="evenodd" clip-rule="evenodd" d="M350.29 111.42C346.77 112.34 344.69 114.63 344.69 114.63C343.84 115.5 343.28 116.36 342.94 116.97C342.97 121.26 343.01 125.56 343.04 129.85C343.81 129.43 345.02 128.91 346.5 128.94C349.41 129 350.43 132.24 352.81 131.76C355.91 131.14 362.48 124.55 377.97 127.39C373.97 115.19 357.48 109.55 350.29 111.42Z" fill="#3FADA2"/>
<path fill-rule="evenodd" clip-rule="evenodd" d="M377.731 127.01C385.261 126.7 396.501 137.96 396.051 145.04C395.831 148.6 393.281 149.79 392.501 150.84C391.231 152.55 392.521 157.15 389.851 157.8C387.591 158.35 386.721 154.15 384.891 153.36C383.561 152.78 382.171 154.7 379.601 153.97C376.081 152.96 369.411 136.12 377.731 127.01Z" fill="#3FADA2"/>
<path d="M377.471 127.14C379.541 120.24 390.231 106.71 398.671 107.26C407.111 107.81 403.641 115.08 405.051 116.32C406.461 117.56 413.511 122.69 411.991 126.13C410.471 129.57 407.871 128.95 406.641 130.07C405.411 131.19 405.851 134.84 402.801 135.75C399.751 136.66 383.411 126.71 377.471 127.14Z" fill="#3FADA2"/>
<path fill-rule="evenodd" clip-rule="evenodd" d="M377.491 127.2C381.691 118.09 384.711 103.99 377.181 97.8899C374.741 95.9099 372.391 95.5999 370.541 94.5499C367.111 92.5999 363.831 91.2999 362.161 93.0399C361.511 93.7099 362.801 97.1899 362.381 100.16C362.081 102.23 360.451 104.85 361.421 106.88C365.311 115.1 375.901 118.45 377.491 127.2Z" fill="#3FADA2"/>
<path fill-rule="evenodd" clip-rule="evenodd" d="M370.691 126.38C370.501 131.11 383.621 129.82 383.261 125.62C382.921 121.64 370.881 121.56 370.691 126.38Z" fill="#F6D55B"/>
</g>
</svg>
