<svg width="500" height="867" viewBox="0 0 500 867" fill="none" xmlns="http://www.w3.org/2000/svg">
<mask id="mask0_900_869" style="mask-type:alpha" maskUnits="userSpaceOnUse" x="0" y="0" width="500" height="867">
<rect width="500" height="867" fill="#D9D9D9"/>
</mask>
<g mask="url(#mask0_900_869)">
<path d="M340.652 412.829C303.368 410.938 271.253 430.268 271.253 430.268C259.872 434.863 251.143 441.605 242.228 451.68C232.419 462.722 230.998 466.989 211.974 492.883C202.405 505.9 194.724 515.579 188.067 523.341C181.021 532.029 173.391 540.223 165.226 547.867C157.561 554.605 149.427 560.793 140.885 566.387C121.13 579.105 62.5564 595.191 -17.3902 596.633L-12.087 657.171C-14.9496 678.375 -17.7536 695.948 -19.8882 708.463C-27.9427 755.865 -35.3845 798.208 -53.3998 848.009C-58.7135 862.726 -63.6851 874.496 -66.8384 881.777C-14.7581 909.417 41.8017 927.408 100.077 934.871C190.161 946.227 256.865 928.414 270.175 924.355C292.162 917.677 313.436 908.905 333.705 898.159C356.263 858.609 375.968 817.476 392.675 775.068C400.019 756.475 406.47 738.282 412.196 720.69C412.196 720.69 412.287 682.737 421.503 666.409C424.079 661.972 426.156 657.259 427.696 652.355C428.931 648.362 429.83 644.268 430.383 640.116C432.462 625.387 428.846 622.858 431.219 614.9C434.943 602.404 442.221 602.823 443.957 592.743C445.579 583.314 440.49 574.694 432.608 562.732C422.047 546.665 415.563 546.199 409.71 534.278C409.257 533.364 409.016 532.694 408.69 531.967C402.896 517.682 399.629 502.525 399.037 487.179C398.338 472.799 399.741 458.42 403.202 444.496C392.596 441.696 382.761 436.465 374.48 429.22C369.957 425.176 367.008 421.279 360.441 417.833C354.288 414.698 347.523 412.987 340.652 412.829Z" fill="#DBE252"/>
<path d="M294.032 778.433C294.032 778.433 294.032 777.854 294.396 777.715C295.445 777.296 297.827 782.182 298.433 781.983C300.129 781.484 290.358 746.963 283.172 711.783C279.401 694.1 276.805 676.193 275.4 658.175C273.179 628.121 275.238 616.733 274.935 595.474C274.754 583.508 274.249 577.525 273.704 571.303C271.181 542.545 265.892 526.431 274.269 508.262C275.178 506.268 276.025 504.752 276.53 503.895C273.91 503.839 271.326 503.284 268.92 502.259C258.826 497.932 253.355 485.368 254.93 475.336C255.536 471.507 256.626 471.487 257.11 468.356C258.907 456.869 245.987 445.721 241.183 441.712C213.85 418.837 124.098 353.782 84.3907 320.358C46.0354 288.189 36.265 276.901 28.5333 260.628C15.7752 233.704 11.5763 199.143 5.39907 148.248C2.35085 123.239 0.130287 101.76 -16.1202 91.3698C-18.0274 90.1443 -20.0567 89.1152 -22.1763 88.2986C-24.3969 95.5978 -26.5367 103.655 -28.4545 112.35C-30.6145 122.322 -31.9872 130.738 -32.8754 137.08C-34.4426 148.543 -35.4062 160.079 -35.7621 171.641C-36.1659 182.829 -36.0649 194.257 -36.0246 199.103C-36.0246 202.573 -36.0246 204.946 -35.9034 210.251C-35.9034 221.36 -35.9034 229.397 -35.9034 230.753C-35.9034 240.266 -35.9034 369.358 -35.9034 704.105C158.921 749.535 293.608 780.248 294.032 778.433Z" fill="#F89A45"/>
<path d="M314.689 408.436C342.224 383.227 351.026 346.791 351.026 346.791C355.749 335.464 357.082 324.515 356.173 311.093C355.204 296.355 353.165 292.346 348.099 260.617C345.555 244.662 344.061 232.397 343.213 222.206C341.978 211.089 341.506 199.902 341.8 188.721C342.389 178.533 343.698 168.397 345.716 158.388C350.541 135.393 380.236 82.4043 435.367 24.4893L388.553 -14.2603C375.472 -31.1921 364.934 -45.5313 357.526 -55.8419C329.446 -94.8708 304.535 -129.911 281.744 -177.715C275.002 -191.835 270.116 -203.641 267.149 -211C210.893 -193.347 158.359 -165.728 112.113 -129.492C40.752 -73.3521 6.57547 -13.3629 0.115637 -1.03802C-10.5763 19.3021 -19.2761 40.6053 -25.865 62.5808C-13.5608 106.417 1.87385 149.336 20.3228 191.015C28.3976 209.303 36.8155 226.673 45.3142 243.107C45.3142 243.107 72.2638 269.83 77.4115 287.859C78.7591 292.81 80.6547 297.598 83.0639 302.138C85.039 305.823 87.3213 309.338 89.8871 312.648C98.9106 324.475 103.251 323.677 107.248 330.956C113.526 342.384 108.116 347.27 114.071 355.586C119.643 363.364 129.353 365.797 143.403 368.589C162.257 372.358 167.143 368.071 179.739 372.279C180.708 372.598 181.354 372.897 182.101 373.176C196.338 379.086 209.421 387.408 220.759 397.766C231.485 407.369 240.734 418.468 248.213 430.712C257.656 425.13 268.287 421.805 279.261 421C285.317 420.621 290.162 421.259 297.227 419.006C303.78 416.829 309.75 413.215 314.689 408.436Z" fill="#DBE252"/>
<path d="M302.773 697.802L358.933 698.062C360.124 698.062 362.224 697.663 362.789 696.466C363.354 695.27 362.304 694.731 361.194 694.731L305.034 694.472C303.843 694.472 301.764 694.851 301.178 696.047C300.593 697.244 301.663 697.783 302.773 697.802Z" fill="#72C170"/>
<path d="M340.967 715.851L395.795 717.267C396.535 717.363 397.288 717.245 397.962 716.926C398.636 716.607 399.201 716.102 399.59 715.472C399.696 715.193 399.731 714.892 399.692 714.597C399.652 714.301 399.54 714.019 399.364 713.777C399.189 713.534 398.955 713.338 398.685 713.206C398.414 713.074 398.115 713.01 397.813 713.019L342.985 711.623C342.247 711.522 341.494 711.637 340.82 711.952C340.146 712.267 339.58 712.77 339.19 713.398C339.079 713.677 339.04 713.979 339.077 714.277C339.114 714.575 339.225 714.858 339.402 715.102C339.579 715.346 339.815 715.543 340.088 715.674C340.361 715.804 340.663 715.865 340.967 715.851Z" fill="#72C170"/>
<path d="M320.033 683.383L363.556 683.044C364.285 683.116 365.021 683.001 365.693 682.712C366.364 682.422 366.949 681.966 367.392 681.389C367.997 680.212 366.867 679.395 365.716 679.395L322.193 679.754C321.464 679.682 320.728 679.797 320.056 680.087C319.385 680.376 318.8 680.832 318.357 681.409C317.752 682.586 318.882 683.403 320.033 683.403V683.383Z" fill="#72C170"/>
<path d="M451.228 664.258L486.434 663.281C487.162 663.333 487.893 663.212 488.564 662.927C489.234 662.642 489.826 662.203 490.29 661.645C490.916 660.509 489.745 659.771 488.655 659.811L453.449 660.788C452.727 660.736 452.004 660.853 451.337 661.131C450.67 661.408 450.08 661.837 449.613 662.383C448.987 663.54 450.158 664.278 451.248 664.238L451.228 664.258Z" fill="#72C170"/>
<path d="M453.853 649.799L497.557 649.141C500.949 649.141 501.998 644.674 498.022 644.734L454.337 645.392C450.946 645.392 449.896 649.859 453.853 649.799Z" fill="#72C170"/>
<path d="M467.559 633.426L491.521 633.286C492.235 633.313 492.946 633.195 493.612 632.942C494.279 632.688 494.886 632.303 495.397 631.811C496.184 630.714 494.711 630.435 493.903 630.435L469.941 630.574C469.225 630.543 468.511 630.66 467.843 630.918C467.176 631.175 466.57 631.568 466.065 632.07C465.278 633.147 466.732 633.446 467.559 633.426Z" fill="#72C170"/>
<path d="M283.777 655.483L311.494 655.124C312.913 655.107 314.303 654.729 315.531 654.027C316.379 653.488 316.399 652.87 315.208 652.89L287.512 653.249C286.059 653.249 284.631 653.627 283.373 654.346C282.526 654.884 282.505 655.483 283.676 655.483H283.777Z" fill="#72C170"/>
<path d="M337.152 668.366H358.368C359.083 668.389 359.795 668.268 360.461 668.011C361.127 667.754 361.734 667.366 362.244 666.871C363.092 665.814 361.517 665.514 360.75 665.514H339.554C338.836 665.492 338.121 665.612 337.451 665.869C336.782 666.126 336.172 666.514 335.658 667.01C334.83 668.087 336.405 668.366 337.152 668.386V668.366Z" fill="#72C170"/>
<path d="M293.265 631.671L321.951 631.91C323.223 631.91 325.039 630.933 325.181 629.557C325.322 628.181 323.626 627.563 322.476 627.563L293.79 627.323C292.518 627.323 290.701 628.301 290.56 629.677C290.419 631.053 292.114 631.571 293.265 631.671Z" fill="#72C170"/>
<path d="M389.779 703.048L422.078 703.546C422.807 703.557 423.518 703.328 424.099 702.894C424.681 702.461 425.099 701.848 425.288 701.153C425.429 699.617 423.754 699.159 422.563 699.159L390.264 698.66C389.537 698.656 388.829 698.887 388.249 699.32C387.669 699.752 387.249 700.362 387.054 701.053C386.912 702.609 388.588 703.048 389.779 703.048Z" fill="#72C170"/>
<path d="M463.744 683.483L485.283 683.244C486.007 683.29 486.732 683.169 487.4 682.893C488.069 682.616 488.664 682.19 489.139 681.648C489.846 680.512 488.533 679.854 487.524 679.873L466.005 680.093C465.279 680.047 464.553 680.168 463.883 680.449C463.214 680.729 462.62 681.161 462.149 681.708C461.422 682.845 462.755 683.503 463.744 683.483Z" fill="#72C170"/>
<path d="M452.883 621.121L487.201 620.024C487.916 620.051 488.629 619.936 489.299 619.686C489.968 619.436 490.579 619.056 491.097 618.568C491.844 617.511 490.451 617.292 489.644 617.312L455.326 618.389C453.883 618.345 452.482 618.869 451.43 619.845C450.683 620.902 452.096 621.141 452.904 621.121H452.883Z" fill="#72C170"/>
<path d="M291.65 615.138L317.55 616.075C318.981 616.154 320.398 615.769 321.587 614.978C322.435 614.34 322.395 613.443 321.143 613.403L295.365 612.525C293.9 612.429 292.445 612.815 291.226 613.622C290.378 614.26 290.419 615.158 291.65 615.198V615.138Z" fill="#72C170"/>
<path d="M342.804 637.753L360.467 637.275C361.906 637.305 363.298 636.775 364.343 635.799C365.191 634.782 363.617 634.503 362.87 634.522L345.226 635.001C343.785 634.962 342.385 635.485 341.33 636.457C340.482 637.494 342.077 637.773 342.804 637.753Z" fill="#72C170"/>
<path d="M375.103 658.734L407.907 658.036L412.61 657.936C413.332 657.985 414.055 657.872 414.726 657.606C415.397 657.34 415.999 656.928 416.486 656.4C417.173 655.284 415.901 654.785 414.932 654.805L382.128 655.483H377.404C376.682 655.44 375.958 655.557 375.288 655.826C374.617 656.095 374.016 656.51 373.528 657.039C372.862 658.155 374.114 658.654 375.103 658.634V658.734Z" fill="#72C170"/>
<path d="M359.721 615.218H416.244C419.615 615.218 420.705 610.91 416.749 610.91H360.225C356.854 610.91 355.764 615.218 359.721 615.218Z" fill="#72C170"/>
<path d="M290.237 670.56L313.492 669.324" stroke="#72C170" stroke-miterlimit="10"/>
<path d="M463.744 602.115H446.807C446.085 602.067 445.361 602.184 444.693 602.457C444.024 602.731 443.428 603.153 442.951 603.691C442.205 604.827 443.577 605.386 444.526 605.386H461.483C462.205 605.429 462.927 605.31 463.595 605.037C464.263 604.764 464.859 604.345 465.339 603.81C466.086 602.673 464.693 602.115 463.744 602.115Z" fill="#72C170"/>
<path d="M290.015 591.166H307.618C308.91 591.166 310.686 590.189 310.828 588.813C310.969 587.437 309.293 586.819 308.123 586.819H290.52C289.795 586.811 289.088 587.036 288.506 587.461C287.923 587.885 287.496 588.486 287.29 589.172C287.128 590.708 288.844 591.166 290.015 591.166Z" fill="#72C170"/>
<path d="M312.342 726.9H353.846C354.578 726.988 355.321 726.877 355.993 726.578C356.666 726.28 357.243 725.804 357.661 725.205C358.267 724.028 357.157 723.071 355.966 723.071H314.461C313.731 722.997 312.993 723.115 312.323 723.413C311.654 723.71 311.075 724.177 310.646 724.766C310.04 725.942 311.151 726.9 312.342 726.9Z" fill="#72C170"/>
<path d="M363.233 736.173L397.813 735.435L402.799 735.336C404.011 735.336 405.888 734.438 406.05 733.102C406.211 731.766 404.455 731.347 403.385 731.387L368.865 732.185L363.899 732.284C362.688 732.284 360.811 733.202 360.649 734.538C360.488 735.874 362.244 736.273 363.294 736.253L363.233 736.173Z" fill="#72C170"/>
<path d="M349.526 750.133L383.945 749.396H388.911C390.041 749.396 391.999 748.538 392.181 747.262C392.363 745.985 390.546 745.706 389.577 745.726L355.158 746.464L350.192 746.564C349.062 746.564 347.104 747.421 346.922 748.698C346.74 749.974 348.557 750.253 349.526 750.233V750.133Z" fill="#72C170"/>
<path d="M434.574 756.116L468.771 756.416H473.696C475.152 756.435 476.584 756.055 477.835 755.319C478.682 754.74 478.703 754.142 477.512 754.142L443.315 753.843H438.389C436.932 753.814 435.497 754.194 434.251 754.94C433.403 755.498 433.383 756.096 434.574 756.116Z" fill="#72C170"/>
<path d="M412.126 742.714L460.211 743.333L466.994 743.432C467.728 743.519 468.472 743.405 469.145 743.102C469.817 742.8 470.393 742.321 470.809 741.717C471.354 740.521 470.325 739.563 469.093 739.544L421.008 738.925H414.225C412.913 738.925 411.015 739.284 410.41 740.62C409.804 741.957 410.874 742.794 412.126 742.794V742.714Z" fill="#72C170"/>
<path d="M293.81 585.462C295.183 572.898 297.02 560.394 298.938 547.909C300.216 538.203 302.138 528.589 304.691 519.131C306.53 512.724 309.154 506.563 312.503 500.784C316.904 493.185 321.305 485.607 325.544 477.929C330.023 469.747 334.065 461.339 337.656 452.74C339.176 448.397 341.144 444.22 343.531 440.276C344.933 437.917 347.052 436.053 349.587 434.951C352.554 434.074 355.966 435.789 359.074 435.37C364.989 434.592 367.775 430.544 371.712 426.675C375.648 422.806 380.695 421.809 385.842 420.871C391.208 420.174 396.48 418.903 401.568 417.082C406.352 414.933 410.516 411.635 413.68 407.489C415.449 404.999 418.028 403.183 420.988 402.344C424.017 401.886 426.962 400.993 429.729 399.692C430.855 399.025 431.847 398.16 432.656 397.139C433.645 395.942 434.19 394.147 435.401 393.15C436.613 392.153 438.45 392.492 439.843 392.392C452.136 391.535 464.39 390.079 476.623 388.803C477.41 388.803 479.974 388.085 480.015 387.048C480.055 386.011 478.359 386.07 477.572 386.15C466.146 387.367 454.7 388.663 443.254 389.54C439.419 389.84 435.442 389.64 432.03 391.734C429.527 393.25 428.881 395.902 426.862 397.717C424.844 399.532 421.432 399.472 418.929 400.17C413.176 401.786 409.905 405.734 406.11 410.002C402.315 414.27 397.632 415.985 391.979 417.162C386.505 417.966 381.105 419.2 375.83 420.851C371.005 422.794 366.751 425.9 363.455 429.886C362.668 430.743 361.436 432.339 360.245 432.618C358.621 432.622 357.003 432.4 355.441 431.96C352.363 431.66 349.259 432.162 346.437 433.416C341.385 435.854 337.423 440.052 335.314 445.202C331.64 453.179 328.693 461.615 324.636 469.493C319.77 478.906 314.542 488.14 309.112 497.254C305.981 502.26 303.28 507.517 301.037 512.969C297.611 522.816 295.197 532.978 293.83 543.303C291.509 557.562 289.429 571.861 287.774 586.22C287.572 588.095 293.406 586.978 293.588 585.343L293.81 585.462Z" fill="#C9E099"/>
<path d="M365.676 404.717C368.972 402.057 372.973 400.389 377.203 399.911C381.24 399.472 385.277 399.432 388.669 397.139C391.818 395.145 393.675 391.794 396.602 389.541C399.45 387.592 402.72 386.328 406.151 385.851C413.176 384.415 420.604 383.857 426.701 379.748C429.885 377.241 432.868 374.494 435.624 371.532C438.47 368.919 442.144 366.845 445.717 369.438C447.413 370.674 452.742 368.221 450.32 366.446C445.031 362.597 437.4 365.05 432.737 368.72C429.931 370.934 427.69 373.726 425.025 376.099C422.633 378.187 419.755 379.66 416.648 380.387C410.592 381.962 404.273 382.381 398.379 384.555C395.421 385.67 392.728 387.374 390.465 389.561C388.285 391.714 386.428 395.085 383.178 395.843C379.302 396.74 375.345 396.481 371.469 397.737C367.623 399.013 364.044 400.973 360.912 403.521C359.882 404.358 360.467 405.515 361.537 405.814C362.266 405.963 363.02 405.942 363.738 405.751C364.457 405.561 365.121 405.207 365.676 404.717Z" fill="#C9E099"/>
<path d="M211.71 714.236C214.443 708.82 218.613 704.24 223.775 700.984C228.938 697.728 234.899 695.918 241.021 695.748C242.192 695.748 244.11 694.851 244.271 693.555C244.433 692.258 242.656 691.879 241.627 691.879C234.275 692.079 227.11 694.219 220.877 698.076C214.644 701.934 209.569 707.369 206.179 713.817C204.745 716.569 210.64 716.35 211.71 714.276V714.236Z" fill="#F9AF8F"/>
<path d="M183.266 693.993C187.304 669.583 208.197 653.608 231.17 647.007C237.568 645.185 244.135 644.002 250.772 643.477C251.64 643.477 254.062 642.739 254.123 641.603C254.183 640.466 252.508 640.466 251.64 640.526C226.749 642.52 199.153 653.17 185.184 674.768C181.271 680.832 178.641 687.616 177.453 694.711C177.109 696.706 182.964 695.748 183.266 693.914V693.993Z" fill="#F9AF8F"/>
<path d="M132.88 669.902C142.973 656.301 152.34 641.981 164.594 630.135C170.92 624.007 178.268 619.001 186.315 615.337C194.239 611.69 202.584 609.012 211.165 607.36C220.626 605.587 230.242 604.745 239.871 604.847C241.001 604.847 243.161 604.448 243.747 603.332C244.332 602.215 243.242 601.816 242.212 601.816C223.816 601.427 205.527 604.668 188.414 611.349C179.666 614.71 171.531 619.459 164.331 625.409C157.531 631.434 151.32 638.078 145.779 645.252C139.4 653.229 133.566 661.725 127.47 669.962C126.662 671.059 128.176 671.458 129.004 671.477C129.723 671.51 130.442 671.389 131.11 671.124C131.779 670.859 132.382 670.456 132.88 669.942V669.902Z" fill="#F9AF8F"/>
<path d="M64.7689 644.095C79.3641 620.941 96.0991 598.226 119.455 582.93C144.447 566.616 174.404 559.476 203.534 554.411C221.4 551.3 239.588 548.428 257.696 551.1C260.36 551.499 263.752 547.83 259.836 547.271C243.141 544.838 226.305 546.852 209.812 549.605C194.238 552.027 178.822 555.357 163.645 559.576C148.631 563.768 134.206 569.798 120.707 577.525C108.422 584.897 97.3468 594.077 87.8628 604.748C77.1898 616.872 67.6052 629.891 59.2175 643.657C58.4504 644.873 59.9039 645.651 60.9334 645.791C61.6677 645.872 62.4106 645.758 63.0851 645.46C63.7596 645.162 64.341 644.691 64.7689 644.095Z" fill="#F9AF8F"/>
<path d="M38.1019 640.087C48.9423 609.295 60.7315 578.263 79.3438 551.08C95.8164 527.029 118.204 506.727 146.223 496.875C163.968 490.633 182.984 488.439 201.737 488.04C202.969 488.04 204.987 487.701 205.573 486.405C206.158 485.108 205.109 484.41 203.918 484.41C186.526 484.483 169.219 486.809 152.441 491.331C137.135 495.686 122.766 502.777 110.048 512.251C84.5722 531.357 66.9692 558.32 53.6458 586.679C45.4095 604.229 38.6671 622.417 32.2477 640.665C31.4805 642.859 37.3751 642.161 38.1221 640.047L38.1019 640.087Z" fill="#F9AF8F"/>
<path d="M-4.73489 631.033C-5.60384 603.843 -1.40232 576.728 7.65991 551.041C15.3949 529.105 27.9645 509.14 44.4608 492.587C77.3453 459.481 122.806 440.376 168.893 434.253C195.089 430.918 221.633 431.287 247.723 435.35C249.157 435.491 250.593 435.108 251.761 434.273C252.588 433.515 252.588 432.957 251.357 432.777C203.615 425.538 153.531 429.587 108.635 447.735C64.0623 465.684 24.4151 497.832 5.47971 542.405C-0.134822 556.039 -4.28906 570.216 -6.91508 584.705C-9.95883 600.472 -11.2182 616.526 -10.6699 632.568C-10.6699 633.805 -4.75508 632.828 -4.83583 631.033H-4.73489Z" fill="#F9AF8F"/>
<path d="M-27.3444 555.548C-22.1563 523 -12.3051 489.895 10.3447 464.806C30.6528 442.31 55.7452 425.239 83.1389 412.216C99.1685 404.573 115.942 398.56 133.203 394.267C133.727 394.147 136.13 393.489 135.908 392.652C135.686 391.814 133.142 392.512 132.758 392.652C103.435 399.938 75.4895 411.836 49.9919 427.891C35.6536 436.895 22.4348 447.531 10.6071 459.581C-1.54458 471.895 -11.2961 486.315 -18.1593 502.12C-25.7496 519.67 -30.0898 538.377 -33.0977 557.163C-33.0977 557.701 -27.5059 557.323 -27.2434 555.607L-27.3444 555.548Z" fill="#F9AF8F"/>
<path d="M-27.2836 427.173C-21.6192 415.361 -14.4042 404.337 -5.82487 394.387C8.7703 377.495 27.4231 363.894 48.9222 357.013C64.2654 352.196 80.4456 350.54 96.4625 352.147C97.1958 352.242 97.9413 352.135 98.6176 351.84C99.294 351.545 99.8753 351.071 100.298 350.472C100.904 349.215 99.7731 348.478 98.6023 348.478C70.5865 345.696 42.4433 352.374 18.7628 367.424C1.68705 378.701 -12.7639 393.44 -23.6298 410.66C-26.9868 415.865 -30.0204 421.266 -32.7139 426.834C-34.0261 429.587 -28.1517 429.228 -27.1827 427.233L-27.2836 427.173Z" fill="#F9AF8F"/>
<path d="M-26.5973 338.845C-5.78456 318.902 23.8701 314.634 51.3647 310.047C59.278 308.731 67.1913 307.355 75.0239 305.6C75.9727 305.38 77.85 304.463 77.5069 303.207C77.1637 301.95 75.0642 302.17 74.1558 302.389C45.6316 308.831 15.0282 309.808 -11.336 323.469C-18.6612 327.226 -25.3991 332.009 -31.3412 337.668C-32.2698 338.566 -31.9065 339.663 -30.7356 339.942C-30.0226 340.08 -29.2871 340.052 -28.5866 339.862C-27.8861 339.672 -27.2398 339.323 -26.6982 338.845H-26.5973Z" fill="#F9AF8F"/>
<path d="M-29.0198 276.323C-7.31884 266.571 15.1493 256.38 39.6159 257.636C41.0429 257.682 42.4505 257.3 43.6532 256.539C44.4607 255.901 44.5616 255.423 43.3302 255.363C16.4816 253.947 -8.50987 264.935 -32.4112 275.665C-33.138 276.004 -34.1473 276.562 -33.138 277.081C-32.1286 277.599 -29.9282 276.722 -29.1006 276.323H-29.0198Z" fill="#F9AF8F"/>
<path d="M-30.4935 218.906C-13.9667 215.929 2.8518 214.838 19.6308 215.656C21.6495 215.755 25.9089 212.923 21.9926 212.744C4.73788 211.913 -12.5563 213.057 -29.5447 216.154C-30.3723 216.294 -32.8553 216.832 -32.9159 217.969C-32.9765 219.106 -31.2808 219.106 -30.4531 218.946L-30.4935 218.906Z" fill="#F9AF8F"/>
<path d="M-29.1206 168.989C-13.6548 167.73 1.90417 169.77 16.5019 174.972C18.5206 175.67 23.3453 172.778 20.0144 171.621C4.48405 166.226 -12.0374 164.186 -28.4343 165.638C-29.5244 165.738 -31.5834 166.436 -31.7449 167.632C-31.9064 168.829 -30.1098 169.128 -29.161 169.048L-29.1206 168.989Z" fill="#F9AF8F"/>
<path d="M341.855 379.07C310.767 393.748 276.409 400.05 242.535 404.717C241.364 404.877 239.426 405.515 239.285 406.931C239.144 408.347 240.84 408.786 241.93 408.626C276.873 403.82 312.301 397.298 344.358 382.161C345.347 381.703 346.619 380.546 345.792 379.389C344.964 378.233 342.885 378.592 341.855 379.07Z" fill="#E7EEAF"/>
<path d="M341.169 340.281C285.654 362.737 224.851 367.683 165.401 365.549C148.726 364.951 132.092 363.794 115.478 362.298C114.043 362.178 112.612 362.567 111.441 363.395C110.674 364.093 110.573 364.791 111.845 364.911C142.171 367.844 172.645 369.016 203.11 368.421C233.688 367.844 264.127 364.182 293.951 357.492C310.839 353.601 327.39 348.4 343.45 341.936C344.156 341.637 345.731 341.039 345.145 340.082C344.56 339.124 341.916 340.081 341.33 340.281H341.169Z" fill="#E7EEAF"/>
<path d="M121.454 -99.4467C155.873 -113.048 195.237 -116.718 231.029 -106.068C261.027 -97.1532 285.534 -76.7713 302.47 -51.0645C314.078 -33.4347 322.657 -14.05 330.248 5.59409C330.833 7.10977 336.607 5.35477 336.102 4.03852C323.465 -28.9276 307.295 -62.3125 279.336 -85.307C252.407 -107.424 217.604 -116.02 183.145 -114.723C161.285 -113.812 139.745 -109.212 119.455 -101.122C118.749 -100.843 117.174 -100.244 117.76 -99.3071C118.345 -98.3698 120.99 -99.3071 121.555 -99.5265L121.454 -99.4467Z" fill="#E7EEAF"/>
<path d="M12.8883 119.928C11.0454 86.8799 14.7562 53.758 23.87 21.9076C26.4135 12.7736 29.381 3.75925 32.6513 -5.13542C33.7818 -8.24656 27.9477 -8.14683 27.0595 -5.77358C15.2333 25.5753 8.35668 58.5343 6.67069 91.9481C6.26692 101.446 6.368 110.959 6.97349 120.447C7.15518 123.438 13.0296 122.441 12.8883 119.988V119.928Z" fill="#E7EEAF"/>
<path d="M342.743 295.568C318.135 314.933 286.987 322.89 256.343 326.959C240.23 329.185 224.012 330.596 207.753 331.187C188.787 331.667 169.815 330.526 151.048 327.776C129.997 324.666 109.139 320.398 88.5693 314.993C87.8462 314.759 87.0698 314.738 86.3348 314.933C85.5999 315.127 84.9384 315.529 84.431 316.09C84.2216 316.308 84.0723 316.575 83.9976 316.867C83.9228 317.158 83.9251 317.463 84.0041 317.754C84.0831 318.044 84.2363 318.309 84.4489 318.524C84.6615 318.739 84.9264 318.897 85.2183 318.981C122.705 328.594 161.061 335.933 199.921 335.714C217.024 335.425 234.097 334.167 251.054 331.944C267.136 330.196 283.03 327.053 298.554 322.551C315.985 317.535 332.304 309.321 346.66 298.34C349.768 295.907 345.105 293.733 342.764 295.568H342.743Z" fill="#E7EEAF"/>
<path d="M336.364 210.929C333.619 225.348 328.895 239.807 319.205 251.195C309.516 262.582 295.203 269.722 280.85 274.269C248.733 284.5 214.516 287.611 180.925 286.634C151.371 285.756 120.364 282.645 94.1207 267.887C67.8776 253.129 50.2544 227.901 39.6159 200.958C27.6652 170.784 23.5874 137.598 22.9011 105.39C22.2349 74.0991 24.3949 42.3894 37.5164 13.4518C50.0645 -13.7366 70.6587 -36.5296 96.5835 -51.922C124.493 -68.7767 158.002 -74.0862 189.847 -66.6999C219.3 -59.6799 245.906 -43.1071 267.426 -22.3462C289.975 -0.588181 307.275 26.036 320.053 54.3753C323.505 62.0135 326.614 69.7914 329.44 77.6689C330.167 79.6632 335.981 78.0478 335.294 76.1333C324.151 45.1416 308.405 15.4661 286.846 -9.62247C266.659 -33.1355 241.284 -52.8394 212.154 -63.9677C180.88 -76.1069 146.132 -76.1994 114.792 -64.2269C86.0033 -52.8146 61.3468 -33.1247 44.0166 -7.70791C25.8484 18.8764 18.4397 50.2271 17.3295 82.0365C16.1182 116.558 18.4196 151.738 27.9276 185.123C36.0024 213.622 50.9811 241.123 74.3576 260.289C98.3196 280.013 129.428 286.694 159.789 289.027C193.945 291.659 228.768 290.204 262.217 282.585C277.984 279.015 294.012 274.309 307.82 265.753C320.77 257.796 330.752 245.898 336.263 231.85C338.973 224.891 341.001 217.692 342.319 210.351C342.743 208.117 336.849 209.055 336.465 211.049L336.364 210.929Z" fill="#E7EEAF"/>
<path d="M176.302 120.148C182.802 130.119 190.029 142.085 187.082 154.37C185.951 159.097 183.387 163.784 178.684 165.758C175.205 167.058 171.382 167.15 167.843 166.017C164.058 164.933 160.635 162.867 157.932 160.034C155.088 156.755 153.21 152.768 152.501 148.507C151.446 144.045 151.4 139.408 152.367 134.927C153.333 130.446 155.288 126.23 158.093 122.581C161.731 118.477 166.282 115.262 171.388 113.186C176.494 111.11 182.018 110.23 187.526 110.615C197.861 111.512 206.865 117.914 212.82 126.051C223.58 140.769 223.337 162.966 209.59 175.909C203.336 181.544 195.372 184.977 186.937 185.673C178.502 186.369 170.072 184.289 162.958 179.758C155.005 174.533 150.059 166.177 146.667 157.521C143.105 148.32 141.344 138.534 141.479 128.684C141.549 118.784 143.486 108.984 147.192 99.7858C148.952 95.4528 151.157 91.3096 153.773 87.421C154.37 86.4139 155.045 85.4538 155.792 84.5492C156.757 83.786 157.904 83.2782 159.123 83.0734C162.361 82.0432 165.665 81.2303 169.014 80.6403C181.005 78.646 193.239 79.2244 205.351 80.1817C211.298 80.3413 217.224 80.9547 223.075 82.0164C227.806 83.179 232.346 84.9987 236.56 87.421C245.259 92.3202 252.286 99.6649 256.747 108.521C258.769 112.73 260.052 117.249 260.542 121.883C261.208 128.404 261.955 134.906 262.985 141.407C265.003 154.35 268.011 167.333 268.798 180.496C269.364 190.228 262.742 197.986 254.102 201.755C248.874 203.727 243.466 205.196 237.953 206.143C231.897 207.519 225.699 208.696 219.522 209.593C207.468 211.476 195.232 211.958 183.064 211.029C177.007 210.524 171.007 209.482 165.138 207.918C162.285 207.272 159.495 206.377 156.801 205.245C154.232 203.798 152.068 201.742 150.503 199.262C149.126 197.098 147.963 194.807 147.031 192.422C145.557 189.231 143.942 186.12 142.509 182.909C140.059 177.378 137.859 171.754 135.908 166.037C128.07 143.032 124.387 118.845 125.027 94.5806C125.269 83.7914 125.754 72.9024 131.89 63.5889C134.763 59.3007 138.65 55.7686 143.215 53.2982C145.194 52.3057 147.32 51.6324 149.514 51.3039C151.976 50.7255 154.48 50.207 156.963 49.7683C193.299 43.4662 235.248 51.7626 261.289 78.9651C264.414 82.2307 267.27 85.7387 269.828 89.4552C271.382 91.6307 272.549 94.0519 273.28 96.6148C274.249 99.952 275.191 103.276 276.106 106.586C279.453 118.641 282.149 130.864 284.181 143.202C287.653 165.14 289.106 188.294 280.305 209.214C277 217.771 271.152 225.141 263.53 230.354C256.323 234.981 247.38 237.753 239.144 239.887C222.121 244.276 204.349 245.051 187.001 242.16C169.991 239.457 153.864 232.837 139.925 222.835C124.859 211.666 113.439 196.377 107.081 178.861C98.4353 156.262 95.0811 132.024 97.2698 107.963C97.7745 102.578 98.8444 97.2331 99.5307 91.8683C100.217 86.5036 100.823 81.4181 101.549 76.213C102.701 65.9443 105.268 55.8795 109.18 46.2981C113.117 37.4234 119.435 27.2125 128.862 23.3435C134.535 21.0102 141.197 20.372 147.233 19.3549C153.268 18.3378 159.526 17.3606 165.724 16.8022C178.651 15.2769 191.707 15.1365 204.664 16.3834C216.332 17.6398 227.617 18.6369 237.933 24.6398C258.402 36.6058 274.814 53.4577 291.408 69.9707C295.567 73.6599 298.955 78.118 301.38 83.0933C303.147 87.6978 304.4 92.4793 305.115 97.3527C306.306 103.615 308.224 109.757 309.556 116C310.949 122.541 312.099 129.142 312.887 135.763C314.512 148.411 314.39 161.219 312.523 173.835C311.676 180.492 309.966 187.013 307.436 193.24C305.331 198.029 302.711 202.582 299.624 206.821C293.136 215.254 285.639 222.882 277.297 229.536C268.851 236.931 259.856 243.691 250.388 249.759C240.912 255.581 230.621 259.996 219.845 262.861C209.054 265.69 197.809 266.415 186.738 264.995C165.522 262.403 145.718 253.029 129.206 239.807C94.7464 212.305 75.9524 170.205 67.7767 128.125C63.8846 106.987 61.7444 85.5697 61.3774 64.0875C61.0948 53.5774 60.3277 42.7084 62.2656 32.318C64.1592 22.1868 68.4093 12.6288 74.6806 4.39751C77.9166 0.0314178 81.7171 -3.89752 85.9853 -7.28921C91.1995 -11.0028 96.7237 -14.2719 102.498 -17.0614C113.419 -22.805 124.199 -28.1897 136.473 -30.4233C142.278 -31.4462 148.159 -31.9932 154.056 -32.0587C159.829 -32.1584 165.542 -31.58 171.295 -31.5003C180.199 -31.4147 189.087 -30.7485 197.902 -29.5059C216.211 -26.8336 234.46 -21.3492 250.045 -11.2978C257.758 -6.37504 264.621 -0.261139 270.373 6.81062C273.37 10.5599 276.025 14.5642 278.306 18.7765C279.82 21.5287 282.727 23.2039 284.363 25.8165C285.998 28.429 287.613 31.5402 289.207 34.3721C301.32 55.831 312.685 77.6887 321.385 100.703C322.354 103.256 328.168 101.621 327.24 99.1476C317.59 73.6602 304.63 49.5688 291.186 25.8763C290.454 24.4015 289.56 23.0104 288.521 21.7281C287.431 20.4916 286.099 19.4546 284.988 18.2181C283.249 15.8704 281.69 13.3971 280.325 10.8192C277.697 6.80144 274.711 3.02382 271.403 -0.468636C264.645 -7.56343 256.797 -13.5603 248.147 -18.238C230.786 -27.7509 211.104 -32.5573 191.482 -34.5516C186.718 -35.0302 181.954 -35.3427 177.19 -35.4889C171.639 -35.6684 166.087 -36.0274 160.516 -36.147C147.687 -36.6576 134.869 -34.9016 122.665 -30.9618C116.536 -28.7151 110.574 -26.0495 104.82 -22.9845C98.7636 -19.9532 92.9296 -16.7622 87.1965 -13.2722C77.4671 -7.08373 69.4974 1.45552 64.0421 11.5371C58.5645 21.3733 55.5533 32.3632 55.2607 43.5859C54.9983 54.8538 55.4222 66.2015 55.9875 77.4893C58.2888 122.96 66.9894 169.228 92.8085 207.898C105.728 227.203 122.625 244.115 143.276 255.423C152.946 260.794 163.348 264.764 174.162 267.209C185.458 269.981 197.176 270.657 208.722 269.203C220.736 267.34 232.395 263.689 243.302 258.374C253.947 252.974 263.936 246.397 273.078 238.77C290.964 224.311 309.717 208.516 315.975 185.581C323.283 158.718 319.73 130.678 313.169 104.054C312.382 100.923 311.474 97.8114 310.908 94.6405C310.458 91.8999 309.865 89.184 309.132 86.5036C307.72 81.329 305.201 76.514 301.744 72.3839C297.706 67.6972 293.023 63.5091 288.662 59.1615C284.302 54.8139 279.942 50.546 275.44 46.3779C266.317 37.6931 256.351 29.9176 245.684 23.164C240.484 19.776 234.794 17.1872 228.808 15.4859C222.998 14.0889 217.085 13.1486 211.124 12.6739C197.806 11.259 184.38 11.112 171.033 12.2352C164.21 12.8135 157.407 13.6711 150.644 14.768C143.896 15.6527 137.204 16.9111 130.598 18.5372C119.455 21.6085 111.744 30.6627 106.374 40.3551C101.429 49.8671 98.1461 60.1361 96.6642 70.7286C94.7868 81.8369 93.8986 93.1048 92.001 104.233C90.1438 117.125 90.1438 130.211 92.001 143.102C93.6012 155.787 96.6973 168.243 101.226 180.217C105.968 193.787 113.696 206.15 123.853 216.416C134.011 226.682 146.346 234.596 159.971 239.588C177.54 246.326 196.401 249.146 215.202 247.844C224.601 247.245 233.907 245.647 242.959 243.078C252.023 240.505 261.672 237.214 269.323 231.63C285.957 219.505 291.731 197.248 292.861 177.784C293.053 171.345 292.79 164.901 292.074 158.499C291.468 151.638 290.54 144.798 289.369 138.017C286.907 124.519 283.726 111.158 279.841 97.9909C279.275 95.2158 278.324 92.5312 277.014 90.0136C275.541 87.7002 273.986 85.4666 272.311 83.3127C269.263 79.415 265.886 75.779 262.217 72.4437C255.071 65.9574 247.006 60.5356 238.276 56.3495C219.745 47.6669 199.409 43.4044 178.906 43.905C168.852 44.049 158.842 45.2591 149.049 47.5147C146.458 47.8306 143.924 48.5018 141.52 49.509C138.961 50.8018 136.54 52.3452 134.293 54.1159C130.234 57.4151 126.884 61.4837 124.441 66.0818C118.87 76.7714 118.93 89.196 118.951 100.923C118.969 113.507 120.104 126.067 122.342 138.456C124.69 151.318 128.286 163.927 133.081 176.108C135.504 182.271 138.471 188.074 141.156 194.177C143.558 199.562 146.163 204.547 151.25 207.998C153.721 209.386 156.388 210.401 159.163 211.009C162.312 211.946 165.522 212.724 168.752 213.362C174.959 214.594 181.259 215.321 187.586 215.536C200.763 215.892 213.941 214.842 226.89 212.405C233.451 211.248 239.951 209.832 246.411 208.237C251.682 207.113 256.743 205.182 261.41 202.513C269.646 197.488 275.541 188.732 274.592 178.92C273.381 164.661 270.393 150.601 268.274 136.461C267.305 129.96 267.083 123.279 265.851 116.857C264.841 111.878 262.97 107.109 260.32 102.757C254.836 93.9046 246.898 86.7899 237.448 82.2557C232.837 79.9939 227.933 78.3699 222.873 77.4295C216.523 76.5285 210.128 75.9759 203.716 75.7742C190.554 74.8568 177.23 74.6374 164.27 77.4694C161.277 78.1324 158.325 78.9647 155.428 79.9623C153.981 80.2766 152.643 80.9648 151.553 81.9566C150.568 83.123 149.658 84.3485 148.827 85.6261C145.977 89.7419 143.568 94.1399 141.641 98.7488C133.519 118.335 133.331 140.256 141.116 159.974C144.83 169.068 150.139 177.664 158.598 183.108C166.32 187.967 175.373 190.349 184.518 189.929C193.922 189.599 203.001 186.44 210.539 180.875C218.516 174.873 223.925 166.134 225.699 156.385C229.393 137.219 218.311 116.498 199.88 109.02C179.39 100.783 151.431 112.749 146.566 134.706C144.548 143.382 145.84 154.769 151.775 161.809C154.62 165.069 158.233 167.589 162.295 169.146C166.357 170.704 170.744 171.253 175.07 170.744C185.446 169.368 192.169 161.39 193.481 151.319C195.076 139.034 188.131 127.527 181.671 117.615C180.279 115.481 174.687 117.615 176.302 120.148Z" fill="#E7EEAF"/>
<path d="M357.197 148.826L355.966 145.057C355.824 144.698 355.219 144.618 354.916 144.598C354.186 144.565 353.456 144.653 352.756 144.857C352.036 145.011 351.352 145.295 350.737 145.695C350.475 145.875 349.93 146.234 350.071 146.612L351.302 150.382C351.424 150.761 352.049 150.82 352.352 150.86C353.075 150.885 353.797 150.797 354.492 150.601C355.208 150.437 355.891 150.154 356.511 149.764C356.773 149.564 357.298 149.225 357.177 148.826H357.197Z" fill="#FDEC1A"/>
<path d="M362.506 121.743V120.487C362.563 120.219 362.512 119.94 362.365 119.709C362.267 119.438 362.073 119.212 361.82 119.071C361.547 118.892 361.236 118.776 360.912 118.732C360.553 118.653 360.181 118.653 359.822 118.732L359.034 118.851C358.527 118.985 358.048 119.207 357.621 119.509L357.117 119.968C356.838 120.26 356.655 120.629 356.592 121.025V122.282C356.54 122.558 356.598 122.844 356.753 123.079C356.857 123.346 357.049 123.571 357.298 123.717C357.569 123.902 357.88 124.018 358.207 124.057C358.56 124.126 358.923 124.126 359.277 124.057L360.084 123.917C360.59 123.797 361.065 123.573 361.477 123.259L362.002 122.8C362.273 122.505 362.449 122.137 362.506 121.743Z" fill="#FDEC1A"/>
<path d="M377.707 298.5C377.384 297.822 377.222 297.742 376.233 296.725C374.215 294.571 374.073 290.941 371.631 289.246C369.188 287.551 365.413 288.987 362.224 288.648C360.205 288.428 358.428 286.813 354.876 284.24C352.668 282.641 350.546 280.93 348.517 279.115C348.618 281.109 348.739 283.961 348.698 287.471C348.698 292.417 348.375 296.027 348.214 298.161C347.204 311.303 347.689 311.343 346.801 321.474C345.913 331.605 345.408 331.785 344.923 338.685C344.407 345.958 344.455 353.258 345.065 360.523C346.066 360.771 347.034 361.133 347.951 361.6C348.508 361.903 349.047 362.236 349.566 362.597L349.99 362.458L350.253 356.076C350.318 355.648 350.254 355.212 350.071 354.819C349.728 354.241 349.223 354.241 349.142 354.002C348.84 353.064 356.45 351.249 357.015 348.318C357.278 347.002 356.167 345.027 351.181 342.036C351.833 342.321 352.538 342.468 353.25 342.468C353.963 342.468 354.668 342.321 355.32 342.036C355.784 341.776 356.309 341.358 357.338 339.104C359.074 335.654 359.014 334.358 360.528 332.244C361.719 330.568 361.961 331.147 362.547 329.95C364.182 326.919 361.941 322.87 363.576 319.859C364.162 318.934 364.915 318.123 365.797 317.466L375.365 309.488C375.902 309.079 376.355 308.571 376.698 307.993C376.96 307.452 377.085 306.857 377.061 306.258C377.283 302.568 378.817 300.793 377.707 298.5Z" fill="#EC563C"/>
<path d="M188.656 661.905C204.911 661.905 218.089 648.887 218.089 632.828C218.089 616.769 204.911 603.75 188.656 603.75C172.401 603.75 159.224 616.769 159.224 632.828C159.224 648.887 172.401 661.905 188.656 661.905Z" fill="#D81868"/>
<path d="M203.11 37.4036C217.102 37.4036 228.445 26.1979 228.445 12.3749C228.445 -1.44808 217.102 -12.6538 203.11 -12.6538C189.118 -12.6538 177.775 -1.44808 177.775 12.3749C177.775 26.1979 189.118 37.4036 203.11 37.4036Z" fill="#3DAEA3"/>
<path d="M183.872 319.959C184.074 319.141 184.477 318.702 185.083 318.622C185.222 318.586 185.37 318.605 185.495 318.676C185.62 318.747 185.711 318.864 185.749 319.001C185.895 319.431 185.93 319.891 185.85 320.338C185.648 321.698 185.614 323.077 185.749 324.446C185.828 325.155 186.088 325.833 186.505 326.415C186.921 326.998 187.481 327.466 188.131 327.776C194.087 330.57 200.671 331.799 207.248 331.346C220.787 331.027 231.022 329.698 237.953 327.358C243.847 325.503 247.259 322.91 248.248 319.58C248.248 319.38 248.692 318.104 249.358 315.771C249.56 315.013 249.883 314.634 250.327 314.634H250.529C250.759 314.659 250.971 314.77 251.121 314.944C251.271 315.118 251.348 315.343 251.337 315.571C249.991 324.559 247.185 330.708 242.919 334.019C236.634 338.805 226.85 341.836 213.567 343.113C210.801 343.372 207.814 343.512 204.604 343.512C202 343.512 199.355 343.372 196.65 343.113C192.178 342.887 187.843 341.513 184.074 339.124C183.099 338.463 182.312 337.566 181.789 336.518C181.266 335.47 181.024 334.308 181.086 333.141C181.114 332.106 181.249 331.077 181.49 330.07L183.872 319.959ZM199.032 358.708C198.372 358.11 197.956 357.295 197.861 356.415C197.861 355.557 198.81 354.061 200.708 351.908C201.555 350.761 202.643 349.808 203.897 349.116C204.072 349.01 204.28 348.972 204.481 349.008C204.682 349.045 204.863 349.154 204.987 349.315C205.23 349.634 205.472 349.973 205.674 350.292C206.96 352.056 208.764 353.386 210.842 354.101C211.078 354.212 211.347 354.234 211.599 354.164C211.851 354.095 212.07 353.938 212.214 353.722C213.202 352.336 214.267 351.004 215.404 349.734C216.575 348.398 217.604 347.74 218.432 347.74C218.645 347.732 218.858 347.766 219.058 347.839C219.76 348.848 220.595 349.76 221.541 350.552C222.922 351.748 224.547 352.638 226.305 353.164C226.441 353.244 226.554 353.358 226.632 353.494C226.71 353.631 226.75 353.785 226.749 353.942C226.527 354.751 226.135 355.505 225.598 356.156C224.549 357.691 223.741 358.768 223.216 359.386C222.409 360.457 221.289 361.258 220.006 361.68C217.584 362.138 215.141 360.742 212.719 357.472C212.643 357.384 212.551 357.313 212.447 357.261C212.343 357.21 212.229 357.18 212.113 357.173C212.01 357.174 211.909 357.202 211.82 357.255C211.732 357.308 211.659 357.382 211.609 357.472C209.59 360.742 207.43 362.378 205.169 362.378C203.94 362.236 202.756 361.835 201.697 361.202C200.638 360.569 199.729 359.718 199.032 358.708ZM206.784 369.956C207.834 368.5 209.469 366.287 211.71 363.355C211.8 363.259 211.909 363.183 212.031 363.132C212.153 363.08 212.284 363.054 212.416 363.056C212.598 363.082 212.771 363.151 212.921 363.255C214.53 365.129 216.725 366.42 219.159 366.925C219.38 366.968 219.591 367.053 219.779 367.177C219.967 367.301 220.128 367.459 220.254 367.645C220.379 367.83 220.467 368.038 220.511 368.257C220.555 368.475 220.555 368.7 220.511 368.919C220.511 370.196 219.058 372.329 216.474 375.321C216.173 375.688 215.791 375.981 215.357 376.178C214.922 376.375 214.448 376.471 213.971 376.458C212.159 376.251 210.451 375.515 209.065 374.344C208.42 374 207.868 373.51 207.454 372.913C207.039 372.317 206.775 371.631 206.683 370.913C206.647 370.591 206.682 370.265 206.784 369.956Z" fill="#20649B"/>
<path d="M144.184 242.499C144.356 245.2 143.899 247.903 142.849 250.403C141.799 252.902 140.184 255.131 138.128 256.918C134.293 260.069 128.943 261.645 122.12 261.645C117.69 261.756 113.306 260.747 109.382 258.713C107.4 257.838 105.719 256.413 104.543 254.61C103.368 252.808 102.748 250.706 102.761 248.562C102.674 246.756 103.263 244.981 104.416 243.576C105.02 242.906 105.77 242.379 106.608 242.034C107.447 241.688 108.354 241.534 109.261 241.582C110.661 241.563 112.011 242.094 113.016 243.058C113.51 243.514 113.903 244.068 114.171 244.682C114.438 245.296 114.574 245.959 114.57 246.627C114.59 247.269 114.476 247.908 114.237 248.505C113.997 249.102 113.637 249.644 113.177 250.098C112.09 251.124 110.643 251.695 109.14 251.693C111.495 255.07 115.768 256.752 121.958 256.739C132.725 256.739 138.108 251.999 138.108 242.519C138.175 240.218 137.588 237.945 136.412 235.958C133.955 237.619 131.222 238.84 128.338 239.568C125.509 240.455 122.564 240.932 119.597 240.984C116.148 241.033 112.722 240.431 109.503 239.209C105.56 237.573 103.595 235.14 103.609 231.909C103.609 228.679 105.627 226.206 109.523 224.53C112.765 223.172 116.257 222.493 119.778 222.536C125.638 222.402 131.386 224.136 136.17 227.482C138.679 229.115 140.729 231.348 142.13 233.974C143.531 236.599 144.238 239.532 144.184 242.499ZM111.34 246.488C111.34 245.231 110.674 244.593 109.321 244.593C109.018 244.495 108.696 244.469 108.38 244.517C108.065 244.566 107.766 244.688 107.507 244.872C107.249 245.057 107.038 245.3 106.893 245.581C106.748 245.862 106.672 246.173 106.672 246.488C106.672 246.803 106.748 247.114 106.893 247.395C107.038 247.676 107.249 247.918 107.507 248.103C107.766 248.288 108.065 248.41 108.38 248.458C108.696 248.507 109.018 248.481 109.321 248.382C110.674 248.442 111.34 247.824 111.34 246.548V246.488ZM133.445 231.929C129.717 228.653 124.843 226.943 119.859 227.163C117.719 227.179 115.591 227.494 113.54 228.1C110.553 228.938 109.079 230.095 109.079 231.63C109.079 233.166 110.512 234.382 113.379 235.28C115.399 235.9 117.501 236.222 119.617 236.237C122.056 236.176 124.472 235.752 126.783 234.981C129.134 234.296 131.377 233.289 133.445 231.989V231.929Z" fill="#20649B"/>
<path d="M285.594 257.776C285.343 258.107 284.988 258.345 284.585 258.454C280.394 267.919 273.996 276.271 265.912 282.824C264.402 281.649 262.795 280.601 261.107 279.693C267.95 274.905 273.367 268.389 276.793 260.827H220.269V255.642H279.72L280.588 255.263L285.594 257.776ZM254.849 271.636C254.849 272.235 254.062 272.773 253.032 272.913C250.751 290.862 244.372 308.013 228.122 317.067C226.664 315.777 225.104 314.604 223.459 313.557C239.608 305.041 245.301 289.127 247.198 270.799L254.849 271.636Z" fill="#20649B"/>
<path d="M168.025 301.83C168.043 305.234 167.8 308.634 167.298 312.001C166.842 315.033 166.105 318.017 165.098 320.916C164.145 323.9 162.692 326.704 160.798 329.212L153.248 269.622C153.468 268.702 153.829 267.821 154.318 267.009C155.025 265.593 156.196 263.659 157.79 261.166L163.645 252.112L165.36 265.554C165.818 269.768 166.208 273.557 166.531 276.921C166.834 280.312 167.117 283.323 167.339 285.975C167.561 288.628 167.743 291.26 167.864 293.953C167.985 296.645 168.025 299.118 168.025 301.83Z" fill="#20649B"/>
<path d="M143.337 144.139C148.239 143.364 152.726 140.958 156.054 137.319C157.407 135.659 159.205 134.408 161.242 133.709C163.281 133.579 165.327 133.781 167.299 134.307C170.111 134.906 171.585 135.644 171.719 136.521C171.861 137.399 171.356 138.316 170.165 139.273C166.513 142.188 163.533 145.839 161.424 149.983C159.204 154.271 158.174 156.923 158.336 157.96C158.546 159.092 159.062 160.146 159.829 161.011C161.242 162.566 162.752 164.032 164.351 165.399C166.72 167.721 168.21 170.777 168.57 174.054C169.092 176.532 168.889 179.105 167.985 181.473C167.117 183.467 166.249 184.564 165.381 184.684C164.906 184.729 164.427 184.645 163.997 184.441C163.566 184.237 163.2 183.921 162.938 183.527C161.29 181.383 159.274 179.54 156.983 178.083C155.227 177.106 154.318 176.388 154.238 175.929C154.157 175.47 154.359 175.211 154.843 175.131C155.749 175.043 156.662 175.043 157.568 175.131C158.916 175.225 160.27 175.171 161.606 174.972C162.918 174.772 163.483 174.174 163.322 173.157C162.828 171.478 162.028 169.903 160.96 168.51C159.941 166.894 158.735 165.402 157.367 164.063C156.242 163.008 155.527 161.596 155.348 160.074C155.104 157.241 155.308 154.389 155.953 151.618C156.295 149.218 156.863 146.854 157.649 144.558C158.007 143.996 158.202 143.348 158.214 142.684C158.214 142.305 157.972 142.145 157.669 142.185C157.252 142.271 156.851 142.419 156.478 142.624C152.412 144.519 148.24 146.183 143.983 147.61C145.059 153.008 146.405 160.553 148.02 170.245C149.635 179.937 151.196 189.829 152.703 199.921C153.943 206.5 154.618 213.172 154.722 219.864C154.702 222.059 154.341 224.238 153.652 226.325C153.168 227.382 152.663 227.961 152.138 228.041C151.109 228.2 149.756 226.704 148.101 223.573C146.734 221.236 145.733 218.708 145.133 216.075C144.884 213.783 145.188 211.466 146.021 209.314C146.425 207.984 146.284 203.577 145.598 196.091C144.911 188.606 143.828 180.383 142.347 171.422C141.554 165.644 140.387 159.922 138.855 154.291C138.24 152.228 137.156 150.332 135.686 148.746C134.719 147.91 134.018 146.816 133.667 145.595C133.445 144.339 134.252 143.601 136.069 143.302C138.523 143.128 140.989 143.412 143.337 144.139ZM205.916 144.459C199.135 146.13 192.462 148.201 185.931 150.661C182.048 152.304 178.038 153.638 173.94 154.65C172.209 154.928 170.435 154.756 168.792 154.151C167.177 153.533 166.33 152.934 166.229 152.356C166.067 151.339 167.763 150.581 171.316 150.043C173.482 149.697 180.016 147.776 190.917 144.279C201.818 140.782 210.176 137.917 215.989 135.684C220.092 133.961 224.35 132.625 228.707 131.695C231.1 131.444 233.518 131.801 235.732 132.732C238.437 133.749 239.77 134.726 239.992 135.484C240.274 137.239 236.338 138.755 228.223 139.991L222.49 140.729C219.199 141.248 214.899 142.145 209.631 143.481C212.192 144.095 214.692 144.936 217.1 145.994C218.452 146.692 219.118 147.39 219.3 147.989C219.41 148.794 219.362 149.614 219.159 150.402C218.614 152.954 218.917 157.84 220.087 165.02C221.258 172.2 222.772 180.017 224.609 188.473L228.889 208.117C229.512 212.183 229.124 216.338 227.758 220.223C226.366 224.471 224.67 226.744 222.692 227.043C221.981 227.133 221.26 227.014 220.618 226.702C219.976 226.39 219.44 225.898 219.078 225.288C215.931 221.234 212.025 217.815 207.572 215.217C205.997 214.26 205.189 213.602 205.129 213.223C205.068 212.844 205.351 212.604 205.997 212.505C207.549 212.45 209.104 212.537 210.64 212.764C212.499 213.026 214.383 213.066 216.252 212.884C216.821 212.827 217.371 212.647 217.863 212.358C218.355 212.069 218.777 211.676 219.098 211.208C219.704 210.311 219.583 206.083 218.755 198.564C217.927 191.046 217.039 184.485 216.131 178.92C215.222 173.356 213.93 167.114 212.255 160.174C211.396 155.829 210.119 151.575 208.44 147.47C207.813 146.308 206.955 145.283 205.916 144.459ZM178.3 167.433C180.794 167.281 183.238 166.672 185.507 165.638C187.679 164.807 189.718 163.672 191.563 162.268C192.466 161.397 193.577 160.766 194.793 160.433C196.844 160.578 198.85 161.099 200.708 161.969C203.817 163.105 205.452 164.143 205.593 165.06C205.631 165.623 205.531 166.186 205.303 166.703C205.075 167.22 204.724 167.676 204.281 168.031C202.977 169.587 201.983 171.374 201.354 173.296C200.582 174.917 200.195 176.691 200.223 178.482C200.385 179.479 200.708 180.077 201.172 180.257C202.424 180.835 203.191 181.553 203.191 182.371C203.413 183.707 202.081 184.684 199.154 185.302C196.226 185.92 191.402 187.177 184.538 189.071C184.609 190.403 184.554 191.738 184.377 193.06C184.215 194.197 183.69 194.835 182.822 194.955C181.954 195.074 181.106 194.496 180.279 193.16C179.306 191.47 178.681 189.606 178.442 187.675L177.917 183.687C177.44 180.967 176.71 178.297 175.737 175.71C175.126 173.725 174.192 171.853 172.971 170.165C172.313 169.537 171.839 168.744 171.598 167.872C171.497 167.234 171.942 166.855 172.931 166.695C174.752 166.605 176.574 166.855 178.3 167.433ZM183.973 185.063C186.859 184.35 189.686 183.423 192.431 182.291C193.634 181.853 194.633 180.995 195.237 179.878C195.695 178.25 195.845 176.553 195.681 174.872C195.643 173.023 195.495 171.179 195.237 169.348C195.214 168.469 194.861 167.631 194.248 166.994C193.565 166.642 192.772 166.556 192.028 166.755C188.042 167.679 184.149 168.96 180.4 170.584C181.557 174.28 182.748 179.107 183.973 185.063Z" fill="#20649B"/>
<path d="M282.061 165.798L320.598 226.385L300.714 231.89L292.417 218.727L271.968 224.431L271.867 239.907L264.115 242.061L264.741 170.644L282.061 165.798ZM271.968 217.291L288.703 212.644L271.968 185.741V217.291Z" fill="#20649B"/>
<path d="M189.08 217.83C189.08 216.095 185.992 214.24 180.763 212.904C179.814 212.704 179.39 212.285 179.39 211.986C179.39 211.368 180.662 210.75 183.004 210.75C186.453 210.914 189.876 211.429 193.218 212.285C194.813 212.485 195.237 213.103 195.237 213.941C195.237 214.778 194.611 216.294 194.611 218.049V255.542C205.997 255.542 202.161 252.571 210.034 252.571C214.516 252.571 216.211 253.608 216.211 255.442C216.211 257.596 214.718 258.334 210.781 258.334H194.632V282.685C194.632 300.155 191.22 300.634 190.594 300.634C189.524 300.634 189.1 297.961 188.999 290.662L189.08 217.83Z" fill="#20649B"/>
<path d="M273.522 86.2843C274.787 96.4154 273.677 103.728 270.191 108.222C268.904 109.816 267.295 111.128 265.467 112.076C263.64 113.024 261.632 113.585 259.573 113.726C257.9 113.939 256.199 113.752 254.614 113.179C253.03 112.606 251.608 111.665 250.469 110.435C247.663 107.432 245.964 103.582 245.644 99.5066C245.249 97.3667 245.287 95.1708 245.754 93.0453C246.222 90.9198 247.111 88.9067 248.369 87.1219C249.135 85.9863 250.128 85.0181 251.288 84.2772C252.448 83.5362 253.749 83.0383 255.112 82.8142C256.823 82.5074 258.581 82.5824 260.259 83.0335C261.427 83.5658 262.525 84.2354 263.53 85.0279L261.511 93.0051L260.663 93.1049C260.755 92.3739 260.671 91.6319 260.419 90.9389C260.166 90.2459 259.752 89.6215 259.21 89.1162C258.733 88.6377 258.154 88.2724 257.514 88.0478C256.874 87.8232 256.19 87.7453 255.515 87.8199C254.407 87.9415 253.35 88.348 252.451 88.9989C251.551 89.6497 250.84 90.5222 250.388 91.5293C249.265 93.7983 248.864 96.3499 249.237 98.8485C249.426 101.691 250.351 104.438 251.922 106.826C252.727 107.927 253.83 108.782 255.106 109.29C256.381 109.798 257.776 109.939 259.129 109.698C262.339 109.319 264.438 107.125 265.427 103.156C266.427 98.4251 266.564 93.5557 265.831 88.7772C264.97 81.8237 262.796 76.7514 259.311 73.5605C258.041 72.2932 256.496 71.3289 254.792 70.7414C253.088 70.1538 251.271 69.9584 249.479 70.1702C247.716 70.3156 246.017 70.8933 244.537 71.8509C243.056 72.8085 241.841 74.1159 241.001 75.6546C239.463 78.3481 238.867 81.4673 239.305 84.5293L242.414 109.678C242.551 111.171 242.991 112.623 243.706 113.945C244.379 115.062 244.904 115.561 245.281 115.441L232.724 117.077C233.366 116.24 233.845 115.293 234.137 114.285C234.534 112.993 234.637 111.631 234.44 110.296L231.311 85.1076C231.171 83.2517 230.599 81.4528 229.64 79.8511C228.68 78.2495 227.359 76.8884 225.78 75.8739C223.517 74.3071 220.757 73.599 218.008 73.8796L216.333 74.099C217.455 74.1845 218.541 74.5308 219.502 75.1095C220.463 75.6883 221.272 76.4832 221.864 77.4295C223.35 79.1382 224.359 81.2005 224.791 83.4125C225.18 85.4672 225.132 87.5795 224.65 89.6148C224.335 90.7273 223.617 91.6861 222.631 92.3071C224.024 92.4467 225.296 93.6034 226.446 95.7373C227.626 97.9472 228.379 100.355 228.667 102.837C228.667 103.535 228.828 104.094 228.869 104.472C229.223 106.203 229.197 107.989 228.793 109.709C228.389 111.43 227.616 113.044 226.527 114.444C224.508 116.817 220.875 118.293 215.909 118.911C213.814 119.204 211.678 118.995 209.682 118.301C207.687 117.606 205.889 116.448 204.442 114.923C200.822 111.373 198.528 105.662 197.559 97.7915C197.024 93.47 197.459 89.0854 198.83 84.9481C199.795 81.4044 201.673 78.1682 204.281 75.5548C203.166 75.238 201.992 75.1766 200.849 75.3754C198.266 75.7354 195.757 76.503 193.42 77.6489C190.776 78.8854 188.656 81.6375 187.082 85.7458C185.476 89.9959 184.956 94.5717 185.568 99.0678C185.85 101.357 186.378 103.61 187.142 105.789C187.84 107.901 189.119 109.779 190.836 111.213C191.599 111.898 192.503 112.412 193.486 112.718C194.468 113.024 195.507 113.117 196.529 112.988C196.883 112.96 197.227 112.862 197.543 112.701C197.858 112.54 198.138 112.319 198.366 112.051L198.75 112.25L193.824 121.484C190.592 120.414 187.86 118.225 186.133 115.322C183.238 111.004 181.451 106.055 180.925 100.903C179.966 94.8047 180.844 88.5629 183.448 82.9538C185.193 79.001 188.276 75.7716 192.169 73.8198C193.472 73.2622 194.823 72.8217 196.206 72.5035C197.626 72.1168 199.069 71.8171 200.526 71.6061C202.291 71.3624 204.074 71.269 205.855 71.3269C206.994 71.3513 208.123 71.5394 209.207 71.8853C211.573 70.6569 214.157 69.8917 216.817 69.6317C220.322 69.149 223.89 69.3935 227.294 70.3497C228.721 70.7047 230.055 71.3561 231.207 72.2606C232.359 73.165 233.303 74.3016 233.976 75.5947C235.115 72.9242 237.117 70.7013 239.669 69.2727C242.429 67.5676 245.539 66.4912 248.773 66.1217C255.717 65.2841 261.37 66.6136 265.73 70.1104C270.09 73.6071 272.688 78.9984 273.522 86.2843ZM221.5 106.347C221.275 103.804 220.49 101.34 219.199 99.1277C218.766 98.3186 218.093 97.6595 217.271 97.2389C216.448 96.8183 215.515 96.6562 214.596 96.7744L208.015 97.5921L207.269 91.6091L214.334 90.7515C214.877 90.7318 215.402 90.5497 215.838 90.2292C216.274 89.9087 216.601 89.465 216.777 88.9567C217.141 87.8786 217.251 86.7328 217.1 85.6062C216.795 83.3975 215.856 81.3213 214.395 79.6232C213.881 78.8406 213.17 78.2042 212.33 77.7774C211.491 77.3506 210.553 77.1481 209.61 77.1902C207.45 77.4694 205.573 79.5036 203.796 83.3327C201.753 87.9513 201.054 93.0413 201.778 98.0308C202.165 102.199 203.379 106.252 205.351 109.957C206.146 111.661 207.472 113.069 209.136 113.973C210.8 114.878 212.714 115.231 214.596 114.983C216.461 114.706 218.161 113.77 219.381 112.35C220.817 110.678 221.572 108.539 221.5 106.347Z" fill="#20649B"/>
<path d="M369.915 586.16C375.667 578.239 382.532 571.168 390.304 565.16C390.547 564.908 390.88 564.758 391.232 564.741C391.545 564.794 391.834 564.94 392.06 565.16C399.443 571.047 405.84 578.046 411.016 585.901C411.353 586.238 411.601 586.653 411.737 587.107C411.873 587.562 411.893 588.043 411.795 588.507C411.697 588.971 411.484 589.404 411.175 589.767C410.867 590.13 410.472 590.412 410.027 590.588C404.919 594.477 399.933 598.804 396.986 604.548C395.916 606.542 394.785 609.195 392.484 609.574C390.183 609.953 388.124 607.799 386.63 605.884C381.402 599.159 375.43 593.031 368.825 587.616" fill="#20649B"/>
<path d="M390.849 610.232C383.168 616.887 376.237 624.342 370.177 632.469C370.097 632.55 370.033 632.647 369.992 632.753C369.95 632.859 369.931 632.973 369.935 633.087C369.967 633.21 370.024 633.326 370.104 633.425C370.184 633.525 370.285 633.607 370.399 633.665C371.066 634.064 372.418 636.577 380.331 644.255C385.055 648.902 389.517 652.87 392.928 655.782C397.652 646.828 409.179 642.939 413.6 633.845C413.795 633.519 413.893 633.146 413.882 632.768C413.768 632.311 413.514 631.9 413.155 631.591C412.348 630.753 404.233 622.796 392.968 611.648" fill="#20649B"/>
<path d="M391.212 656.759C387.478 656.401 385.015 662.383 377.849 670.361C374.921 673.668 371.728 676.736 368.3 679.535C370.137 681.09 372.802 683.384 376.032 686.216C379.262 689.048 381.119 690.643 382.794 692.199C386.097 695.305 389.211 698.601 392.121 702.07C394.644 699.199 398.782 694.512 403.466 689.307C404.717 687.931 406.514 685.956 409.058 683.523C410.915 681.768 412.53 680.352 413.701 679.375C410.778 675.433 407.538 671.732 404.011 668.307C401.286 665.674 400.781 665.534 397.147 661.985C392.585 657.637 392.444 656.899 391.212 656.759Z" fill="#20649B"/>
<path d="M371.146 541.069C376.886 533.15 383.746 526.084 391.515 520.089C391.621 519.956 391.756 519.848 391.91 519.775C392.063 519.701 392.232 519.663 392.403 519.663C392.574 519.663 392.743 519.701 392.897 519.775C393.051 519.848 393.186 519.956 393.292 520.089C400.662 525.99 407.051 532.995 412.227 540.849C412.765 541.489 413.064 542.292 413.075 543.123C412.806 544.134 412.146 545.001 411.238 545.536C406.13 549.405 401.144 553.733 398.197 559.496C397.127 561.491 395.997 564.123 393.695 564.522C391.394 564.921 389.355 562.747 387.861 560.833C382.632 554.096 376.653 547.961 370.036 542.545" fill="#20649B"/>
<path d="M392.06 565.16C384.387 571.802 377.463 579.245 371.409 587.357C371.247 587.532 371.154 587.758 371.146 587.995C371.146 588.314 371.55 588.514 371.631 588.554C372.297 588.952 373.65 591.485 381.543 599.163C386.267 603.79 390.728 607.779 394.139 610.69C398.863 601.716 410.41 597.847 414.811 588.753C415.007 588.428 415.105 588.054 415.093 587.676C415.001 587.21 414.752 586.789 414.387 586.479C413.579 585.642 405.444 577.684 394.2 566.536" fill="#20649B"/>
<path d="M392.423 611.688C388.709 611.229 386.145 617.332 379.059 625.369C376.138 628.675 372.952 631.743 369.531 634.543C371.348 636.098 374.033 638.392 377.263 641.204C380.493 644.016 382.33 645.651 384.026 647.187C387.327 650.323 390.435 653.653 393.332 657.158C395.855 654.287 399.993 649.58 404.697 644.375C405.949 642.999 407.725 641.044 410.269 638.611C412.126 636.836 413.741 635.44 414.912 634.463C411.995 630.511 408.754 626.802 405.222 623.375C402.497 620.742 401.992 620.622 398.378 617.073C393.796 612.525 393.655 611.827 392.423 611.688Z" fill="#20649B"/>
<path d="M410.935 582.95C416.674 575.024 423.534 567.952 431.304 561.949C431.557 561.712 431.884 561.564 432.232 561.531C432.551 561.583 432.846 561.729 433.08 561.949C440.451 567.842 446.841 574.841 452.015 582.69C452.553 583.338 452.852 584.146 452.863 584.984C452.738 585.485 452.511 585.956 452.195 586.368C451.879 586.779 451.481 587.123 451.026 587.377C445.919 591.266 440.933 595.594 437.985 601.337C436.936 603.431 435.805 605.984 433.484 606.363C431.162 606.742 429.144 604.588 427.65 602.673C422.415 595.947 416.436 589.82 409.825 584.405" fill="#20649B"/>
<path d="M431.849 607.021C424.201 613.678 417.298 621.127 411.258 629.238C411.098 629.406 411.005 629.625 410.995 629.856C411.03 629.981 411.092 630.097 411.175 630.196C411.259 630.296 411.362 630.377 411.48 630.434C412.146 630.833 413.499 633.346 421.392 641.024C426.115 645.671 430.577 649.64 433.988 652.571C438.712 643.597 450.259 639.708 454.66 630.634C454.852 630.314 454.95 629.948 454.942 629.577C454.85 629.111 454.601 628.689 454.236 628.38C453.428 627.543 445.293 619.585 434.049 608.437" fill="#20649B"/>
<path d="M432.212 653.549C428.498 653.11 425.934 659.193 418.848 667.23C415.897 670.517 412.684 673.564 409.239 676.344C411.056 677.879 413.741 680.173 416.971 683.005C420.201 685.837 422.038 687.432 423.733 688.988C427.034 692.132 430.148 695.461 433.06 698.959C435.563 696.088 439.701 691.401 444.405 686.196C445.657 684.82 447.433 682.845 449.977 680.412C451.834 678.657 453.449 677.241 454.62 676.264C451.703 672.317 448.462 668.615 444.93 665.196C442.205 662.563 441.72 662.423 438.086 658.873C433.585 654.406 433.464 653.708 432.212 653.549Z" fill="#20649B"/>
<path d="M110.795 461.436C111.28 457.706 125.088 460.08 136.11 452.102C145.275 445.461 148.868 434.293 150.24 424.322C151.896 434.293 155.812 446.718 166.269 453.478C175.434 459.461 186.093 458.604 186.456 461.954C186.799 465.664 173.678 466.721 163.786 476.094C155.812 483.633 152.845 493.824 151.674 502.419C149.857 494.608 146.127 487.356 140.813 481.299C128.277 467.359 110.23 465.644 110.795 461.436Z" fill="#3DAEA3"/>
<path d="M381.744 418.498C382.128 415.726 392.444 417.501 400.66 411.558C407.523 406.592 410.208 398.256 411.298 390.817C412.53 398.196 415.457 407.529 423.269 412.575C430.133 417.002 438.086 416.384 438.308 418.897C438.53 421.41 428.76 422.447 421.371 429.447C415.416 435.071 413.196 442.669 412.348 449.091C411.009 443.263 408.235 437.852 404.273 433.336C394.826 422.925 381.341 421.649 381.744 418.498Z" fill="#20649B"/>
<path d="M72.9647 395.145C73.4694 391.435 87.2571 393.808 98.2792 385.831C107.444 379.19 111.058 368.022 112.41 358.03C114.045 368.002 117.982 380.446 128.418 387.187C137.603 393.17 148.262 392.313 148.605 395.663C148.928 399.392 135.827 400.449 125.935 409.823C117.961 417.361 114.994 427.552 113.823 436.148C112.027 428.333 108.303 421.078 102.983 415.028C90.4668 400.968 72.4196 399.273 72.9647 395.145Z" fill="#FAAA4B"/>
<path d="M-35.8631 937.958C26.0907 936.901 74.0347 936.981 107.222 937.3C107.222 937.3 166.854 937.839 214.879 936.443C228.283 936.044 242.455 935.485 257.736 934.748C266.578 934.309 273.886 933.89 278.912 933.591C277.822 928.326 276.207 920.468 274.269 910.955C266.053 870.63 265.528 866.721 263.388 858.026C259.219 839.641 253.018 821.765 244.897 804.718C234.63 783.991 221.631 764.698 206.239 747.341C199.585 739.784 192.551 732.562 185.164 725.703C174.807 715.891 163.916 706.644 152.542 698.002C145.935 693.767 138.948 690.142 131.668 687.173C120.828 682.765 113.621 681.589 87.0149 675.725C87.0149 675.725 78.7787 673.91 64.1027 670.56C19.1666 660.329 20.6806 659.491 11.7983 658.993C-0.19273 658.295 -7.90416 658.674 -28.3939 659.133L-35.7823 659.292C-35.8496 752.161 -35.8765 845.05 -35.8631 937.958Z" fill="#EC563C"/>
<path d="M36.7292 857.528C40.9881 857.528 44.4407 854.117 44.4407 849.909C44.4407 845.702 40.9881 842.291 36.7292 842.291C32.4703 842.291 29.0178 845.702 29.0178 849.909C29.0178 854.117 32.4703 857.528 36.7292 857.528Z" fill="#231F20"/>
<path d="M36.7292 857.528C40.9881 857.528 44.4407 854.117 44.4407 849.909C44.4407 845.702 40.9881 842.291 36.7292 842.291C32.4703 842.291 29.0178 845.702 29.0178 849.909C29.0178 854.117 32.4703 857.528 36.7292 857.528Z" fill="#231F20"/>
<path d="M-5.6836 849.909C-1.4247 849.909 2.02782 846.499 2.02782 842.291C2.02782 838.084 -1.4247 834.673 -5.6836 834.673C-9.9425 834.673 -13.395 838.084 -13.395 842.291C-13.395 846.499 -9.9425 849.909 -5.6836 849.909Z" fill="#231F20"/>
<path d="M87.8425 873.223C92.1014 873.223 95.5539 869.812 95.5539 865.605C95.5539 861.397 92.1014 857.986 87.8425 857.986C83.5836 857.986 80.1311 861.397 80.1311 865.605C80.1311 869.812 83.5836 873.223 87.8425 873.223Z" fill="#231F20"/>
<path d="M101.065 802.105H-35.863V937.38H101.065V802.105Z" fill="#16405F"/>
<path d="M68.9073 833.715H-35.863V937.221H68.9073V833.715Z" fill="#20649B"/>
<path d="M70.2396 833.875H49.5076V854.357H70.2396V833.875Z" fill="#8D8D61"/>
<path d="M3.4813 346.922C-22.2571 358.888 -29.1005 390.937 -34.2078 415.367C-34.1771 415.918 -34.1771 416.471 -34.2078 417.022C-34.7931 420.729 -34.7931 424.503 -34.2078 428.21C-33.5737 431.22 -33.6636 434.335 -34.4702 437.304C-34.4702 437.584 -34.4702 437.863 -34.4702 438.122C-3.9677 421.769 8.32617 378.711 3.4813 346.922Z" fill="#18AA4A"/>
<path d="M2.93626 348.577L-34.5913 427.054C-34.5913 427.453 -34.5913 427.831 -34.45 428.25C-34.0022 430.571 -33.934 432.948 -34.2481 435.29C-13.9401 412.794 0.87719 373.207 2.93626 348.577Z" fill="#18AA4A" stroke="#73BF44" stroke-width="1.32" stroke-miterlimit="10"/>
<path d="M1.24049 313.078C11.334 345.964 -7.62159 398.595 -23.428 419.694" stroke="#8BC63F" stroke-width="1.32" stroke-miterlimit="10"/>
<path fill-rule="evenodd" clip-rule="evenodd" d="M19.0657 210.849C5.4193 195.493 -0.21286 186.738 -1.68651 178.781C-3.16016 170.823 0.332188 159.895 -1.68651 152.994C-3.70521 146.094 -13.7987 138.316 -17.8361 127.068C-21.8735 115.82 -21.8735 100.484 -16.1202 91.4495C-10.8329 93.1942 -5.95941 95.9817 -1.79532 99.643C2.36877 103.304 5.73668 107.763 8.10416 112.749C14.1603 124.535 13.9382 135.564 16.401 143.242C18.8638 150.92 23.7894 153.951 27.7057 166.875C31.622 179.798 28.9573 190.806 19.0657 210.849Z" fill="#5BBA47"/>
<path d="M-5.68359 109.04C3.31979 140.816 12.3299 172.572 21.3467 204.308" stroke="#DFE21D" stroke-width="0.25" stroke-miterlimit="10"/>
<path fill-rule="evenodd" clip-rule="evenodd" d="M31.5815 289.446C37.4761 280.152 41.4126 276.004 45.9749 274.189C50.5371 272.374 58.2283 272.833 62.0033 270.879C65.7783 268.924 67.8979 262.522 73.8732 258.913C80.6888 254.962 88.7516 253.668 96.4827 255.283C96.8538 258.268 96.4265 261.297 95.2435 264.069C94.0605 266.84 92.163 269.257 89.7402 271.078C84.0475 275.864 77.1233 277.061 73.0052 279.434C68.8871 281.807 68.3218 284.759 61.3371 288.528C54.3524 292.298 46.7016 292.218 31.5815 289.446Z" fill="#5BBA47"/>
<path d="M89.2959 261.685L46.1765 286.275" stroke="#DFE21D" stroke-width="0.13" stroke-miterlimit="10"/>
<path d="M53.0403 353.264C51.5666 358.469 49.4066 366.307 46.9842 375.899C37.456 413.293 39.5554 414.549 34.3472 428.868C28.5131 444.823 21.0843 456.43 7.94261 476.832C1.26072 487.222 -4.79536 495.618 -9.21631 501.541C21.8111 487.322 42.8862 477.61 45.2885 476.054C46.4456 475.334 47.7475 474.871 49.1038 474.698C50.1942 474.625 51.2895 474.712 52.3539 474.957C65.5562 477.37 78.1327 482.934 90.588 488.339L115.095 499.108C105.891 488.547 97.3232 477.459 89.4374 465.903C81.2084 454.158 73.9576 441.772 67.7566 428.868C61.3977 414.968 52.3539 389.64 53.0403 353.264Z" fill="#F6EC30"/>
<path d="M80.4338 518.453C69.7549 516.239 58.2282 513.587 50.8196 504.812C49.0229 502.718 47.1859 500.145 44.602 500.026C42.0181 499.906 40.3627 501.88 38.5459 503.576C29.8655 512.071 8.26545 519.53 1.80562 521.325C-10.4859 524.794 -23.4304 525.361 -35.9844 522.98C-35.9844 529.628 -35.9844 536.229 -35.9844 542.784C-31.5029 545.696 -26.9608 548.468 -22.4187 551.2C-15.9185 555.089 -8.9944 559.018 -1.64635 558.639C2.62008 558.186 6.77742 557.019 10.6475 555.189L33.7616 545.835C37.2292 544.187 40.9704 543.174 44.8038 542.844C49.2351 543.076 53.5677 544.224 57.5216 546.214L93.2122 561.192C94.6074 561.939 96.192 562.272 97.7744 562.149C99.4048 561.634 100.854 560.673 101.953 559.377C118.15 543.737 135.713 529.542 154.439 516.957C131.567 528.445 105.102 523.559 80.4338 518.453Z" fill="#F6EC30"/>
<path d="M75.5688 573.895C64.143 570.186 52.7172 564.283 40.9482 565.918C29.1792 567.554 18.9646 576.807 7.33687 580.217C1.42209 581.933 -3.60447 581.793 -13.5163 582.092C-21.2882 582.331 -28.8584 582.192 -35.7219 581.873V607.141C-29.5797 612.458 -22.6318 616.792 -15.1312 619.984C-12.6609 620.84 -10.5085 622.41 -8.95402 624.491C-6.61233 627.942 -7.13718 631.99 -7.31887 634.463C-8.30803 648.124 -12.7694 661.626 -11.2351 675.227C-11.2152 675.997 -10.9698 676.745 -10.5286 677.381C-9.94403 677.904 -9.17703 678.182 -8.38877 678.159C1.20004 679.116 10.809 680.153 20.4584 680.153C20.4584 680.153 30.7134 678.956 50.5168 678.617C83.3004 678.099 109.342 693.096 112.107 687.771C113.258 685.577 109.564 681.788 111.199 673.332C111.401 672.255 111.744 671.557 111.724 671.119C111.704 660.81 110.901 650.516 109.321 640.326C108.05 633.386 106.132 625.768 109.18 619.565C111.07 616.382 113.656 613.656 116.75 611.588L131.689 599.941C143.555 590.325 155.956 581.37 168.833 573.118C137.846 578.403 105.668 583.688 75.5688 573.895Z" fill="#F6EC30"/>
<path d="M284.08 446.079C288.211 431.69 295.181 418.25 304.59 406.532C314.001 395.1 325.404 385.421 338.262 377.953C343.027 374.955 347.998 372.289 353.14 369.976C380.856 357.891 412.671 360.005 442.951 362.517C424.46 366.805 405.525 371.272 389.618 381.404C384.264 384.92 379.189 388.833 374.437 393.11C350.544 414.107 330.785 439.286 316.157 467.379C314.027 461.108 309.816 455.732 304.206 452.122C298.9 448.771 292.673 447.126 286.381 447.416" fill="#6B4B9D"/>
<path d="M315.895 474.917C305.801 459.8 337.474 504.573 345.004 521.066C351.579 535.371 355.876 550.595 357.742 566.197C358.478 572.064 358.782 577.976 358.651 583.887C357.702 615.676 340.603 644.594 323.99 671.976C328.39 652.551 332.811 632.628 330.147 612.904C329.151 606.202 327.626 599.587 325.584 593.121C315.767 560.601 299.913 530.168 278.831 503.376C286.045 504.272 293.358 502.823 299.664 499.248C304.427 496.473 308.362 492.503 311.07 487.741C313.11 483.616 314.726 479.3 315.895 474.857V474.917Z" fill="#6B4B9D"/>
<path d="M315.895 474.917C315.895 473.84 316.177 467.498 316.177 467.498C316.177 467.498 333.175 461.316 345.509 458.444C356.45 455.892 365.01 455.752 381.684 455.752C397.551 455.752 413.519 455.872 429.083 458.863C444.647 461.855 459.929 467.957 471.476 478.527C476.502 483.134 480.721 488.499 485.606 493.165C464.471 486.764 442.608 480.601 420.544 482.396C393.392 484.61 369.007 498.57 343.955 508.98C343.632 509.168 343.256 509.245 342.885 509.2C342.43 509.07 342.046 508.769 341.815 508.362C340.24 505.929 315.632 488.878 315.895 474.917Z" fill="#6B4B9D"/>
<path d="M215.444 479.624C212.179 481.155 209.029 482.914 206.017 484.889C202.097 487.636 198.448 490.741 195.116 494.163C182.007 508.118 171.679 524.39 164.674 542.126C159.321 557.182 156.817 573.082 157.286 589.032C161.158 578.893 167.34 569.769 175.353 562.368C183.396 554.944 192.083 548.231 201.313 542.305C205.961 539.046 210.801 536.062 215.808 533.371C224.614 528.98 233.794 525.363 243.242 522.562C256.093 518.086 268.141 511.617 278.932 503.396C275.48 501.94 265.589 497.413 260.381 487.601C258.715 484.468 257.531 481.107 256.868 477.63C256.705 474.547 256.833 471.455 257.252 468.396C256.868 468.416 233.613 471.328 215.444 479.624Z" fill="#6B4B9D"/>
<path d="M286.402 447.495C286.079 447.136 276.853 437.823 267.446 428.849C262.359 423.962 258.18 420.034 256.828 418.877C244.715 408.666 232.603 398.335 218.028 391.854C194.551 381.344 167.561 381.882 141.762 382.72C165.805 392.392 190.211 402.284 210.559 418.019C228.727 432.099 243.08 450.327 257.171 468.356C258.387 464.617 260.46 461.205 263.227 458.384C271.604 449.789 286.502 447.834 286.402 447.495Z" fill="#6B4B9D"/>
<path d="M275.561 507.046C274.108 506.886 271.907 508.561 264.075 528.425C251.963 559.157 244.11 579.26 240.274 609.055C240.113 610.352 240.032 611.169 239.871 612.605C235.833 650.218 237.69 675.346 238.235 698.68C238.599 713.757 238.538 735.116 236.54 761.321L247.542 786.031C251.579 779.45 255.415 777.894 257.635 777.476C264.196 776.259 269.929 781.803 292.236 802.325C296.879 806.593 300.633 810.003 302.814 811.977L324.515 794.288L318.458 768.501C289.712 646.529 289.248 649.58 286.402 632.389C274.411 559.516 283.313 507.943 275.561 507.046Z" fill="#6B4B9D"/>
<path fill-rule="evenodd" clip-rule="evenodd" d="M-35.9238 309.09V346.024C-35.4488 346.396 -34.8863 346.643 -34.2887 346.742C-30.4128 347.4 -27.9298 341.298 -20.2991 336.651C-13.7586 332.662 -11.1746 336.332 -5.1791 332.024C0.816429 327.717 4.91438 310.087 23.0826 303.286C17.7507 298.481 11.1877 295.212 4.1069 293.833C-17.9574 289.785 -34.6722 307.714 -35.9238 309.09Z" fill="#D81868"/>
<path fill-rule="evenodd" clip-rule="evenodd" d="M-8.38872 252.611C-14.4448 251.235 -18.1794 251.793 -20.8845 253.049C-23.5895 254.306 -24.3566 256.22 -28.1921 258.813C-30.5881 260.417 -33.1789 261.717 -35.9036 262.682C-35.9036 267.614 -35.9036 272.54 -35.9036 277.46C-34.1852 277.506 -32.4975 277.921 -30.9577 278.676C-26.0321 281.129 -27.0617 287.731 -22.883 288.947C-17.0287 290.622 0.210915 285.337 23.9508 303.725C28.4323 279.733 5.49991 255.782 -8.38872 252.611Z" fill="#D81868"/>
<path fill-rule="evenodd" clip-rule="evenodd" d="M23.9305 302.867C37.0319 308.97 45.793 337.748 38.5055 349.255C34.8517 355.039 29.4214 354.799 27.1201 355.876C23.3855 357.631 21.3466 366.466 16.1989 365.23C11.8587 364.153 14.1802 356.335 11.8587 353.403C10.1227 351.27 5.98434 353.244 2.29012 349.774C-2.75662 345.007 1.46245 310.865 23.9305 302.867Z" fill="#D81868"/>
<path fill-rule="evenodd" clip-rule="evenodd" d="M23.3855 302.887C33.2569 293.115 63.9007 279.793 77.7692 288.13C91.6376 296.466 79.0208 305.62 80.2723 308.95C81.5239 312.281 88.7913 327.059 83.038 331.506C77.2847 335.953 73.429 332.623 70.3 333.5C67.171 334.378 64.5669 340.799 58.5512 339.663C52.5355 338.526 33.8625 307.395 23.3855 302.887Z" fill="#D81868"/>
<path fill-rule="evenodd" clip-rule="evenodd" d="M23.3654 302.987C38.9094 291.44 57.0171 270.36 49.9113 253.548C47.5898 248.083 43.8552 245.571 41.6952 242.101C37.6578 235.818 33.2772 230.753 28.8159 232.129C27.1 232.687 26.0907 239.667 22.6185 244.274C20.2162 247.485 15.0282 250.457 14.7859 254.725C13.7766 271.955 28.7149 286.913 23.3654 302.987Z" fill="#D81868"/>
<path fill-rule="evenodd" clip-rule="evenodd" d="M12.5452 295.628C7.8618 303.406 31.3594 312.759 34.6297 305.4C37.7991 298.42 17.3093 287.711 12.5452 295.628Z" fill="#F6D65B"/>
<path d="M-35.863 675.566C-33.5819 675.825 -31.2402 676.124 -28.8783 676.443C-25.709 676.862 -22.6002 677.341 -19.5722 677.82C-19.5722 677.82 -14.263 678.657 0.816669 680.771L2.3105 680.971C8.36659 681.808 46.52 686.954 79.021 698.919C102.155 707.355 132.254 718.364 163.059 745.267C193.562 771.931 208.662 800.789 219.401 821.171C228.963 839.439 236.723 858.573 242.576 878.309C248.043 896.752 251.84 915.64 253.921 934.748L206.179 936.742C205.109 931.078 203.494 923.141 201.132 913.767C200.102 909.639 193.057 880.323 182.62 857.687C177.089 845.861 161.343 811.359 126.238 781.823C94.9283 755.478 63.6587 745.746 32.9745 736.233C10.5495 729.288 -12.5041 724.505 -35.863 721.954V675.566Z" fill="#F6D65B"/>
<path d="M330.51 165.559C329.985 158.991 329.716 152.416 329.703 145.835C329.703 142.544 329.703 139.253 329.864 135.863C329.835 135.571 329.835 135.277 329.864 134.986C330.086 134.208 330.672 134.008 331.419 133.829C332.152 133.699 332.894 133.619 333.639 133.59C335.375 133.41 337.091 133.29 338.827 133.191C342.198 133.011 345.57 133.011 348.921 133.191C350.495 133.191 352.05 133.35 353.604 133.49C355.158 133.629 357.44 133.49 358.368 134.686C358.961 135.733 359.261 136.917 359.236 138.117C359.378 139.832 359.478 141.547 359.579 143.262C359.761 146.473 359.902 149.664 360.003 152.875C360.003 154.51 360.003 156.165 360.104 157.801C360.273 159.309 360.219 160.834 359.943 162.328C359.696 162.962 359.262 163.509 358.697 163.896C358.131 164.284 357.461 164.495 356.773 164.502C355.239 164.701 353.685 164.801 352.151 164.92C348.835 165.259 345.493 165.259 342.178 164.92C340.566 164.914 338.982 164.502 337.576 163.724C336.445 162.747 336.708 160.672 336.667 159.316L336.385 149.464C336.385 147.989 336.284 146.513 336.243 145.037C336.203 143.561 336.243 141.228 338.262 141.048C341.42 140.819 344.591 140.819 347.75 141.048C349.143 141.048 350.98 141.048 351.969 142.145C352.809 143.501 353.288 145.044 353.362 146.632C353.674 148.322 353.897 150.026 354.028 151.738C354.311 153.375 354.311 155.047 354.028 156.684C353.584 158.02 350.495 157.761 349.244 157.781C347.932 157.872 346.616 157.709 345.368 157.302C344.081 156.777 343.031 155.808 342.415 154.575C341.798 153.342 341.657 151.93 342.017 150.601C342.34 149.265 343.511 147.31 345.146 147.41C346.781 147.51 347.871 150.063 348.012 151.518C348.012 152.117 350.031 152.077 350.031 151.518C350.019 150.834 349.866 150.159 349.582 149.534C349.299 148.91 348.89 148.348 348.38 147.884C347.871 147.42 347.272 147.063 346.618 146.834C345.965 146.605 345.272 146.509 344.58 146.553C343.203 146.674 341.93 147.33 341.041 148.377C340.152 149.423 339.719 150.775 339.837 152.137C340.038 159.117 348.477 158.718 353.442 158.299C354.795 158.18 355.865 157.781 356.107 156.305C356.295 154.384 356.241 152.448 355.946 150.541C355.748 148.604 355.438 146.68 355.017 144.778C354.965 144.054 354.757 143.349 354.41 142.71C354.062 142.07 353.581 141.511 352.998 141.068C351.684 140.471 350.246 140.184 348.8 140.231C346.781 140.111 344.641 140.031 342.542 140.031C340.751 139.922 338.955 139.962 337.172 140.151C336.52 140.202 335.903 140.464 335.418 140.897C334.932 141.33 334.605 141.909 334.487 142.544C334.265 144.446 334.265 146.366 334.487 148.268L334.689 154.67C334.689 156.664 334.689 158.658 334.871 160.772C334.783 161.459 334.896 162.156 335.197 162.782C335.497 163.407 335.972 163.935 336.566 164.302C338.154 164.954 339.838 165.351 341.552 165.479C343.561 165.732 345.584 165.851 347.608 165.838C349.627 165.838 351.464 165.698 353.382 165.559C355.176 165.476 356.962 165.283 358.732 164.98C359.371 164.891 359.983 164.667 360.527 164.323C361.07 163.979 361.532 163.523 361.881 162.986C362.487 161.278 362.653 159.448 362.365 157.661C362.365 153.473 362.224 149.285 361.941 145.097C361.84 142.963 361.699 140.829 361.558 138.695C361.601 137.181 361.261 135.679 360.569 134.327C360.173 133.866 359.682 133.493 359.128 133.235C358.574 132.977 357.971 132.84 357.359 132.832C355.34 132.572 353.321 132.413 351.161 132.293C346.959 132.054 342.747 132.054 338.545 132.293C336.385 132.393 334.245 132.572 332.125 132.812C330.974 132.931 328.835 132.812 328.249 134.048C328 134.903 327.911 135.795 327.987 136.681C327.987 137.738 327.987 138.815 327.987 139.892C327.987 142.026 327.987 144.159 327.987 146.313C327.987 150.501 328.115 154.696 328.37 158.897C328.471 161.031 328.633 163.165 328.794 165.279C328.794 165.878 330.813 165.878 330.813 165.279L330.51 165.559Z" fill="#E45726"/>
<path d="M330.349 206.223C329.844 199.542 329.561 192.821 329.561 186.12C329.561 182.829 329.561 179.519 329.743 176.248C329.743 175.191 330.066 174.852 331.217 174.573C331.95 174.442 332.692 174.362 333.437 174.333C335.153 174.154 336.889 174.014 338.605 173.915C341.967 173.748 345.336 173.748 348.698 173.915C350.192 173.915 351.666 174.054 353.16 174.174L355.623 174.393C356.592 174.493 357.762 174.393 358.388 175.291C358.917 176.322 359.18 177.466 359.155 178.621C359.297 180.336 359.397 182.051 359.498 183.787C359.7 186.977 359.842 190.188 359.922 193.379C359.922 195.154 359.922 196.929 360.023 198.684C360.224 200.164 360.128 201.668 359.741 203.111C359.446 203.685 359.004 204.171 358.458 204.522C357.912 204.872 357.282 205.073 356.632 205.106C355.158 205.345 353.644 205.425 352.171 205.545C348.907 205.844 345.623 205.844 342.36 205.545C340.684 205.546 339.026 205.2 337.495 204.527C336.243 203.69 336.546 201.416 336.506 200.1L336.203 190.248C336.203 188.673 336.082 187.117 336.082 185.541C336.082 183.966 336.082 182.071 338.1 181.772C339.565 181.652 341.037 181.652 342.501 181.772C344.177 181.772 345.872 181.772 347.548 181.892C348.84 181.892 351.02 181.692 351.928 182.769C352.74 184.136 353.211 185.674 353.301 187.257C353.607 188.946 353.823 190.65 353.947 192.362C354.028 193.346 354.068 194.323 354.068 195.294C354.16 196.04 354.077 196.798 353.826 197.507C353.24 198.724 350.313 198.425 349.122 198.465C347.829 198.575 346.526 198.474 345.267 198.166C343.908 197.687 342.798 196.697 342.177 195.411C341.557 194.125 341.477 192.649 341.956 191.305C342.116 190.6 342.468 189.95 342.973 189.427C343.478 188.904 344.117 188.526 344.823 188.334C346.841 187.955 347.77 190.527 347.952 192.143C347.952 192.681 349.97 193.12 349.97 192.522C349.899 191.14 349.302 189.836 348.299 188.87C347.296 187.905 345.96 187.35 344.56 187.316C343.878 187.35 343.21 187.522 342.598 187.822C341.986 188.122 341.443 188.543 341.004 189.06C340.564 189.576 340.237 190.177 340.043 190.824C339.849 191.471 339.793 192.151 339.877 192.821C339.944 194.186 340.441 195.497 341.299 196.569C342.157 197.642 343.332 198.423 344.661 198.804C347.487 199.531 350.431 199.694 353.321 199.282C354.855 199.183 355.925 198.804 356.087 197.109C356.185 195.264 356.11 193.415 355.865 191.584C355.684 189.646 355.38 187.721 354.956 185.821C354.893 185.096 354.682 184.392 354.335 183.751C353.988 183.11 353.512 182.545 352.938 182.091C351.699 181.421 350.312 181.065 348.9 181.054C346.882 180.935 344.722 180.855 342.642 180.835C340.794 180.715 338.939 180.715 337.091 180.835C336.406 180.878 335.76 181.167 335.277 181.649C334.793 182.13 334.505 182.77 334.467 183.447C334.305 185.265 334.305 187.094 334.467 188.912L334.648 195.314C334.648 197.308 334.749 199.302 334.83 201.416C334.758 202.109 334.88 202.809 335.183 203.438C335.485 204.068 335.957 204.603 336.546 204.986C338.074 205.707 339.723 206.146 341.411 206.282C343.336 206.567 345.279 206.714 347.225 206.721C351.01 206.805 354.795 206.538 358.529 205.923C359.172 205.867 359.792 205.667 360.345 205.339C360.897 205.01 361.367 204.563 361.719 204.029C362.305 202.186 362.45 200.233 362.143 198.325C362.143 194.336 361.961 190.188 361.739 186.14C361.638 184.006 361.497 181.872 361.335 179.738C361.401 178.213 361.053 176.698 360.326 175.351C359.931 174.874 359.443 174.481 358.892 174.193C358.341 173.906 357.737 173.729 357.116 173.675C355.098 173.376 353.079 173.256 351.06 173.117C346.873 172.854 342.675 172.821 338.484 173.017C336.344 173.117 334.204 173.276 332.064 173.516C330.873 173.635 328.511 173.516 328.027 174.852C327.808 175.8 327.74 176.775 327.825 177.744C327.825 178.821 327.825 179.878 327.825 180.955C327.825 183.089 327.825 185.242 327.825 187.376C327.825 191.445 327.946 195.513 328.188 199.582C328.31 201.709 328.451 203.843 328.612 205.983C328.612 206.522 330.631 206.98 330.53 206.342L330.349 206.223Z" fill="#E45726"/>
<path d="M330.389 245.79C329.884 239.229 329.602 232.647 329.602 226.066C329.602 222.776 329.602 219.485 329.763 216.194C329.763 215.436 329.763 214.459 330.591 214.2C331.401 214.029 332.225 213.929 333.054 213.901C334.689 213.721 336.324 213.582 337.979 213.482C341.35 213.283 344.742 213.243 348.073 213.342C349.708 213.342 351.343 213.502 352.978 213.622L355.199 213.821C356.087 213.821 357.379 213.821 358.065 214.519C358.8 215.535 359.176 216.761 359.135 218.009C359.276 219.704 359.377 221.419 359.478 223.115C359.66 226.385 359.822 229.676 359.902 232.967C359.902 234.442 359.902 235.918 360.003 237.394C360.202 239.068 360.148 240.762 359.842 242.42C358.994 245.232 354.674 244.873 352.332 245.052C349.082 245.351 345.811 245.351 342.562 245.052C340.994 244.97 339.445 244.675 337.959 244.175C336.324 243.477 336.607 241.163 336.566 239.727L336.284 229.875C336.284 228.32 336.183 226.764 336.142 225.209C336.142 224.052 336.021 222.337 337.01 221.519C337.894 221.074 338.898 220.92 339.877 221.08H342.279C343.894 221.08 345.509 221.08 347.104 221.2C348.699 221.32 350.576 221.021 351.646 222.038C352.57 223.341 353.101 224.876 353.18 226.465C353.483 228.16 353.705 229.855 353.846 231.571C354.088 233.231 354.088 234.916 353.846 236.576C353.543 237.773 352.615 237.713 351.605 237.793L349.163 237.932C347.86 238.034 346.548 237.912 345.287 237.573C343.96 237.093 342.864 236.137 342.217 234.896C341.57 233.655 341.42 232.219 341.795 230.873C341.907 230.125 342.233 229.424 342.733 228.852C343.234 228.28 343.888 227.86 344.621 227.642C346.639 227.223 347.649 230.095 347.81 231.63C347.81 232.249 349.829 232.348 349.829 231.89C349.792 230.507 349.202 229.196 348.188 228.242C347.174 227.289 345.818 226.772 344.419 226.804C343.736 226.844 343.068 227.019 342.455 227.32C341.842 227.621 341.296 228.041 340.852 228.555C340.407 229.069 340.071 229.666 339.866 230.311C339.66 230.956 339.588 231.635 339.655 232.308C339.836 239.229 348.012 238.93 352.998 238.61C354.411 238.61 355.623 238.251 355.905 236.616C356.097 234.695 356.036 232.758 355.724 230.853C355.542 229.038 355.259 227.223 354.896 225.428C354.843 224.664 354.638 223.918 354.291 223.234C353.945 222.549 353.464 221.939 352.877 221.439C351.633 220.794 350.245 220.465 348.84 220.482C346.821 220.362 344.661 220.283 342.582 220.263C340.72 220.153 338.852 220.153 336.99 220.263C336.336 220.294 335.712 220.543 335.22 220.971C334.729 221.399 334.399 221.979 334.285 222.616C334.043 224.516 334.043 226.439 334.285 228.34L334.467 234.742C334.467 236.736 334.467 238.73 334.648 240.844C334.568 241.517 334.674 242.199 334.955 242.817C335.236 243.435 335.681 243.966 336.243 244.354C337.772 245.044 339.412 245.463 341.088 245.591C343.093 245.884 345.118 246.024 347.144 246.009C350.902 246.093 354.66 245.826 358.368 245.212C359.018 245.154 359.648 244.956 360.213 244.632C360.778 244.308 361.264 243.866 361.638 243.337C362.244 241.629 362.411 239.799 362.123 238.012C362.123 233.824 361.988 229.636 361.719 225.448C361.598 223.314 361.477 221.18 361.315 219.046C361.375 217.532 361.041 216.029 360.346 214.679C359.976 214.212 359.509 213.83 358.976 213.559C358.443 213.287 357.857 213.131 357.258 213.103C355.239 212.804 353.22 212.684 351.202 212.545C347 212.305 342.787 212.305 338.585 212.545C336.445 212.651 334.305 212.811 332.165 213.023C330.995 213.163 328.653 213.023 328.027 214.24C327.757 215.09 327.667 215.986 327.765 216.872C327.765 217.929 327.765 219.006 327.765 220.063C327.765 222.217 327.765 224.351 327.765 226.485C327.765 230.686 327.886 234.881 328.128 239.069C328.249 241.21 328.39 243.344 328.552 245.471C328.552 246.109 330.571 246.209 330.571 245.73L330.389 245.79Z" fill="#E45726"/>
<path d="M7.90223 635.62C42.8596 640.892 77.0556 650.265 109.766 663.54C142.993 676.882 167.44 686.874 193.804 709.908C224.306 736.572 239.406 765.43 250.146 785.812C259.716 804.075 267.477 823.21 273.32 842.949C278.024 858.904 280.184 873.043 284.665 899.388C287.209 914.485 289.046 927.089 290.257 935.904C282.849 935.426 274.956 935.147 266.659 935.147C258.362 935.147 250.509 935.406 243.181 935.864C243.181 935.864 237.913 903.197 231.877 878.488C226.991 859.701 222.369 842.012 213.365 822.408C207.935 810.581 192.128 776.04 157.023 746.504C127.853 721.954 99.4703 712.6 63.7596 700.914C44.5935 694.719 24.8875 690.292 4.89436 687.691C-8.62061 685.788 -22.2361 684.663 -35.8833 684.321C-35.8833 666.758 -35.8833 649.181 -35.8833 631.591C-21.2274 632.185 -6.61257 633.529 7.90223 635.62Z" fill="#3DAEA3"/>
<path fill-rule="evenodd" clip-rule="evenodd" d="M14.261 205.245C-9.13566 199.701 -22.459 219.644 -22.3177 229.616C-22.1966 237.593 -17.5536 236.616 -16.2616 239.268C-14.9697 241.921 -12.8097 255.123 -8.04555 253.987C-4.00816 253.009 -5.48181 247.585 -2.41339 242.419C0.655027 237.254 3.54177 239.049 5.9642 234.123C8.38664 229.197 4.63185 216.055 14.261 205.245Z" fill="#3DAEA3"/>
<path fill-rule="evenodd" clip-rule="evenodd" d="M-25.3055 182.251C-28.3565 183.078 -31.1385 184.672 -33.3803 186.878C-34.3676 187.884 -35.2223 189.01 -35.9238 190.228C-35.9238 196.411 -35.9238 202.593 -35.7825 208.775C-34.2462 207.907 -32.5057 207.453 -30.7358 207.459C-26.4965 207.459 -25.0229 212.206 -21.5507 211.448C-17.0288 210.55 -7.41984 201.097 15.0886 205.166C9.17384 187.735 -14.8486 179.559 -25.3055 182.251Z" fill="#3DAEA3"/>
<path fill-rule="evenodd" clip-rule="evenodd" d="M14.6448 204.687C25.6063 204.228 41.9779 220.442 41.3319 230.613C41.0089 235.739 37.2945 237.434 36.1641 238.949C34.3069 241.422 36.1641 248.024 32.2882 248.921C28.9977 249.719 27.7259 243.656 25.0814 242.519C23.0627 241.702 21.044 244.514 17.37 243.397C12.2425 242.021 2.53259 217.79 14.6448 204.687Z" fill="#3DAEA3"/>
<path d="M14.2812 204.887C17.2891 194.915 32.8533 175.49 45.1471 176.268C57.441 177.046 52.3942 187.516 54.4331 189.311C56.472 191.106 66.7472 198.465 64.5266 203.411C62.306 208.357 58.4705 207.399 56.7344 209.075C54.9984 210.75 55.5636 215.955 51.1427 217.251C46.7217 218.548 22.9213 204.268 14.2812 204.887Z" fill="#3DAEA3"/>
<path fill-rule="evenodd" clip-rule="evenodd" d="M14.3014 204.946C20.3575 191.844 24.8188 171.561 13.8573 162.786C10.3044 159.954 6.8726 159.496 4.18774 157.98C-0.798441 155.168 -5.58275 153.293 -7.92444 155.806C-8.87323 156.783 -6.99584 161.789 -7.62163 166.057C-8.04556 169.049 -10.4276 172.798 -9.01454 175.729C-3.44294 187.556 11.9799 192.382 14.3014 204.946Z" fill="#3DAEA3"/>
<path fill-rule="evenodd" clip-rule="evenodd" d="M4.38964 203.79C4.12721 210.59 23.2241 208.736 22.6992 202.693C22.2147 196.969 4.67226 196.849 4.38964 203.79Z" fill="#F6D65B"/>
<path d="M65.011 25.4175H108.332" stroke="#EC563D" stroke-miterlimit="10"/>
<path d="M65.011 32.0586H108.332" stroke="#EC563D" stroke-miterlimit="10"/>
<path d="M65.011 38.6997H108.332" stroke="#EC563D" stroke-miterlimit="10"/>
<path d="M64.8699 45.3408H108.191" stroke="#EC563D" stroke-miterlimit="10"/>
<path d="M64.9102 52.002H108.252" stroke="#EC563D" stroke-miterlimit="10"/>
<path d="M64.9504 58.6431H108.292" stroke="#EC563D" stroke-miterlimit="10"/>
<path d="M64.9504 65.2842H108.292" stroke="#EC563D" stroke-miterlimit="10"/>
<path d="M64.9504 71.925H108.292" stroke="#EC563D" stroke-miterlimit="10"/>
<path d="M64.9504 78.5862H108.292" stroke="#EC563D" stroke-miterlimit="10"/>
<path d="M64.8699 85.2273H108.191" stroke="#EC563D" stroke-miterlimit="10"/>
<path d="M67.5749 166.934L66.7876 95.5977" stroke="#EC563D" stroke-miterlimit="10"/>
<path d="M74.1354 166.855L73.3481 95.5181" stroke="#EC563D" stroke-miterlimit="10"/>
<path d="M80.6962 166.795L79.9089 95.4382" stroke="#EC563D" stroke-miterlimit="10"/>
<path d="M87.2772 166.715L86.4697 95.3584" stroke="#EC563D" stroke-miterlimit="10"/>
<path d="M93.838 166.795L93.0305 95.458" stroke="#EC563D" stroke-miterlimit="10"/>
<path d="M100.379 166.635L99.571 95.2986" stroke="#EC563D" stroke-miterlimit="10"/>
<path d="M106.96 166.556L106.152 95.2188" stroke="#EC563D" stroke-miterlimit="10"/>
<path d="M68.0796 17.2607L67.252 -56.23" stroke="#EC563D" stroke-miterlimit="10"/>
<path d="M74.6202 17.2012L73.7925 -56.2896" stroke="#EC563D" stroke-miterlimit="10"/>
<path d="M81.1809 17.1213L80.3533 -56.3694" stroke="#EC563D" stroke-miterlimit="10"/>
<path d="M87.7417 17.0415L86.9141 -56.4492" stroke="#EC563D" stroke-miterlimit="10"/>
<path d="M94.3225 17.1213L93.4949 -56.3694" stroke="#EC563D" stroke-miterlimit="10"/>
<path d="M100.863 16.9817L100.035 -56.509" stroke="#EC563D" stroke-miterlimit="10"/>
<path d="M107.424 16.9018L106.596 -56.5889" stroke="#EC563D" stroke-miterlimit="10"/>
<path d="M13.3931 3.00146H56.7143" stroke="#EC563D" stroke-miterlimit="10"/>
<path d="M13.292 9.64258H56.6132" stroke="#EC563D" stroke-miterlimit="10"/>
<path d="M16.0174 91.3697L15.21 20.0129" stroke="#EC563D" stroke-miterlimit="10"/>
<path d="M22.5782 91.2899L21.7708 19.9331" stroke="#EC563D" stroke-miterlimit="10"/>
<path d="M29.139 91.2104L28.3315 19.8735" stroke="#EC563D" stroke-miterlimit="10"/>
<path d="M35.7804 91.1305L34.9729 19.7937" stroke="#EC563D" stroke-miterlimit="10"/>
<path d="M42.2604 91.2104L41.4529 19.8735" stroke="#EC563D" stroke-miterlimit="10"/>
<path d="M48.8212 91.0706L48.0137 19.7139" stroke="#EC563D" stroke-miterlimit="10"/>
<path d="M55.382 90.991L54.5947 19.6343" stroke="#EC563D" stroke-miterlimit="10"/>
<path d="M119.092 0.48877H162.433" stroke="#EC563D" stroke-miterlimit="10"/>
<path d="M118.991 7.12988H162.332" stroke="#EC563D" stroke-miterlimit="10"/>
<path d="M121.716 88.857L120.909 17.5002" stroke="#EC563D" stroke-miterlimit="10"/>
<path d="M128.277 88.7772L127.49 17.4404" stroke="#EC563D" stroke-miterlimit="10"/>
<path d="M134.838 88.6974L134.051 17.3606" stroke="#EC563D" stroke-miterlimit="10"/>
<path d="M141.399 88.6176L140.611 17.2808" stroke="#EC563D" stroke-miterlimit="10"/>
<path d="M147.979 88.7174L147.172 17.3606" stroke="#EC563D" stroke-miterlimit="10"/>
<path d="M154.54 88.5577L153.733 17.2009" stroke="#EC563D" stroke-miterlimit="10"/>
<path d="M161.101 88.4779L160.293 17.1411" stroke="#EC563D" stroke-miterlimit="10"/>
<path d="M286.301 368.421L292.357 364.332L298.413 367.005L304.065 359.945L309.677 362.298" stroke="#15A74A" stroke-width="1.26" stroke-miterlimit="10"/>
<path d="M314.663 368.421L320.719 364.332L326.775 367.005L332.428 359.945L338.04 362.298" stroke="#15A74A" stroke-width="1.26" stroke-miterlimit="10"/>
<path d="M266.013 340.76L270.05 338.646L274.935 341.238L278.286 337.01L282.808 339.324" stroke="#15A74A" stroke-width="0.89" stroke-miterlimit="10"/>
<path d="M287.633 329.93L291.67 327.816L296.555 330.409L299.927 326.181L304.449 328.495" stroke="#15A74A" stroke-width="0.89" stroke-miterlimit="10"/>
<path d="M260.926 388.623L266.982 384.535L273.038 387.227L278.67 380.147L284.302 382.501" stroke="#15A74A" stroke-width="1.26" stroke-miterlimit="10"/>
<path d="M283.474 358.05L277.842 355.697L272.21 362.777L266.154 360.085L260.098 364.173" stroke="#15A74A" stroke-width="1.26" stroke-miterlimit="10"/>
<path d="M315.087 345.546L309.455 343.292L303.823 350.372L297.767 347.68L291.711 351.768" stroke="#15A74A" stroke-width="1.26" stroke-miterlimit="10"/>
<path d="M274.734 40.7141C273.805 35.13 298.696 29.6257 330.429 7.30922C343.281 -1.74509 355.177 -12.0545 365.938 -23.4631C375.232 -12.1598 385.138 -1.36134 395.613 8.88475C395.613 8.88475 400.216 13.3919 420.564 32.3778L410.955 43.9249C402.639 53.5681 393.494 62.4827 383.622 70.569C372.156 79.5834 355.845 93.7829 331.136 116.837C336.856 93.0118 342.575 69.1664 348.295 45.301C288.663 48.1329 275.38 44.6429 274.734 40.7141Z" fill="#EA9023"/>
<path d="M276.994 40.714C276.994 40.4348 276.994 40.0958 276.994 40.5944C276.994 40.0958 276.873 40.5944 276.994 40.3949C277.116 40.1955 276.994 40.395 277.216 40.0958C277.439 39.7967 277.741 39.5773 278.044 39.338C279.473 38.2905 280.993 37.3696 282.586 36.5858C288.037 33.7339 293.649 31.2211 299.14 28.449C316.671 19.7527 333.103 9.04226 348.093 -3.46013C354.917 -9.21765 361.4 -15.3569 367.513 -21.8478H364.303C376.102 -7.66663 388.784 5.77451 402.275 18.3976C407.833 23.6094 413.391 28.808 418.949 33.9932V30.7823C409.872 42.1061 399.982 52.77 389.355 62.6915C384.591 66.9792 379.524 70.8881 374.598 74.9765C368.542 79.9822 362.648 85.1275 356.793 90.3327C347.608 98.5094 338.625 106.866 329.581 115.262L333.377 117.436C339.11 93.61 344.836 69.7646 350.556 45.8993C350.645 45.566 350.656 45.2167 350.588 44.8786C350.519 44.5404 350.373 44.2223 350.16 43.9487C349.948 43.6751 349.675 43.4534 349.362 43.3006C349.049 43.1478 348.704 43.068 348.355 43.0674C331.802 43.8651 315.188 44.5431 298.615 43.905C292.074 43.6457 284.484 43.7055 278.327 41.1927C278.892 41.4121 277.862 40.9334 277.64 40.8138C277.465 40.7259 277.297 40.6259 277.136 40.5146C276.853 40.3152 277.64 40.8736 277.136 40.5146C276.631 40.1556 277.136 40.6542 276.914 40.2952C276.692 39.9363 276.914 40.8337 276.914 40.1157C276.409 37.2838 272.028 38.4804 272.533 41.3123C273.26 45.1813 279.013 46.2782 282.162 46.8565C292.72 48.8509 303.742 48.6714 314.461 48.5916C325.786 48.5916 337.111 48.093 348.416 47.5546L346.236 44.7027C340.503 68.5547 334.776 92.4002 329.057 116.239C328.945 116.712 328.989 117.208 329.183 117.654C329.377 118.1 329.711 118.473 330.135 118.718C330.56 118.963 331.052 119.068 331.541 119.017C332.03 118.965 332.489 118.761 332.852 118.433C346.983 105.29 361.113 92.2273 375.81 79.8625C380.574 75.8739 385.519 72.1246 390.183 68.0362C397.798 61.4602 404.929 54.3557 411.52 46.7768C415.154 42.5488 418.666 38.2211 422.219 33.9533C422.637 33.5289 422.871 32.96 422.871 32.3678C422.871 31.7756 422.637 31.2068 422.219 30.7823C409.804 19.1953 397.228 7.76787 385.6 -4.59691C379.369 -11.2446 373.36 -18.0652 367.573 -25.0586C367.146 -25.4764 366.569 -25.7107 365.968 -25.7107C365.367 -25.7107 364.791 -25.4764 364.364 -25.0586C351.297 -11.1928 336.534 1.01312 320.417 11.2779C312.497 16.2853 304.317 20.8785 295.91 25.0387C290.419 27.7709 284.787 30.2638 279.417 33.1954C276.793 34.6114 271.968 37.0644 272.412 40.714C272.816 43.546 277.358 43.5659 276.994 40.714Z" fill="#F3F6D9"/>
</g>
</svg>
