<svg width="543" height="871" viewBox="0 0 543 871" fill="none" xmlns="http://www.w3.org/2000/svg">
<mask id="mask0_902_415" style="mask-type:alpha" maskUnits="userSpaceOnUse" x="0" y="0" width="543" height="871">
<rect width="543" height="871" fill="#D9D9D9"/>
</mask>
<g mask="url(#mask0_902_415)">
<path d="M100.659 968.114C86.0432 944.94 102.152 936.205 90.5651 844.466C86.8103 814.93 82.995 799.015 79.4219 773.348C76.4746 752.229 75.3845 741.639 75.3845 737.57C75.5258 717.268 80.2294 658.914 77.9079 649.042C77.6973 648.183 77.4137 647.342 77.06 646.53C74.8596 641.743 70.4185 640.048 67.774 638.173C61.2738 633.606 60.3452 624.333 60.1635 622.219C58.8312 608.797 70.6002 599.105 71.9931 597.988C77.0949 594.113 83.1372 591.631 89.5154 590.788C112.246 586.54 127.871 563.446 139.195 551.221C181.729 505.591 268.675 502.161 269.684 505.112C269.987 505.99 262.962 507.446 262.982 510.437C262.982 519.073 321.524 521.625 359.354 522.124C370.074 522.283 388.08 522.124 391.472 513.788C394.238 507.027 386.385 497.015 385.315 497.494C383.458 498.292 388.545 537.081 413.879 562.609C420.965 569.748 439.921 579.241 473.613 604.17C484.938 612.546 487.077 614.142 488.349 615.338L489.096 616.136C493.699 621.281 515.238 652.513 502.278 679.835C498.69 686.924 493.692 693.225 487.582 698.362C482.717 702.351 480.355 702.849 478.276 704.644C467.294 714.157 481.102 745.727 489.54 769.34C516.227 844.107 511.746 845.383 525.049 866.224C546.972 900.526 561.244 900.247 561.184 913.768C561.002 954.971 428.535 990.39 325.541 1001.52C244.995 1010.23 134.754 1022.16 100.659 968.114Z" fill="#9AD093"/>
<path d="M377.119 525.036C376.493 514.127 382.105 499.109 392.441 493.725C395.61 492.109 410.751 485.468 415.777 482.078C416.681 481.46 417.55 480.794 418.381 480.084C420.169 478.45 421.773 476.632 423.166 474.659C423.166 474.659 423.852 473.802 428.374 468.955C434.975 461.915 449.086 454.895 449.086 454.895C463.721 447.616 473.31 442.71 487.562 439.978C506.558 436.288 510.878 440.496 529.854 435.211C537.525 433.078 543.076 431.562 549.778 427.513C566.998 417.103 567.099 404.978 580.503 402.206C587.266 400.809 593.544 402.604 599.014 397.718C601.055 395.724 602.888 393.533 604.485 391.177C606.504 388.245 607.432 385.812 609.693 382.123C611.463 379.275 613.391 376.525 615.467 373.886C620.029 367.903 641.245 352.467 673.302 337.191C673.969 357.433 674.251 374.465 674.392 387.248C674.695 416.983 674.393 443.548 674.11 461.158C673.928 472.485 674.009 471.229 674.11 551.221C674.11 581.834 674.11 626.128 674.11 681.33C674.11 691.123 674.11 699.06 674.11 704.245C674.11 727.698 674.453 737.55 674.271 757.075C674.271 762.559 674.271 763.516 674.15 766.348C674.15 766.348 674.15 769.579 674.15 772.112C674.15 779.71 682.225 797.041 680.751 813.893C680.43 816.516 679.958 819.12 679.338 821.691C678.389 826.597 674.978 845.283 676.815 890.734C677.966 919.472 679.52 916.481 678.49 925.256C676.149 945.498 679.984 950.484 678.208 957.544C674.774 969.205 668.086 979.676 658.909 987.758C637.087 1006.28 604.949 994.319 554.785 988.177C481.143 979.142 482.435 996.154 434.168 984.986C407.925 979.003 340.359 963.188 326.369 913.409C322.614 900.048 318.516 866.264 369.145 809.246C383.599 802.23 396.257 792.07 406.168 779.531C427.486 752.029 417.776 733.661 436.913 716.59C458.089 697.784 480.376 711.026 498.544 688.49C505.077 680.044 509.254 670.052 510.656 659.513C511.762 650.466 510.604 641.29 507.285 632.789C501.733 619.247 491.519 611.848 481.223 604.589C468.203 595.415 465.175 597.031 441.334 584.347C430.035 578.681 419.284 572.005 409.217 564.403C390.665 550.024 378.007 540.053 377.119 525.036Z" fill="#06BCC5"/>
<path d="M671.647 349.974C671.647 343.991 671.647 339.245 671.647 336.014C671.647 328.535 671.647 325.743 671.647 321.136C671.647 316.111 671.445 312.042 671.324 309.43L604.707 312.501C580.321 311.883 553.775 310.187 525.473 306.857C500.562 303.925 477.307 300.096 455.909 295.788C421.859 288.055 388.71 276.86 356.993 262.384C309.161 240.507 265.064 211.414 226.282 176.149C214.409 187.41 200.733 196.656 185.807 203.511C182.678 204.907 181.427 206.882 163.158 212.924C147.533 218.09 141.134 217.292 135.078 224.89C119.836 243.797 144.343 268.765 149.027 338.467C149.43 344.45 149.713 350.592 149.713 350.592C150.258 364.014 149.935 373.308 149.875 377.715C149.592 398.556 153.67 399.653 154.518 423.245C154.893 436.351 154.326 449.467 152.822 462.494C151.712 472.884 150.056 483.095 150.803 498.391C151.086 504.693 151.591 508.363 151.873 511.255C154.841 543.164 135.724 572.082 138.974 573.976C142.224 575.871 154.538 548.229 182.921 527.768C194.629 519.312 220.852 500.386 249.013 505.571C273.237 510.038 271.925 527.409 301.277 537.221C337.835 549.466 374.374 534.05 375.565 525.095C375.808 521.253 376.253 517.425 376.897 513.628C377.301 511.462 378.022 509.366 379.037 507.406C381.924 502.059 385.971 497.408 390.887 493.784C393.318 491.815 396.041 490.228 398.962 489.078C403.685 487.323 406.33 488.32 410.044 486.106C411.942 484.97 412.507 484.012 415.151 480.961C419.142 475.906 423.722 471.334 428.798 467.34C430.675 465.964 436.025 462.254 438.124 460.519C438.286 460.4 439.214 459.622 440.506 458.625L442.141 457.388C451.641 450.35 462.19 444.813 473.411 440.975C474.299 440.676 475.107 440.436 475.874 440.217C497.656 434.035 509.445 439.06 528.36 434.852C541.421 431.941 559.609 424.203 579.009 401.846L644.193 373.826" fill="#F2B95E"/>
<path d="M4.84841 71.2742C4.81384 65.6061 30.0825 64.0218 65.1237 47.1018C79.2628 40.265 92.6859 32.067 105.198 22.6271C108.103 27.8656 112.125 35.03 117.018 43.5524C122.349 52.8334 125.005 57.4844 127.118 60.8623C132.609 69.657 137.162 76.0387 141.55 83.6856L145.525 90.6924C150.426 86.4775 135.798 98.9989 130.704 102.983C123.459 108.634 115.736 113.659 107.62 118.003C96.9807 124.016 79.442 134.752 48.5505 155.397C57.9786 132.757 67.3933 110.117 76.7946 87.4785C17.4077 80.8666 4.86674 75.2461 4.84841 71.2742Z" fill="#EA3150"/>
<path d="M7.10707 71.1717C7.11339 71.3112 7.12241 71.5104 7.10707 71.1717C7.5186 70.8462 7.95049 70.5466 8.40013 70.2747C10.009 69.4373 11.6976 68.7589 13.4411 68.2495C19.4134 66.262 25.401 64.6132 31.3777 62.7253C50.0097 56.9061 67.9041 48.988 84.7074 39.1271C92.23 34.6529 99.4971 29.7716 106.475 24.5055L103.334 23.8494C110.177 36.1763 117.022 48.543 124.338 60.6089C130.714 71.1003 137.56 81.2511 143.661 91.9147C143.854 92.1979 144.11 92.4342 144.409 92.6061C144.708 92.778 145.042 92.8811 145.387 92.9077C145.732 92.9343 146.079 92.8837 146.401 92.7596C146.724 92.6356 147.014 92.4413 147.25 92.1912L148.243 91.3676C150.189 89.7024 147.307 86.3193 145.321 87.9665C134.334 97.0288 123.736 106.193 111.315 113.464C100.131 119.96 89.0888 126.449 78.2092 133.411C67.8386 140.009 57.5769 146.783 47.3784 153.613L50.6396 156.46C60.0409 133.821 69.4489 111.182 78.8636 88.5425C79.3548 87.3424 78.9473 85.4843 77.3626 85.2965C60.8913 83.4676 44.3733 81.5011 28.1203 78.2449C21.4528 76.93 14.2628 75.6787 8.47567 72.3874C7.74909 71.9611 8.47568 72.3874 7.82886 71.9376L7.3882 71.5782C7.13627 71.37 6.72421 70.7499 7.17569 71.3483C6.78922 70.8467 7.18923 71.6471 7.16847 71.1889C7.08987 70.6334 6.80435 70.127 6.36769 69.7688C5.93103 69.4105 5.37463 69.2263 4.80733 69.252C4.24003 69.2777 3.70261 69.5115 3.30013 69.9078C2.89766 70.304 2.65908 70.8341 2.63106 71.3945C2.81794 75.5185 8.26042 77.4479 11.4641 78.5804C21.4455 82.1209 32.2642 83.627 42.7079 85.3297C53.9005 87.0585 65.0768 88.4286 76.3889 89.6728L74.8888 86.4468L46.5026 154.352C45.7055 156.384 47.7269 158.628 49.7472 157.279C65.281 146.893 80.9202 136.602 96.8688 126.895C109.357 119.322 122.311 112.646 133.693 103.386C136.715 100.954 139.693 98.4429 142.672 95.9522L146.409 92.8083L147.499 91.8805L147.674 91.7328L144.892 88.3054L143.898 89.129L147.488 89.4255C141.368 78.7827 134.422 68.6365 128.167 58.1396C120.83 46.0746 114.005 33.687 107.141 21.361C106.815 20.8656 106.304 20.5182 105.719 20.395C105.133 20.2719 104.522 20.3829 104.02 20.7039C88.9368 32.0837 72.5317 41.6405 55.1541 49.1705C46.382 52.9165 37.4186 56.208 28.3004 59.0317C22.4236 60.8951 16.3316 62.4688 10.5857 64.5459C7.38494 65.7091 2.62838 67.322 2.56785 71.3375C2.45767 74.2572 7.01434 74.0307 7.10707 71.1717Z" fill="#F3F6D9"/>
<path d="M92.572 193.385C91.3915 187.849 116.007 181.223 146.698 157.493C159.127 147.866 170.544 137.029 180.778 125.145C190.574 136.016 200.959 146.355 211.887 156.116C211.887 156.116 216.689 160.41 237.876 178.456L228.799 190.426C220.928 200.436 212.196 209.755 202.7 218.28C191.654 227.804 176.002 242.728 152.363 266.877C156.998 242.817 161.632 218.737 166.266 194.637C106.823 200.166 93.3952 197.28 92.572 193.385Z" fill="#EA9023"/>
<path d="M95.2727 192.157C95.2727 191.878 95.2727 191.539 95.2727 192.037C95.2727 191.539 95.1516 192.037 95.2727 191.838C95.3939 191.638 95.2727 191.838 95.4948 191.539C95.7168 191.24 96.0196 191.02 96.3224 190.781C97.7517 189.733 99.2716 188.812 100.864 188.029C106.315 185.177 111.927 182.664 117.418 179.892C134.95 171.196 151.381 160.485 166.371 147.983C173.195 142.225 179.679 136.086 185.791 129.595H182.581C194.38 143.776 207.062 157.217 220.553 169.84C226.111 175.052 231.669 180.251 237.227 185.436V182.225C228.15 193.549 218.26 204.213 207.633 214.134C202.869 218.422 197.802 222.331 192.877 226.419C186.821 231.425 180.926 236.57 175.072 241.776C165.887 249.952 156.904 258.309 147.86 266.705L151.655 268.878C157.388 245.053 163.114 221.208 168.834 197.342C168.924 197.009 168.935 196.66 168.866 196.321C168.798 195.983 168.651 195.665 168.439 195.392C168.226 195.118 167.953 194.896 167.64 194.743C167.327 194.591 166.983 194.511 166.634 194.51C150.08 195.308 133.466 195.986 116.893 195.348C110.352 195.089 102.762 195.148 96.605 192.636C97.1703 192.855 96.1408 192.376 95.9187 192.257C95.7436 192.169 95.5749 192.069 95.414 191.957C95.1314 191.758 95.9187 192.316 95.414 191.957C94.9094 191.598 95.414 192.097 95.192 191.738C94.9699 191.379 95.192 192.277 95.192 191.559C94.6873 188.727 90.3067 189.923 90.8114 192.755C91.5381 196.624 97.2914 197.721 100.441 198.299C110.998 200.294 122.02 200.114 132.74 200.034C144.065 200.034 155.389 199.536 166.694 198.997L164.514 196.146C158.781 219.998 153.055 243.843 147.335 267.682C147.223 268.155 147.268 268.651 147.462 269.097C147.656 269.543 147.989 269.916 148.414 270.161C148.838 270.406 149.331 270.511 149.819 270.46C150.308 270.408 150.768 270.204 151.13 269.876C165.261 256.733 179.392 243.67 194.088 231.305C198.852 227.317 203.798 223.567 208.461 219.479C216.076 212.903 223.207 205.799 229.799 198.22C233.432 193.992 236.945 189.664 240.498 185.396C240.916 184.972 241.15 184.403 241.15 183.811C241.15 183.218 240.916 182.65 240.498 182.225C228.083 170.638 215.506 159.211 203.879 146.846C197.648 140.198 191.639 133.378 185.852 126.384C185.424 125.967 184.848 125.732 184.247 125.732C183.646 125.732 183.069 125.967 182.642 126.384C169.575 140.25 154.813 152.456 138.695 162.721C130.775 167.728 122.595 172.321 114.188 176.482C108.697 179.214 103.065 181.707 97.6952 184.638C95.0709 186.054 90.2462 188.507 90.6903 192.157C91.094 194.989 95.6361 195.009 95.2727 192.157Z" fill="#F3F6D9"/>
<path d="M327.923 785.035L354.55 786.451C355.294 786.561 356.054 786.447 356.732 786.123C357.409 785.799 357.971 785.281 358.345 784.636C358.442 784.343 358.469 784.032 358.424 783.727C358.378 783.422 358.262 783.132 358.084 782.878C357.906 782.625 357.671 782.416 357.398 782.268C357.124 782.12 356.82 782.036 356.508 782.024L329.881 780.608C329.137 780.497 328.377 780.611 327.7 780.935C327.023 781.259 326.46 781.777 326.086 782.422C325.989 782.715 325.962 783.027 326.008 783.331C326.053 783.636 326.169 783.927 326.347 784.18C326.525 784.433 326.76 784.642 327.034 784.79C327.307 784.939 327.612 785.022 327.923 785.035Z" fill="#72C170"/>
<path d="M326.45 800.331L352.915 800.79C353.647 800.856 354.383 800.739 355.057 800.449C355.731 800.16 356.32 799.708 356.771 799.135C357.417 797.958 356.205 797.141 355.115 797.141L328.65 796.682C327.919 796.616 327.182 796.733 326.508 797.023C325.834 797.312 325.245 797.764 324.794 798.337C324.148 799.514 325.36 800.331 326.45 800.331Z" fill="#72C170"/>
<path d="M373.405 788.186H384.811C385.53 788.217 386.248 788.096 386.916 787.831C387.584 787.566 388.188 787.163 388.686 786.65C389.474 785.553 388 785.095 387.132 785.095H375.726C375.007 785.064 374.289 785.185 373.621 785.45C372.953 785.714 372.349 786.117 371.85 786.63C371.063 787.727 372.537 788.186 373.405 788.186Z" fill="#72C170"/>
<path d="M283.512 748.28L329.942 748.001C331.113 748.001 333.233 747.602 333.818 746.425C334.404 745.249 333.334 744.75 332.244 744.77L285.713 745.049C284.542 745.049 282.422 745.448 281.837 746.625C281.251 747.801 282.321 748.28 283.411 748.28H283.512Z" fill="#72C170"/>
<path d="M387.293 775.901L422.6 775.741" stroke="#72C170" stroke-miterlimit="10"/>
<path d="M281.796 743.473C280.02 738.268 277.86 731.268 281.09 726.183C284.32 721.097 291.587 723.151 296.755 722.812C302.629 722.413 308.241 720.459 311.633 715.493C313.651 712.522 315.367 709.41 317.527 706.539C319.687 703.667 322.311 699.399 325.986 699.16C334.945 698.909 343.798 701.118 351.562 705.542C352.816 705.88 354.152 705.752 355.317 705.182C355.58 705.083 357.921 704.086 357.073 703.607C349.529 699.482 341.104 697.179 332.486 696.886C328.621 696.608 324.743 697.222 321.161 698.681C317.831 700.468 314.99 703.028 312.884 706.14C310.26 709.45 308.241 713.06 305.879 716.53C304.941 718.13 303.533 719.409 301.842 720.2C300.295 720.598 298.692 720.74 297.098 720.619C290.658 720.619 283.411 720.16 277.981 724.288C271.38 729.294 273.6 738.388 275.861 745.029C276.285 746.285 282.099 744.59 281.715 743.473H281.796Z" fill="#C9E099"/>
<path d="M256.381 741.898C255.109 734.818 253.696 727.1 255.977 720.08C258.258 713.06 264.294 708.951 268.19 703.228C270.231 700.279 271.905 697.099 273.177 693.755C274.327 690.703 274.61 687.094 278.445 686.615C285.248 685.758 291.991 688.33 298.632 685.917C305.274 683.504 307.171 677.102 311.754 672.416C316.882 667.643 323.554 664.817 330.588 664.438C339.067 663.66 347.586 665.136 355.943 666.433C363.848 667.39 371.693 668.781 379.441 670.601C382.514 671.148 385.302 672.726 387.334 675.068C389.252 677.84 388.424 681.55 388.505 684.701C388.666 691.401 391.997 697.384 396.095 702.649C397.71 704.644 403.302 702.41 401.465 700.117C397.589 695.251 394.319 689.607 394.419 683.245C394.419 680.054 394.884 676.564 393.289 673.632C391.802 671.214 389.555 669.344 386.89 668.307C383.935 667.073 380.836 666.209 377.664 665.735C373.082 664.897 368.479 664.119 363.897 663.361C355 661.587 345.975 660.513 336.907 660.15C329.004 659.885 321.168 661.665 314.176 665.316C311.015 667.049 308.186 669.317 305.819 672.017C303.538 674.689 302.145 678 299.642 680.552C297.138 683.105 293.202 683.125 289.649 682.886C285.981 682.427 282.275 682.327 278.587 682.587C276.884 682.687 275.226 683.157 273.729 683.964C272.232 684.771 270.933 685.894 269.926 687.253C267.908 690.285 267.342 694.174 265.707 697.424C263.688 701.281 261.14 704.844 258.137 708.014C255.172 710.908 252.728 714.28 250.91 717.986C247.519 726.083 248.892 735.137 250.507 743.493C250.971 746.106 256.845 744.65 256.341 741.938L256.381 741.898Z" fill="#C9E099"/>
<path d="M217.198 729.174C216.225 723.868 216.879 718.396 219.075 713.459C221.061 708.523 222.187 703.29 222.406 697.983C222.914 691.991 224.63 686.16 227.453 680.832C228.684 678.519 230.037 676.265 231.49 674.031C232.129 672.852 232.85 671.72 233.65 670.641C234.74 669.385 236.174 669.664 237.688 669.444C242.27 668.841 246.608 667.045 250.258 664.242C253.907 661.439 256.738 657.728 258.46 653.49C259.196 651.327 259.664 649.083 259.853 646.809C260.135 644.475 260.337 641.444 262.316 639.829C263.85 638.572 266.353 638.951 268.21 639.071C270.805 639.34 273.414 639.46 276.023 639.43C287.206 638.832 296.835 631.692 308.12 631.871C313.712 631.971 319.263 632.948 324.855 632.829C330.535 632.696 336.077 631.064 340.904 628.102C345.805 625.135 351.492 623.684 357.235 623.934C363.2 624.225 369.071 625.52 374.596 627.763C385.517 631.971 395.509 638.353 405.401 644.456C411.336 648.105 417.21 651.894 422.762 656.102C427.122 659.413 433.885 664.08 432.29 670.422C431.563 673.293 429.464 675.667 428.252 678.399C427.11 681.25 426.607 684.312 426.779 687.373C426.779 690.684 427.707 696.567 425.002 699.22C424.074 700.117 424.417 701.094 425.608 701.453C426.321 701.585 427.055 701.554 427.755 701.364C428.454 701.174 429.101 700.83 429.645 700.356C432.149 697.923 432.472 694.513 432.572 691.182C432.455 688.083 432.529 684.979 432.795 681.889C433.466 679.041 434.656 676.338 436.307 673.912C437.701 671.778 438.333 669.245 438.103 666.715C437.872 664.186 436.793 661.805 435.035 659.951C431.2 655.464 425.729 651.974 420.904 648.664C410.397 641.376 399.419 634.774 388.04 628.9C377.341 623.495 365.572 619.566 353.399 620.683C347.336 621.384 341.512 623.429 336.361 626.666C330.649 629.917 324.572 629.498 318.193 628.96C312.15 628.165 306.019 628.32 300.025 629.418C294.231 630.735 288.841 633.407 283.128 634.903C280.354 635.719 277.462 636.076 274.569 635.96C272.046 635.82 269.522 635.461 266.999 635.521C262.154 635.621 257.047 637.376 255.008 642.062C254.192 644.426 253.703 646.888 253.555 649.382C253.257 651.919 252.469 654.377 251.233 656.621C248.82 661.042 244.734 664.341 239.868 665.795C236.82 666.592 233.61 666.154 230.784 667.789C227.957 669.424 226.746 672.197 225.293 674.63C221.549 680.217 218.817 686.405 217.218 692.917C215.845 699.738 216.451 706.878 213.483 713.319C210.974 718.809 210.193 724.916 211.243 730.849C211.606 732.983 217.48 731.587 217.097 729.294L217.198 729.174Z" fill="#C9E099"/>
<path d="M188.492 735.636C181.305 731.647 176.602 723.969 178.399 715.693C179.468 710.687 183.264 707.237 187.079 704.125C191.594 700.822 195.57 696.853 198.868 692.359C200.466 690.053 201.56 687.443 202.081 684.696C202.602 681.95 202.539 679.126 201.896 676.404C200.463 670.421 196.87 665.356 194.346 659.852C191.823 654.347 189.925 647.886 193.196 642.421C196.042 637.635 201.755 635.521 206.842 633.945C212.333 632.23 217.985 630.675 222.749 627.324C226.673 624.302 230.218 620.827 233.307 616.974C236.577 613.264 240.15 609.156 244.975 607.401C250.426 605.407 256.623 606.523 262.275 606.623C267.934 606.979 273.584 605.815 278.627 603.253C281.047 601.601 283.647 600.223 286.379 599.144C289.584 598.394 292.901 598.219 296.169 598.626C302.77 599.248 309.421 599.121 315.993 598.247C320.151 597.609 324.27 596.791 328.428 596.253C347.323 593.78 366.783 595.355 385.678 597.15C386.412 597.245 387.157 597.139 387.833 596.843C388.51 596.548 389.091 596.074 389.514 595.475C390.099 594.199 388.989 593.481 387.818 593.361C369.266 591.606 350.25 590.15 331.658 592.164C321.827 593.221 312.319 595.874 302.346 595.156C295.988 594.677 289.528 594.019 283.431 596.313C280.709 597.567 278.079 599.006 275.558 600.62C272.65 602.118 269.411 602.879 266.131 602.834C260.075 602.974 254.019 601.996 247.963 602.993C242.658 603.927 237.745 606.374 233.832 610.033C229.976 613.524 226.888 617.732 223.234 621.401C218.845 625.569 213.42 628.52 207.508 629.957C197.273 633.088 184.899 638.333 185.585 650.937C186.271 663.541 200.099 674.171 195.679 687.214C191.641 699.499 175.492 703.168 172.524 715.872C170.283 725.265 175.673 734.22 183.869 738.767C185.888 739.844 191.096 737.151 188.431 735.656L188.492 735.636Z" fill="#C9E099"/>
<path d="M135.864 733.083C132.392 725.452 130.841 717.104 131.343 708.752C131.563 703.871 132.887 699.101 135.219 694.792C137.399 691.262 141.275 689.547 144.504 687.114C147.713 684.689 149.962 681.232 150.863 677.342C151.052 676.224 151.477 675.158 152.11 674.214C152.743 673.269 153.57 672.466 154.537 671.857C156.388 670.831 158.115 669.6 159.685 668.188C166.145 661.766 165.842 652.014 164.974 643.698C164.126 638.352 164.126 632.909 164.974 627.564C165.916 623.389 167.612 619.417 169.98 615.837C174.825 608.279 181.79 602.156 188.653 596.432C192.691 593.082 196.446 589.672 202.037 589.891C207.515 590.411 212.947 591.331 218.288 592.643L235.366 595.894C239.646 596.712 244.672 597.888 248.043 594.159C250.668 591.267 251.031 586.62 252.707 583.15C254.258 579.321 257.114 576.147 260.781 574.176C265.223 572.181 270.491 573.398 275.175 572.82C279.661 572.103 283.875 570.224 287.388 567.375C291.849 564.224 296.734 563.666 302.023 562.848C307.696 561.97 313.368 561.133 319.061 560.455C330.328 558.977 341.693 558.363 353.056 558.62C374.527 559.357 395.637 564.284 415.171 573.119C416.208 573.423 417.171 573.934 418.001 574.62C418.831 575.306 419.51 576.153 419.996 577.107C420.456 579.199 421.056 581.257 421.793 583.27C423.89 586.472 427.019 588.882 430.675 590.11C434.954 591.965 439.396 593.381 443.635 595.375C456.851 601.59 468.734 610.257 478.639 620.903C482.051 624.612 485.26 628.88 485.482 634.025C485.664 638.732 484.15 643.399 485.018 648.105C485.442 650.399 486.795 652.333 487.34 654.567C487.806 656.808 487.41 659.14 486.229 661.108C485.18 663.102 483.706 664.698 482.555 666.553C479.506 671.812 476.958 677.34 474.945 683.066C473.249 687.533 471.715 692.06 470.221 696.607C469.777 697.983 471.998 698.442 472.906 698.382C473.613 698.366 474.298 698.141 474.874 697.735C475.45 697.33 475.89 696.763 476.136 696.108C478.684 687.855 481.807 679.785 485.482 671.957C486.487 669.856 487.634 667.824 488.914 665.875C490.62 663.719 491.981 661.318 492.952 658.755C493.516 656.895 493.578 654.922 493.133 653.031C492.447 650.299 490.872 648.045 490.65 645.173C490.247 640.108 492.023 635.202 490.953 630.077C489.883 624.951 486.653 621.302 483.383 617.792C480.084 614.3 476.579 611.003 472.886 607.92C465.15 601.509 456.599 596.125 447.45 591.905C443.211 589.911 438.79 588.435 434.47 586.62C430.15 584.805 427.364 582.492 426.395 577.925C426.182 576.009 425.387 574.201 424.114 572.74C422.373 571.247 420.368 570.084 418.199 569.31C413.13 567.058 407.949 565.062 402.676 563.327C392.347 559.885 381.706 557.434 370.901 556.007C347.787 552.996 324.572 555.489 301.68 559.079C296.371 559.916 290.921 560.495 286.237 563.307C284.441 564.384 282.805 565.7 281.069 566.837C278.885 568.256 276.336 569.031 273.721 569.07C268.695 569.329 263.729 568.871 258.944 570.805C255.154 572.419 251.921 575.087 249.638 578.483C247.339 582.014 245.59 585.866 244.45 589.911C244.168 590.768 243.784 592.364 242.896 592.723C242.008 593.082 240.191 592.444 239.363 592.284L230.561 590.629L212.958 587.278C207.548 586.241 201.977 585.105 196.546 586.66C191.722 588.056 187.906 591.387 184.172 594.518C180.437 597.649 177.268 600.501 174.078 603.612C167.8 609.834 162.188 617.034 159.665 625.549C156.617 635.86 160.775 646.111 159.342 656.481C158.756 660.729 157.162 665.216 153.467 667.769C151.534 668.834 149.714 670.09 148.037 671.518C146.568 673.241 145.555 675.297 145.09 677.501C144.677 679.568 143.762 681.505 142.425 683.145C140.898 684.632 139.189 685.925 137.338 686.994C133.672 689.136 130.697 692.262 128.759 696.009C124.933 705.115 124.225 715.206 126.74 724.747C127.541 728.114 128.642 731.404 130.03 734.579C131.08 737.052 136.874 735.377 135.864 733.043V733.083Z" fill="#C9E099"/>
<path d="M438.185 744.191C448.278 745.547 454.637 754.163 460.713 761.382C467.538 769.574 475.488 776.783 484.332 782.801C486.23 784.078 488.188 785.274 490.126 786.471C489.015 785.793 490.126 786.471 490.368 786.67L491.922 787.847C493.941 789.303 495.96 790.699 497.978 792.095C518.064 805.955 538.352 819.437 558.539 833.198C579.978 847.823 601.336 862.567 622.613 877.432C625.802 879.665 628.83 874.48 625.681 872.266C592.978 849.465 560.114 826.909 527.088 804.599C519.013 799.095 510.757 793.63 502.642 788.086C500.401 786.531 498.16 784.995 495.94 783.399L494.809 782.562L494.304 782.183C494.163 782.083 494.971 782.702 494.304 782.183C493.19 781.335 492.024 780.556 490.812 779.85C481.422 773.966 473.017 766.672 465.901 758.231C458.856 749.935 451.448 739.943 439.658 738.288C438.886 738.106 438.072 738.221 437.383 738.61C436.693 738.999 436.178 739.633 435.944 740.382C435.729 741.136 435.819 741.942 436.196 742.631C436.573 743.32 437.207 743.836 437.963 744.072L438.185 744.191Z" fill="#55C3BA"/>
<path d="M488.995 442.331C502.823 451.106 515.339 461.716 528.238 471.707C541.696 482.104 555.235 492.328 568.855 502.38C582.474 512.431 596.08 522.403 609.673 532.295C619.484 539.454 629.193 546.793 639.408 553.395C647.856 558.769 656.766 563.401 666.035 567.235C669.567 568.731 672.656 563.585 669.083 562.07C660.457 558.494 652.14 554.232 644.213 549.326C635.128 543.662 626.529 537.221 617.97 530.919C590.677 510.975 563.283 491.032 536.475 470.411C521.859 459.143 507.729 447.017 492.063 437.086C488.773 435.091 485.745 440.177 489.015 442.251L488.995 442.331Z" fill="#55C3BA"/>
<path d="M451.75 456.69C466.056 468.789 479.918 481.38 493.335 494.463C506.8 507.585 519.579 521.386 533.245 534.349C571.9 570.671 617.087 599.532 666.479 619.447C670.092 620.902 671.647 615.119 668.094 613.683C636.909 601.007 607.369 584.698 580.099 565.101C566.463 555.304 553.439 544.702 541.098 533.352C527.613 520.947 515.137 507.426 502.117 494.642C487.313 480.017 471.978 465.984 456.111 452.542C453.163 450.049 448.864 454.257 451.831 456.77L451.75 456.69Z" fill="#55C3BA"/>
<path d="M415.555 489.277C443.964 519.397 474.013 547.965 505.569 574.853C538.01 602.495 572.186 628.002 606.645 653.131C626.334 667.49 646.037 681.815 665.753 696.108C668.902 698.402 671.93 693.216 668.821 690.943C634.059 665.675 599.055 640.706 564.838 614.72C531.551 589.54 499.606 562.674 469.132 534.229C452.201 518.275 435.769 501.881 419.835 485.049C417.17 482.237 412.891 486.465 415.555 489.277Z" fill="#55C3BA"/>
<path d="M379.481 525.614C389.978 531.298 397.326 540.791 405.522 549.127C414.849 558.62 425.528 566.657 436.065 574.734C458.15 591.686 480.113 608.777 502.339 625.529C534.638 649.82 567.866 672.575 600.468 696.348C621.26 711.504 641.649 727.186 661.634 743.394C664.642 745.807 668.942 741.599 665.914 739.166C634.483 713.738 601.921 689.886 568.895 666.513C549.879 653.071 531.038 639.41 512.372 625.529C490.53 609.315 469.131 592.523 447.551 575.971C435.601 566.797 423.327 557.922 412.426 547.432C402.797 538.098 394.682 526.97 382.63 520.449C379.198 518.594 376.15 523.759 379.562 525.614H379.481Z" fill="#55C3BA"/>
<path d="M503.207 676.045C543.782 711.013 586.889 743.007 632.181 771.773C643.823 779.165 655.612 786.344 667.549 793.311C668.242 793.713 669.069 793.827 669.847 793.627C670.625 793.426 671.291 792.929 671.697 792.244C672.104 791.559 672.219 790.743 672.017 789.974C671.814 789.206 671.311 788.548 670.617 788.146C626.066 762.151 583.432 733.074 543.036 701.134C530.924 691.601 519.074 681.809 507.486 671.757C504.559 669.225 500.26 673.453 503.207 675.985V676.045Z" fill="#55C3BA"/>
<path d="M471.837 708.313C498.08 731.667 524.121 755.439 551.313 777.795C568.871 791.972 587.414 804.913 606.807 816.525C624.733 827.494 643.143 837.705 661.755 847.417C665.207 849.212 668.256 844.047 664.804 842.252C635.603 827.35 607.398 810.616 580.362 792.155C562.953 779.668 546.24 766.26 530.298 751.989C512.13 736.174 494.224 720.08 476.217 704.125C473.33 701.553 469.031 705.781 471.937 708.353L471.837 708.313Z" fill="#55C3BA"/>
<path d="M409.176 779.79C432.613 798.377 457.282 815.369 482.192 831.961C494.749 840.318 507.285 848.754 520.043 856.811C532.397 864.608 545.64 871.13 557.55 879.586C569.764 888.493 580.792 898.885 590.374 910.518C592.877 913.469 597.137 909.221 594.654 906.29C586.189 896.217 576.721 887.01 566.392 878.808C555.027 869.774 542.047 863.252 529.672 855.734C516.752 847.756 504.237 839.38 491.62 831.024C479.003 822.668 466.669 814.391 454.355 805.816C440.446 796.104 426.739 786.092 413.456 775.562C410.448 773.169 406.148 777.377 409.176 779.79Z" fill="#55C3BA"/>
<path d="M381.863 806.654C426.198 845.899 473.476 881.773 523.293 913.968C537.504 923.142 551.905 932.01 566.493 940.572C567.184 940.938 567.992 941.024 568.747 940.813C569.501 940.603 570.143 940.111 570.538 939.442C570.933 938.772 571.05 937.978 570.864 937.225C570.678 936.473 570.204 935.821 569.541 935.407C518.533 905.497 469.904 871.796 424.074 834.594C411.195 824.144 398.558 813.421 386.163 802.426C383.256 799.853 378.956 804.081 381.863 806.654Z" fill="#55C3BA"/>
<path d="M344.861 834.614C371.871 856.911 404.231 872.785 428.132 898.712C430.756 901.563 435.036 897.335 432.411 894.483C408.49 868.557 376.171 852.603 349.14 830.386C346.173 827.933 341.873 832.141 344.861 834.614Z" fill="#55C3BA"/>
<path d="M153.306 368.262C155.674 363.732 158.458 359.426 161.623 355.399C164.44 351.494 168.249 348.392 172.666 346.404C180.74 343.493 189.158 350.712 194.75 355.558C200.665 360.704 206.862 366.687 215.038 367.524C220.527 367.79 225.996 366.693 230.945 364.333C237.143 361.8 243.259 359.108 249.416 356.496L267.585 348.738C273.641 346.145 280.181 343.293 287.005 343.951C295.402 344.769 302.286 350.333 308.241 355.798C314.196 361.262 320.03 367.764 327.378 371.632C330.794 373.435 334.541 374.541 338.397 374.883C342.254 375.226 346.141 374.799 349.826 373.627C357.901 371.254 364.825 366.407 371.588 361.661C377.281 357.672 384.124 351.689 391.472 351.33C400.536 350.792 406.976 357.912 412.386 364.074C415.35 367.768 418.806 371.048 422.661 373.826C427.342 376.544 432.604 378.136 438.023 378.473C443.615 379.091 449.388 379.809 454.758 377.755C460.128 375.701 462.994 371.353 466.87 367.783C475.149 360.238 485.61 355.44 496.787 354.063C503.792 353.384 506.255 359.687 509.949 364.313C512.938 368.41 516.796 371.813 521.254 374.285C530.802 379.051 541.683 375.84 550.424 370.875C559.165 365.909 567.361 357.453 577.939 356.416C580.405 356.123 582.906 356.445 585.212 357.355C587.519 358.264 589.557 359.731 591.141 361.621C594.351 365.49 596.047 370.316 600.266 373.387C606.483 377.915 615.043 378.214 622.472 377.376C628.576 376.751 634.57 375.33 640.297 373.148C645.269 371.197 649.933 368.551 654.145 365.291C655.215 364.473 653.196 364.373 652.772 364.413C651.363 364.487 650.004 364.958 648.856 365.769C642.94 370.261 636.015 373.277 628.669 374.564C621.28 375.92 612.701 376.08 606.241 371.712C601.84 368.741 600.185 363.855 596.895 359.886C595.495 358.194 593.759 356.804 591.794 355.803C589.828 354.801 587.675 354.209 585.469 354.063C575.819 353.165 565.867 357.493 558.075 362.758C549.132 368.741 538.857 377.835 527.431 372.61C522.714 370.207 518.64 366.735 515.541 362.479C512.473 358.49 510.111 353.025 504.741 351.929C499.775 350.892 493.8 352.487 489.015 353.763C483.755 355.182 478.675 357.189 473.875 359.746C469.085 362.291 464.642 365.427 460.653 369.08C458.796 370.815 457.12 372.729 455.263 374.464C454.117 375.741 452.537 376.557 450.822 376.758C449.108 376.81 447.393 376.724 445.694 376.499C439.638 375.98 433.582 375.242 428.374 371.991C424.576 369.341 421.178 366.171 418.28 362.578C412.527 356.057 406.511 349.575 397.225 348.977C380.47 347.9 368.277 362.259 354.833 369.519C351.524 371.476 347.748 372.529 343.891 372.567C340.035 372.606 336.238 371.629 332.89 369.738C325.622 365.749 319.95 359.607 313.974 354.102C307.999 348.598 301.64 343.552 293.646 342.136C281.534 339.863 269.563 345.906 258.743 350.513L240.575 358.251L231.47 362.14C228.327 363.819 224.911 364.946 221.377 365.47C212.979 365.889 206.055 358.729 200.261 353.704C194.104 348.359 187.402 343.313 178.802 343.632C169.072 344.011 161.159 349.735 155.386 357.094C152.42 360.961 149.793 365.071 147.533 369.379C147.028 370.296 149.552 369.937 149.854 369.897C150.844 369.738 152.761 369.339 153.286 368.342L153.306 368.262Z" fill="#FDEC1A"/>
<path d="M156.173 427.952C160.95 422.616 166.76 418.279 173.261 415.196C179.761 412.114 186.821 410.348 194.023 410.003C210.556 409.265 224.647 417.821 239.323 423.964C254.39 430.747 271.335 432.301 287.408 428.371C295.303 426.036 302.902 422.818 310.058 418.778C316.639 415.388 323.28 413.035 330.588 415.548C342.175 419.536 349.947 430.146 360.868 435.251C372.981 440.915 385.093 436.947 396.054 430.704C406.572 424.721 417.352 416.525 430.069 420.733C441.677 424.602 450.256 434.274 462.086 437.844C467.75 439.615 473.887 439.165 479.225 436.588C482.627 434.661 485.826 432.403 488.773 429.847C491.652 427.606 494.773 425.687 498.079 424.123C504.606 421.145 511.668 419.48 518.853 419.227C526.038 418.973 533.202 420.136 539.927 422.647C543.261 423.923 546.454 425.534 549.455 427.454C551.272 428.61 556.601 426.058 554.058 424.442C541.493 416.735 526.493 413.873 511.927 416.405C504.565 417.606 497.481 420.106 491.014 423.784C487.814 425.717 484.771 427.891 481.909 430.286C479.371 432.653 476.255 434.329 472.866 435.152C467.274 436.049 461.702 433.157 457.059 430.425C451.488 427.174 446.279 423.325 440.567 420.334C435.188 417.271 429.07 415.706 422.863 415.807C416.36 416.351 410.065 418.341 404.452 421.63C394.056 427.194 382.509 437.126 369.852 433.816C357.517 430.585 349.382 419.317 338.219 413.872C332.395 410.902 325.703 410.042 319.303 411.439C311.229 413.234 304.325 418.16 296.815 421.411C288.971 424.86 280.504 426.711 271.92 426.855C263.336 426.999 254.81 425.432 246.852 422.248C231.632 416.265 217.541 407.191 200.725 406.414C185.817 405.766 171.155 410.335 159.322 419.317C156.465 421.522 153.816 423.978 151.409 426.656C149.047 429.268 154.699 429.548 156.173 427.912V427.952Z" fill="#FDEC1A"/>
<path d="M145.292 309.37C157.404 303.287 170.001 297.982 183.869 300.934C195.154 303.327 205.368 309.21 216.047 313.378C226.141 317.267 237.062 319.74 247.539 316.011C253.736 313.817 258.743 309.47 264.758 306.937C270.214 304.953 276.178 304.792 281.736 306.478C293.606 309.43 304.547 315.831 317.063 315.911C330.346 315.911 341.994 308.333 355.055 307.455C368.116 306.578 380.288 315.074 393.632 314.994C406.208 314.994 416.585 307.017 428.656 304.903C436.59 303.566 443.231 306.897 450.337 309.868C457.401 312.796 464.902 314.561 472.543 315.094C488.531 316.27 504.398 313.099 519.942 309.968C521.173 309.709 522.687 308.472 522.304 307.096C521.92 305.72 520.023 305.541 518.811 305.78C504.68 308.712 490.004 311.763 475.409 310.766C468.493 310.402 461.679 308.954 455.222 306.478C448.884 303.965 442.767 300.595 435.803 300.156C423.246 299.378 412.688 306.817 400.94 309.669C387.636 312.9 375.767 304.903 362.867 303.247C349.443 301.532 337.674 308.253 324.875 310.766C312.077 313.279 300.368 307.096 288.337 303.387C282.793 301.442 276.908 300.628 271.037 300.994C264.435 301.652 259.046 304.723 253.494 308.093C248.869 311.237 243.471 313.09 237.869 313.458C232.429 313.398 227.048 312.336 222.002 310.327C209.89 305.96 198.545 299.239 185.787 296.546C170.405 293.276 156.112 298.999 142.587 305.76C139.054 307.535 142.203 310.886 145.231 309.37H145.292Z" fill="#FDEC1A"/>
<path d="M136.794 257.378C142.015 252.799 148.503 249.867 155.423 248.957C162.344 248.048 169.382 249.202 175.633 252.272C182.033 255.344 187.867 259.691 194.771 261.666C201.267 263.289 208.102 262.998 214.433 260.828C221.114 258.834 227.292 255.683 233.792 253.25C240.196 250.648 247.285 250.186 253.979 251.933C266.898 255.324 278.708 263.899 292.617 262.224C300.853 261.267 307.676 257.019 314.661 252.99C321.646 248.962 329.862 246.15 336.402 252.153C337.553 253.21 342.862 251.036 341.893 250.158C336.745 245.432 329.195 245.671 322.776 247.287C315.287 249.161 309.21 253.708 302.448 257.258C299.075 259.161 295.249 260.139 291.365 260.09C287.723 259.863 284.133 259.117 280.706 257.876C273.782 255.563 267.262 252.212 260.237 250.158C253.342 248.091 246.007 247.918 239.02 249.66C231.874 251.395 225.293 254.725 218.49 257.398C211.263 260.23 204.359 261.486 196.89 258.594C189.764 255.822 183.688 250.956 176.421 248.463C161.381 243.258 143.193 247.406 131.444 257.856C130.435 258.754 132.332 258.893 132.857 258.874C134.273 258.829 135.638 258.34 136.753 257.477L136.794 257.378Z" fill="#FDEC1A"/>
<path d="M327.076 298.979L314.418 293.894C313.694 293.675 312.922 293.661 312.19 293.855C311.458 294.049 310.796 294.443 310.28 294.991C310.074 295.204 309.927 295.465 309.853 295.751C309.779 296.036 309.78 296.335 309.857 296.62C309.934 296.904 310.084 297.165 310.293 297.375C310.501 297.586 310.761 297.74 311.047 297.823L323.704 302.888C324.427 303.13 325.205 303.155 325.942 302.96C326.679 302.765 327.34 302.358 327.843 301.791C328.05 301.581 328.198 301.32 328.272 301.036C328.347 300.752 328.345 300.454 328.268 300.17C328.19 299.887 328.04 299.628 327.831 299.419C327.622 299.21 327.362 299.059 327.076 298.979Z" fill="#FDEC1A"/>
<path d="M355.479 317.227H356.751C357.155 317.222 357.554 317.134 357.922 316.968C358.296 316.854 358.645 316.671 358.951 316.43C359.229 316.231 359.457 315.972 359.617 315.672C359.812 315.426 359.925 315.126 359.94 314.814V314.236C359.831 313.848 359.588 313.509 359.254 313.279L358.689 312.98C358.233 312.805 357.742 312.737 357.255 312.78H355.984C355.573 312.785 355.168 312.874 354.793 313.039C354.427 313.159 354.085 313.341 353.783 313.578C353.499 313.77 353.27 314.031 353.117 314.336C352.925 314.585 352.806 314.882 352.774 315.193V315.772C352.877 316.163 353.121 316.503 353.46 316.729L354.026 317.028C354.481 317.203 354.972 317.271 355.459 317.227H355.479Z" fill="#FDEC1A"/>
<path d="M392.259 302.21H394.843C395.254 302.188 395.657 302.094 396.034 301.931C396.4 301.812 396.742 301.629 397.044 301.393C397.335 301.203 397.571 300.942 397.73 300.635C397.919 300.386 398.031 300.088 398.053 299.777V299.199C397.944 298.811 397.701 298.472 397.367 298.242L396.781 297.942C396.326 297.766 395.835 297.698 395.348 297.743H392.804C392.401 297.76 392.005 297.848 391.633 298.002C391.268 298.122 390.926 298.304 390.624 298.541C390.333 298.73 390.096 298.992 389.938 299.299C389.752 299.549 389.64 299.846 389.615 300.156V300.734C389.724 301.123 389.967 301.461 390.301 301.692L390.887 302.011C391.347 302.168 391.834 302.235 392.32 302.21H392.259Z" fill="#FDEC1A"/>
<path d="M529.107 354.581C529.264 354.874 529.314 355.213 529.248 355.538V355.299C529.165 355.644 528.991 355.96 528.743 356.216L529.006 355.957C528.873 356.081 528.732 356.194 528.582 356.296L529.006 356.017L528.784 356.157L529.349 355.877H529.167L529.833 355.618H529.712L530.479 355.379L531.266 355.199H531.125L531.852 355.1H531.711H532.336H532.114H532.599H532.276L532.619 355.199C532.518 355.177 532.422 355.136 532.336 355.08C532.152 355 531.952 354.959 531.751 354.96C531.463 354.92 531.171 354.92 530.883 354.96C530.508 354.996 530.136 355.062 529.773 355.159C529.375 355.235 528.983 355.342 528.602 355.478L527.916 355.738C527.567 355.877 527.241 356.065 526.947 356.296C526.765 356.456 526.462 356.755 526.805 356.954C527.036 357.085 527.289 357.172 527.552 357.214H528.016C528.366 357.234 528.717 357.234 529.066 357.214C529.841 357.133 530.606 356.972 531.347 356.735C532.046 356.539 532.723 356.272 533.366 355.937C533.883 355.668 534.337 355.294 534.698 354.84C534.896 354.61 535.034 354.337 535.102 354.043C535.253 353.658 535.253 353.231 535.102 352.846C535.073 352.784 535.028 352.731 534.971 352.692C534.914 352.654 534.848 352.631 534.779 352.627C534.561 352.568 534.331 352.568 534.113 352.627C533.784 352.596 533.453 352.596 533.124 352.627C532.735 352.678 532.35 352.758 531.973 352.866L531.206 353.085C530.785 353.241 530.374 353.42 529.975 353.624L529.551 353.903C529.464 353.956 529.391 354.03 529.338 354.116C529.286 354.203 529.255 354.301 529.248 354.402L529.107 354.581Z" fill="#FDEC1A"/>
<path d="M493.416 375.462L493.215 375.581L493.881 375.222L493.598 375.342L494.365 375.083H494.083L494.87 374.923H495.536C495.349 374.891 495.166 374.838 494.991 374.764L495.536 374.983C495.266 374.876 495.014 374.728 494.789 374.544L495.173 374.863C494.88 374.636 494.64 374.351 494.466 374.026L494.688 374.444C494.534 374.161 494.444 373.848 494.426 373.527V373.986C494.386 373.808 494.386 373.625 494.426 373.447C494.459 373.206 494.415 372.961 494.299 372.746C494.183 372.531 494.001 372.358 493.78 372.251C493.516 372.096 493.218 372.007 492.912 371.991C492.551 371.932 492.183 371.932 491.822 371.991C491.036 372.072 490.281 372.339 489.621 372.769C489.113 373.073 488.733 373.547 488.551 374.105C488.491 374.442 488.491 374.786 488.551 375.123C488.565 375.305 488.599 375.486 488.652 375.661C488.768 375.969 488.917 376.263 489.097 376.538C489.194 376.714 489.317 376.875 489.46 377.017C489.848 377.415 490.306 377.739 490.812 377.974C491.158 378.13 491.516 378.257 491.882 378.353C492.273 378.445 492.672 378.499 493.073 378.513C493.416 378.533 493.76 378.533 494.103 378.513C494.458 378.475 494.809 378.409 495.153 378.313C495.866 378.121 496.546 377.826 497.171 377.436C497.69 377.144 498.073 376.665 498.241 376.1C498.276 375.861 498.235 375.617 498.123 375.402C498.011 375.188 497.833 375.013 497.615 374.903C496.99 374.6 496.283 374.502 495.597 374.624C494.809 374.681 494.05 374.943 493.396 375.382L493.416 375.462Z" fill="#FDEC1A"/>
<path d="M417.473 433.536C418.081 437.395 419.904 440.968 422.681 443.747C422.924 443.986 423.913 443.867 424.155 443.847C424.927 443.764 425.686 443.59 426.416 443.328C426.84 443.169 428.859 442.511 428.213 441.852L427.647 441.254L427.809 441.414C425.416 438.768 423.858 435.489 423.327 431.981C423.327 431.681 422.459 431.681 422.318 431.681C421.6 431.697 420.888 431.804 420.198 432C419.493 432.167 418.813 432.429 418.18 432.778C417.937 432.918 417.413 433.177 417.473 433.536Z" fill="#FDEC1A"/>
<path d="M374.333 408.428V412.177C374.361 412.255 374.41 412.323 374.474 412.376C374.537 412.428 374.615 412.463 374.697 412.476C374.907 412.589 375.144 412.644 375.383 412.636C376.106 412.67 376.83 412.583 377.523 412.377C378.239 412.212 378.922 411.929 379.542 411.539L379.945 411.22C380.038 411.156 380.111 411.068 380.157 410.966C380.203 410.865 380.221 410.752 380.208 410.641V406.872C380.182 406.797 380.136 406.73 380.076 406.678C380.016 406.625 379.943 406.589 379.865 406.573C379.65 406.471 379.416 406.417 379.178 406.413C378.448 406.397 377.72 406.491 377.018 406.693C376.304 406.852 375.621 407.128 375 407.51L374.596 407.829C374.504 407.9 374.43 407.99 374.381 408.095C374.332 408.199 374.308 408.313 374.313 408.428H374.333Z" fill="#FDEC1A"/>
<path d="M447.612 416.066L448.864 421.092C448.965 421.471 449.631 421.55 449.914 421.59C450.643 421.624 451.373 421.536 452.074 421.331C452.793 421.178 453.478 420.894 454.092 420.493C454.375 420.274 454.859 419.955 454.758 419.536L453.487 414.53C453.487 414.131 452.72 414.052 452.437 414.032C451.715 413.981 450.989 414.062 450.297 414.271C449.577 414.433 448.893 414.723 448.278 415.129C447.996 415.328 447.511 415.667 447.632 416.066H447.612Z" fill="#FDEC1A"/>
<path d="M164.853 496.975C177.672 483.175 192.469 467.978 212.333 465.525C222.042 464.452 231.808 466.99 239.726 472.645C247.559 477.85 254.483 484.351 262.8 488.858C271.117 493.366 280.968 495.918 290.295 492.847C299.318 489.876 305.778 482.876 314.075 478.588C318.112 476.593 322.876 474.958 327.378 476.234C331.537 477.411 334.504 480.782 337.371 483.793C342.66 489.317 348.251 493.047 356.185 493.086C364.118 493.126 371.648 489.995 379.037 487.622C385.819 485.448 393.773 483.035 400.415 486.904C401.065 487.274 401.812 487.444 402.56 487.391C403.309 487.337 404.024 487.064 404.613 486.605C405.542 485.867 406.188 484.192 404.896 483.414C391.452 475.596 376.634 484.93 363.23 487.861C360.017 488.674 356.666 488.803 353.399 488.24C349.641 487.25 346.272 485.165 343.73 482.257C341.085 479.16 338.06 476.4 334.726 474.041C330.677 471.664 325.897 470.808 321.261 471.628C311.168 473.223 304.042 480.103 295.806 485.309C291.889 488.027 287.265 489.578 282.482 489.776C277.366 489.608 272.364 488.241 267.887 485.787C258.864 481.22 251.596 474.001 243.138 468.596C235.21 463.231 225.752 460.512 216.148 460.838C192.529 461.955 174.946 478.987 159.907 495.18C159.701 495.41 159.555 495.686 159.483 495.985C159.412 496.283 159.416 496.594 159.496 496.891C159.576 497.187 159.729 497.46 159.942 497.683C160.155 497.907 160.42 498.075 160.715 498.172C161.437 498.414 162.216 498.439 162.952 498.244C163.689 498.048 164.35 497.642 164.853 497.075V496.975Z" fill="#FDEC1A"/>
<path d="M313.954 495.619H316.477C316.859 495.623 317.239 495.576 317.608 495.48C318.008 495.413 318.401 495.306 318.779 495.161C319.112 495.042 319.425 494.874 319.707 494.662C319.956 494.517 320.181 494.336 320.373 494.124L320.575 493.745C320.615 493.627 320.62 493.499 320.587 493.379C320.555 493.258 320.488 493.15 320.394 493.067L320.03 492.847C319.653 492.726 319.256 492.672 318.859 492.688H316.316C315.934 492.684 315.554 492.731 315.185 492.827C314.789 492.882 314.402 492.989 314.035 493.146C313.693 493.26 313.373 493.429 313.086 493.645C312.84 493.785 312.621 493.967 312.44 494.183L312.218 494.562C312.178 494.681 312.174 494.808 312.206 494.928C312.238 495.049 312.306 495.157 312.4 495.24L312.783 495.46C313.16 495.584 313.557 495.638 313.954 495.619Z" fill="#FDEC1A"/>
<path d="M414.243 468.476L415.535 465.984C415.535 465.844 415.535 465.744 415.535 465.665C415.491 465.595 415.427 465.541 415.351 465.509C415.276 465.477 415.192 465.469 415.111 465.485C414.843 465.445 414.571 465.445 414.304 465.485C413.957 465.485 413.611 465.526 413.274 465.605C412.491 465.739 411.726 465.96 410.993 466.263L410.448 466.542C410.184 466.663 409.954 466.849 409.782 467.081L408.49 469.573C408.389 469.713 408.49 469.813 408.49 469.893C408.533 469.962 408.597 470.016 408.673 470.048C408.749 470.08 408.833 470.088 408.914 470.072C409.181 470.112 409.453 470.112 409.721 470.072C410.067 470.061 410.412 470.021 410.751 469.952C411.52 469.808 412.272 469.581 412.991 469.274L413.536 468.995C413.801 468.874 414.03 468.688 414.203 468.457L414.243 468.476Z" fill="#FDEC1A"/>
<path d="M146.322 322.373C182.231 324.477 218.229 324.676 254.16 322.971C265.627 322.393 277.133 322.592 288.62 322.851C307.494 323.27 326.369 324.028 345.244 324.846C380.854 326.222 416.443 327.857 451.993 330.49C476.035 332.265 500.058 333.521 524.181 333.72C565.809 334.002 607.417 331.884 648.795 327.378C655.026 326.7 661.257 325.982 667.488 325.225C668.276 325.125 670.819 324.507 670.88 323.45C670.94 322.393 669.225 322.433 668.437 322.532C625.186 327.928 581.644 330.738 538.05 330.948C512.796 330.948 487.582 330.071 462.429 328.236C430.251 325.856 398.053 324.001 365.835 322.672C344.86 321.834 323.866 320.977 302.872 320.358C289.811 319.96 276.75 319.621 263.709 319.92C252.202 320.179 240.756 321.037 229.27 321.176C206.903 321.475 184.495 321.176 162.148 320.219C158.111 320.039 154.073 319.84 150.036 319.621C148.569 319.453 147.091 319.837 145.898 320.697C145.171 321.395 144.989 322.293 146.342 322.373H146.322Z" fill="#FDEC1A"/>
<path d="M153.003 388.245L331.375 390.578L509.727 392.892L609.491 394.188C612.903 394.188 613.932 389.88 609.976 389.821L431.624 387.507L253.252 385.174L153.488 383.877C150.096 383.877 149.047 388.205 153.003 388.245Z" fill="#FDEC1A"/>
<path d="M153.044 447.157C190.242 448.208 227.453 449.171 264.678 450.049C301.902 450.926 339.235 451.718 376.675 452.422C397.616 452.821 418.556 453.193 439.497 453.539C440.956 453.59 442.398 453.208 443.635 452.442C444.402 451.844 444.564 451.325 443.312 451.285C406.128 450.687 368.943 450.022 331.759 449.291C294.575 448.56 257.215 447.689 219.681 446.679C198.727 446.147 177.766 445.582 156.799 444.983C155.34 444.94 153.901 445.321 152.66 446.08C151.873 446.699 151.732 447.197 152.983 447.237L153.044 447.157Z" fill="#FDEC1A"/>
<path d="M154.618 506.428C181.703 504.006 208.902 503.047 236.093 503.557C262.013 504.155 287.913 505.85 313.772 507.406C334.43 508.642 355.068 509.972 375.686 511.394C377.078 511.463 378.465 511.189 379.723 510.597C380.066 510.437 381.742 509.38 380.49 509.3C343.831 506.767 307.171 504.414 270.471 502.599C254.524 501.802 238.596 501.163 222.628 501.283C200.786 501.416 178.971 502.426 157.182 504.314C156.193 504.414 153.851 504.733 153.145 505.651C152.438 506.568 153.67 506.468 154.477 506.408L154.618 506.428Z" fill="#FDEC1A"/>
<path d="M136.611 277.201C174.825 279.654 213.019 282.805 251.253 285.059C285.692 287.053 320.131 287.053 354.59 287.532C378.68 287.878 402.75 288.316 426.799 288.848C427.869 288.848 430.11 288.429 430.675 287.372C431.24 286.315 430.15 286.056 429.181 286.036C392.845 285.238 356.347 284.58 319.909 284.341C283.472 284.102 247.519 281.808 211.344 279.236C187.658 277.534 163.972 275.938 140.286 274.449C138.852 274.311 137.416 274.693 136.248 275.526C135.481 276.224 135.4 277.122 136.712 277.201H136.611Z" fill="#FDEC1A"/>
<path d="M345.345 479.345C343.956 474.336 343.504 469.119 344.012 463.949C344.065 463.046 344.241 462.153 344.537 461.297C344.998 460.206 345.624 459.19 346.394 458.285L352.208 450.627C352.454 450.222 352.821 449.902 353.258 449.71C353.828 449.602 354.418 449.686 354.934 449.949C359.951 451.871 365.416 452.355 370.7 451.345C371.28 451.281 371.832 451.06 372.294 450.707C372.623 450.347 372.876 449.927 373.041 449.471C373.658 447.729 374.673 446.153 376.009 444.864C376.685 444.23 377.523 443.789 378.433 443.589C379.344 443.388 380.292 443.436 381.177 443.727C382.611 444.546 383.775 445.758 384.528 447.217C386.487 450.211 388.76 452.991 391.31 455.513C388.424 458.884 390.059 463.929 390.402 468.317C390.462 468.665 390.427 469.023 390.301 469.354C390.081 469.727 389.759 470.031 389.372 470.231C382.892 474.419 378.31 480.881 373.909 487.183C369.206 485.189 368.862 478.348 364.785 475.217C362.304 473.769 359.446 473.075 356.569 473.223C355.22 473.072 353.855 473.146 352.531 473.442C349.2 474.36 347.283 477.67 345.688 480.702" fill="#EC563C"/>
<path d="M199.736 417.043C202.018 419.596 204.541 418.379 208.336 421.451C210.818 423.558 212.634 426.328 213.565 429.428C214.995 426.397 217.108 423.73 219.742 421.63C222.406 421.111 224.243 424.342 224.344 427.015C224.445 429.687 223.84 432.659 225.354 434.852C226.141 435.969 227.372 436.727 228.099 437.864C228.947 439.463 229.291 441.275 229.088 443.069L228.866 455.454C228.685 456.989 228.988 458.542 229.734 459.901C230.552 460.879 231.57 461.674 232.722 462.234C236.375 464.583 239.219 467.973 240.878 471.955C242.536 475.937 242.93 480.323 242.008 484.531C246.288 480.303 250.561 476.062 254.827 471.807C255.702 471.091 256.365 470.153 256.744 469.095C257.451 466.343 254.282 463.63 255.069 460.898C256.018 457.667 260.984 457.986 263.285 455.533C266.717 451.884 262.033 445.841 263.588 441.115C264.981 436.907 270.371 435.83 273.944 433.137C276.204 431.331 277.75 428.797 278.311 425.979C278.871 423.161 278.412 420.238 277.012 417.721C276.776 417.282 276.428 416.911 276.003 416.644C273.984 415.587 272.309 419.416 269.947 419.257C269.248 419.137 268.598 418.826 268.069 418.359L259.328 411.938C254.726 408.567 249.558 403.482 251.516 398.157L268.029 407.63C268.996 408.363 270.1 408.899 271.279 409.207C272.457 409.515 273.685 409.589 274.893 409.425C277.153 408.767 278.506 406.553 279.737 404.579C282.523 400.071 287.388 395.325 292.395 397.16C295.382 398.257 296.917 402.165 297.885 404.878C299.339 408.966 298.431 410.581 299.702 414.251C300.772 417.243 302.592 419.919 304.991 422.029C304.635 417.372 305.934 412.738 308.665 408.926C309.937 407.251 313.187 402.943 317.043 403.561C318.413 403.901 319.67 404.59 320.686 405.559C321.703 406.529 322.444 407.745 322.837 409.086C323.6 411.776 323.873 414.578 323.644 417.362L323.442 426.935C323.308 428.29 323.502 429.657 324.007 430.924C324.523 431.839 325.208 432.65 326.026 433.317L334.969 441.294C336.059 438.023 335.595 434.473 335.716 431.023C335.837 427.573 336.705 423.784 339.592 421.809C341.51 420.513 344.558 419.317 343.952 417.083C343.548 415.607 341.711 415.089 340.5 414.191C339.596 413.354 338.973 412.262 338.717 411.063C338.461 409.865 338.583 408.618 339.067 407.49C340.057 405.224 341.515 403.186 343.346 401.507C352.027 392.546 360.701 383.578 369.368 374.604C367.641 370.525 364.57 367.142 360.653 365.002C356.736 362.863 352.203 362.093 347.788 362.818C347.477 362.459 347.245 362.041 347.106 361.589C346.968 361.137 346.926 360.662 346.982 360.193C347.039 359.725 347.194 359.273 347.437 358.866C347.68 358.46 348.005 358.107 348.393 357.832C350.023 356.771 351.933 356.209 353.884 356.216C359.294 355.698 365.593 355.518 369.145 359.567C370.175 360.743 371.346 362.379 372.86 361.92C373.511 361.651 374.051 361.173 374.394 360.564C376.604 357.484 378.395 354.132 379.723 350.592C377.976 347.221 375.347 344.372 372.11 342.342C368.873 340.311 365.145 339.173 361.313 339.045C357.276 339.045 353.4 340.022 349.423 340.282C345.446 340.541 341.065 339.863 338.3 337.011C337.66 336.173 336.898 335.434 336.039 334.817C334.952 334.33 333.754 334.137 332.567 334.259L272.995 335.037C271.436 334.943 269.875 335.203 268.433 335.794C267.277 336.511 266.207 337.354 265.243 338.307C258.158 343.911 247.519 338.946 238.738 341.159C232.863 342.635 228.382 347.142 224.223 351.49L208.922 367.444C212.847 371.593 216.419 376.056 219.6 380.786C219.911 379.183 220.591 377.671 221.589 376.369C222.586 375.067 223.874 374.009 225.352 373.278C226.829 372.547 228.458 372.163 230.111 372.154C231.764 372.145 233.396 372.513 234.882 373.228C239.222 375.681 241.624 382.581 247.559 382.821C249.134 382.821 250.466 382.402 250.789 382.98C251.355 384.037 248.448 387.886 244.592 388.963C242.795 389.462 241.301 388.963 240.373 390.379C239.747 391.257 239.727 392.573 238.818 393.191C237.446 394.148 235.73 392.672 234.478 391.556C229.936 387.567 223.113 387.348 216.976 387.447C215.103 387.291 213.228 387.731 211.627 388.704C209.891 390.06 209.891 391.536 208.235 393.63C206.216 396.083 204.42 396.242 202.563 397.618C197.334 401.687 195.719 412.536 199.736 417.043Z" fill="#EC563C"/>
<path d="M612.741 385.194C602.083 388.624 586.155 390.359 578.222 398.895C573.478 404 570.147 409.385 564.414 413.553C559.045 417.345 553.141 420.335 546.892 422.428C523.656 430.405 498.685 427.733 475.107 434.174C452.558 440.337 431.18 458.086 417.049 476.235C406.572 489.876 387.879 516.819 398.396 534.469C403.685 543.363 417.11 548.768 426.961 545.019C434.511 542.167 439.073 534.349 442.908 527.708C453.931 508.164 449.207 486.625 424.74 481.599C401.121 476.753 384.366 491.571 375.201 511.375C371.386 519.571 369.589 528.486 372.416 537.301C376.352 549.526 389.251 559.438 399.103 567.016C411.111 575.99 423.868 583.942 437.236 590.788C450.58 597.848 464.811 603.751 476.701 613.185C486.896 621.282 495.677 631.592 500.159 643.857C505.771 659.233 505.629 680.433 490.59 690.105C487.078 692.359 485.422 701.653 483.646 702.789C515.057 682.587 518.872 636.698 494.749 609.974C479.729 593.341 458.412 585.304 439.093 574.774C419.774 564.244 397.669 551.221 384.346 533.013C379.097 525.853 375.322 512.91 380.632 504.833C386.93 495.28 403.766 492.748 414.122 494.124C424.478 495.5 435.036 500.107 439.416 510.238C444.241 521.326 441.435 533.372 427.465 533.372C423.175 533.25 418.977 532.114 415.223 530.06C411.468 528.006 408.267 525.093 405.886 521.566C396.418 506.11 410.286 487.183 421.046 476.614C437.614 460.18 458.65 448.846 481.607 443.986C492.407 441.494 504.055 442.112 515.097 440.696C525.624 439.582 535.928 436.948 545.68 432.878C554.688 428.945 562.623 422.958 568.835 415.408C571.991 410.866 576.478 407.386 581.694 405.436C589.264 402.385 597.319 400.63 605.111 398.117C606.948 397.519 608.643 393.55 609.552 392.015C610.469 389.674 611.513 387.383 612.681 385.154L612.741 385.194Z" fill="#EE253E"/>
<path d="M392.824 596.432C396.519 599.304 392.138 595.694 425.689 617.851C445.331 630.814 462.167 642.162 475.47 651.216C443.171 658.396 415.212 663.681 393.067 667.55C381.358 669.544 361.434 673.074 335.11 676.863C316.942 679.476 305.798 680.852 288.538 684.222C272.651 687.373 259.833 690.644 251.516 692.897C262.154 676.943 271.44 664.638 277.92 656.421C285.995 646.171 290.517 641.165 297.744 631.113C304.649 621.486 310.972 611.464 316.679 601.099C314.66 600.86 311.794 600.241 310.966 598.267C310.139 596.293 312.016 593.879 315.629 589.013C321.423 581.196 328.287 574.195 333.495 565.979C334.094 564.881 335.066 564.026 336.24 563.566C337.75 563.232 339.332 563.482 340.661 564.264C358.92 573.542 376.367 584.302 392.824 596.432Z" fill="#EC563C"/>
<path d="M357.235 801.309C348.733 810.439 341.798 820.881 336.705 832.221C330.459 846.076 326.075 860.678 323.664 875.657L325.683 879.227C329.115 866.189 333.905 853.537 339.975 841.474C345.884 829.584 353.484 818.591 362.544 808.827L357.235 801.309Z" fill="#3DAEA3" stroke="#DDEEDD" stroke-miterlimit="10"/>
<path d="M287.53 828.611C295.346 833.647 302.354 839.811 308.322 846.899C315.528 855.424 321.631 864.803 326.491 874.819L325.845 877.532C320.697 869.036 314.734 861.048 308.04 853.679C301.383 846.354 293.782 839.923 285.43 834.554C286.096 832.58 286.803 830.605 287.53 828.611Z" fill="#3DAEA3" stroke="#DDEEDD" stroke-miterlimit="10"/>
<path d="M607.311 552.019C607.311 552.019 588.154 522.104 574.305 496.537C565.115 479.482 556.933 461.916 549.799 443.927C537.222 450.069 529.167 463.63 521.84 476.474L503.288 509.021C497.494 519.192 491.64 529.443 484.05 538.038C474.097 549.306 460.754 558.48 456.817 573.597C462.207 574.854 471.877 577.008 484.07 578.782C539.564 586.76 592.555 579.441 592.555 579.441L607.311 552.019Z" fill="#EC563C"/>
<path d="M541.663 503.098H508.738C507.466 503.098 505.67 504.075 505.528 505.451C505.387 506.828 507.063 507.446 508.234 507.446H541.158C542.43 507.446 544.247 506.469 544.388 505.092C544.53 503.716 542.834 503.098 541.663 503.098Z" fill="#F68A1F"/>
<path d="M541.704 526.212H493.396C490.126 526.212 488.854 530.3 492.831 530.3H541.138C544.409 530.3 545.68 526.212 541.704 526.212Z" fill="#F68A1F"/>
<path d="M326.773 756.636C334.06 753.246 341.005 772.81 358.789 772.71C367.49 772.71 388.02 768.323 393.753 764.613C395.287 763.596 397.407 762.619 398.8 763.716C399.349 764.258 399.716 764.954 399.85 765.71C400.96 770.078 400.193 774.665 399.587 779.132C397.41 795.299 397.485 811.686 399.809 827.833C399.815 828.402 399.939 828.963 400.176 829.481C400.412 829.999 400.755 830.464 401.182 830.845C403.201 832.141 405.401 829.708 406.33 827.594C413.334 811.639 411.598 792.793 419.269 777.098C422.479 770.496 427.243 764.753 431.382 758.63C441.596 743.453 447.794 726.063 455.606 709.59C456.113 707.96 457.231 706.583 458.733 705.741C460.234 704.899 462.004 704.657 463.681 705.063L476.701 705.262C477.589 705.388 478.492 705.174 479.225 704.664C480.819 703.268 478.942 700.795 477.206 699.578L442.585 675.268C442.218 674.922 441.778 674.662 441.296 674.506C440.814 674.351 440.302 674.305 439.8 674.37C439.109 674.664 438.549 675.196 438.225 675.866C435.924 679.735 435.52 684.402 435.177 688.889C434.632 695.729 434.107 702.57 433.562 709.41C433.36 712.023 432.795 715.174 430.332 716.171C427.869 717.168 425.043 715.174 422.964 713.339C411.734 703.301 399.111 694.9 385.476 688.39C378.855 685.239 371.002 682.547 364.401 685.698C360.142 687.692 357.336 691.821 354.55 695.67C353.48 697.125 341.852 708.413 318.395 730.869C307.979 740.841 302.124 746.325 301.176 755.22C300.671 760.166 301.741 765.192 302.447 765.192C303.154 765.192 301.882 756.955 306.485 750.793C308.035 749.047 308.964 746.847 309.129 744.53C309.238 743.498 309.034 742.457 308.544 741.539C307.938 741.539 309.775 753.644 310.421 785.673C310.764 801.867 311.35 830.825 314.721 831.084C316.558 831.204 318.88 822.847 319.061 822.229C319.983 818.938 320.425 815.533 320.373 812.118C319.687 785.135 319.102 760.206 326.773 756.636Z" fill="#D81868"/>
<path d="M189.501 -67.2774C187.609 -52.0259 187.285 -36.6244 188.532 -21.3083C197.011 81.7581 276.164 149.645 304.244 171.104C323.301 185.622 388.484 233.785 485.826 235.201C546.259 235.83 605.504 218.607 655.962 185.742C650.534 172.634 644.326 159.854 637.369 147.471C603.839 87.8408 561.426 52.8604 540.755 36.1281C421.752 -60.2374 282.765 -68.2147 242.593 -68.9925C224.878 -69.3725 207.154 -68.7999 189.501 -67.2774Z" fill="#20649B"/>
<path d="M242.593 -68.9927C241.024 -56.2879 240.761 -43.459 241.806 -30.7017C249.093 57.2677 317.507 114.684 339.188 131.157C403.18 179.799 471.009 184.067 492.003 185.004C543.42 187.384 594.53 175.972 639.913 151.978C631.436 134.349 621.126 117.64 609.148 102.12C592.534 80.6212 577.172 67.1994 557.207 49.9685C538.171 33.4954 517.984 16.0651 488.369 -1.62456C454.496 -21.9068 426.153 -31.7587 401.263 -40.2944C366.318 -52.4343 330.17 -60.8842 293.424 -65.5026C276.552 -67.5296 259.586 -68.6945 242.593 -68.9927Z" fill="#2ABEC6"/>
<path d="M296.412 -65.1436C295.56 -55.8557 295.56 -46.5109 296.412 -37.2231C302.831 33.6949 358.406 79.4047 373.506 90.912C408.248 117.424 450.604 132.372 494.486 133.61C535.029 134.452 574.928 123.509 609.229 102.14C604.283 95.9177 597.117 87.2823 587.689 77.6099C578.59 68.3749 569.023 59.6019 559.024 51.3247C552.968 46.1196 531.852 28.1906 517.701 17.6008C470.221 -17.8582 410.226 -37.6818 391.311 -43.8243C360.414 -53.8196 328.645 -60.9567 296.412 -65.1436Z" fill="#F6EC30"/>
<path d="M384.509 -80C382.591 -72.7206 373.367 -35.2469 388.654 -4.77074C395.054 8.04514 408.345 24.6802 423.192 37.9574L425.394 39.9054C440.94 53.234 482.058 76.5845 533.826 72.5347C561.159 70.232 587.414 60.9205 610 45.5188C580.401 17.7973 547.617 -6.39353 512.321 -26.5578C488.062 -40.111 462.877 -51.9732 436.95 -62.0578C416.377 -70.2087 398.396 -76.0014 384.509 -80Z" fill="#EC563C"/>
<path d="M211.586 304.065C209.002 299.039 230.965 286.216 254.362 255.224C263.698 242.849 271.765 229.588 278.445 215.637C290.035 223.709 302.035 231.191 314.398 238.053C314.398 238.053 319.324 240.805 347.283 255.324L342.216 265.475C338.764 272.355 332.264 287.412 324.37 299.199C316.296 311.284 305.031 329.812 288.66 359.288L283.088 285.917C227.13 306.937 213.403 307.615 211.586 304.065Z" fill="#1496CE"/>
<path d="M213.544 302.928C213.746 303.367 213.544 303.367 213.665 303.028C213.874 302.559 214.117 302.106 214.392 301.672C215.401 300.276 216.536 298.975 217.783 297.783C222.043 293.435 226.585 289.367 230.925 285.099C244.782 271.612 257.016 256.588 267.383 240.326C272.171 232.726 276.518 224.862 280.403 216.774L277.294 217.571C292.403 227.971 308.145 237.442 324.431 245.931C331.658 249.733 338.898 253.516 346.152 257.278L345.325 254.207C339.268 266.173 334.02 278.358 327.419 289.925C323.866 296.187 319.687 302.091 315.831 308.193C311.976 314.296 307.898 321.096 304.062 327.638C298.148 337.729 292.394 347.92 286.702 358.171L290.921 359.288L285.349 285.917C285.248 284.6 283.956 283.204 282.483 283.763C266.979 289.586 251.354 295.31 235.386 299.717C228.846 301.532 221.942 303.706 215.199 303.347C214.311 303.347 215.199 303.347 214.432 303.247L213.907 303.128C213.584 303.128 212.959 302.649 213.605 303.128C213.039 302.808 213.706 303.407 213.484 302.968C212.111 300.415 208.195 302.689 209.567 305.242C211.465 308.771 217.117 308.093 220.387 307.675C231.046 306.338 241.483 302.828 251.637 299.498C262.397 295.968 273.035 292.099 283.613 288.13L280.747 285.956L286.318 359.328C286.337 359.812 286.511 360.277 286.817 360.656C287.122 361.035 287.542 361.308 288.015 361.435C288.488 361.562 288.99 361.536 289.447 361.361C289.905 361.187 290.293 360.873 290.557 360.464C299.52 344.33 308.625 328.256 318.395 312.601C321.968 306.857 325.885 301.313 329.377 295.509C334.046 287.499 338.298 279.259 342.115 270.82C344.416 265.993 346.839 261.207 349.241 256.421C349.543 255.907 349.628 255.296 349.477 254.721C349.326 254.146 348.951 253.653 348.433 253.349C333.414 245.552 318.254 237.973 303.739 229.278C295.503 224.332 287.428 219.127 279.515 213.662C279.258 213.512 278.974 213.413 278.678 213.371C278.382 213.33 278.081 213.347 277.792 213.421C277.503 213.495 277.232 213.625 276.994 213.804C276.756 213.982 276.556 214.205 276.406 214.46C268.158 231.687 257.791 247.843 245.54 262.563C239.625 269.613 233.353 276.362 226.746 282.786C222.386 287.033 217.804 291.082 213.625 295.509C211.283 298.002 207.912 301.492 209.587 305.122C210.839 307.814 214.755 305.541 213.544 302.928Z" fill="#F3F6D9"/>
<path d="M378.189 395.803C373.828 391.915 389.534 371.732 400.394 334.777C405.577 317.17 408.726 299.039 409.781 280.731C422.903 285.218 433.864 288.33 441.616 290.404C462.772 296.028 486.593 300.774 486.593 300.774C486.593 300.774 485.987 311.942 485.947 312.64C485.159 327.279 481.506 350.532 481.506 350.532C478.255 364.752 474.541 386.091 469.918 419.516C459.367 397.352 448.803 375.195 438.225 353.045C393.733 392.872 381.176 398.456 378.189 395.803Z" fill="#17ACB1"/>
<path d="M379.804 394.208C379.804 394.029 379.905 394.308 379.804 394.208C379.794 393.66 379.835 393.113 379.925 392.573C380.436 390.665 381.112 388.803 381.943 387.009C384.568 380.846 387.616 374.823 390.341 368.701C398.913 349.683 405.142 329.716 408.893 309.23C410.506 299.818 411.578 290.323 412.103 280.791L409.216 282.945C434.337 291.289 459.999 297.952 486.028 302.888L484.372 300.734C483.545 315.034 482.353 329.213 480.335 343.433C478.518 356.117 475.51 368.641 473.411 381.325C471.311 394.009 469.535 406.433 467.758 418.938L471.917 418.399L440.243 351.928C440.065 351.635 439.821 351.386 439.531 351.199C439.241 351.012 438.912 350.891 438.569 350.847C438.225 350.803 437.876 350.836 437.548 350.944C437.219 351.052 436.919 351.232 436.67 351.47C424.397 362.439 412.002 373.407 398.779 383.239C395.318 385.888 391.72 388.357 388 390.638C385.99 391.948 383.828 393.013 381.56 393.809C381.162 393.93 380.758 394.03 380.349 394.108C380.712 394.108 380.349 394.108 379.824 394.108C379.662 394.108 379.541 393.989 379.824 394.208C377.623 392.333 374.394 395.484 376.614 397.379C379.844 400.171 384.79 397.558 387.899 395.883C397.346 390.818 405.825 383.678 414.142 376.937C422.923 369.718 431.502 362.219 439.981 354.661L436.408 354.202L468.081 420.673C468.314 421.044 468.651 421.342 469.051 421.529C469.451 421.717 469.897 421.786 470.336 421.729C470.775 421.672 471.188 421.492 471.526 421.209C471.864 420.926 472.111 420.553 472.24 420.134C474.985 400.331 477.852 380.507 481.768 360.883C482.737 356.017 483.787 351.23 484.554 346.324C485.805 337.789 486.936 329.233 487.743 320.658C488.369 314.036 488.632 307.395 489.015 300.714C489.009 300.222 488.843 299.745 488.541 299.354C488.239 298.963 487.818 298.677 487.34 298.541C461.341 293.579 435.712 286.883 410.629 278.498C410.27 278.366 409.882 278.325 409.503 278.38C409.123 278.435 408.764 278.584 408.458 278.813C408.152 279.041 407.91 279.343 407.753 279.688C407.596 280.034 407.53 280.413 407.561 280.791C406.36 301.075 402.582 321.129 396.317 340.481C393.203 349.94 389.577 359.227 385.456 368.302C382.731 374.285 379.743 380.268 377.2 386.41C375.928 389.501 373.606 394.587 376.594 397.439C378.693 399.393 381.903 396.222 379.804 394.208Z" fill="#F3F6D9"/>
<path d="M539.463 421.351C534.698 418.28 547.356 396.023 552.14 357.533C553.563 345.528 554.116 333.438 553.795 321.356C553.634 316.509 553.351 312.481 553.129 309.669C556.44 309.928 560.921 310.267 566.21 310.586C584.379 311.683 598.267 311.743 602.042 311.743C616.355 311.743 631.212 311.225 631.212 311.225C631.212 311.225 633.231 321.794 633.231 322.313C636.017 337.39 634.604 360.504 634.604 360.504C633.574 375.063 633.15 396.721 633.675 430.485L592.292 369.738C554.32 416.046 542.814 423.505 539.463 421.351Z" fill="#1175BC"/>
<path d="M540.614 419.416C540.856 419.596 540.735 419.676 540.735 419.297C540.72 419.151 540.72 419.004 540.735 418.858C540.714 418.479 540.714 418.1 540.735 417.721C540.967 415.811 541.359 413.924 541.905 412.077C543.601 405.675 545.64 399.373 547.376 392.972C552.75 373.346 555.692 353.149 556.137 332.823C556.285 325.098 556.043 317.387 555.411 309.689L553.15 311.942C579.125 313.96 605.197 314.473 631.233 313.478L629.032 311.843C630.001 317.108 631.192 322.373 631.818 327.797C632.74 336.634 633.016 345.525 632.646 354.402C632.303 367.125 631.414 379.809 631.293 392.553C631.172 405.297 631.293 417.921 631.455 430.604L635.694 429.488L594.25 368.541C594.074 368.249 593.832 367.999 593.544 367.812C593.256 367.625 592.928 367.505 592.586 367.461C592.244 367.416 591.897 367.449 591.57 367.557C591.242 367.665 590.944 367.845 590.697 368.083C580.2 380.866 569.582 393.63 558.015 405.496C553.271 410.362 548.325 415.787 542.309 418.878C542.087 418.998 541.603 419.177 542.128 418.978L541.522 419.197C541.239 419.297 540.25 419.616 541.058 419.337C540.654 419.476 540.169 419.456 540.775 419.337C540.169 419.337 540.997 419.516 540.614 419.337C538.131 417.801 535.849 421.69 538.332 423.226C541.764 425.359 546.286 421.929 548.89 419.955C557.49 413.473 564.757 405.157 571.883 397.2C579.433 388.724 586.721 380.029 593.907 371.273L590.334 370.815L631.737 431.582C632.001 431.99 632.39 432.304 632.848 432.479C633.305 432.653 633.807 432.679 634.28 432.552C634.753 432.425 635.173 432.153 635.478 431.774C635.783 431.394 635.958 430.929 635.977 430.445C635.674 410.502 635.492 390.399 636.36 370.396C636.946 357.054 637.834 343.812 636.623 330.51C636.017 323.809 634.604 317.227 633.393 310.566C633.264 310.092 632.981 309.673 632.587 309.374C632.193 309.074 631.71 308.912 631.213 308.911C605.177 309.906 579.105 309.393 553.129 307.375C552.528 307.375 551.951 307.61 551.524 308.028C551.096 308.447 550.854 309.015 550.848 309.609C552.351 327.681 551.728 345.865 548.991 363.795C547.405 373.746 545.248 383.601 542.531 393.311C540.775 399.653 538.696 405.915 537.121 412.317C536.294 415.687 534.86 420.792 538.332 423.226C540.714 424.961 542.996 421.072 540.614 419.416Z" fill="#F3F6D9"/>
<path d="M76.3737 -40.0549C91.5333 0.0788269 111.269 38.3771 135.198 74.0999C170.219 126.346 214.28 172.09 265.364 209.235C315.264 245.189 371.044 272.408 430.271 289.706C477.289 303.449 525.826 311.485 574.81 313.638C604.659 315.071 634.575 314.258 664.299 311.205L669.911 310.586C672.777 310.247 672.818 305.76 669.911 306.099C643.398 309.093 616.709 310.286 590.031 309.669C543.377 308.722 496.99 302.459 451.791 291.002C394.018 276.419 339.083 252.504 289.205 220.224C235.121 184.862 188.05 140.014 150.319 87.9006C123.738 51.2197 101.787 11.4717 84.9531 -30.4622C83.5199 -34.0321 82.1068 -37.6218 80.7543 -41.2116C79.7449 -43.9039 75.3442 -42.7273 76.3737 -40.015V-40.0549Z" fill="#231F20"/>
<path d="M82.3489 -42.5677C95.9242 -6.64498 113.187 27.8104 133.866 60.2594C163.2 106.348 199.647 147.624 241.886 182.591C271.372 206.753 303.453 227.646 337.552 244.893C393.01 273.137 452.807 292.139 514.532 301.133C561.949 307.996 610.047 309.008 657.718 304.145C661.755 303.726 665.934 303.247 670.052 302.749C672.898 302.39 672.939 297.902 670.052 298.261C625.687 303.745 580.828 304.126 536.374 299.398C474.586 292.762 414.343 276.035 358.103 249.899C322.265 233.458 288.408 213.095 257.168 189.192C214.573 156.119 177.454 116.69 147.149 72.325C124.475 39.1348 105.522 3.60641 90.6255 -33.6332C89.2932 -36.9836 88.0012 -40.3142 86.7294 -43.6048C85.6999 -46.2772 81.3193 -45.1205 82.3489 -42.4082V-42.5677Z" fill="#231F20"/>
<path d="M504.64 1184.9C507.103 1192.39 510.575 1202.96 513.058 1210.48C512.533 1222.69 512.015 1234.89 511.504 1247.1L504.66 1373.16L504.297 1383.13L648.493 1383.33L646.615 1211.82L651.218 1183.24L670.617 1167.63V1142.72H645.061L628.366 859.523C628.327 858.929 628.507 858.341 628.871 857.867L651.218 829.408V803.303L628.568 802.146C627.951 802.112 627.37 801.852 626.937 801.417C626.504 800.982 626.251 800.403 626.226 799.793L623.905 737.311V722.892C623.905 722.241 624.166 721.617 624.632 721.157C625.098 720.697 625.729 720.439 626.388 720.439H648.008C648.667 720.439 649.298 720.18 649.764 719.72C650.229 719.26 650.491 718.636 650.491 717.986C650.492 717.54 650.368 717.103 650.133 716.723C649.898 716.343 649.56 716.035 649.159 715.832L630.203 705.043C630.203 699.419 629.961 670.302 607.876 651.894C603.415 648.165 592.978 639.469 577.858 639.43C562.738 639.39 552.241 648.085 547.578 651.894C540.341 658.652 534.616 666.831 530.771 675.905C526.926 684.98 525.046 694.749 525.251 704.584C525.244 704.821 525.203 705.056 525.13 705.282C525.034 705.611 524.869 705.917 524.646 706.179L516.187 715.932C515.901 716.283 515.718 716.706 515.658 717.153C515.599 717.601 515.666 718.056 515.852 718.468C516.038 718.881 516.335 719.234 516.711 719.491C517.087 719.747 517.528 719.896 517.984 719.92L529.733 720.259C530.374 720.28 530.982 720.545 531.429 720.998C531.877 721.452 532.13 722.059 532.135 722.692L532.559 802.465C532.565 803.087 532.33 803.688 531.902 804.144C531.474 804.601 530.886 804.877 530.258 804.918L504.943 806.693C504.61 806.715 504.285 806.804 503.988 806.954C503.69 807.104 503.427 807.312 503.214 807.566C503 807.82 502.841 808.113 502.747 808.43C502.652 808.746 502.623 809.078 502.662 809.405L505.185 830.944C505.244 831.437 505.447 831.901 505.771 832.28L525.473 854.677C525.878 855.149 526.094 855.752 526.079 856.372L515.985 1141.94C515.959 1142.57 515.686 1143.17 515.223 1143.61C514.761 1144.05 514.144 1144.29 513.502 1144.29H492.306C491.651 1144.3 491.025 1144.56 490.563 1145.02C490.102 1145.48 489.843 1146.1 489.843 1146.74V1165.79C489.845 1166.34 490.029 1166.87 490.368 1167.31L504.64 1184.9Z" fill="#20649B"/>
<path d="M473.411 723.929C463.499 740.721 453.991 757.932 448.823 776.479C446.602 785.021 444.85 793.676 443.575 802.405L431.624 875.098C431.039 878.628 431.2 883.375 434.854 884.392C437.115 885.01 439.436 883.694 441.516 882.617C448.743 878.848 457.019 877.372 465.135 875.936L521.113 866.104C520.697 864.414 519.808 862.873 518.549 861.657C502.4 842.671 492.306 819.636 486.068 796.004C479.831 772.371 477.126 748.02 474.501 723.769" fill="#FEEF2B"/>
<path d="M302.146 688.79C304.408 695.676 307.596 705.38 309.875 712.284C309.394 723.49 308.918 734.697 308.448 745.903L302.165 861.649L301.831 870.805L434.228 870.988L432.504 713.511L436.73 687.271L454.542 672.933V650.062H431.077L415.748 390.042C415.712 389.496 415.877 388.957 416.211 388.522L436.73 362.392V338.422L415.933 337.36C415.367 337.329 414.833 337.09 414.436 336.69C414.038 336.291 413.805 335.759 413.783 335.199L411.652 277.83V264.591C411.652 263.994 411.892 263.421 412.32 262.998C412.747 262.576 413.327 262.339 413.932 262.339H433.783C434.387 262.339 434.967 262.101 435.395 261.679C435.822 261.257 436.063 260.684 436.063 260.086C436.063 259.677 435.949 259.276 435.733 258.927C435.518 258.578 435.208 258.295 434.839 258.109L417.435 248.202C417.435 243.039 417.212 216.304 396.935 199.403C392.839 195.978 383.256 187.995 369.373 187.958C355.49 187.922 345.852 195.905 341.57 199.403C334.926 205.607 329.669 213.117 326.139 221.449C322.608 229.781 320.882 238.751 321.071 247.781C321.064 247.999 321.026 248.215 320.959 248.422C320.871 248.724 320.72 249.005 320.515 249.246L312.748 258.2C312.485 258.523 312.317 258.911 312.263 259.322C312.208 259.733 312.27 260.151 312.441 260.529C312.611 260.908 312.884 261.233 313.229 261.468C313.575 261.703 313.979 261.84 314.398 261.863L325.185 262.174C325.774 262.193 326.332 262.436 326.743 262.852C327.155 263.269 327.387 263.826 327.391 264.408L327.78 337.653C327.786 338.224 327.571 338.776 327.178 339.195C326.785 339.614 326.244 339.868 325.667 339.905L302.424 341.535C302.119 341.555 301.82 341.637 301.547 341.774C301.274 341.912 301.032 342.103 300.836 342.336C300.64 342.569 300.495 342.839 300.407 343.129C300.32 343.42 300.294 343.725 300.33 344.025L302.647 363.802C302.701 364.254 302.887 364.68 303.184 365.028L321.275 385.592C321.646 386.026 321.844 386.58 321.831 387.148L312.563 649.348C312.539 649.929 312.288 650.479 311.863 650.882C311.438 651.284 310.872 651.509 310.283 651.509H290.821C290.22 651.513 289.645 651.753 289.221 652.175C288.798 652.597 288.56 653.167 288.56 653.761V671.248C288.561 671.752 288.731 672.241 289.042 672.64L302.146 688.79Z" fill="#20649B"/>
<path d="M344.666 273.033C344.81 271.473 345.546 270.026 346.725 268.98C347.905 267.934 349.44 267.367 351.025 267.392C352.61 267.418 354.126 268.034 355.27 269.117C356.415 270.2 357.102 271.671 357.195 273.234L357.418 332.91H344.258C344.394 312.951 344.53 292.992 344.666 273.033Z" fill="#F6D65B"/>
<path d="M364.609 273.032C364.756 271.574 365.408 270.211 366.455 269.173C367.502 268.135 368.88 267.487 370.355 267.338C372.039 267.261 373.687 267.833 374.952 268.933C376.218 270.032 377.002 271.574 377.139 273.234L377.417 332.929H364.257C364.381 312.957 364.498 292.992 364.609 273.032Z" fill="#F6D65B"/>
<path d="M384.535 273.033C384.679 271.473 385.415 270.026 386.594 268.98C387.774 267.934 389.31 267.367 390.894 267.392C392.479 267.418 393.995 268.034 395.139 269.117C396.284 270.2 396.971 271.671 397.064 273.234L397.268 332.91H384.127C384.263 312.951 384.399 292.992 384.535 273.033Z" fill="#F6D65B"/>
<path d="M344.406 390.298C343.27 390.298 338.562 477.722 330.283 652.571L337.048 653.303C343.09 477.991 345.543 390.323 344.406 390.298Z" fill="#F6D65B"/>
<path d="M369.818 392.971C368.693 392.971 365.604 480.469 360.55 655.464L367.334 656.068C370.127 480.682 370.955 392.984 369.818 392.971Z" fill="#F6D65B"/>
<path d="M395.1 387.863C393.963 387.863 394.433 475.415 396.509 650.52L403.311 650.849C398.974 475.525 396.237 387.863 395.1 387.863Z" fill="#F6D65B"/>
<path d="M337.548 870.86C338.846 730.375 338.216 693.332 337.141 693.24C336.066 693.149 334.194 727.794 331.302 780.658C330.505 795.143 329.3 818.178 328.818 827.151C327.855 845.663 327.076 860.807 326.576 870.786L337.548 870.86Z" fill="#F6D65B"/>
<path d="M373.21 870.951C372.58 728.526 371.468 696.884 370.522 696.866C369.577 696.847 369.114 718.455 366.315 784.394C364.776 820.559 363.405 850.424 362.459 870.933L373.21 870.951Z" fill="#F6D65B"/>
<path d="M411.262 871.006C406.999 722.684 405.405 689.999 404.775 690.017C404.145 690.035 404.479 718.235 404.108 777.637C403.848 816.676 403.441 848.868 403.125 870.859L411.262 871.006Z" fill="#F6D65B"/>
</g>
</svg>
