<svg width="1278" height="231" viewBox="0 0 1278 231" fill="none" xmlns="http://www.w3.org/2000/svg">
<mask id="mask0_906_2182" style="mask-type:alpha" maskUnits="userSpaceOnUse" x="0" y="0" width="1288" height="231">
<rect width="1288" height="231" fill="#D9D9D9"/>
</mask>
<g mask="url(#mask0_906_2182)">
<path d="M-74.8002 160.24C-70.9302 156.11 -61.6202 156.86 -61.2602 153.21C-61.1502 152.08 -62.0102 151.76 -63.0402 149.98C-66.2802 144.38 -64.1102 136.63 -59.5802 132.28C-58.6302 131.37 -57.1802 130.84 -55.6602 129.75C-53.6702 128.32 -47.7102 129.75 -45.7202 131.18C-33.8002 141.21 -23.8602 154.11 -5.97024 158.41C5.94976 149.81 17.8798 141.21 29.7998 132.61C33.7698 131.18 35.7598 126.88 39.7398 128.31C53.6498 138.34 67.5598 148.38 81.4698 158.41H85.4398C93.3898 154.11 97.3598 148.38 105.31 144.08C115.25 138.35 123.19 134.05 130.36 127.99C134.44 132.85 140.7 139.18 149.93 145.47C159.01 151.66 167.98 155.76 174.87 158.41C186.17 148.8 197.47 139.2 208.77 129.59C223.81 139.26 238.86 148.94 253.9 158.61C254.11 158.51 278.27 146.79 278.48 146.68C278.71 146.57 304.12 134.24 304.35 134.13C318.36 142.74 332.37 151.36 346.38 159.97C360.78 152.12 375.19 144.26 389.59 136.41C404.39 143.08 419.19 149.75 433.99 156.42C450.17 146.63 466.35 136.83 482.53 127.04C491.8 137.85 501.08 148.66 510.35 159.46C524.78 148.66 539.21 137.86 553.64 127.07C554.97 126.66 556.3 126.25 557.64 125.84C566.26 137.02 574.88 148.2 583.5 159.37C595.73 148.51 607.96 137.65 620.19 126.79C626.56 136.42 632.93 146.04 639.3 155.67C639.2 180.58 639.1 205.49 639.01 230.4C482.92 230.38 326.83 230.49 170.73 230.72C111.28 230.81 27.6398 230.96 -31.8102 231.09C-34.9002 230.58 -49.1602 227.96 -52.9202 219.05C-53.2502 218.27 -53.5102 217.41 -53.6702 216.46C-54.0702 215.29 -54.4702 214.22 -54.8502 213.27C-54.8502 213.27 -55.7802 210.97 -56.9102 208.7C-61.6402 199.25 -83.4202 169.45 -74.8002 160.24Z" fill="#6993CC"/>
<path d="M-2.06037 198.56C6.57963 192.64 16.5496 204.31 22.4396 209.4C29.8996 215.85 37.8696 221.72 46.8696 225.84C49.0596 226.84 49.1996 226.67 51.4496 225.66C53.7796 224.61 56.0596 223.44 58.2796 222.19C62.6796 219.72 66.8696 216.92 70.9396 213.95C79.0696 208.01 86.6496 201.38 94.6596 195.29C94.2696 195.24 93.8696 195.19 93.4796 195.14C100.8 201.03 108.41 206.56 116.29 211.66C120.3 214.25 124.37 216.74 128.51 219.12C130.46 220.24 132.41 221.34 134.39 222.41C135.82 223.19 138.61 225.37 140.19 225.47C141.45 225.55 142.43 224.63 143.52 224C145.7 222.73 147.87 221.44 150.02 220.14C154.18 217.62 158.29 215.03 162.35 212.36C170.54 207 178.52 201.34 186.31 195.41C185.92 195.36 185.52 195.31 185.13 195.26C193.45 205.47 204.68 212.38 215.52 219.58C218.3 221.43 221.06 223.3 223.75 225.28C224.42 225.77 225.09 226.56 225.94 226.67C227.07 226.82 229.25 225.59 230.24 225.18C235.24 223.11 239.72 220.12 243.92 216.74C248.26 213.24 252.27 209.36 256.54 205.78C258.78 203.91 261.08 202.12 263.52 200.51C264.68 199.74 265.86 199.02 267.08 198.34C268.28 197.67 271.13 195.71 272.48 195.74C273.95 195.77 275.38 197.63 276.42 198.51C277.73 199.62 279.06 200.72 280.39 201.81C283.09 204.02 285.82 206.19 288.59 208.31C294.27 212.66 300.11 216.79 306.14 220.64C309.03 222.48 311.94 224.3 314.93 225.97C317.3 227.29 319.66 225.51 322 224.5C328 221.91 333.43 218.59 338.59 214.59C344.67 209.88 350.47 204.81 356.64 200.21C358.01 199.19 359.4 198.19 360.81 197.23C362.36 196.18 363.05 195.52 364.84 196.22C367.17 197.12 369.43 199.32 371.26 200.97C378.03 207.09 382.95 215.05 390.28 220.57C393.91 223.31 398.08 225.26 402.56 226.1C404.37 226.44 407.35 227.2 409.12 226.64C410.43 226.22 411.74 224.98 412.88 224.22C414.73 222.98 416.57 221.73 418.4 220.46C425.12 215.78 431.69 210.87 438.07 205.73C441.45 203.01 444.7 200.17 448.02 197.38C450.35 195.42 454.61 193.91 457.54 195.28C459.55 196.22 461.34 198.19 463.11 199.57C464.88 200.95 466.64 202.35 468.39 203.75C471.77 206.45 475.12 209.17 478.48 211.89C485.21 217.34 491.95 222.79 498.85 228.02C499.21 228.29 499.73 228.13 500.03 227.87C507.8 221.18 515.58 214.49 523.36 207.8C527.25 204.45 531.14 201.11 535.02 197.76C536.95 196.1 538.81 194.26 540.85 192.74C543.29 190.92 545.57 190.98 548.55 190.66C551.46 190.34 553.17 189.84 555.55 191.85C557.49 193.48 559.43 195.12 561.36 196.75C565.24 200.02 569.11 203.28 572.99 206.54C580.9 213.21 588.82 219.87 596.73 226.54C597.25 226.97 597.86 226.88 598.26 226.34C606.26 215.49 614.26 204.64 622.26 193.79C621.75 193.86 621.24 193.92 620.73 193.99C626.58 199.96 632.42 205.93 638.27 211.9C639.15 212.8 640.52 211.42 639.64 210.53C633.79 204.56 627.95 198.59 622.1 192.62C621.62 192.13 620.94 192.33 620.57 192.82C612.57 203.67 604.57 214.52 596.57 225.37C597.08 225.3 597.59 225.24 598.1 225.17C589.7 218.1 581.3 211.02 572.91 203.95C568.71 200.41 564.51 196.88 560.31 193.34C559.02 192.25 557.73 191.16 556.43 190.07C555.81 189.55 555.01 188.56 554.3 188.29C552.78 187.7 550.15 188.55 548.54 188.73C546.55 188.95 543.73 188.75 541.84 189.46C540.12 190.1 538.42 192.28 537.04 193.47C532.83 197.09 528.62 200.72 524.41 204.34C515.83 211.73 507.24 219.12 498.66 226.51C499.05 226.46 499.45 226.41 499.84 226.36C490.78 219.48 482 212.23 473.14 205.09C469.1 201.84 465.05 198.61 460.94 195.45C458.03 193.21 456.16 192.45 452.48 193.23C448.67 194.04 446.47 196.22 443.57 198.69C439.22 202.39 434.78 205.98 430.24 209.44C426.04 212.65 421.77 215.77 417.43 218.79C415.27 220.29 413.1 221.77 410.9 223.22C408.38 224.89 406.37 224.8 403.49 224.3C389.21 221.84 382.52 208.53 372.64 199.59C370.3 197.48 367.67 195.34 364.82 193.97C361.87 192.55 357.92 196.85 355.67 198.53C347.52 204.6 340.12 211.77 331.57 217.28C329.38 218.69 327.09 219.96 324.75 221.11C322.51 222.21 319.04 224.48 316.58 224.33C314.23 224.18 311.03 221.41 309.05 220.18C306.65 218.68 304.27 217.14 301.93 215.55C292.11 208.9 282.83 201.51 273.85 193.77C273.6 193.56 273.24 193.39 272.9 193.52C265.19 196.53 258.67 201.32 252.49 206.74C246.38 212.1 240.48 217.82 233.24 221.66C231.5 222.58 228.57 224.56 226.62 224.48C224.68 224.41 222.39 221.91 220.87 220.86C216.98 218.17 213.01 215.62 209.08 213C200.83 207.5 192.83 201.63 186.52 193.89C186.28 193.59 185.66 193.5 185.34 193.74C178.21 199.16 170.92 204.36 163.46 209.31C159.54 211.91 155.58 214.44 151.58 216.91C149.74 218.05 147.89 219.17 146.03 220.27C144.44 221.22 142.03 223.41 140.13 223.26C138.63 223.14 136.25 221.21 134.89 220.47C133.08 219.48 131.28 218.47 129.5 217.44C125.36 215.06 121.29 212.57 117.28 209.98C109.53 204.96 102.05 199.55 94.8596 193.76C94.5496 193.51 94.0396 193.33 93.6796 193.61C85.3896 199.92 77.5496 206.8 69.0996 212.9C65.0096 215.85 60.7796 218.62 56.3496 221.04C54.3196 222.15 50.7496 224.79 48.3696 224.4C46.0996 224.03 43.3696 221.97 41.4096 220.85C32.3396 215.66 24.7796 208.7 16.9396 201.89C11.6496 197.29 3.70963 192.26 -3.04037 196.88C-4.07037 197.58 -3.10037 199.27 -2.06037 198.56Z" fill="white"/>
<path d="M-8.45008 170.21C-5.83008 168.32 -3.20008 166.43 -0.580083 164.54C0.459917 163.79 1.37992 162.84 2.75992 162.84C4.26992 162.84 6.81992 164 8.02992 164.74C12.6599 167.57 16.8799 171.46 21.1799 174.75C30.2199 181.64 39.4299 188.25 49.3599 193.81C49.6499 193.97 50.0699 194.01 50.3499 193.81C54.2199 191.06 58.5799 189.14 62.4299 186.37C65.3499 184.27 68.1399 181.98 70.9299 179.72C77.1099 174.73 83.3399 169.82 90.4299 166.17C92.2299 165.25 95.3499 163.17 97.3199 163.08C99.3499 162.98 101.83 165.63 103.35 166.75C107.3 169.67 111.25 172.59 115.21 175.52C123.46 181.62 131.71 187.72 139.95 193.81C140.23 194.02 140.65 193.96 140.94 193.81C158.42 184.49 175.09 173.75 190.66 161.51C190.2 161.51 189.74 161.51 189.27 161.51C201.1 175.26 216.84 185.07 232.54 193.81C232.82 193.97 233.25 194.02 233.53 193.81C240.56 188.6 247.41 183.16 254.36 177.84C257.75 175.25 261.16 172.69 264.62 170.2C266.59 168.79 268.57 167.4 270.57 166.03C272.4 164.78 274.53 162.86 276.67 162.32C280.93 161.24 285.36 165.9 288.52 168.17C292.41 170.96 296.33 173.7 300.24 176.45C308 181.92 315.7 187.48 322.92 193.66C323.26 193.95 323.7 194.04 324.11 193.81C341.02 184.4 357.14 173.64 372.17 161.45C371.71 161.45 371.25 161.45 370.78 161.45C383.88 174.73 399.47 185.38 416.42 193.14C417.41 193.59 418.08 194.04 419.11 193.91C420.03 193.79 421.37 192.49 422.2 191.96C423.42 191.19 424.63 190.4 425.83 189.62C430.26 186.73 434.65 183.77 438.98 180.73C447.26 174.91 455.32 168.8 463.19 162.43C462.79 162.48 462.4 162.53 462 162.58C479.45 173 496.89 183.42 514.34 193.83C514.74 194.07 515.19 193.96 515.53 193.68C528.36 182.94 541.2 172.21 554.03 161.47C553.63 161.52 553.24 161.57 552.84 161.62C566.1 171.58 579.36 181.55 592.62 191.51C593.07 191.85 593.69 191.55 593.96 191.16C600.66 181.53 607.36 171.91 614.05 162.28C613.54 162.35 613.02 162.41 612.51 162.48C621.2 171.09 629.89 179.71 638.58 188.32C639.48 189.21 640.86 187.82 639.97 186.93C631.28 178.32 622.59 169.7 613.9 161.09C613.42 160.62 612.72 160.78 612.36 161.29C605.66 170.92 598.96 180.54 592.27 190.17C592.72 190.05 593.16 189.94 593.61 189.82C580.35 179.86 567.09 169.89 553.83 159.93C553.46 159.66 552.95 159.83 552.64 160.08C539.81 170.82 526.97 181.55 514.14 192.29C514.54 192.24 514.93 192.19 515.33 192.14C497.88 181.72 480.44 171.3 462.99 160.89C462.58 160.65 462.14 160.77 461.8 161.04C454.4 167.04 446.81 172.8 439.03 178.3C434.87 181.24 430.67 184.11 426.41 186.9C424.51 188.15 422.61 189.38 420.69 190.59C418.26 192.13 417.68 191.6 415.22 190.43C399.25 182.84 384.58 172.67 372.15 160.07C371.75 159.67 371.17 159.74 370.76 160.07C355.86 172.16 339.86 182.8 323.09 192.13C323.49 192.18 323.88 192.23 324.28 192.28C315.84 185.05 306.75 178.66 297.67 172.27C292.86 168.89 288.2 164.94 283.16 161.91C279.96 159.99 276.87 159.54 273.71 161.56C264.38 167.54 255.6 174.37 246.85 181.16C244.53 182.96 242.2 184.77 239.87 186.56C238.96 187.26 238.05 187.95 237.14 188.64C236.21 189.34 234.58 191.11 233.45 191.42C231.51 191.94 228.13 189.08 226.47 188.11C223.97 186.64 221.5 185.14 219.05 183.59C208.65 176.99 198.7 169.5 190.63 160.12C190.26 159.69 189.63 159.81 189.24 160.12C176.04 170.49 162.02 179.79 147.4 188.02C145.73 188.96 144.06 189.88 142.38 190.79C140.08 192.04 139.25 190.89 137.29 189.45C133.68 186.78 130.07 184.11 126.46 181.45C119.24 176.11 112.03 170.78 104.81 165.44C103.09 164.17 101.39 162.88 99.6599 161.63C98.2399 160.61 98.4299 160.59 96.7599 161.19C93.4299 162.39 90.1899 163.99 87.1099 165.72C81.4899 168.87 76.3999 172.79 71.3899 176.82C68.6299 179.04 65.8899 181.29 63.0599 183.44C59.6699 186.02 55.9699 187.92 52.3399 190.13C50.0899 191.49 49.5099 191.71 47.1399 190.32C45.5999 189.42 44.0799 188.49 42.5699 187.54C39.1599 185.39 35.8199 183.13 32.5299 180.79C25.4699 175.75 18.6699 170.36 11.7499 165.14C10.0899 163.89 8.65992 162.53 6.65992 161.94C5.34992 161.56 2.96992 160.32 1.56992 160.64C-0.0500833 161.01 -2.28008 163.34 -3.58008 164.28C-5.55008 165.7 -7.51008 167.11 -9.48008 168.53C-10.4601 169.25 -9.48008 170.95 -8.45008 170.21Z" fill="white"/>
<path d="M1352.8 160.24C1348.93 156.11 1339.62 156.86 1339.26 153.21C1339.15 152.08 1340.01 151.76 1341.04 149.98C1344.28 144.38 1342.11 136.63 1337.58 132.28C1336.63 131.37 1335.18 130.84 1333.66 129.75C1331.67 128.32 1325.71 129.75 1323.72 131.18C1311.8 141.21 1301.86 154.11 1283.97 158.41C1272.05 149.81 1260.12 141.21 1248.2 132.61C1244.23 131.18 1242.24 126.88 1238.26 128.31C1224.35 138.34 1210.44 148.38 1196.53 158.41H1192.56C1184.61 154.11 1180.64 148.38 1172.69 144.08C1162.75 138.35 1154.81 134.05 1147.64 127.99C1143.56 132.85 1137.3 139.18 1128.07 145.47C1118.99 151.66 1110.02 155.76 1103.13 158.41C1091.83 148.8 1080.53 139.2 1069.23 129.59C1054.19 139.26 1039.14 148.94 1024.1 158.61C1023.89 158.51 999.73 146.79 999.52 146.68C999.29 146.57 973.88 134.24 973.65 134.13C959.64 142.74 945.63 151.36 931.62 159.97C917.22 152.12 902.81 144.26 888.41 136.41C873.61 143.08 858.81 149.75 844.01 156.42C827.83 146.63 811.65 136.83 795.47 127.04C786.2 137.85 776.92 148.66 767.65 159.46C753.22 148.66 738.79 137.86 724.36 127.07C723.03 126.66 721.7 126.25 720.36 125.84C711.74 137.02 703.12 148.2 694.5 159.37C682.27 148.51 670.04 137.65 657.81 126.79C651.44 136.42 645.07 146.04 638.7 155.67C638.8 180.58 638.9 205.49 638.99 230.4C795.08 230.38 951.17 230.49 1107.27 230.72C1166.72 230.81 1250.36 230.96 1309.81 231.09C1312.9 230.58 1327.16 227.96 1330.92 219.05C1331.25 218.27 1331.51 217.41 1331.67 216.46C1332.07 215.29 1332.47 214.22 1332.85 213.27C1332.85 213.27 1333.78 210.97 1334.91 208.7C1339.64 199.25 1361.42 169.45 1352.8 160.24Z" fill="#6993CC"/>
<path d="M1281.05 196.88C1274.33 192.28 1266.33 197.27 1261.07 201.89C1253.27 208.74 1245.66 215.67 1236.6 220.85C1234.79 221.88 1231.77 224.15 1229.64 224.4C1227.18 224.69 1223.78 222.2 1221.66 221.04C1217.23 218.62 1213 215.85 1208.91 212.9C1200.46 206.8 1192.62 199.92 1184.33 193.61C1183.96 193.33 1183.46 193.51 1183.15 193.76C1175.96 199.54 1168.48 204.96 1160.73 209.98C1156.88 212.47 1152.97 214.86 1149.01 217.16C1147.22 218.2 1145.42 219.21 1143.6 220.21C1142 221.09 1139.67 223.03 1137.88 223.27C1136.25 223.48 1133.86 221.39 1132.48 220.58C1130.62 219.48 1128.78 218.36 1126.94 217.23C1122.76 214.67 1118.63 212.03 1114.55 209.32C1107.09 204.37 1099.8 199.17 1092.67 193.75C1092.36 193.51 1091.74 193.6 1091.49 193.9C1085.18 201.64 1077.18 207.51 1068.93 213.01C1065.15 215.53 1061.32 217.99 1057.57 220.57C1056.06 221.61 1053.32 224.44 1051.39 224.49C1049.49 224.54 1046.42 222.54 1044.77 221.67C1037.53 217.83 1031.63 212.11 1025.52 206.75C1019.34 201.33 1012.82 196.54 1005.11 193.53C1004.78 193.4 1004.41 193.57 1004.16 193.78C996.18 200.66 987.97 207.27 979.33 213.32C975.15 216.24 970.89 219.04 966.53 221.68C964.27 223.05 962.41 224.74 959.73 223.97C957.23 223.25 954.68 221.86 952.37 220.68C943.17 216.01 935.53 208.95 927.52 202.56C923.89 199.66 920.2 196.76 916.26 194.31C913.59 192.65 911.27 194.98 909.01 196.64C898.45 204.35 892.4 217.99 879.78 222.88C876.07 224.32 871.16 225.7 867.61 223.58C862.94 220.78 858.51 217.42 854.12 214.21C849.45 210.8 844.86 207.28 840.37 203.64C836.9 200.83 833.62 197.2 829.84 194.84C827.4 193.31 823.21 192.2 820.41 193.2C818.57 193.85 816.96 195.56 815.43 196.74C813.01 198.61 810.61 200.51 808.23 202.42C798.22 210.42 788.38 218.64 778.17 226.39C778.56 226.44 778.96 226.49 779.35 226.54C770.93 219.29 762.5 212.04 754.08 204.79C749.87 201.17 745.66 197.54 741.45 193.92C739.93 192.61 738.06 190.2 736.16 189.49C734.25 188.77 731.49 188.98 729.46 188.76C727.87 188.59 725.24 187.73 723.7 188.32C721.78 189.06 719.74 191.64 718.17 192.96C713.97 196.5 709.77 200.03 705.57 203.57C697.01 210.78 688.45 217.99 679.89 225.2C680.4 225.27 680.91 225.33 681.42 225.4C673.42 214.55 665.42 203.7 657.42 192.85C657.06 192.36 656.37 192.17 655.89 192.65C650.03 198.6 644.17 204.55 638.31 210.5C637.43 211.39 638.8 212.77 639.68 211.87C645.54 205.92 651.4 199.97 657.26 194.02C656.75 193.95 656.24 193.89 655.73 193.82C663.73 204.67 671.73 215.52 679.73 226.37C680.12 226.9 680.74 227 681.26 226.57C689.01 220.04 696.76 213.51 704.52 206.98C708.4 203.71 712.27 200.45 716.15 197.19C718.09 195.56 720.03 193.93 721.96 192.29C724.63 190.04 726.06 190.33 729.45 190.7C731.94 190.97 734.57 190.87 736.66 192.37C738.71 193.84 740.58 195.75 742.49 197.39C746.38 200.74 750.27 204.08 754.15 207.43C762.09 214.26 770.02 221.09 777.96 227.92C778.26 228.17 778.78 228.34 779.14 228.07C791.43 218.74 803.19 208.74 815.36 199.24C818.61 196.7 820.71 194.24 825.01 195.13C828.41 195.83 830.49 197.9 833.06 200.09C838.77 204.95 844.65 209.61 850.67 214.08C853.61 216.26 856.58 218.4 859.59 220.5C861.09 221.54 862.59 222.57 864.11 223.59C865.49 224.52 867.27 226.16 868.87 226.68C870.65 227.25 873.61 226.48 875.43 226.14C877.78 225.7 880.05 224.95 882.22 223.95C890.47 220.11 895.9 212.54 901.84 205.98C905.1 202.37 908.62 198.95 912.82 196.45C914.69 195.34 915.43 196.08 917.18 197.27C918.44 198.12 919.67 199.01 920.9 199.91C924.24 202.38 927.46 205.01 930.68 207.63C936.1 212.05 941.48 216.7 947.52 220.27C950.1 221.79 952.78 223.13 955.51 224.33C957.58 225.24 960.39 227.19 962.55 226.3C965.77 224.97 968.92 222.55 971.84 220.68C974.86 218.76 977.83 216.76 980.75 214.7C986.52 210.64 992.12 206.33 997.58 201.85C998.76 200.88 999.94 199.91 1001.11 198.92C1002.14 198.05 1004.06 195.76 1005.49 195.78C1006.66 195.8 1009.04 197.38 1010.07 197.93C1011.57 198.73 1013.03 199.61 1014.45 200.55C1019.35 203.79 1023.69 207.75 1028.07 211.64C1032.5 215.59 1037.04 219.49 1042.19 222.48C1044.88 224.04 1047.84 225.54 1050.84 226.37C1053.59 227.13 1056.31 223.77 1058.52 222.26C1070.53 214 1083.49 206.75 1092.83 195.29C1092.44 195.34 1092.04 195.39 1091.65 195.44C1099.44 201.36 1107.43 207.02 1115.61 212.39C1119.68 215.05 1123.79 217.65 1127.94 220.17C1129.93 221.38 1131.93 222.57 1133.95 223.75C1135.12 224.43 1136.41 225.58 1137.77 225.51C1139.16 225.44 1141.87 223.37 1143.09 222.71C1145.22 221.55 1147.34 220.37 1149.45 219.16C1153.59 216.78 1157.66 214.29 1161.67 211.7C1169.56 206.59 1177.16 201.07 1184.49 195.18C1184.1 195.23 1183.7 195.28 1183.31 195.33C1191.32 201.42 1198.9 208.05 1207.03 213.99C1211.1 216.96 1215.3 219.77 1219.69 222.23C1221.92 223.48 1224.2 224.64 1226.52 225.7C1228.76 226.72 1228.91 226.88 1231.1 225.88C1240.1 221.75 1248.07 215.89 1255.53 209.44C1261.41 204.35 1271.39 192.69 1280.03 198.6C1281.1 199.27 1282.07 197.58 1281.05 196.88Z" fill="white"/>
<path d="M1287.44 168.52C1284.16 166.16 1280.93 163.72 1277.6 161.44C1276.17 160.46 1276.34 160.51 1274.72 160.96C1272.71 161.51 1270.68 161.86 1268.98 163.05C1262.64 167.51 1256.66 172.5 1250.44 177.13C1244.11 181.84 1237.62 186.33 1230.81 190.32C1228.39 191.74 1227.85 191.48 1225.61 190.13C1223.96 189.13 1222.25 188.25 1220.58 187.28C1216.93 185.16 1213.64 182.51 1210.35 179.88C1205.39 175.9 1200.5 171.81 1195.16 168.34C1192.42 166.56 1189.57 164.95 1186.62 163.54C1185.19 162.86 1183.74 162.23 1182.28 161.63C1180.15 160.77 1180.05 160.41 1178.3 161.64C1170.96 166.8 1163.86 172.32 1156.65 177.65C1153.39 180.06 1150.12 182.48 1146.86 184.89C1145.14 186.16 1143.42 187.43 1141.7 188.7C1140.85 189.33 1140.02 190.07 1139.12 190.61C1137.59 191.53 1137.6 191.59 1136.08 191.08C1134.02 190.39 1131.96 188.83 1130.06 187.75C1127.99 186.58 1125.93 185.39 1123.88 184.17C1119.95 181.84 1116.07 179.43 1112.24 176.95C1104.15 171.7 1096.31 166.09 1088.73 160.14C1088.34 159.83 1087.72 159.7 1087.34 160.14C1080.28 168.35 1071.77 175.11 1062.79 181.09C1058.14 184.19 1053.35 187.09 1048.49 189.87C1047.51 190.43 1046.08 191.6 1045 191.51C1043.92 191.41 1042.58 189.99 1041.75 189.36C1039.39 187.58 1037.04 185.77 1034.7 183.96C1026.06 177.27 1017.45 170.52 1008.41 164.36C1004.8 161.9 1002 159.2 997.5 160.68C992.71 162.26 988.44 166.53 984.37 169.41C973.95 176.78 963.39 183.98 953.68 192.29C954.08 192.24 954.47 192.19 954.87 192.14C938.11 182.81 922.11 172.17 907.2 160.08C906.79 159.75 906.22 159.67 905.81 160.08C893.38 172.68 878.72 182.85 862.74 190.44C862.05 190.77 861.3 191.26 860.56 191.46C859.2 191.81 858.98 191.61 857.79 190.93C855.65 189.72 853.61 188.26 851.56 186.91C847.48 184.23 843.45 181.48 839.46 178.67C831.5 173.06 823.74 167.17 816.17 161.04C815.83 160.76 815.38 160.65 814.98 160.89C797.53 171.31 780.09 181.73 762.64 192.14C763.04 192.19 763.43 192.24 763.83 192.29C751 181.55 738.16 170.82 725.33 160.08C725.03 159.83 724.5 159.65 724.14 159.93C710.88 169.89 697.62 179.86 684.36 189.82C684.81 189.94 685.25 190.05 685.7 190.17C679 180.54 672.3 170.92 665.61 161.29C665.25 160.78 664.55 160.62 664.07 161.09C655.38 169.7 646.69 178.32 638 186.93C637.1 187.82 638.49 189.2 639.39 188.32C648.08 179.71 656.77 171.09 665.46 162.48C664.95 162.41 664.43 162.35 663.92 162.28C670.62 171.91 677.32 181.53 684.01 191.16C684.29 191.56 684.9 191.85 685.35 191.51C698.61 181.55 711.87 171.58 725.13 161.62C724.73 161.57 724.34 161.52 723.94 161.47C736.77 172.21 749.61 182.94 762.44 193.68C762.77 193.96 763.23 194.07 763.63 193.83C781.08 183.41 798.52 172.99 815.97 162.58C815.57 162.53 815.18 162.48 814.78 162.43C822.48 168.67 830.37 174.66 838.47 180.37C842.8 183.42 847.18 186.4 851.61 189.29C853.73 190.68 856.02 192.57 858.35 193.6C859.76 194.23 860.02 193.86 861.55 193.16C878.51 185.4 894.09 174.76 907.19 161.47C906.73 161.47 906.27 161.47 905.8 161.47C920.83 173.66 936.95 184.42 953.86 193.83C954.27 194.06 954.71 193.97 955.05 193.68C962.27 187.5 969.97 181.95 977.73 176.47C981.47 173.83 985.21 171.21 988.93 168.55C992.19 166.22 996.91 161.23 1001.3 162.33C1003.46 162.87 1005.57 164.79 1007.4 166.04C1009.24 167.29 1011.06 168.57 1012.86 169.86C1016.49 172.46 1020.06 175.13 1023.61 177.85C1030.56 183.17 1037.41 188.61 1044.44 193.82C1044.72 194.03 1045.15 193.98 1045.43 193.82C1061.13 185.08 1076.87 175.27 1088.7 161.52C1088.24 161.52 1087.78 161.52 1087.31 161.52C1102.89 173.76 1119.56 184.5 1137.03 193.82C1137.32 193.97 1137.74 194.03 1138.02 193.82C1146.1 187.85 1154.17 181.88 1162.25 175.91C1166.2 172.99 1170.15 170.07 1174.11 167.14C1175.72 165.95 1178.5 162.94 1180.65 163.09C1182.79 163.23 1185.61 165.19 1187.54 166.18C1194.49 169.75 1200.61 174.54 1206.66 179.42C1209.58 181.78 1212.49 184.17 1215.54 186.38C1219.38 189.16 1223.75 191.07 1227.62 193.82C1227.9 194.02 1228.32 193.98 1228.61 193.82C1238.54 188.26 1247.76 181.65 1256.79 174.76C1261.09 171.48 1265.32 167.58 1269.94 164.75C1271.15 164.01 1273.7 162.85 1275.21 162.85C1276.56 162.85 1277.53 163.82 1278.55 164.55C1281.17 166.44 1283.8 168.33 1286.42 170.22C1287.48 170.94 1288.46 169.25 1287.44 168.52Z" fill="white"/>
<path d="M777.26 0.379944C769.69 13.3899 762.41 26.72 758.45 41.08C756.64 47.67 755.54 54.4099 754.45 61.1299C751.4 79.8799 748.35 98.6299 745.3 117.38C744.85 120.12 744.97 123.79 747.76 124.57C749.5 125.06 751.27 124.04 752.86 123.2C758.39 120.28 764.72 119.13 770.92 118.03C785.2 115.49 799.47 112.95 813.75 110.41C813.58 109.09 812.66 108 811.79 106.97C799.44 92.2699 791.74 74.4299 786.94 56.1299C782.14 37.8299 780.1 18.98 778.08 0.199951" fill="#FCEE2E"/>
<path d="M815.89 131.38C829.72 128.87 841.46 122.6 841.46 122.6C848.28 118.84 853.61 115.15 857.23 112.46C848.39 132.66 846.65 144.11 846.92 150.96C846.95 151.82 846.65 153.88 846.16 156.61C845.56 159.94 844.84 162.45 844.71 162.86C842.6 169.61 824.68 174.4 823.63 174.67C820.74 175.11 817.86 175.56 814.97 176C810.86 176.31 806.74 176.62 802.63 176.94C794.59 177.55 793.48 178.31 779.83 180.17C776.48 180.63 771.4 181.28 765.09 181.91C753.65 182.63 744.87 183.71 738.85 184.59C735.74 185.04 733.23 185.47 730.13 184.59C722.35 182.39 718.21 174.07 716.28 169.11C710.42 160.68 705.58 154.5 702.3 150.48C696.82 143.77 693.97 140.55 693.41 139.97C689.71 136.1 688 134.95 687.96 133.79C687.96 133.79 687.98 133.51 688.06 133.26C689.56 128.17 794.96 135.18 815.89 131.38Z" fill="#FCEE2E"/>
</g>
</svg>
